<svg xmlns="http://www.w3.org/2000/svg" xmlns:xlink="http://www.w3.org/1999/xlink" viewBox="0 0 500 500"><defs><clipPath id="clip-path"><rect width="500" height="500" style="fill:none"/></clipPath><clipPath id="clip-path-2"><rect x="93.57" y="55.48" width="113.21" height="195.32" style="fill:none"/></clipPath><clipPath id="clip-path-3"><rect x="93.57" y="62.45" width="113.21" height="188.36" style="fill:none"/></clipPath><linearGradient id="New_Gradient_Swatch" x1="150.17" y1="88.27" x2="150.17" y2="80.67" gradientUnits="userSpaceOnUse"><stop offset="0" stop-color="#fff"/><stop offset="1" stop-color="#858585"/></linearGradient></defs><g style="isolation:isolate"><g id="OBJECTS"><g style="clip-path:url(#clip-path)"><path d="M476.63,388c-2.84-29.37-28.46-51.21-54.45-65.19-13.27-7.14-27.5-13.39-37.75-24.43-16.11-17.35-18.85-45.68-6.37-65.79,4.65-7.5,11-13.74,17.26-20,24.08-24.23,48.12-53.76,46.56-87.9C440.59,96.44,421,71.3,396.37,57.24S342.89,38.71,314.6,37.49c-30.53-1.32-61.74,1-90.19,12.15s-54,32-66,60.11c-10.9,25.51-9.89,54.86-2.67,81.65,1.8,6.7,4,13.51,3.3,20.4-1.32,13.06-12.82,23-25.1,27.64s-25.64,5.22-38.5,7.85C72.85,251.92,50.76,263.87,39,283.68c-8.91,15-11.17,33.05-11,50.49.2,19.91,3.6,40.5,14.73,57,13.61,20.22,36.72,31.59,59,41.39L91,422.79c105,41.3,137.74,65.27,266.22,53.88,41.37-3.67,64.24-11,99.13-33.34C475.86,430.83,478.87,411.11,476.63,388Z" style="fill:#c5e6d5"/><path d="M300,342c-91.31-12.24-182.62-5-266.42,30.12a76.62,76.62,0,0,0,9.16,19.06c13.61,20.22,36.72,31.59,59,41.39L91,422.79c105,41.3,137.74,65.27,266.22,53.88,41.37-3.67,64.24-11,99.13-33.34,13.93-8.91,19.45-21.51,20.66-36.37C422.7,374.31,363.24,350.78,300,342Z" style="fill:#6a8583"/><path d="M391,105.58a26.51,26.51,0,1,0-45.21,0Z" style="fill:#fff"/><path d="M357.17,105.58a16.15,16.15,0,1,0-31,0Z" style="fill:#fff"/><path d="M410,105.58a13.58,13.58,0,1,0-25.57,0Z" style="fill:#fff"/><path d="M433.65,202.94a26.5,26.5,0,1,0-45.21,0Z" style="fill:#fff"/><path d="M399.8,202.94a16.15,16.15,0,1,0-31,0Z" style="fill:#fff"/><path d="M452.65,202.94a13.57,13.57,0,1,0-25.56,0Z" style="fill:#fff"/><path d="M246.47,120a32.21,32.21,0,1,0-54.93,0Z" style="fill:#fff"/><path d="M205.34,120a19.62,19.62,0,1,0-37.64,0Z" style="fill:#fff"/><path d="M269.57,120a16.5,16.5,0,1,0-31.07,0Z" style="fill:#fff"/><path d="M321.1,166.12a19.69,19.69,0,1,0-33.6,0Z" style="fill:#fff"/><path d="M295.94,166.12a12,12,0,1,0-23,0Z" style="fill:#fff"/><path d="M335.23,166.12a10.09,10.09,0,1,0-19,0Z" style="fill:#fff"/><path d="M268.4,205.09a15,15,0,1,0-25.61,0Z" style="fill:#fff"/><path d="M249.22,205.09a9,9,0,0,0,.37-2.56,9.15,9.15,0,1,0-18.29,0,9,9,0,0,0,.38,2.56Z" style="fill:#fff"/><path d="M279.16,205.09a7.49,7.49,0,0,0,.45-2.56,7.69,7.69,0,1,0-14.93,2.56Z" style="fill:#fff"/><path d="M367.22,300.79c-1.29-4-3.06-7.87-3.58-12s.24-8.69-1-12.79c-.94-3.09-3-5.78-3.77-8.91-.65-2.49-.48-5.11-.56-7.69-.28-8.65-3.47-17-3.62-25.68s2.6-17.56-.73-25.46c-1.65-3.93-4.72-7.25-5.69-11.4-.67-2.92-.24-6.05-1.16-8.9-1.11-3.45-4-6-5.39-9.39a22.61,22.61,0,0,1-1.26-6.8q-.7-8.82-1.42-17.63a7.32,7.32,0,0,0-1.05-3.89c-1.84-2.51-6.09-1.6-8,.86s-2.19,5.74-2.66,8.81c-1.24,8-4.21,15.52-6.56,23.21a105.07,105.07,0,0,0-4.92,27.64c-.07,2.64,0,5.4-1.17,7.78-1,2-2.71,3.63-3.5,5.73-1.65,4.43,1.33,10-1.44,13.86-2.27,3.14-7.28,3.29-9.46,6.49-2.28,3.36-.39,8.5-3,11.59-.87,1-2.14,1.66-3,2.73-2.73,3.53,1,8.72-.16,13a16.47,16.47,0,0,1-2.12,4.1c-5.21,8.82-2.52,21.43,5.83,27.36l-9.15,4.42c-3.54,3.16-3.63,8.9-1.5,13.13s6,7.3,9.68,10.24L313,343.93c3,2.36,6.05,4.76,9.63,6.07,5.25,1.92,11.06,1.3,16.59.48,9.52-1.42,19.93-4,25.38-11.92a28.11,28.11,0,0,0,4-10A53.94,53.94,0,0,0,367.22,300.79Z" style="fill:#65ce95"/><path d="M322.84,222.52a4.4,4.4,0,0,1,1,5c-8,15-7,31,5,45,10,11,4,29,2,45,10-18,23-38,10-60-3-4,0-11,2-16,5-12-8-20-14-29-2-4,9-5,11-10,3-8-4-13-8-19s4-16,0-22c-1.62-3.24-3.53-1.82-4.95.8-1.41,7.07-4,13.88-6.11,20.78-.79,2.61-1.51,5.23-2.14,7.88.45,3.18.88,6.36,1.2,9.54C319.84,206.52,312.84,218.52,322.84,222.52Z" style="fill:#5dc187"/><path d="M272,282.84c-.87-2.7-2.06-5.33-2.42-8.14s.17-5.88-.67-8.66c-.64-2.09-2-3.91-2.56-6a23.84,23.84,0,0,1-.37-5.21c-.19-5.85-2.35-11.52-2.46-17.38s1.77-11.88-.49-17.22c-1.12-2.66-3.19-4.91-3.84-7.72-.46-2-.17-4.09-.79-6-.75-2.34-2.73-4.09-3.65-6.36a15.53,15.53,0,0,1-.85-4.6l-1-11.93a5,5,0,0,0-.71-2.63c-1.25-1.69-4.13-1.08-5.41.58s-1.48,3.89-1.8,6c-.84,5.38-2.85,10.49-4.44,15.7a71.41,71.41,0,0,0-3.33,18.7,13,13,0,0,1-.79,5.27c-.66,1.37-1.84,2.45-2.37,3.87-1.11,3,.9,6.79-1,9.39-1.54,2.12-4.93,2.22-6.4,4.39s-.27,5.75-2.05,7.84c-.59.69-1.45,1.12-2,1.84-1.85,2.39.66,5.9-.11,8.82a11.1,11.1,0,0,1-1.43,2.78,14.48,14.48,0,0,0,3.94,18.51l-6.19,3c-2.4,2.13-2.45,6-1,8.88s4,4.94,6.55,6.93L235.33,312a24.64,24.64,0,0,0,6.52,4.11c3.56,1.3,7.49.88,11.23.32,6.44-1,13.49-2.69,17.17-8.06a18.92,18.92,0,0,0,2.68-6.78A36.4,36.4,0,0,0,272,282.84Z" style="fill:#65ce95"/><path d="M242,229.87a3,3,0,0,1,.68,3.39c-5.42,10.15-4.74,21,3.38,30.45,6.77,7.44,2.71,19.62,1.35,30.45,6.77-12.18,15.57-25.72,6.77-40.6-2-2.71,0-7.45,1.35-10.83,3.39-8.12-5.41-13.53-9.47-19.63-1.35-2.7,6.09-3.38,7.44-6.76,2-5.42-2.7-8.8-5.41-12.86s2.71-10.83,0-14.89c-1.09-2.19-2.39-1.22-3.34.55-1,4.79-2.71,9.39-4.14,14.06q-.81,2.64-1.45,5.33c.31,2.15.6,4.3.81,6.45C239.94,219,235.2,227.17,242,229.87Z" style="fill:#5dc187"/><image width="1394" height="373" transform="translate(117.76 350.32) scale(0.24)" xlink:href="app_user1.png" style="mix-blend-mode:multiply"/><path d="M372.36,320.23s-1.73-5,0-6.75,9-2.83,12.89-1.11,3.77,7.08,1.88,9.12-8.17,4.09-9.9,4.4S372.36,320.23,372.36,320.23Z" style="fill:#ffe41f"/><polygon points="230.68 404.91 153.61 375.67 153.61 340.78 258.29 357.95 230.68 404.91"/><path d="M257.9,361.78h0a5.15,5.15,0,0,1,1.4-.2c6.86,0,12.42,13.62,12.42,30.43s-5.56,30.43-12.42,30.43l-20.11,1.4V363Z" style="fill:#232323"/><ellipse cx="239.19" cy="393.41" rx="12.42" ry="30.43" style="fill:#333"/><ellipse cx="238" cy="393.41" rx="7.32" ry="20.87" style="fill:#ccc"/><ellipse cx="236.49" cy="393.41" rx="2.71" ry="7.72" style="fill:#efefef"/><path d="M381.43,354.76h0a5.15,5.15,0,0,1,1.4-.2c6.86,0,12.42,13.63,12.42,30.43s-5.56,30.44-12.42,30.44l-20.11,1.4V356Z" style="fill:#232323"/><ellipse cx="362.72" cy="386.39" rx="12.42" ry="30.43" style="fill:#333"/><ellipse cx="361.53" cy="386.39" rx="7.32" ry="20.87" style="fill:#ccc"/><ellipse cx="360.02" cy="386.39" rx="2.71" ry="7.72" style="fill:#efefef"/><path d="M178.77,345h0a3.78,3.78,0,0,1,1.06-.16c5.18,0,9.38,11.4,9.38,25.47s-4.2,25.46-9.38,25.46l-15.21,1.17V346Z" style="fill:#232323"/><ellipse cx="164.62" cy="371.43" rx="9.39" ry="25.47" style="fill:#333"/><ellipse cx="163.72" cy="371.43" rx="5.54" ry="17.46" style="fill:#ccc"/><ellipse cx="162.57" cy="371.43" rx="2.05" ry="6.46" style="fill:#efefef"/><polygon points="292.32 277.83 282.02 261.8 233.22 261.8 230.31 277.83 292.32 277.83" style="fill:#232323"/><path d="M423.4,404.2s-4.4,4.72-18.86,6.13-98.39,8-117.25,8A130.61,130.61,0,0,1,251.77,413s-3.38-31.9-6.92-42.75S230.94,358,227.41,365.3s-3.3,29.23,0,40.79C205.72,397.36,172,387.23,172,387.23s-2.35-26.17-6.6-34.9-9.31-6.36-10.25-.82,0,27.58,0,27.58l-4.6-3.89s-1.18-45.26-1.18-50.21,20.51-15.8,20.51-15.8,16.5-20.51,25.94-26.17,20.51-6.84,46.91-7.54,54.46.47,67,0,30.88,13.43,43.85,23.81,24,22.39,27.9,24.28,31,18.16,34.57,23.22,6.29,13.87,7.39,29.43S424.66,400.27,423.4,404.2Z" style="fill:#f4c500"/><path d="M221.51,281.13A37.76,37.76,0,0,0,202.18,280c8.46-3.11,19.75-4,40.55-4.51,26.41-.71,54.46.47,67,0,5.17-.2,11.35,2.07,17.74,5.54-.74.9-3.09,1.53-6.66,1.53-5.66,0-63.3,1.06-76.62,1.06S227.64,284,221.51,281.13Z" style="fill:#ffe41f"/><path d="M244.54,336.14c-1.26-2.82.9-11.23.9-11.23l124.37-1.22a22.12,22.12,0,0,0,9-2,15,15,0,0,0,2.67,1.85c3.14,1.51,21.11,12.25,30,19.07-.38,3.31-3.56,7.37-17,7.18-22.47-.32-90.22,4.09-104.68,4.09s-17.6-.79-28.29-6.13S245.8,339,244.54,336.14Z" style="fill:#ffe41f"/><path d="M305.44,375.67s-11-18.62-14-19.21-32.07-2-37.49-5.78c5.3,14.15,7.78,15.45,19,18.63S305.44,375.67,305.44,375.67Z" style="fill:#efefef"/><path d="M289.1,360.23c-2.55-.49-23-1.55-33-4.06-.7-1.58-1.42-3.39-2.21-5.49,5.42,3.78,34.42,5.19,37.49,5.78s14,19.21,14,19.21-2-.3-5.1-.8C296.88,369.31,291.17,360.63,289.1,360.23Z" style="fill:#dbdbdb"/><path d="M253.93,350.68c2,1.39,7.21,2.46,13.14,3.29l2.16,14.25C261.08,365.63,258.6,363.13,253.93,350.68Z" style="fill:#ea952f"/><path d="M415.7,347.42a24.32,24.32,0,0,1,2.08,3.58c-.45,15.89-19.21,19.25-19.21,19.25,1.41-12.1.78-14.46,8.33-18.94,4.45-2.64,5.56-5.2,5.73-6.85A18.36,18.36,0,0,1,415.7,347.42Z" style="fill:#efefef"/><path d="M416.77,350.46a19.16,19.16,0,0,0-3.07-3c-.17,1.66-1.29,4.22-5.73,6.86-6.79,4-7,6.34-8,15.56-.89.24-1.44.34-1.44.34,1.41-12.1.78-14.46,8.33-18.94,4.45-2.64,5.56-5.2,5.73-6.85a18.36,18.36,0,0,1,3.07,3,24.32,24.32,0,0,1,2.08,3.58c0,.32,0,.62-.06.92C417.41,351.41,417.09,350.91,416.77,350.46Z" style="fill:#dbdbdb"/><path d="M412.63,344.46a18.36,18.36,0,0,1,3.07,3,24.32,24.32,0,0,1,2.08,3.58,17.22,17.22,0,0,1-3,9.39,36.73,36.73,0,0,0-4-12.16A6.8,6.8,0,0,0,412.63,344.46Z" style="fill:#ea952f"/><path d="M387,358,315.91,361a3.11,3.11,0,0,0-2.13,5.23l9.15,9.74a3.08,3.08,0,0,0,2.41,1l58.53-2.66a3.11,3.11,0,0,0,2.8-2.12L390.06,362A3.11,3.11,0,0,0,387,358Z" style="fill:#232323"/><path d="M395.11,392.72l-76.3,3.84a4.8,4.8,0,0,0-4.26,6.46l1.21,3.28a4.81,4.81,0,0,0,4.78,3.12l74.58-4.3a4.79,4.79,0,0,0,4.44-3.92l.52-2.83A4.8,4.8,0,0,0,395.11,392.72Z" style="fill:#232323"/><path d="M302.14,406.09S290.35,387.93,268,391.23C270.32,404.2,272.63,403.39,302.14,406.09Z" style="fill:#232323"/><path d="M406.82,401s.94-13.56,14.62-17.57C421,395.48,420,398.07,406.82,401Z" style="fill:#232323"/><path d="M223.52,292.69c5.77,10.25,4.36,36.38,4.36,36.38l-26.64-7.43c1.72-16.08,9-31.09,11.69-36.25C218.16,286.67,221.93,289.87,223.52,292.69Z" style="fill:#232323"/><path d="M173.81,314s9.12-19,22.63-26.09a24.39,24.39,0,0,1,13.47-3c-6.79,10-11.87,26.48-14.25,35.19Z" style="fill:#232323"/><path d="M327.37,285.61l-94.15,1.5s1.26,27.1,11.79,39.72c32.85,0,116.78-2.32,122.91-2.47s7.7-2.05,4.24-4.88-30.65-26.4-34.89-29.86S329.88,285.57,327.37,285.61Z" style="fill:#232323"/><path d="M160.12,314.91c16,5.13,66.93,21.46,80.65,26.74,16.34,6.28,16.34,37.4,18.86,55.24,1.43,10.13,7.7,16.68,12.85,20.46A129.35,129.35,0,0,1,251.77,413s-3.38-31.9-6.92-42.75S230.94,358,227.41,365.3s-3.3,29.23,0,40.79C205.72,397.36,172,387.23,172,387.23s-2.35-26.17-6.6-34.9-9.31-6.36-10.25-.82,0,27.58,0,27.58l-4.6-3.89s-1.18-45.26-1.18-50.21C149.37,322.43,154.83,318.31,160.12,314.91Z" style="fill:#f2b800"/><path d="M418.84,356a18.31,18.31,0,0,1-1.95,5c-.21.39-.46.76-.68,1.14a10.07,10.07,0,0,1-.74,1.1l-.78,1.06-.87,1a25.09,25.09,0,0,1-8.4,6.12c-6.31,3-13.46,3.43-20.57,4.12s-14.25,1.06-21.4,1.4-14.29.72-21.44.94-14.3.48-21.44.58c-3.57.06-7.14.1-10.68,0-1.75-.05-3.47-.17-5.27-.33s-3.55-.3-5.32-.48a168,168,0,0,1-21.06-3.4A71.45,71.45,0,0,1,268.09,371a27.73,27.73,0,0,1-9.09-5.48l1.87,2,2.11,1.71,2.28,1.47c.78.48,1.59.86,2.39,1.3a68,68,0,0,0,10.1,4q5.21,1.56,10.51,2.68c3.54.74,7.11,1.32,10.68,1.85s7.11,1,10.82,1.19,7.23.23,10.83.26c7.19,0,14.38-.16,21.56-.39,14.36-.57,28.71-1.43,43-3.18,3.58-.49,7.14-.92,10.72-1.69l2.69-.63c.89-.24,1.76-.57,2.63-.85.44-.15.88-.28,1.31-.45l1.27-.57a19.58,19.58,0,0,0,2.48-1.21,25.81,25.81,0,0,0,8.36-7.1A20.85,20.85,0,0,0,418.84,356Z" style="fill:#ffe41f"/><path d="M160.42,314.72,238,340.61l-82.24-22.72C157.24,316.8,158.84,315.73,160.42,314.72Z" style="fill:#ffe41f"/><polygon points="225.21 392.71 170.76 376.42 225.58 396.43 225.21 392.71" style="fill:#ffe41f"/><path d="M231.92,329s-4.95-.58-5.73-2.31.63-10.38-7.47-10.22-15.56-.08-17.13,3.22,2.36,10.53,8.49,11.4,14.46-.94,15.4.55,1.26,3.69,3.3,3.69,3.38-.55,3.93-2.28S232.35,329.05,231.92,329Z" style="fill:#ffe41f"/><path d="M304.76,286l22.61-.36c2.51,0,5.66.55,9.9,4s31.44,27,34.89,29.86c3.23,2.65,2.07,4.47-3.1,4.82-18.15-4.62-54.87-14-54.81-14.17C311.65,300.73,306.93,290.48,304.76,286Z" style="fill:#353535"/><path d="M308,309.27c-14.31-2-28.35-5-28.35-5s5.84-13.52,16.29-18.13l4.89-.08A79.92,79.92,0,0,1,308,309.27Z" style="fill:#353535"/><path d="M56.1,285.7s-12-2.26-14.06,5.85.39,20.77,10.28,29.35,65.74,21.24,68.22,20.22,8-5.87,9-7.88,2.18-10-1.89-12.92S56.1,285.7,56.1,285.7Z" style="fill:#7faedd"/><path d="M142.19,186.49l-70.7,14.3-4.8,101.7L-8.53,457.66v63.9l5.27,6.12h44C68,460.14,127,317.3,142.64,307.37c20.59-13,59.78-25.82,79.73-64C223.37,241.42,142.19,186.49,142.19,186.49Z" style="fill:#ffb683"/><path d="M199.66,264.9s-2.91,7.27-43.64,9.31-64.87,3-73-14.22,6.69-60.05,9.6-64.37C108.38,210.11,199.66,264.9,199.66,264.9Z" style="fill:#f7ac79"/><path d="M170.3,292.21c-1.38.74-22.85,12-41.43,8.76a202.36,202.36,0,0,1-36.26-10.18s15.42,9.31,16.58,16S14,499.07,14,499.07s98.41-184.42,103.36-185.59c3-.7,13.66-2.09,26.49-6.84C151.08,302.2,160.39,297.72,170.3,292.21Z" style="fill:#f7ac79"/><rect x="88.69" y="39.27" width="122.7" height="229.05" rx="15.53" style="fill:#232323"/><rect x="210.65" y="70.6" width="3.02" height="20.83"/><rect x="210.65" y="93.3" width="3.02" height="20.83"/><rect x="210.65" y="115.99" width="3.02" height="20.83"/><path d="M195.86,269H104.21A16.27,16.27,0,0,1,88,252.79v-198a16.27,16.27,0,0,1,16.25-16.25h91.65a16.27,16.27,0,0,1,16.25,16.25v198A16.27,16.27,0,0,1,195.86,269ZM104.21,40a14.82,14.82,0,0,0-14.8,14.8v198a14.82,14.82,0,0,0,14.8,14.8h91.65a14.81,14.81,0,0,0,14.79-14.8v-198A14.81,14.81,0,0,0,195.86,40Z" style="fill:#7c7c7c"/><path d="M170,50.31a4.34,4.34,0,0,1,.14,1.09c0,2.42-2,2.57-4.39,2.57H134.33c-2.42,0-4.39-.15-4.39-2.57a4.34,4.34,0,0,1,.14-1.09H93.57v200H206.5v-200Z"/><g style="clip-path:url(#clip-path-2)"><rect x="93.57" y="62.45" width="113.21" height="188.36" style="fill:#eeeaee"/><g style="clip-path:url(#clip-path-3)"><polygon points="92.27 77.88 92.27 103 115.26 105.23 118.72 87.68 112.47 87.8 111.61 95.71 104.11 96.89 97.68 78.9 92.27 77.88" style="fill:#f4e4d7"/><path d="M180.51,224.31s5.5-5,5.26-8.69-10.63-12.79-10.63-12.79L165,192.14l-26.78,28.1L158,240.59l21.51-4.68Z" style="fill:#f4e4d7"/><path d="M180.51,224.31s.37-7.41-2.37-9.51-8.38-4.27-11.84-2.29-8.34,6.55-4.94,12.3,9.7,5.44,14.52,3S180.51,224.31,180.51,224.31Z" style="fill:#deead5"/><path d="M175.14,202.35,188.73,187s4.88,3.8,4.45,5.6-1.89,8.52-1,10.2,5.38,5.67,5.38,5.67l-1.34,8.69-1,6.83Z" style="fill:#deead5"/><path d="M121.93,237.78l4.7,19.4,6.07,1.15s3-8.59,4.54-10.51,15.57-12.41,15.57-12.41l-15-15.17Z" style="fill:#deead5"/><path d="M165.25,131.93l19.84,17.21-12.15,12.18L161.36,150.4a17.75,17.75,0,0,0,1.36-5.25C162.84,142.68,165.25,131.93,165.25,131.93Z" style="fill:#f4e4d7"/><path d="M120.24,117.87l7.8-1.13.59,5.24,20.82,5.58s-6.11,5.6-6.76,6.41-1.39,2.41.59,3.15,3.28,1.07,3.28,1.07L130.8,148.33s-5.13-5.1-6.49-5.71-3.82-.87-9.88,5.13-9.62,5.78-11.66,3.94-4.85-6.45-4.85-6.45l7.76-5.65L101.82,119,114,109.4,112,118.73Z" style="fill:#deead5"/><polygon points="157.84 76.5 153.31 95.24 127.24 111.97 122.12 77.86 157.84 76.5" style="fill:#f4e4d7"/><polygon points="91.42 263.82 88.4 261.08 210.18 133.69 213.21 136.44 91.42 263.82" style="fill:#fff"/><polygon points="93.57 271.71 90.3 268.5 217.18 135.78 220.45 138.99 93.57 271.71" style="fill:#fff"/><path d="M165.52,114.11,154,108.82a2.38,2.38,0,0,1-1.33-2.7l7.56-32.39L156.81,73l-7.56,32.38a5.85,5.85,0,0,0,3.26,6.64l11.57,5.29a2.15,2.15,0,0,1,1.22,2.28l-4.41,27.7a2.66,2.66,0,0,1-2.49,2.23l-24.19,1.17-7.12-7.95a6.74,6.74,0,0,0-9.47-.55L108.71,150a3.88,3.88,0,0,1-5.73-.65L88.62,129.15l-2.83,2,14.37,20.23A7.34,7.34,0,0,0,111,152.62l8.9-7.88a3.28,3.28,0,0,1,4.6.26l9.72,10.85a2.22,2.22,0,0,1,.32,2.47l-4.15,8.14a5.17,5.17,0,0,0,.69,5.74l21,24.52,2.62-2.25-21-24.52a1.73,1.73,0,0,1-.23-1.92l4.14-8.14a5.69,5.69,0,0,0-.48-5.93l21.42-1a6.15,6.15,0,0,0,5.74-5.14l4.41-27.69A5.61,5.61,0,0,0,165.52,114.11Z" style="fill:#fff"/><path d="M164.26,131.43a1.72,1.72,0,0,1,.24-.88l-35.05-8.92-7-45.87L121,76l7.12,46.83,36.15,9.2C164.27,131.83,164.26,131.64,164.26,131.43Z" style="fill:#fff"/><path d="M177.86,141.55a1.73,1.73,0,0,1-.83,1.25l14.12,12.28,1-1.12Z" style="fill:#fff"/><polygon points="126.26 104.08 125.68 103.28 138.13 94.36 142.97 77.88 143.92 78.16 138.98 94.97 126.26 104.08" style="fill:#fff"/><polygon points="111.39 119.46 118.17 88.24 112.97 88.24 112.32 96.23 103.45 98.04 96.89 78.17 97.83 77.86 104.11 96.89 111.4 95.41 112.06 87.25 119.39 87.25 112.65 118.31 127.92 116.42 128.04 117.4 111.39 119.46" style="fill:#fff"/><polygon points="98.24 145.7 97.68 144.88 105.22 139.75 101.32 118.68 113.82 108.8 114.43 109.58 102.4 119.09 106.31 140.21 98.24 145.7" style="fill:#fff"/><path d="M104.77,134.87l-.09-1,11-1.07a5.51,5.51,0,0,0,4.93-6l-.88-8.89,1-.1.88,8.89a6.48,6.48,0,0,1-5.82,7.09Z" style="fill:#fff"/><path d="M155.67,151.69l-7.29-6.37,3.19-3.17a1.52,1.52,0,0,0-.7-2.56l-7.65-1.91a2.22,2.22,0,0,1-1-3.73l6.82-6.84.7.7-6.82,6.84a1.22,1.22,0,0,0-.32,1.2,1.24,1.24,0,0,0,.9.88l7.65,1.91a2.47,2.47,0,0,1,1.81,1.76,2.5,2.5,0,0,1-.65,2.45l-2.44,2.42,6.49,5.67Z" style="fill:#fff"/><rect x="124.81" y="103.15" width="30.97" height="0.99" transform="translate(-33.71 91.55) rotate(-32.48)" style="fill:#fff"/><rect x="128.56" y="142.86" width="19.48" height="0.99" transform="translate(-56.15 100.16) rotate(-33.5)" style="fill:#fff"/><rect x="107.45" y="86.23" width="1.48" height="36.63" transform="translate(-7.39 200.86) rotate(-83.82)" style="fill:#fff"/><rect x="169.2" y="146.23" width="1.98" height="25.12" transform="translate(-61.9 176.48) rotate(-47.37)" style="fill:#fff"/><polygon points="166.82 123.7 166.27 121.8 194.15 113.84 197.06 77.94 199.03 78.1 196.01 115.36 166.82 123.7" style="fill:#fff"/><rect x="192.01" y="114.16" width="1.98" height="31.82" transform="translate(-35.19 175.85) rotate(-45.32)" style="fill:#fff"/><polygon points="177.74 142.52 176.49 142.33 191.93 128.96 192.57 129.71 177.74 142.52" style="fill:#fff"/><rect x="170.4" y="154.67" width="17.44" height="0.99" transform="translate(-57.2 172.83) rotate(-45.18)" style="fill:#fff"/><path d="M141.27,181.4l-.68-.72,8.44-8.1a2.52,2.52,0,0,1,1.93-.71,2.55,2.55,0,0,1,1.83.95l2.1,2.62a2.15,2.15,0,0,0,3.2.17l4.07-4.07a2.55,2.55,0,0,1,3.67.06l4.72,5-.72.68-4.72-5a1.54,1.54,0,0,0-1.12-.5,1.5,1.5,0,0,0-1.13.46l-4.07,4.07a3.14,3.14,0,0,1-4.67-.25l-2.1-2.62a1.58,1.58,0,0,0-2.31-.15Z" style="fill:#fff"/><path d="M105.73,207.21a3.68,3.68,0,0,1,.21-5.17l4.64-4.33a7.21,7.21,0,0,0,.46-10L89.93,164.05l-3,2.63,21.11,23.64a3.24,3.24,0,0,1-.2,4.5l-4.65,4.33a7.65,7.65,0,0,0-.43,10.73L121,229.7l2.92-2.67Z" style="fill:#fff"/><polygon points="105.91 184.49 104.95 184.25 108.18 171.42 91.55 152.74 92.29 152.08 109.27 171.15 105.91 184.49" style="fill:#fff"/><path d="M142.32,206.07l-10.87-11.89a3.63,3.63,0,0,1-.36-4.43l1.91-2.91a2.42,2.42,0,0,0-.18-2.87l-26.36-31,.75-.64,26.36,31a3.41,3.41,0,0,1,.26,4l-1.91,2.92a2.62,2.62,0,0,0,.26,3.21l10.87,11.89Z" style="fill:#fff"/><rect x="106.86" y="205" width="30.25" height="0.99" transform="translate(-108.26 141.5) rotate(-43.77)" style="fill:#fff"/><path d="M125.56,202l-8.23-10a3.52,3.52,0,0,1,.42-4.91l3.3-2.83-4.46-5.3a3.71,3.71,0,0,1,.53-5.31l4.55-3.62.62.78-4.56,3.61a2.77,2.77,0,0,0-1,1.87,2.72,2.72,0,0,0,.63,2l5.1,6.05-4,3.47a2.53,2.53,0,0,0-.3,3.53l8.24,10Z" style="fill:#fff"/><rect x="184.65" y="71.86" width="0.99" height="30.62" transform="translate(-3.93 165.45) rotate(-47.7)" style="fill:#fff"/><rect x="152.94" y="98.75" width="36.61" height="0.99" transform="translate(-15.03 166.15) rotate(-49.85)" style="fill:#fff"/><path d="M108.65,228.37h-.1a4.44,4.44,0,0,1-3.29-1.56l-6.52-7.66a2.37,2.37,0,0,0-1.7-.84,2.4,2.4,0,0,0-1.78.63l-5.81,5.36-.67-.72,5.81-5.37a3.41,3.41,0,0,1,4.9.3l6.52,7.66a3.47,3.47,0,0,0,2.56,1.21,3.43,3.43,0,0,0,2.61-1.1l4.66-5,.73.67-4.66,5A4.46,4.46,0,0,1,108.65,228.37Z" style="fill:#fff"/><path d="M187.81,215.77c-.19-4.6-3.73-7.44-4.68-8.12L166.86,191l-.08.05a3.58,3.58,0,0,0-1,.66h0l-.11.12-.22.23-.08.1-.42.57c0,.06-.07.11-.1.16s-.11.18-.16.27-.07.11-.1.16h0c-.22.38-.41.77-.59,1.16l16,16.39.37.31s2.78,1.88,2.89,4.73a6.32,6.32,0,0,1-1.14,3.65c-.68-3.82-2.19-6.61-4.53-8.33a11.62,11.62,0,0,0-9.92-1.52,13.33,13.33,0,0,0-8.85,7.15,10.93,10.93,0,0,0,3.36,12.83c4.15,3.28,9.86,3.13,15.61-.29-1.56,14-8.95,33.33-12.86,42l-.51,1.13,4.06,1.82.51-1.13c.54-1.19,13-29.17,13.52-47.41C186.2,222.59,188,219.19,187.81,215.77ZM163,218.72a8.88,8.88,0,0,1,5.93-4.67,9.38,9.38,0,0,1,2.37-.32,6.34,6.34,0,0,1,3.78,1.13c2,1.45,3,4.46,3.12,9l-.42.34c-7,5.39-11.24,3.25-12.72,2.08A6.51,6.51,0,0,1,163,218.72Z" style="fill:#fff"/><path d="M201.21,237.47A20.7,20.7,0,0,0,182.56,233l-23.86,6-20.4-20.56-2.45,2.44,21.78,21.95,25.77-6.44a17.24,17.24,0,0,1,15.53,3.76l10.42,9.14,2.28-2.6Z" style="fill:#fff"/><path d="M128.63,270.18l-.92-.36,7.58-19.61a8.82,8.82,0,0,1,2.79-3.76l14.52-11.31.61.78-14.52,11.31a7.86,7.86,0,0,0-2.48,3.33Z" style="fill:#fff"/><path d="M208.28,218.7l-15.05-12.82a5.32,5.32,0,0,1-1.76-5.15l1.2-5.71a5,5,0,0,0-1.45-4.61l-13.08-12.35,1-1.07,13.09,12.34a6.46,6.46,0,0,1,1.88,6l-1.2,5.71a3.84,3.84,0,0,0,1.27,3.71l15.05,12.82Z" style="fill:#fff"/><polygon points="207.61 235.91 194.55 224.55 196.94 208.41 197.92 208.56 195.61 224.16 208.26 235.16 207.61 235.91" style="fill:#fff"/><polygon points="190.2 188.41 189.47 187.75 198.75 177.47 194.46 170.42 209.38 154.19 210.11 154.86 195.69 170.54 199.98 177.58 190.2 188.41" style="fill:#fff"/><path d="M158.57,271.36l-1-.16,1.93-11.8A6.07,6.07,0,0,0,156.1,253l-15.77-7.34.42-.89,15.77,7.34a7,7,0,0,1,4,7.5Z" style="fill:#fff"/><path d="M208.65,264.09l-6-6.07a3.45,3.45,0,0,0-3.07-.95L188,259.27A4.36,4.36,0,0,1,182.8,255v-3.44l-6.73-3.85.5-.86,7.22,4.14v4a3.39,3.39,0,0,0,4,3.32l11.57-2.2a4.41,4.41,0,0,1,3.95,1.23l6,6.06Z" style="fill:#fff"/><polygon points="106.18 270.32 105.43 269.68 118.1 254.96 132.82 257.74 132.63 258.71 118.47 256.04 106.18 270.32" style="fill:#fff"/><rect x="135.5" y="261.32" width="24.35" height="0.99" transform="matrix(0.31, -0.95, 0.95, 0.31, -147.17, 320.3)" style="fill:#fff"/><rect x="123.66" y="236.76" width="0.99" height="20.59" transform="translate(-54.39 35.94) rotate(-13.54)" style="fill:#fff"/><path d="M161.42,112.38l10.18-11.56,16.06,14-19.24,5.6s1.28-3.34-.82-5A25.14,25.14,0,0,0,161.42,112.38Z" style="fill:#deead5"/><polygon points="177.36 94.6 172.48 100.16 174.6 102.03 179.51 96.39 177.36 94.6" style="fill:#f4e4d7"/><polygon points="182.01 98.47 179.97 96.78 175.11 102.48 177.21 104.33 182.01 98.47" style="fill:#f4e4d7"/><polygon points="182.42 98.82 177.63 104.7 179.76 106.58 184.5 100.55 182.42 98.82" style="fill:#f4e4d7"/><polygon points="187.38 102.96 182.69 109.17 188.73 114.5 193.43 112.89 193.74 108.26 187.38 102.96" style="fill:#f4e4d7"/><polygon points="184.88 100.87 180.15 106.93 182.27 108.8 186.97 102.61 184.88 100.87" style="fill:#f4e4d7"/><rect x="112.32" y="152.35" width="2.47" height="5.59" transform="translate(302.42 191.14) rotate(136.99)" style="fill:#f4e4d7"/><rect x="114.51" y="150.31" width="2.47" height="5.59" transform="translate(304.82 186.11) rotate(136.99)" style="fill:#f4e4d7"/><rect x="116.7" y="148.26" width="2.47" height="5.59" transform="translate(307.22 181.07) rotate(136.99)" style="fill:#f4e4d7"/><rect x="118.89" y="146.22" width="2.47" height="5.59" transform="translate(309.62 176.03) rotate(136.99)" style="fill:#f4e4d7"/><rect x="121.18" y="144.3" width="2.47" height="5.59" transform="translate(312.27 171.16) rotate(136.99)" style="fill:#f4e4d7"/><rect x="142.09" y="171.97" width="2.47" height="5.59" transform="translate(173.79 -49.19) rotate(47.1)" style="fill:#f4e4d7"/><rect x="140.05" y="169.77" width="2.47" height="5.59" transform="translate(171.53 -48.4) rotate(47.1)" style="fill:#f4e4d7"/><rect x="138.01" y="167.58" width="2.47" height="5.59" transform="translate(169.27 -47.61) rotate(47.1)" style="fill:#f4e4d7"/><rect x="135.97" y="165.38" width="2.47" height="5.59" transform="translate(167.01 -46.81) rotate(47.1)" style="fill:#f4e4d7"/><rect x="206.78" y="207.16" width="2.47" height="5.59" transform="translate(186.07 -84.78) rotate(40.48)" style="fill:#f4e4d7"/><rect x="204.5" y="205.22" width="2.47" height="5.59" transform="translate(184.26 -83.77) rotate(40.48)" style="fill:#f4e4d7"/><rect x="202.22" y="203.27" width="2.47" height="5.59" transform="translate(182.45 -82.75) rotate(40.48)" style="fill:#f4e4d7"/><rect x="199.94" y="201.32" width="2.47" height="5.59" transform="translate(180.64 -81.74) rotate(40.48)" style="fill:#f4e4d7"/><rect x="114.65" y="166.97" width="2.47" height="5.59" transform="translate(161.37 -30.69) rotate(47.1)" style="fill:#f4e4d7"/><rect x="112.61" y="164.77" width="2.47" height="5.59" transform="translate(159.11 -29.9) rotate(47.1)" style="fill:#f4e4d7"/><rect x="110.57" y="162.57" width="2.47" height="5.59" transform="translate(156.84 -29.1) rotate(47.1)" style="fill:#f4e4d7"/><rect x="108.53" y="160.38" width="2.47" height="5.59" transform="translate(154.58 -28.31) rotate(47.1)" style="fill:#f4e4d7"/><rect x="91.26" y="247.46" width="2.47" height="5.59" transform="translate(335.82 359.71) rotate(134.51)" style="fill:#f4e4d7"/><rect x="93.36" y="245.32" width="2.47" height="5.59" transform="translate(337.87 354.58) rotate(134.51)" style="fill:#f4e4d7"/><rect x="95.47" y="243.19" width="2.47" height="5.59" transform="translate(339.92 349.44) rotate(134.51)" style="fill:#f4e4d7"/><rect x="97.57" y="241.05" width="2.47" height="5.59" transform="translate(341.97 344.3) rotate(134.51)" style="fill:#f4e4d7"/><rect x="102.57" y="235.96" width="2.47" height="5.59" transform="translate(346.84 332.09) rotate(134.51)" style="fill:#f4e4d7"/><rect x="104.67" y="233.82" width="2.47" height="5.59" transform="translate(348.89 326.95) rotate(134.51)" style="fill:#f4e4d7"/><rect x="106.77" y="231.69" width="2.47" height="5.59" transform="translate(350.94 321.82) rotate(134.51)" style="fill:#f4e4d7"/><rect x="108.87" y="229.55" width="2.47" height="5.59" transform="translate(352.99 316.68) rotate(134.51)" style="fill:#f4e4d7"/><rect x="120.06" y="219.14" width="3.87" height="4.69" transform="translate(-121.56 153.53) rotate(-45.56)" style="fill:#f4e4d7"/><rect x="123.24" y="215.91" width="3.87" height="4.69" transform="translate(-118.3 154.83) rotate(-45.56)" style="fill:#f4e4d7"/><rect x="126.41" y="212.69" width="3.87" height="4.69" transform="translate(-115.05 156.12) rotate(-45.56)" style="fill:#f4e4d7"/><rect x="129.58" y="209.46" width="3.87" height="4.69" transform="translate(-111.8 157.42) rotate(-45.56)" style="fill:#f4e4d7"/><rect x="132.75" y="206.23" width="3.87" height="4.69" transform="translate(-108.54 158.72) rotate(-45.56)" style="fill:#f4e4d7"/></g><rect x="93.57" y="80.67" width="113.21" height="7.59" style="mix-blend-mode:multiply;fill:url(#New_Gradient_Swatch)"/><rect x="93.57" y="54.79" width="113.21" height="29.41" style="fill:#fff"/></g><circle cx="111.71" cy="72.31" r="7.56" style="fill:#cecece"/><path d="M115.31,70.32c.26,2.63-.79,6-3.6,6-2.46,0-3.63-2.74-3.63-5.2,0-3.06,2.5-5.4,5.13-4.1A4.11,4.11,0,0,1,115.31,70.32Z" style="fill:#fff"/><rect x="109.6" y="74.93" width="4.14" height="3.38" style="fill:#fff"/><path d="M121.12,80.83l.19-.32A7,7,0,0,0,116.42,78a3.58,3.58,0,0,1-2.67-2.1h-4.09A3.61,3.61,0,0,1,107,78a7,7,0,0,0-4.88,2.51c.06.11.13.22.2.33Z" style="fill:#fff"/><path d="M109,68.18a.71.71,0,0,0-1.13.18A5.51,5.51,0,0,0,108,71c-.18-.19-.53-.21-.5.33S107.77,73,108,73a.4.4,0,0,0,.39-.13Z" style="fill:#fff"/><path d="M114.35,68.18a.72.72,0,0,1,.71.28,5.16,5.16,0,0,1,.31,2.54c.17-.19.53-.21.5.33s-.32,1.63-.56,1.69a.4.4,0,0,1-.39-.13Z" style="fill:#fff"/><path d="M108.53,68.06a2.06,2.06,0,0,1,1-1.43c.81-.38,1.64-.48,1.8-.81a1.6,1.6,0,0,1-.11.58,2.72,2.72,0,0,1,1.37-.36,2.15,2.15,0,0,0,1.14-.22s-.07.62-.44.74a1.43,1.43,0,0,0,.76-.35,3,3,0,0,1-.2.63,2,2,0,0,0,.74-.33.55.55,0,0,1-.21.53c.62.14,2.09.93,1,3.85C114.07,71.6,108.53,68.06,108.53,68.06Z" style="fill:#fff"/><path d="M197.22,70.43H182.1a.55.55,0,0,1,0-1.1h15.12a.55.55,0,1,1,0,1.1Z" style="fill:#cecece"/><path d="M197.22,73.12H182.1a.55.55,0,0,1-.55-.55.55.55,0,0,1,.55-.55h15.12a.55.55,0,0,1,.55.55A.55.55,0,0,1,197.22,73.12Z" style="fill:#cecece"/><path d="M197.22,75.82H182.1a.55.55,0,1,1,0-1.1h15.12a.55.55,0,1,1,0,1.1Z" style="fill:#cecece"/><path d="M126.32,133.48c0,12.76,23.09,42.87,23.09,42.87s23.1-30.11,23.1-42.87a23.1,23.1,0,0,0-46.19,0Z" style="fill:#d65151"/><path d="M136,132.75a13.42,13.42,0,1,0,13.41-13.41A13.41,13.41,0,0,0,136,132.75Z" style="fill:#fff"/><path d="M83.88,217.9c-.07-6.11,15.33-38.27,11.21-55.78S80.42,140,75.53,145.65c.25,4.63-6.78,32.6-18.45,55.14s-10.3,50.91-7.55,81.79C51.08,300,19.42,362.6-8.53,414v87l3.87,1.33L98.14,304.94S84.17,243.5,83.88,217.9Z" style="fill:#ffb683"/><path d="M83.88,217.9c-.07-6.11,15.33-38.27,11.21-55.78S80.42,140,75.53,145.65c.25,4.63-6.78,32.6-18.45,55.14s-10.3,50.91-7.55,81.79C51.08,300,19.42,362.6-8.53,414v87l3.87,1.33L98.14,304.94S84.17,243.5,83.88,217.9Z" style="fill:#ffb683"/><path d="M75.53,145.65c.25,4.63-6.78,32.6-18.45,55.14s-10.3,50.91-7.55,81.79c1.39,15.68-28.39,66.22-58.06,112.19v65.88C18.65,406.8,65.2,309.27,63.86,294.28c-2.74-30.88-6.17-58.67,2.86-82.39,8.78-23.06,14.88-53.17,14.62-57.8,2.71-3.13,7.15-3.11,11.27.5C87.68,143.39,79.62,140.91,75.53,145.65Z" style="fill:#f7ac79"/><path d="M75.35,172.88c2.33-2.13,4.65-9.89,5.24-22.56-3.16-.4-4.63-1.31-5.3-1.95-.73,4.85-3.12,14.42-6.86,25.36C70,174,73.55,174.53,75.35,172.88Z" style="fill:#ffc7a1"/><path d="M210.27,144.51s-20.66,8.18-24,15.13-.7,16,7.28,16.27,28.57-5.15,33.2-11.32-1.29-17.51-5.66-20.08S210.27,144.51,210.27,144.51Z" style="fill:#ffb683"/><path d="M221.08,144.51c-3.19-1.88-7.46-1-9.55-.41a7,7,0,0,1,.82.41c4.38,2.57,10.3,13.9,5.66,20.08-3.7,4.93-17.58,9.37-27.09,10.83a8.09,8.09,0,0,0,2.62.49c8,.26,28.57-5.15,33.2-11.32S225.45,147.08,221.08,144.51Z" style="fill:#ffc197"/><path d="M186.74,162.9s3.94,8,5.23,9.33,12.56-2.41,13.75-4.66-3.48-10.8-5.5-11.06-9,2.59-11.28,3.89S186.51,162.44,186.74,162.9Z" style="fill:#ffc7a1"/><path d="M207.69,172.05s-21.27,8.19-24.61,15.14-.09,16,7.88,16.26,28.57-5.14,33.21-11.32-1.29-17.5-5.67-20.08S207.69,172.05,207.69,172.05Z" style="fill:#ffb683"/><path d="M218.5,172.05a10.13,10.13,0,0,0-6-1.08c4.19,3.54,8.9,13.61,4.62,19.31s-21.91,10.68-31,11.28a7,7,0,0,0,4.82,1.89c8,.26,28.57-5.14,33.21-11.32S222.88,174.63,218.5,172.05Z" style="fill:#ffc197"/><path d="M184.15,190.35s3.94,8,5.23,9.33,12.56-2.42,13.76-4.66-3.49-10.8-5.51-11.06-9,2.59-11.28,3.89S183.92,189.89,184.15,190.35Z" style="fill:#ffc7a1"/><path d="M207.69,196.76S187.23,205,183.88,211.9s-.89,16,7.08,16.26,28.57-5.15,33.21-11.32-1.29-17.51-5.67-20.08S207.69,196.76,207.69,196.76Z" style="fill:#ffb683"/><path d="M218.5,196.76a10.05,10.05,0,0,0-5.82-1.1c4.14,3.69,8.64,13.53,4.43,19.14S195,225.54,186,226.09a6.91,6.91,0,0,0,5,2.07c8,.26,28.57-5.15,33.21-11.32S222.88,199.33,218.5,196.76Z" style="fill:#ffc197"/><path d="M184.43,215.29s3.31,7.2,4.59,8.5,12.64-2.36,13.84-4.61-3.39-10.94-5.41-11.2-8.53,3.51-10.82,4.8S184.2,214.83,184.43,215.29Z" style="fill:#ffc7a1"/><path d="M205.89,223.27s-20.66,7.7-24,14.65-.71,16.5,7.27,16.75,28.57-5.14,33.21-11.32-1.29-17.5-5.67-20.08S205.89,223.27,205.89,223.27Z" style="fill:#ffb683"/><path d="M216.7,223.27a9.75,9.75,0,0,0-5.51-1.12c4.23,3.43,9.1,13.68,4.78,19.45s-23,11-31.79,11.32a8.28,8.28,0,0,0,5,1.75c8,.26,28.57-5.14,33.21-11.32S221.08,225.85,216.7,223.27Z" style="fill:#ffc197"/><path d="M182.5,241.12s3.18,6.93,4.47,8.23,12.56-2.42,13.76-4.67-3.49-10.8-5.51-11.06-8.22,3.7-10.51,5S182.28,240.66,182.5,241.12Z" style="fill:#ffc7a1"/><path d="M106.92,400.35s-21,90.29-51.26,150.21c-64,30.26-98.9-59.92-98.9-62.25V414.09S-5.42,351.92,9.7,353.21C28.9,363.23,106.92,400.35,106.92,400.35Z" style="fill:#9ec3ef"/><path d="M9.7,353.21c-4.28-.36-10.39,4.36-16.94,11.33a4.87,4.87,0,0,0,3,1C8.54,369,16.68,376,8.54,387.66-3.1,404-14.73,417.91-22.88,435.37-5.42,417.91,13.19,401.62,35.3,390c7,24.43-22.11,45.38-27.92,68.65,14-20.94,25.59-43.05,43.05-62.83,1.16,0,4.65-1.17,4.65,1.16,1.17,17.45-7,32.58-12.8,48.87,14-10.47,15.13-29.09,29.09-39.56,5.82-3.49,16.29-2.33,17.46,2.33,4.65,26.76-18.62,47.7-21,73.3,9-21.65,20.16-40.51,33.38-59.28,3.66-13.67,5.66-22.28,5.66-22.28S28.9,363.23,9.7,353.21Z" style="fill:#a8cff4"/><path d="M42,291.55S44.2,316.82,93.57,333c28,8.14,36,.2,36,.2l-22.63,67.11S46.36,393.23,9.7,353.21C31.23,313.77,42,291.55,42,291.55Z" style="fill:#9ec3ef"/><ellipse cx="40.12" cy="338.23" rx="8.28" ry="10.35" style="fill:#dcefff"/></g></g></g></svg>