<svg xmlns="http://www.w3.org/2000/svg" viewBox="0 0 523.68 693.54"><g id="Stand3"><rect y="496.81" width="503.77" height="196.72" style="fill:#193d6d"/><path d="M21.23,559.67A4.72,4.72,0,0,1,16.51,555V533.44a20.22,20.22,0,0,1,6-14.39,20.48,20.48,0,0,1,14.39-6H137.55a4.72,4.72,0,1,1,0,9.44H36.86A10.91,10.91,0,0,0,26,533.44V555A4.72,4.72,0,0,1,21.23,559.67Z" style="fill:#fff"/><path d="M21.23,615.91a4.72,4.72,0,0,1-4.72-4.73v-27.4a4.73,4.73,0,1,1,9.45,0v27.4A4.73,4.73,0,0,1,21.23,615.91Z" style="fill:#fff"/><circle cx="251.88" cy="595.18" r="57.27" transform="translate(-347.08 352.43) rotate(-45)" style="fill:#bf755a"/><circle cx="251.88" cy="595.18" r="47.34" style="fill:#dbb2a3;stroke:#935139;stroke-linecap:round;stroke-linejoin:round;stroke-width:2.3375px"/><path d="M230.63,588.88a1.56,1.56,0,0,1,3,0c1.07,3.29,2.44,7.49,3.07,9.44a1.57,1.57,0,0,0,1.48,1.08h9.93a1.56,1.56,0,0,1,.92,2.82l-8,5.84a1.55,1.55,0,0,0-.57,1.74c.63,2,2,6.15,3.07,9.44a1.57,1.57,0,0,1-2.41,1.75l-8-5.83a1.55,1.55,0,0,0-1.83,0l-8,5.83a1.55,1.55,0,0,1-1.83,0,1.56,1.56,0,0,1-.57-1.75c1.07-3.29,2.44-7.49,3.07-9.44a1.55,1.55,0,0,0-.57-1.74l-8-5.84a1.56,1.56,0,0,1,.92-2.82h9.92a1.57,1.57,0,0,0,1.49-1.08C228.19,596.37,229.56,592.17,230.63,588.88Z" style="fill:#bf755a;fill-rule:evenodd"/><path d="M270,588.88a1.55,1.55,0,0,1,1.48-1.09,1.57,1.57,0,0,1,1.49,1.09c1.07,3.29,2.43,7.49,3.06,9.44a1.57,1.57,0,0,0,1.49,1.08h9.93a1.56,1.56,0,0,1,.92,2.82l-8,5.84a1.55,1.55,0,0,0-.57,1.74c.63,2,2,6.15,3.06,9.44a1.56,1.56,0,0,1-2.4,1.75l-8-5.83a1.56,1.56,0,0,0-1.84,0l-8,5.83a1.55,1.55,0,0,1-1.83,0,1.56,1.56,0,0,1-.57-1.75c1.07-3.29,2.43-7.49,3.06-9.44a1.56,1.56,0,0,0-.56-1.74l-8-5.84a1.56,1.56,0,0,1,.92-2.82h9.92a1.57,1.57,0,0,0,1.49-1.08C267.52,596.37,268.88,592.17,270,588.88Z" style="fill:#bf755a;fill-rule:evenodd"/><path d="M250.39,560.46a1.56,1.56,0,0,1,3,0c1.07,3.3,2.43,7.49,3.07,9.44a1.57,1.57,0,0,0,1.48,1.08h9.93a1.54,1.54,0,0,1,1.48,1.08,1.56,1.56,0,0,1-.56,1.75c-2.81,2-6.38,4.63-8,5.83a1.56,1.56,0,0,0-.57,1.75l3.07,9.44a1.56,1.56,0,0,1-2.41,1.74l-8-5.83a1.55,1.55,0,0,0-1.83,0l-8,5.83a1.56,1.56,0,0,1-2.4-1.74l3.07-9.44a1.56,1.56,0,0,0-.57-1.75l-8-5.83a1.56,1.56,0,0,1,.92-2.83h9.92a1.57,1.57,0,0,0,1.49-1.08C248,568,249.32,563.76,250.39,560.46Z" style="fill:#bf755a;fill-rule:evenodd"/><path d="M523.68,484.43a12.39,12.39,0,0,0-12.38-12.38H0v24.77H511.3a12.39,12.39,0,0,0,12.38-12.38Z" style="fill:#0a2445;fill-rule:evenodd"/></g><g id="Bronze_Trophy" data-name="Bronze Trophy"><path d="M108.85,455.83c.94-26.72,86.53-32.33,150.83-75.45,64.71,48.62,149.89,48.8,150.83,75.45h0v16.22H108.85V455.83Z" style="fill:#bf755a;fill-rule:evenodd"/><path d="M387.86,459H131.5a2.49,2.49,0,0,1,0-5H387.86a2.49,2.49,0,1,1,0,5Z" style="fill:#935139"/><path d="M220.75,297.36s8.63,12.91,15.8,35.74c2.34,7.47,4.73,15.38,4.65,23.83s-2.74,16.32-5.14,23.83c-7.19,22.57-15.31,35.74-15.31,35.74,0,21.48,77.85,21.48,77.85,0,0,0-8.11-13.17-15.31-35.74-2.39-7.51-5.05-15.31-5.13-23.83s2.3-16.36,4.65-23.83c7.17-22.83,15.79-35.74,15.79-35.74a38.93,38.93,0,0,0-77.85,0Z" style="fill:#935139;fill-rule:evenodd"/><path d="M375.34,221.15a12.51,12.51,0,0,1-.93-25c55.53-4.2,89.94-33.23,92-77.65.68-14.33-2.84-25-10.74-32.47C438.5,69.66,406,72.61,405.66,72.65a12.51,12.51,0,0,1-2.51-24.89c1.78-.18,44.07-4.2,69.7,20.07,13.36,12.66,19.62,30.11,18.58,51.87-1.3,27.54-12.4,51.56-32.11,69.44-20.19,18.33-48.9,29.39-83,32C376,221.13,375.66,221.15,375.34,221.15Z" style="fill:#935139"/><path d="M128.43,221.15c-.32,0-.64,0-1,0-34.13-2.58-62.83-13.64-83-32-19.7-17.88-30.8-41.89-32.11-69.44-1-21.76,5.22-39.21,18.59-51.87,25.63-24.26,67.92-20.25,69.7-20.07A12.5,12.5,0,0,1,98.1,72.64c-.55,0-32.89-2.92-50,13.41-7.9,7.52-11.42,18.14-10.74,32.47,2.11,44.42,36.52,73.45,92.05,77.65a12.51,12.51,0,0,1-.93,25Z" style="fill:#935139"/><path d="M95,76.43V15.63A15.63,15.63,0,0,1,110.63,0h296a15.62,15.62,0,0,1,15.62,15.63V77.21C422,210,348.76,317.58,258.63,317.58,168.32,317.58,95,209.52,95,76.43Z" style="fill:#bf755a;fill-rule:evenodd"/><path d="M433.27,18a18,18,0,0,0-18-18H102A18,18,0,0,0,84,18h0a18,18,0,0,0,18,18H415.27a18,18,0,0,0,18-18Z" style="fill:#dbb2a3;fill-rule:evenodd"/><path d="M406,22.5H113a4.5,4.5,0,0,1,0-9H406a4.5,4.5,0,0,1,0,9Z" style="fill:#935139"/><circle cx="258.63" cy="158.79" r="83.62" transform="translate(61.41 389.46) rotate(-81.02)" style="fill:#dbb2a3"/><path d="M258.63,256.32a97.53,97.53,0,1,1,97.53-97.53A97.64,97.64,0,0,1,258.63,256.32Zm0-190.7a93.17,93.17,0,1,0,93.17,93.17A93.28,93.28,0,0,0,258.63,65.62Z" style="fill:#935139"/><path d="M255.14,148A16.74,16.74,0,0,0,266,144.38c3.09-2.53,4.64-6,4.64-10.67a13,13,0,0,0-3.65-9.13c-2.39-2.52-5.76-3.79-9.83-3.79a19.05,19.05,0,0,0-6.88,1.12,13,13,0,0,0-4.36,3.09,30.38,30.38,0,0,0-2.94,4.92c-.85,2.11-1.83,3.93-2.53,5.76a4.51,4.51,0,0,1-2.53,2.24,9.18,9.18,0,0,1-4.07.85,7,7,0,0,1-5.06-2.25,7.75,7.75,0,0,1-2.24-5.9,16.36,16.36,0,0,1,2.1-7.58,27.41,27.41,0,0,1,6.32-7.44,30.68,30.68,0,0,1,10.39-5.76,42.11,42.11,0,0,1,13.76-2.11,36.75,36.75,0,0,1,12.08,1.83,27.38,27.38,0,0,1,9.55,5.19,22.87,22.87,0,0,1,6.18,8,24.44,24.44,0,0,1,2,9.69,22.58,22.58,0,0,1-2.95,11.79,40.66,40.66,0,0,1-8.56,9.55,34.56,34.56,0,0,1,9,6.6,24.27,24.27,0,0,1,5.62,8.14,26.9,26.9,0,0,1,1.83,9.69,30.12,30.12,0,0,1-2.53,12.08,31.16,31.16,0,0,1-7.3,10.39,35.14,35.14,0,0,1-11.66,7.16,41,41,0,0,1-14.74,2.53,35.34,35.34,0,0,1-14.74-2.95,33.39,33.39,0,0,1-10.68-7.3,34.46,34.46,0,0,1-6.46-9.13,20.63,20.63,0,0,1-2.1-7.86,8.65,8.65,0,0,1,2.53-6.46,9.36,9.36,0,0,1,6.45-2.39,7,7,0,0,1,3.66,1.12,5.41,5.41,0,0,1,2.38,2.67c2.39,6.32,4.92,11.1,7.59,14.18s6.59,4.64,11.51,4.64a16.66,16.66,0,0,0,8.14-2.11,17.29,17.29,0,0,0,6.6-6.18,17.87,17.87,0,0,0,2.53-9.54c0-5.34-1.4-9.55-4.35-12.64s-7-4.5-12.22-4.5c-1,0-2.39.14-4.21.29-2,.14-3.23.28-3.79.28a7.94,7.94,0,0,1-5.76-2,6.39,6.39,0,0,1-2.11-5.2A6.53,6.53,0,0,1,245,150c1.55-1.27,4.07-2,7.3-2Z" style="fill:#bf3d32"/><path d="M145.62,200.58a6.55,6.55,0,0,1-6-4C111,129.41,114,65.77,114.15,63.1a6.55,6.55,0,0,1,13.08.68h0c0,.63-2.92,63.41,24.41,127.69a6.56,6.56,0,0,1-3.46,8.59A6.66,6.66,0,0,1,145.62,200.58Z" style="fill:#dbb2a3"/><path d="M175,252.32a6.53,6.53,0,0,1-5.26-2.64A249.49,249.49,0,0,1,151,220.17a6.54,6.54,0,1,1,11.5-6.25,235.8,235.8,0,0,0,17.8,28A6.54,6.54,0,0,1,175,252.32Z" style="fill:#dbb2a3"/></g></svg>