<svg xmlns="http://www.w3.org/2000/svg" viewBox="0 0 523.68 746.27"><g id="Stand2"><rect x="19.91" y="496.82" width="503.77" height="249.45" style="fill:#193d6d"/><path d="M52.62,577.64a4.72,4.72,0,0,1-4.72-4.72V540.4a20.22,20.22,0,0,1,6-14.39,20.48,20.48,0,0,1,14.39-6H168.94a4.73,4.73,0,0,1,0,9.45H68.25a10.89,10.89,0,0,0-10.9,10.9v32.52A4.72,4.72,0,0,1,52.62,577.64Z" style="fill:#fff"/><path d="M52.62,636.11a4.72,4.72,0,0,1-4.72-4.73V604a4.73,4.73,0,1,1,9.45,0v27.4A4.73,4.73,0,0,1,52.62,636.11Z" style="fill:#fff"/><circle cx="271.79" cy="621.54" r="84.14" transform="translate(-359.89 374.23) rotate(-45)" style="fill:#aab9cc"/><circle cx="271.79" cy="621.54" r="69.55" style="fill:#cfd8e2;stroke:#8096b3;stroke-linecap:round;stroke-linejoin:round;stroke-width:3.4343000000000004px"/><path d="M238.16,593.42a1.55,1.55,0,0,1,1.48-1.08,1.57,1.57,0,0,1,1.49,1.08c1.9,5.87,5.09,15.67,6.14,18.91a1.56,1.56,0,0,0,1.49,1.08h19.88a1.56,1.56,0,0,1,.91,2.83l-16.08,11.68a1.58,1.58,0,0,0-.57,1.75c1.06,3.24,4.24,13,6.15,18.91a1.56,1.56,0,0,1-2.41,1.74l-16.08-11.68a1.56,1.56,0,0,0-1.84,0l-16.08,11.68a1.56,1.56,0,0,1-2.41-1.74c1.91-5.87,5.09-15.67,6.15-18.91a1.57,1.57,0,0,0-.57-1.75l-16.08-11.68a1.56,1.56,0,0,1,.92-2.83h19.88a1.55,1.55,0,0,0,1.48-1.08C233.07,609.09,236.25,599.29,238.16,593.42Z" style="fill:#8096b3;fill-rule:evenodd"/><path d="M302.15,593.42a1.56,1.56,0,0,1,3,0c1.91,5.87,5.09,15.67,6.14,18.91a1.56,1.56,0,0,0,1.49,1.08h19.88a1.55,1.55,0,0,1,1.48,1.08,1.57,1.57,0,0,1-.56,1.75l-16.09,11.68a1.58,1.58,0,0,0-.56,1.75c1.05,3.24,4.23,13,6.14,18.91a1.56,1.56,0,0,1-2.41,1.74l-16.08-11.68a1.55,1.55,0,0,0-1.83,0l-16.09,11.68a1.56,1.56,0,0,1-2.4-1.74c1.9-5.87,5.09-15.67,6.14-18.91a1.57,1.57,0,0,0-.57-1.75l-16.08-11.68a1.56,1.56,0,0,1,.92-2.83h19.88a1.54,1.54,0,0,0,1.48-1.08C297.06,609.09,300.24,599.29,302.15,593.42Z" style="fill:#8096b3;fill-rule:evenodd"/><path d="M0,484.43a12.39,12.39,0,0,1,12.38-12.38h511.3v24.77H12.38A12.39,12.39,0,0,1,0,484.44Z" style="fill:#0a2445;fill-rule:evenodd"/></g><g id="SilverTrophy"><path d="M128.76,455.83c.94-26.72,86.53-32.33,150.83-75.45,64.71,48.62,149.89,48.8,150.83,75.45h0v16.22H128.75V455.83Z" style="fill:#aab9cc;fill-rule:evenodd"/><path d="M407.77,459H151.41a2.49,2.49,0,0,1,0-5H407.77a2.49,2.49,0,1,1,0,5Z" style="fill:#8096b3"/><path d="M240.66,297.36s8.63,12.91,15.8,35.74c2.34,7.47,4.73,15.38,4.65,23.83s-2.74,16.32-5.14,23.83c-7.19,22.57-15.31,35.74-15.31,35.74,0,21.48,77.85,21.48,77.85,0,0,0-8.11-13.17-15.31-35.74-2.39-7.51-5.05-15.31-5.13-23.83s2.3-16.36,4.65-23.83c7.17-22.83,15.79-35.74,15.79-35.74a38.93,38.93,0,0,0-77.85,0Z" style="fill:#8096b3;fill-rule:evenodd"/><path d="M395.25,221.14a12.5,12.5,0,0,1-.93-25c55.53-4.2,89.94-33.23,92.05-77.65.68-14.36-2.86-25-10.81-32.53-17.11-16.21-49.64-13.38-50-13.35a12.5,12.5,0,1,1-2.54-24.88c1.78-.18,44.07-4.2,69.7,20.07,13.36,12.65,19.62,30.11,18.59,51.87-1.31,27.54-12.41,51.56-32.12,69.44-20.19,18.33-48.9,29.38-83,32Z" style="fill:#8096b3"/><path d="M148.33,221.14c-.31,0-.63,0-1,0-34.13-2.59-62.84-13.64-83-32-19.7-17.88-30.8-41.89-32.11-69.44-1-21.76,5.22-39.22,18.59-51.87,25.62-24.26,67.91-20.25,69.7-20.07A12.5,12.5,0,0,1,118,72.64h0c-.33,0-32.84-3-50.06,13.41-7.9,7.52-11.42,18.14-10.74,32.47,2.11,44.42,36.52,73.45,92.05,77.65a12.5,12.5,0,0,1-.94,25Z" style="fill:#8096b3"/><path d="M114.91,76.43V15.63A15.63,15.63,0,0,1,130.54,0h296a15.62,15.62,0,0,1,15.62,15.63V77.21C441.87,210,368.67,317.58,278.54,317.58,188.23,317.58,114.91,209.52,114.91,76.43Z" style="fill:#aab9cc;fill-rule:evenodd"/><path d="M453.18,18a18,18,0,0,0-18-18H121.9a18,18,0,0,0-18,18h0a18,18,0,0,0,18,18H435.18a18,18,0,0,0,18-18Z" style="fill:#cfd8e2;fill-rule:evenodd"/><path d="M426,22.5h-293a4.5,4.5,0,0,1,0-9H426a4.5,4.5,0,0,1,0,9Z" style="fill:#8096b3"/><circle cx="278.54" cy="158.79" r="83.62" style="fill:#cfd8e2"/><path d="M278.54,256.32a97.53,97.53,0,1,1,97.53-97.53A97.64,97.64,0,0,1,278.54,256.32Zm0-190.7a93.17,93.17,0,1,0,93.17,93.17A93.27,93.27,0,0,0,278.54,65.62Z" style="fill:#8096b3"/><path d="M266.75,194h36.36c3.57,0,6.42.71,8.28,2.14A8.13,8.13,0,0,1,312,208c-1.43,1.57-3.71,2.43-6.85,2.43h-51.2c-3.56,0-6.27-1-8.12-2.85a9.43,9.43,0,0,1-3-6.85c0-1.71.71-3.85,1.85-6.7a26.39,26.39,0,0,1,4.14-6.42c6.13-6.42,11.84-12,16.69-16.54a110.12,110.12,0,0,1,10.69-9,63.23,63.23,0,0,0,9.56-8.12,33,33,0,0,0,5.7-8.28,18.56,18.56,0,0,0,2-8.41,15,15,0,0,0-2.14-8,13.89,13.89,0,0,0-5.71-5.41,15.4,15.4,0,0,0-8-2c-6.13,0-10.84,2.71-14.41,8a50,50,0,0,0-2.28,5.71c-1.14,3.14-2.28,5.56-3.71,7.13a7.36,7.36,0,0,1-6,2.57,7.73,7.73,0,0,1-5.84-2.29,9.08,9.08,0,0,1-2.28-6.27,25.6,25.6,0,0,1,2.14-10,28.09,28.09,0,0,1,6.41-9.56,31.31,31.31,0,0,1,11-6.84,41.51,41.51,0,0,1,15.4-2.57A45.7,45.7,0,0,1,296.13,111a28.5,28.5,0,0,1,8.55,6.13,27.18,27.18,0,0,1,5.85,9,30.31,30.31,0,0,1,2,10.69,29.83,29.83,0,0,1-4.28,15.69,53.78,53.78,0,0,1-8.7,11.12c-3,2.57-8,6.85-15,12.55s-11.83,10.13-14.4,13.27A31.07,31.07,0,0,0,266.75,194Z" style="fill:#bf3e33"/><path d="M165.53,200.58a6.55,6.55,0,0,1-6-4C131,129.41,133.92,65.77,134.06,63.1a6.55,6.55,0,0,1,13.08.68h0c0,.63-2.92,63.41,24.41,127.69a6.55,6.55,0,0,1-6,9.11Z" style="fill:#cfd8e2"/><path d="M194.93,252.32a6.53,6.53,0,0,1-5.26-2.64,248.21,248.21,0,0,1-18.8-29.51,6.54,6.54,0,1,1,11.5-6.25,236.62,236.62,0,0,0,17.8,28,6.54,6.54,0,0,1-5.24,10.45Z" style="fill:#cfd8e2"/></g></svg>