<svg xmlns="http://www.w3.org/2000/svg" viewBox="0 0 804.06 1066.01"><g id="Stand1"><rect x="104.73" y="665.69" width="589.66" height="400.33" style="fill:#0a2445"/><path d="M143.6,764.32a4.72,4.72,0,0,1-4.72-4.72V711.11a20.37,20.37,0,0,1,20.35-20.35H297.82a4.73,4.73,0,1,1,0,9.45H159.23a10.91,10.91,0,0,0-10.9,10.9V759.6A4.72,4.72,0,0,1,143.6,764.32Z" style="fill:#fff"/><path d="M143.6,832.59a4.72,4.72,0,0,1-4.72-4.72v-39a4.73,4.73,0,1,1,9.45,0v39A4.72,4.72,0,0,1,143.6,832.59Z" style="fill:#fff"/><circle cx="399.55" cy="862.39" r="136.15" transform="translate(-492.77 535.11) rotate(-45)" style="fill:#fbcb22"/><circle cx="399.56" cy="862.39" r="112.54" style="fill:#feedb4;stroke:#eca400;stroke-linecap:round;stroke-linejoin:round;stroke-width:5.557460000000001px"/><path d="M396.58,795.12a3.13,3.13,0,0,1,5.95,0c4.46,13.75,12.64,38.92,15.08,46.42a3.13,3.13,0,0,0,3,2.16h48.8a3.12,3.12,0,0,1,1.83,5.65L431.73,878a3.12,3.12,0,0,0-1.13,3.49c2.43,7.5,10.61,32.67,15.08,46.41a3.13,3.13,0,0,1-4.81,3.49l-39.48-28.68a3.14,3.14,0,0,0-3.67,0l-39.48,28.68a3.13,3.13,0,0,1-4.81-3.49c4.47-13.74,12.65-38.91,15.08-46.41a3.12,3.12,0,0,0-1.13-3.49L327.9,849.35a3.12,3.12,0,0,1,1.83-5.65h48.8a3.13,3.13,0,0,0,3-2.16C383.94,834,392.12,808.87,396.58,795.12Z" style="fill:#fbcb22;fill-rule:evenodd"/><path d="M87.57,653.3A12.38,12.38,0,0,1,100,640.92H704.11a12.38,12.38,0,0,1,12.38,12.38h0a12.38,12.38,0,0,1-12.38,12.38H100a12.38,12.38,0,0,1-12.38-12.38Z" style="fill:#193d6d;fill-rule:evenodd"/></g><g id="Gold_Trophy" data-name="Gold Trophy"><path d="M221.65,621.39c1.13-32.18,104.21-38.94,181.64-90.86,77.93,58.54,180.52,58.76,181.65,90.86h0v19.53H221.64V621.39Z" style="fill:#fbcb22;fill-rule:evenodd"/><path d="M557.66,624.72H248.93a2.49,2.49,0,0,1,0-5H557.66a2.49,2.49,0,0,1,0,5Z" style="fill:#eca400"/><path d="M356.42,430.55s10.38,15.55,19,43c2.82,9,5.69,18.51,5.6,28.7s-3.3,19.64-6.18,28.69c-8.67,27.19-18.44,43-18.44,43,0,25.87,93.75,25.87,93.75,0,0,0-9.77-15.86-18.44-43-2.88-9.05-6.08-18.43-6.18-28.69s2.78-19.71,5.6-28.7c8.64-27.49,19-43,19-43a46.88,46.88,0,1,0-93.75,0Z" style="fill:#eca400;fill-rule:evenodd"/><path d="M220.76,233.05C115.1,225.72,69.67,194.14,49.38,148.29S28.15,36,42.44,35.51c8.1.14,21.87.59,28.83,0,16.49-.07,3,12.26,26.69,52.19C132.61,146.09,200.87,153,200.87,153V102.88s-58.93,11.27-84.3-36S106.85-.39,90.36,0c-23,.55-59,.4-77.66,0C-8.8-.45-.65,93.67,19.64,149.46s95.54,127.29,201.12,136.36C221.06,276.05,220.8,243.7,220.76,233.05Z" style="fill:#eca400;fill-rule:evenodd"/><path d="M583.3,233.05c105.65-7.33,151.08-38.91,171.37-84.76S775.9,36,761.61,35.51c-8.1.14-21.87.59-28.82,0-16.49-.07-3,12.26-26.7,52.19C671.45,146.09,603.19,153,603.19,153V102.88s58.93,11.27,84.3-36S697.21-.39,713.7,0c23,.55,59,.4,77.66,0,21.49-.46,13.35,93.66-6.94,149.45S688.88,276.75,583.3,285.82C583,276.05,583.26,243.7,583.3,233.05Z" style="fill:#eca400;fill-rule:evenodd"/><path d="M167.65,109.48V46.88A46.88,46.88,0,0,1,214.53,0h375A46.88,46.88,0,0,1,636.4,46.88V110.6C636,300.74,531.12,454.89,402,454.89,272.67,454.89,167.65,300.12,167.65,109.48Z" style="fill:#fbcb22;fill-rule:evenodd"/><path d="M652.18,25.78A25.78,25.78,0,0,0,626.4,0H177.66a25.78,25.78,0,0,0-25.78,25.78h0a25.78,25.78,0,0,0,25.78,25.78H626.4a25.78,25.78,0,0,0,25.78-25.78Z" style="fill:#feedb4;fill-rule:evenodd"/><path d="M613.17,30.29H193.43a4.5,4.5,0,0,1,0-9H613.17a4.5,4.5,0,0,1,0,9Z" style="fill:#fbcb22"/><circle cx="402.03" cy="227.45" r="119.78" transform="translate(-43.08 350.89) rotate(-45)" style="fill:#feedb4"/><path d="M402,367.15c-77,0-139.7-62.67-139.7-139.7S325,87.75,402,87.75s139.7,62.66,139.7,139.7S479.06,367.15,402,367.15ZM402,94c-73.59,0-133.45,59.87-133.45,133.46S328.44,360.9,402,360.9,535.48,301,535.48,227.45,475.61,94,402,94Z" style="fill:#eca400"/><path d="M419.87,274.57H439.3q7.89,0,11.93,3.65a12.39,12.39,0,0,1,4,9.66q0,13-18.31,13.48v0H375.5v0q-18.3-.5-18.3-13.48a12.36,12.36,0,0,1,4-9.66q4-3.64,11.93-3.65h19.88V195.7q-25,19.23-33.71,19.23a10,10,0,0,1-7.35-3.31,10.63,10.63,0,0,1-3.2-7.64q0-5,3.15-7.39a69.19,69.19,0,0,1,11.14-6.11q11.93-5.62,19.08-11.83a81.92,81.92,0,0,0,12.67-13.9q5.52-7.69,7.19-9.47t6.31-1.77a10.08,10.08,0,0,1,8.38,4q3.15,4,3.16,11.14Z" style="fill:#bf3f34"/><path d="M240.15,287.31a9.4,9.4,0,0,1-8.63-5.71c-40.9-96.23-36.63-187.39-36.43-191.22a9.37,9.37,0,1,1,18.72,1c-.06,1.12-4.12,90.94,35,182.9a9.38,9.38,0,0,1-8.63,13.05Z" style="fill:#feedb4"/><path d="M282.26,361.42a9.36,9.36,0,0,1-7.53-3.79,357.49,357.49,0,0,1-26.93-42.26,9.38,9.38,0,1,1,16.48-9,336.35,336.35,0,0,0,25.5,40,9.37,9.37,0,0,1-7.52,15Z" style="fill:#feedb4"/></g></svg>