<svg xmlns="http://www.w3.org/2000/svg" viewBox="0 0 467.77 342.89"><g style="isolation:isolate"><g id="Layer_1" data-name="Layer 1"><polygon points="467.77 198.91 227.77 337.86 0 205.8 240 66.85 467.77 198.91" style="fill:#7d6d70"/><polygon points="227.77 337.86 227.77 342.88 0 210.83 0 205.8 227.77 337.86" style="fill:#604f53"/><polygon points="467.77 198.91 467.77 203.93 227.77 342.88 227.77 337.86 467.77 198.91" style="fill:#4d4143"/><polygon points="426.85 206.28 424.49 204.92 444.49 193.38 446.84 194.74 426.85 206.28" style="fill:#f9f4f4"/><polygon points="401.2 221.09 398.85 219.73 418.84 208.19 421.19 209.54 401.2 221.09" style="fill:#f9f4f4"/><polygon points="375.19 236.1 372.83 234.75 392.83 223.2 395.18 224.56 375.19 236.1" style="fill:#f9f4f4"/><polygon points="349.18 251.12 346.83 249.76 366.82 238.22 369.17 239.58 349.18 251.12" style="fill:#f9f4f4"/><polygon points="323.17 266.14 320.82 264.78 340.81 253.24 343.16 254.59 323.17 266.14" style="fill:#f9f4f4"/><polygon points="297.52 280.94 295.17 279.59 315.16 268.04 317.52 269.4 297.52 280.94" style="fill:#f9f4f4"/><polygon points="271.51 295.96 269.16 294.61 289.15 283.06 291.5 284.42 271.51 295.96" style="fill:#f9f4f4"/><polygon points="245.58 310.93 243.23 309.57 263.22 298.03 265.57 299.39 245.58 310.93" style="fill:#f9f4f4"/><polygon points="219.57 325.94 217.22 324.59 237.21 313.04 239.57 314.4 219.57 325.94" style="fill:#f9f4f4"/><polygon points="240 62.92 243.36 64.85 326.8 112.84 86.5 251.3 3.45 203.39 0 201.41 240 62.92" style="fill:#e0d4d3"/><polygon points="83.05 249.32 323.44 110.85 326.8 112.79 86.5 251.3 83.05 249.32" style="fill:#ffdc48"/><polygon points="326.8 112.84 326.8 117.17 86.5 255.64 86.5 251.3 326.8 112.84" style="fill:#ffbc27"/><polygon points="0 201.36 86.5 251.3 86.5 255.67 0 205.8 0 201.36" style="fill:#ad9e9f"/><path d="M258,174.57c1.82.48,5.42,3.53,6.51,4.49-1.06,1.68-2.86,4.39-3.39,4.39-.78,0-3.56-3.08-4.64-5.78a3.15,3.15,0,0,1,.05-3A2.14,2.14,0,0,1,258,174.57Z" style="fill:#ffb81a"/><path d="M260.28,173.76c2,1,5.88,3.75,5.88,3.75a7.05,7.05,0,0,0-1.7,1.55c-1.09-1-4.69-4-6.51-4.49a2.14,2.14,0,0,0-1.47.12A3.41,3.41,0,0,1,260.28,173.76Z" style="fill:#ffd939"/><path d="M272.94,164.3a23.37,23.37,0,0,1,7.57-7.06c1.26-.73,24.53-14.13,25.37-14.58a27.74,27.74,0,0,1,7.44-3c7.14,4.2,26.25,16.25,26.25,16.25s-16.66-3.25-31.46-2c-13,1.09-23.21,5.59-26.52,8.81-4.56,4.44-13.22,20.09-19.84,21.11a3.51,3.51,0,0,1-1.8-.08C263.77,179.06,268,171.14,272.94,164.3Z" style="fill:#ffb81a"/><path d="M294.19,235.48,284.9,230s3.85-6.89,7.93-5.16S294.19,235.48,294.19,235.48Z" style="fill:#d66100"/><path d="M368.8,192.73l-12.88-7.81s7.54-4.72,11.62-3S368.8,192.73,368.8,192.73Z" style="fill:#d66100"/><path d="M299.64,232.39l-12.86-7.7s7.54-4.72,11.62-3S299.64,232.39,299.64,232.39Z" style="fill:#d66100"/><path d="M314.75,139.56c1.28.09,13.74,3.23,15,3.46a11.53,11.53,0,0,0,2.86.38c1.5-.19,3.06-.57,4.44-.74a10.84,10.84,0,0,1,2.69-.1,1.52,1.52,0,0,1,.64.26c5.05,3,37.61,21.67,37.61,21.67l-7.35,7.83s-16.35-8.73-27.34-14.8c0,.11,0,.24,0,.34S314.28,142.76,314.75,139.56Z" style="fill:#f7a90b"/><path d="M272.94,164.3a23.37,23.37,0,0,1,7.57-7.06c1.26-.73,24.53-14.13,25.37-14.58a27.74,27.74,0,0,1,7.44-3c7.14,4.2,26.25,16.25,26.25,16.25s-16.66-3.25-31.46-2c-13,1.09-23.21,5.59-26.52,8.81-4.56,4.44-13.22,20.09-19.84,21.11a3.51,3.51,0,0,1-1.8-.08C263.77,179.06,268,171.14,272.94,164.3Z" style="fill:#fff;opacity:0.2"/><path d="M229.74,215.05C231,207.13,235,203,246.09,194.39c3.92-3,8.52-6.68,10.93-8.47l1.16-.86,1.77-1.32a5.36,5.36,0,0,0,1.91-.07c6.67-.59,14.5-16.64,19.07-21.08,3.3-3.22,14.16-7.6,27.18-8.69,14.8-1.25,31.46,2,31.46,2s-19.11-12.05-26.25-16.25a6.67,6.67,0,0,1,1.2-.12,3.29,3.29,0,0,1,1.25.41L354,162s-28.71,37.16-33,40.78c-8.71,7.31-26.65,18.36-35.56,22.95-9.37,4.84-15.69,22.71-15.69,22.71s-39-21.54-39.43-23.9S229.25,218.13,229.74,215.05Z" style="fill:#ffb81a"/><path d="M260.85,185.16l-1.36-1.07a14.53,14.53,0,0,0,1.22-1.31,3.54,3.54,0,0,1,1.94.61Z" style="fill:#ffb81a"/><path d="M347.83,198.47c0-5.74,3.5-12.42,7.8-14.9a7.2,7.2,0,0,1,3.41-.95,9.47,9.47,0,0,1,5,1.4c2.46,1.52,2.79,5,2.79,5l-8.77,18a6.61,6.61,0,0,1-5.72-.2,9.08,9.08,0,0,1-3.39-3.52,11,11,0,0,1-.64-1.5A10.47,10.47,0,0,1,347.83,198.47Z" style="fill:#30282a"/><path d="M367.09,191.5c0,5.75-3.5,12.42-7.8,14.91s-7.8-.16-7.8-5.9,3.49-12.42,7.8-14.91S367.09,185.76,367.09,191.5Z" style="fill:#44383b"/><path d="M365.58,192.44c0,4.55-2.76,9.82-6.17,11.79s-6.17-.12-6.17-4.66,2.76-9.82,6.17-11.79S365.58,187.9,365.58,192.44Z" style="fill:#30282a"/><path d="M359.62,188.72c-3.06,1.77-5.54,6.51-5.54,10.59s2.48,6,5.54,4.19,5.55-6.51,5.55-10.59S362.68,187,359.62,188.72Zm-1.2,1.37a5.09,5.09,0,0,1,1.18-.91,3.1,3.1,0,0,1,2-.57,1,1,0,0,1,.58.28c.17.18.14.41-.06.79s-.45.86-.7,1.24c-.12.19-.2.1-.46.12a2.86,2.86,0,0,0-.75.14,4.9,4.9,0,0,0-1.23.74c-.18.14-.26.09-.33,0a3.33,3.33,0,0,1-.45-1A.91.91,0,0,1,358.42,190.09Zm4.16,4.32a7.1,7.1,0,0,1-3,5.64c-1.63.94-2.95-.06-2.95-2.24a7.05,7.05,0,0,1,2.95-5.63C361.25,191.24,362.58,192.23,362.58,194.41Zm-7.69,1.7a10.31,10.31,0,0,1,1.16-3,8.41,8.41,0,0,1,1-1.47c.27-.22.41-.14.5.06a4.75,4.75,0,0,1,.34,1.14.7.7,0,0,1-.14.53,11.1,11.1,0,0,0-.91,1.64,9.89,9.89,0,0,0-.38,1.13c-.12.4-.11.55-.26.67a5.7,5.7,0,0,1-.94.59c-.27.15-.41.11-.43-.24A3.79,3.79,0,0,1,354.89,196.11Zm1.23,7c-.15,0-.56-.36-.79-.73a3.72,3.72,0,0,1-.73-2.2,3.8,3.8,0,0,1,.07-1,.71.71,0,0,1,.51-.64,3.77,3.77,0,0,1,.91-.2c.14,0,.1.18.16.5a4.2,4.2,0,0,0,.22.87,2.76,2.76,0,0,0,.69,1c.12.11.11.27.06.46a12.52,12.52,0,0,1-.56,1.51C356.53,202.92,356.37,203.13,356.12,203.13Zm5.1-1.6a3.74,3.74,0,0,1-.67.81,4.16,4.16,0,0,1-2.1,1.2,2,2,0,0,1-1.1.05c-.19-.16-.16-.42-.05-.72a10.75,10.75,0,0,1,.65-1.47c.09-.18.2-.3.36-.31a2.94,2.94,0,0,0,1.2-.29,4,4,0,0,0,.77-.51c.28-.2.38-.36.48-.27a3.76,3.76,0,0,1,.54.72C361.44,201,361.44,201.18,361.22,201.53Zm3.11-5a10.15,10.15,0,0,1-1.35,2.93,3.6,3.6,0,0,1-.67.8c-.27.24-.39.17-.48-.13a6.57,6.57,0,0,1-.24-1.07c0-.19.1-.29.3-.66a8.9,8.9,0,0,0,.54-1.06,11.32,11.32,0,0,0,.54-1.79.71.71,0,0,1,.29-.48,4.42,4.42,0,0,1,1-.56c.21-.08.37,0,.4.3A8,8,0,0,1,364.33,196.53Zm0-2.8a3.15,3.15,0,0,1-1,.29c-.12,0-.21,0-.22-.27a6,6,0,0,0-.25-1.47,2.91,2.91,0,0,0-.38-.68c-.15-.23-.26-.23-.21-.46.12-.44.32-1,.46-1.36s.3-.57.55-.55a1,1,0,0,1,.57.29,3.47,3.47,0,0,1,.9,2,5,5,0,0,1,.08,1.53A.85.85,0,0,1,364.31,193.73Z" style="fill:#fff"/><path d="M359.94,193.3a5.74,5.74,0,0,0-2.41,4.59c0,1.77,1.08,2.58,2.41,1.82a5.76,5.76,0,0,0,2.4-4.59C362.34,193.35,361.27,192.53,359.94,193.3Z" style="fill:#e0d4d3"/><path d="M355.22,197.39a5.7,5.7,0,0,0,.94-.59c.15-.12.14-.27.26-.67a9.89,9.89,0,0,1,.38-1.13,11.1,11.1,0,0,1,.91-1.64.7.7,0,0,0,.14-.53,4.75,4.75,0,0,0-.34-1.14c-.09-.2-.23-.28-.5-.06a8.41,8.41,0,0,0-1,1.47,10.31,10.31,0,0,0-1.16,3,3.79,3.79,0,0,0-.1,1C354.81,197.5,355,197.54,355.22,197.39Z" style="fill:#4d4143"/><path d="M358.7,191.91c.07.1.15.15.33,0a4.9,4.9,0,0,1,1.23-.74A2.86,2.86,0,0,1,361,191c.26,0,.34.07.46-.12.25-.38.52-.89.7-1.24s.23-.61.06-.79a1,1,0,0,0-.58-.28,3.1,3.1,0,0,0-2,.57,5.09,5.09,0,0,0-1.18.91.91.91,0,0,0-.17.81A3.33,3.33,0,0,0,358.7,191.91Z" style="fill:#4d4143"/><path d="M364.71,191.54a3.47,3.47,0,0,0-.9-2,1,1,0,0,0-.57-.29c-.25,0-.4.16-.55.55s-.34.92-.46,1.36c-.05.23.06.23.21.46a2.91,2.91,0,0,1,.38.68,6,6,0,0,1,.25,1.47c0,.23.1.27.22.27a3.15,3.15,0,0,0,1-.29.85.85,0,0,0,.48-.66A5,5,0,0,0,364.71,191.54Z" style="fill:#4d4143"/><path d="M364.3,194.51a4.42,4.42,0,0,0-1,.56.71.71,0,0,0-.29.48,11.32,11.32,0,0,1-.54,1.79,8.9,8.9,0,0,1-.54,1.06c-.2.37-.32.47-.3.66a6.57,6.57,0,0,0,.24,1.07c.09.3.21.37.48.13a3.6,3.6,0,0,0,.67-.8,10.15,10.15,0,0,0,1.35-2.93,8,8,0,0,0,.37-1.72C364.67,194.47,364.51,194.43,364.3,194.51Z" style="fill:#4d4143"/><path d="M360.76,200c-.1-.09-.2.07-.48.27a4,4,0,0,1-.77.51,2.94,2.94,0,0,1-1.2.29c-.16,0-.27.13-.36.31a10.75,10.75,0,0,0-.65,1.47c-.11.3-.14.56.05.72a2,2,0,0,0,1.1-.05,4.16,4.16,0,0,0,2.1-1.2,3.74,3.74,0,0,0,.67-.81c.22-.35.22-.56.08-.79A3.76,3.76,0,0,0,360.76,200Z" style="fill:#4d4143"/><path d="M357.16,200.66a2.76,2.76,0,0,1-.69-1,4.2,4.2,0,0,1-.22-.87c-.06-.32,0-.5-.16-.5a3.77,3.77,0,0,0-.91.2.71.71,0,0,0-.51.64,3.8,3.8,0,0,0-.07,1,3.72,3.72,0,0,0,.73,2.2c.23.37.64.73.79.73s.41-.21.54-.5a12.52,12.52,0,0,0,.56-1.51C357.27,200.93,357.28,200.77,357.16,200.66Z" style="fill:#4d4143"/><path d="M279,238c0-5.75,3.5-12.42,7.8-14.91a7.2,7.2,0,0,1,3.41-1,9.57,9.57,0,0,1,5,1.4c2.46,1.52,2.79,5,2.79,5l-8.77,18a6.65,6.65,0,0,1-5.72-.2,9,9,0,0,1-3.39-3.53A9.52,9.52,0,0,1,279,238Z" style="fill:#30282a"/><path d="M298.21,231c0,5.74-3.5,12.41-7.8,14.9s-7.8-.15-7.8-5.9,3.49-12.41,7.8-14.9S298.21,225.24,298.21,231Z" style="fill:#44383b"/><path d="M296.7,231.93c0,4.54-2.76,9.82-6.17,11.79s-6.17-.12-6.17-4.67,2.76-9.82,6.17-11.78S296.7,227.39,296.7,231.93Z" style="fill:#30282a"/><path d="M290.74,228.21c-3.06,1.77-5.54,6.51-5.54,10.59s2.48,5.95,5.54,4.19,5.55-6.51,5.55-10.59S293.81,226.44,290.74,228.21Zm-1.2,1.37a4.83,4.83,0,0,1,1.18-.92,3.1,3.1,0,0,1,2-.56.93.93,0,0,1,.58.27c.17.19.14.42-.06.79a12.06,12.06,0,0,1-.7,1.24c-.12.19-.2.11-.46.13a2.38,2.38,0,0,0-.74.13,5.42,5.42,0,0,0-1.24.74c-.18.15-.26.1-.33,0a3.33,3.33,0,0,1-.45-1A.9.9,0,0,1,289.54,229.58Zm4.16,4.31a7.07,7.07,0,0,1-3,5.64c-1.63.94-2.95-.06-2.95-2.23a7.07,7.07,0,0,1,2.95-5.64C292.37,230.72,293.7,231.72,293.7,233.89ZM286,235.6a10.06,10.06,0,0,1,1.16-3,8.41,8.41,0,0,1,1-1.47c.27-.22.41-.14.5.06a4.67,4.67,0,0,1,.34,1.13.71.71,0,0,1-.14.54,10.3,10.3,0,0,0-.9,1.64,8,8,0,0,0-.39,1.12c-.12.4-.11.56-.26.68a6.46,6.46,0,0,1-.94.59c-.27.15-.41.11-.43-.24A3.73,3.73,0,0,1,286,235.6Zm1.23,7c-.15,0-.56-.37-.79-.73a3.77,3.77,0,0,1-.73-2.21,3.72,3.72,0,0,1,.07-1c.08-.4.24-.56.51-.64a3.77,3.77,0,0,1,.91-.2c.14,0,.1.17.16.5a4.37,4.37,0,0,0,.22.87,2.76,2.76,0,0,0,.69,1c.12.11.11.27.06.45a11.92,11.92,0,0,1-.56,1.51C287.65,242.41,287.49,242.62,287.24,242.62Zm5.1-1.6a4.68,4.68,0,0,1-2.77,2,1.91,1.91,0,0,1-1.1,0c-.19-.15-.16-.41-.05-.71a10.88,10.88,0,0,1,.65-1.48c.09-.17.2-.3.36-.3a3.26,3.26,0,0,0,1.2-.29,4.6,4.6,0,0,0,.77-.51c.28-.2.38-.36.48-.27a3.33,3.33,0,0,1,.54.71A.68.68,0,0,1,292.34,241Zm3.11-5A10.29,10.29,0,0,1,294.1,239a3.85,3.85,0,0,1-.67.8c-.27.23-.39.17-.48-.13a6.47,6.47,0,0,1-.24-1.08c0-.19.1-.29.3-.66a7.61,7.61,0,0,0,.54-1.06,11,11,0,0,0,.54-1.79.66.66,0,0,1,.29-.47,4.62,4.62,0,0,1,1-.56c.21-.08.37-.05.4.3A7.92,7.92,0,0,1,295.45,236Zm0-2.79a3.39,3.39,0,0,1-1,.28c-.12,0-.21,0-.22-.27a5.88,5.88,0,0,0-.25-1.46,3.18,3.18,0,0,0-.38-.69c-.15-.22-.26-.23-.21-.45.12-.44.32-1,.46-1.36s.3-.57.55-.55a.92.92,0,0,1,.57.29,3.47,3.47,0,0,1,.9,2,5,5,0,0,1,.08,1.54A.85.85,0,0,1,295.43,233.22Z" style="fill:#fff"/><path d="M291.06,232.78a5.77,5.77,0,0,0-2.4,4.6c0,1.77,1.07,2.58,2.4,1.81a5.73,5.73,0,0,0,2.4-4.59C293.46,232.83,292.39,232,291.06,232.78Z" style="fill:#e0d4d3"/><path d="M286.34,236.88a6.46,6.46,0,0,0,.94-.59c.15-.12.14-.28.26-.68a8,8,0,0,1,.39-1.12,10.3,10.3,0,0,1,.9-1.64.71.71,0,0,0,.14-.54,4.67,4.67,0,0,0-.34-1.13c-.09-.2-.23-.28-.5-.06a8.41,8.41,0,0,0-1,1.47,10.06,10.06,0,0,0-1.16,3,3.73,3.73,0,0,0-.1,1C285.93,237,286.07,237,286.34,236.88Z" style="fill:#4d4143"/><path d="M289.82,231.4c.07.1.15.15.33,0a5.42,5.42,0,0,1,1.24-.74,2.38,2.38,0,0,1,.74-.13c.26,0,.34.06.46-.13a12.06,12.06,0,0,0,.7-1.24c.2-.37.23-.6.06-.79a.93.93,0,0,0-.58-.27,3.1,3.1,0,0,0-2,.56,4.83,4.83,0,0,0-1.18.92.9.9,0,0,0-.17.81A3.33,3.33,0,0,0,289.82,231.4Z" style="fill:#4d4143"/><path d="M295.83,231a3.47,3.47,0,0,0-.9-2,.92.92,0,0,0-.57-.29c-.25,0-.4.15-.55.55s-.34.92-.46,1.36c-.05.22.06.23.21.45a3.18,3.18,0,0,1,.38.69,5.88,5.88,0,0,1,.25,1.46c0,.24.1.28.22.27a3.39,3.39,0,0,0,1-.28.85.85,0,0,0,.48-.66A5,5,0,0,0,295.83,231Z" style="fill:#4d4143"/><path d="M295.42,234a4.62,4.62,0,0,0-1,.56.66.66,0,0,0-.29.47,11,11,0,0,1-.54,1.79,7.61,7.61,0,0,1-.54,1.06c-.2.37-.32.47-.3.66a6.47,6.47,0,0,0,.24,1.08c.09.3.21.36.48.13a3.85,3.85,0,0,0,.67-.8,10.29,10.29,0,0,0,1.35-2.94,7.92,7.92,0,0,0,.37-1.71C295.79,234,295.63,233.92,295.42,234Z" style="fill:#4d4143"/><path d="M291.88,239.51c-.1-.09-.2.07-.48.27a4.6,4.6,0,0,1-.77.51,3.26,3.26,0,0,1-1.2.29c-.16,0-.27.13-.36.3a10.88,10.88,0,0,0-.65,1.48c-.11.3-.14.56.05.71a1.91,1.91,0,0,0,1.1,0,4.68,4.68,0,0,0,2.77-2,.68.68,0,0,0,.08-.8A3.33,3.33,0,0,0,291.88,239.51Z" style="fill:#4d4143"/><path d="M288.28,240.15a2.76,2.76,0,0,1-.69-1,4.37,4.37,0,0,1-.22-.87c-.06-.33,0-.5-.16-.5a3.77,3.77,0,0,0-.91.2c-.27.08-.43.24-.51.64a3.72,3.72,0,0,0-.07,1,3.77,3.77,0,0,0,.73,2.21c.23.36.64.73.79.73s.41-.21.54-.51a11.92,11.92,0,0,0,.56-1.51C288.39,240.42,288.4,240.26,288.28,240.15Z" style="fill:#4d4143"/><path d="M269,232.28c4.17-7.47,6.66-9.57,15.39-16.39,5.54-4.33,10.26-7.74,13.55-10.21,3.81-4.68,8-12.6,13-19.44a23.37,23.37,0,0,1,7.57-7.06l20.3-11.66c1.22-.7,4.61-2.67,5.25-3l0,0s2.53-1.29,3.68-1.77a12.56,12.56,0,0,1,4.73-1.24c2.69.05,15.93,4,18,3.75,2.61-.32,5.32-1.1,7.2-.84,2,.29,3.66,5.7,3.74,9.84a37.68,37.68,0,0,1-.28,7.74c-1.4,2.67-7.41,7.23-10.48,9.46-.21-8.81-5.68-12.8-12.43-8.91-5.93,3.43-10.88,11.82-12.13,19.94l-45.6,27.46c-1.39-6.32-5.11-9.75-10.89-6.42-6.67,3.85-11.06,12.37-11.38,21.33a49.62,49.62,0,0,1-4.52,2.67c-2.28,1.07-5.48,2.22-5.75-1.74C267.59,240.58,266.57,236.64,269,232.28Z" style="fill:#f9970b"/><path d="M298,218.38c8.57-7.26,16.83-12.56,29.51-19.22,13.94-7.32,20.36-8.86,20.36-8.86a51.28,51.28,0,0,0-4.62,10.77c-7.35,4.12-28.19,16.33-39.27,22.76A12.65,12.65,0,0,0,298,218.38Z" style="fill:#ffb81a;opacity:0.5"/><path d="M289,222.77c5.78-3.34,10.63-.86,12,5.46l45.07-25.78c1.25-8.12,6.2-16.51,12.13-19.94,6.75-3.89,12.22.1,12.43,8.91l-1.84,1.31c0-.18,0-.36,0-.53,0-7.48-4.55-10.92-10.16-7.68s-10.16,11.93-10.16,19.41c0,.18,0,.33,0,.5L345.78,206l-46.14,26.39c0-7.48-4.55-10.94-10.16-7.7s-10.16,11.93-10.16,19.41l-2.74,1.62C276.89,236.75,282.32,226.62,289,222.77Zm56.89-18.59a.13.13,0,0,0,0,.06A.13.13,0,0,1,345.88,204.18ZM295.82,232.8v0Z" style="fill:#f77c0d"/><path d="M343.41,171.26c3.83-2,7.71-2.52,11,.91a34,34,0,0,1,2.44,3.22l-53.38,30.84V201.6c2.07-3.37,4.58-7.39,6.83-10.77,7.67-4.75,14.45-8,21.51-12.38C335.64,176.06,339.41,173.38,343.41,171.26Z" style="fill:#4d4143"/><path d="M315.53,183.9c3.36-2.64,15.57-10.08,25.43-15.56,5.57-3.1,8.24-4.69,10.78-4.29,2.22.34,3.17,1.47,4.75,3.47,2.15,2.73,4.1,5.7,4.1,5.7l-3.75,2.17a34,34,0,0,0-2.44-3.22c-3.28-3.43-7.16-2.94-11-.91-4,2.12-7.77,4.8-11.61,7.19-7.06,4.41-13.84,7.63-21.51,12.38C312.55,187.42,314.54,184.67,315.53,183.9Z" style="fill:#3f3437"/><path d="M237,221.21a10.38,10.38,0,0,1,.15-1.63,47.78,47.78,0,0,0,9.93,6.95c3.71,2.08,8,5,12.24,5.72a3.13,3.13,0,0,1-1.12,2c-7.62-3.76-14.55-7.35-21.18-12.59C237,221.51,237,221.35,237,221.21Z" style="fill:#30282a"/><path d="M240.33,216.24c.18.1,4.35,3,8.43,5.32,3.82,2.19,8.23,4.14,9.21,4.75A3.5,3.5,0,0,1,259,228.1c0,.15,0,.28.06.43-7.22-3.58-13.83-7.07-20.16-12.05A1.29,1.29,0,0,1,240.33,216.24Z" style="fill:#30282a"/><path d="M238,217.33c.09-.11.18-.19.27-.29a48.08,48.08,0,0,0,9.79,6.81c3.37,1.9,7.2,4.47,11.09,5.49.07.75.1,1.51.11,2.49-7.93-3.9-15.11-7.59-22-13.11A4.61,4.61,0,0,1,238,217.33Z" style="fill:#30282a"/><path d="M257.6,234.66a4.67,4.67,0,0,1-.53.32c-.92.5-3-.08-5.39-1.28-4.93-2.42-10.89-6-13.58-8.65a3.88,3.88,0,0,1-1-2.12,51.55,51.55,0,0,0,9.14,6.19C249.7,231.07,253.62,233.69,257.6,234.66Z" style="fill:#30282a"/><path d="M258.15,234.25a4.89,4.89,0,0,1-.55.41c-4-1-7.9-3.59-11.35-5.54a51.55,51.55,0,0,1-9.14-6.19,7.15,7.15,0,0,1-.14-1.27C243.6,226.9,250.53,230.49,258.15,234.25Z" style="fill:#4d4143"/><path d="M237.1,219.58a5.69,5.69,0,0,1,.22-.86c6.87,5.52,14.05,9.21,22,13.11v0a2.43,2.43,0,0,1,0,.38c-4.28-.76-8.53-3.64-12.24-5.72A47.78,47.78,0,0,1,237.1,219.58Z" style="fill:#4d4143"/><path d="M238.31,217a3.53,3.53,0,0,1,.62-.56c6.33,5,12.94,8.47,20.16,12.05,0,.27.07.55.1.81-3.89-1-7.72-3.59-11.09-5.49A48.08,48.08,0,0,1,238.31,217Z" style="fill:#4d4143"/><path d="M332,172.32s-.53,13.36,0,19.5,5.74-.32,5.74-.32L334.93,171Z" style="fill:#f9970b"/><path d="M276.19,166a93.09,93.09,0,0,0,10.45,6.84c8.81,5.09,22.45,11.73,22.45,11.73l-11.77,18.48c-6.95-6.09-27.47-18.34-32-20.75A192.86,192.86,0,0,1,276.19,166Z" style="fill:#605558"/><path d="M274.56,194.67c-12-6.93-13.71-9.51-13.71-9.51l13.84-20.39s.47.44,1.5,1.24a192.86,192.86,0,0,0-10.91,16.3c4.57,2.41,25.09,14.66,32,20.75l-1.47,2.31A171.19,171.19,0,0,1,274.56,194.67Z" style="fill:#4d4143"/><path d="M307.68,187.14s-14.81-2.81-24.83-7.18c-11.61-5.07-13.85-6.81-13.85-6.81l5.69-8.38a148.79,148.79,0,0,0,13.9,9.19c4.9,2.87,20.5,10.62,20.5,10.62Z" style="fill:#756b6e"/><path d="M260,191c3.11,2.13,9.35,6.35,15.4,10.14a.64.64,0,0,1-.32,1.19,24.82,24.82,0,0,1-16.4-5.05C254.36,194.07,260,191,260,191Z" style="fill:#fff;opacity:0.2"/><path d="M304.83,206.69s-3.76.76-4.56.28a1.31,1.31,0,0,1,.29-2.28,11.52,11.52,0,0,1,3.25,0Z" style="fill:#4d4143"/><path d="M309.88,205.74a28.56,28.56,0,0,0-7.12-4.67c.11-.12.22-.24.33-.34,1-.88,1.81-.09,2.8.38,2.35,1.12,5.75,3,7.17,5.86,1.17,2.32,1,3.91-.86,4.14C312.61,209.57,311.74,207.52,309.88,205.74Z" style="fill:#ffd939"/><path d="M305.51,209.24c-3.5-1.65-4.32-4-3.92-5.93a4.74,4.74,0,0,1,1.17-2.24,28.56,28.56,0,0,1,7.12,4.67c1.86,1.78,2.73,3.83,2.32,5.37C310.86,211.28,308.68,210.74,305.51,209.24Z" style="fill:#ffb81a"/><path d="M243.46,223c-.45.78.4,2.11,1.9,3s3.08.94,3.53.16-.41-2.11-1.91-3S243.9,222.22,243.46,223Z" style="fill:#fff"/><path d="M334,172.32s1.53,16.92,1.84,20.25.65,13.15.06,14.56c-.38-2.53-.83-6.59-1.1-11.62s-1.34-17-1.34-19c0-1.11-.2-2.83-.16-3.63A4.44,4.44,0,0,1,334,172.32Z" style="fill:#f77c0d"/><path d="M379.74,166.58a33.84,33.84,0,0,1-3.13,3.7c-1.14,1-.92,1.79-.76,3.15.14,1.18,2.21.16,3.25-.38a5.61,5.61,0,0,0,2.06-1.77A12.69,12.69,0,0,0,379.74,166.58Z" style="fill:#ff4343"/><path d="M333.26,144.66s10.84,5.94,18.05,10.51c4.91,3.12,13.86,8,13.86,8s-7.84-2.27-11.18-2.84c-2.9-2-31-17.84-31-17.84S329.71,144,333.26,144.66Z" style="fill:#30282a"/><path d="M330.94,191.9c1.27-.49,2.09-.64,2.32.11.33,1.06-1.18,1.83-1.72,2.11-1.23.65-2.78,1.79-3.38.53S329.91,192.29,330.94,191.9Z" style="fill:#30282a"/><path d="M359,176c1.27-.49,2.09-.64,2.32.11.33,1.06-1.18,1.84-1.72,2.12-1.23.64-2.78,1.79-3.38.53S358,176.35,359,176Z" style="fill:#30282a"/><path d="M309.2,144.14c0-.43,1-1.25,1.15-1.29,2.09-.83,4.16,0,6,1.08a19.91,19.91,0,0,1,5,3.88c.59.74.94,1.48-.66,1.48s-9.34-2.61-10.75-3.48C309.1,145.29,309,144.66,309.2,144.14Z" style="fill:#fff;opacity:0.2"/><path d="M271.59,228a25.27,25.27,0,0,0-3.61,6.63,18.67,18.67,0,0,0-.43,6.65c-2.83-1.09-6.38-2.77-6.37-5.63a6.47,6.47,0,0,1,3-6A10.56,10.56,0,0,1,271.59,228Z" style="fill:#e0d4d3"/><path d="M233.42,206a17.63,17.63,0,0,1,2.28,8.61c-.1,4.71-.17,8.45-2.7,7.25-1.16-.56-3.3-1.68-3.3-1.68A20,20,0,0,1,233.42,206Z" style="fill:#e0d4d3"/><path d="M259,187.14s7.17,5.07,16.71,11a104.07,104.07,0,0,0,15.7,8.08A137,137,0,0,0,277,216.72c-5.9,4.95-9.89,11.54-17.87,7.84s-15.27-8.86-19.41-11-4.69-7.72,1.66-13.2S259,187.14,259,187.14Z" style="fill:#fff;opacity:0.2"/><path d="M293.08,158.66,296,157c.4-.21,1.14,0,2.52.82l1.69,1,2,1.15,1.69,1c2.05,1.18,2.69,2,2.89,3.11.23,1.33.34,3.8.34,3.8l-2.86,1.65Z" style="fill:#30282a"/><path d="M303.91,165.66c-.2-1.14-.84-1.92-2.88-3.1l-1.7-1-2-1.15-1.7-1c-2-1.18-2.68-1.14-2.88-.23a27.86,27.86,0,0,0-.34,3.41l4.92,2.85,2,1.15,4.92,2.84S304.14,167,303.91,165.66Z" style="fill:#ffcf48"/><path d="M295.22,160.62l-.79-.46v-.72l2.24,1.29v.73l-.79-.46v3.1l-.66-.38Z" style="fill:#30282a"/><path d="M297.48,161.19l.78.45.9,4.35-.69-.4-.18-1-.88-.51-.17.81-.67-.39Zm.06,2.28.62.36-.07-.39c-.08-.43-.16-.93-.23-1.37h0c-.07.37-.15.77-.22,1.1Z" style="fill:#30282a"/><path d="M299.94,164.48l-.75-2.3.73.42.25.87c.07.22.13.45.21.74h0a4,4,0,0,1,.19-.51l.22-.59.7.4-.75,1.47.8,2.38-.73-.42-.29-.94-.21-.75,0,0c-.07.2-.14.36-.19.52l-.28.63-.7-.41Z" style="fill:#30282a"/><path d="M301.94,163.77l.65.37V168l-.65-.38Z" style="fill:#30282a"/><polygon points="283.8 112.37 290.19 116.03 295.75 112.82 289.36 109.16 283.8 112.37" style="fill:#c6b7b8"/><polygon points="290.19 116.03 290.19 117.54 295.75 114.33 295.75 112.82 290.19 116.03" style="fill:#ad9e9f"/><polygon points="283.8 112.37 290.19 116.03 290.19 117.54 283.8 113.88 283.8 112.37" style="fill:#9b8a8c"/><path d="M289.78,46.6A1.27,1.27,0,0,1,291,47.86v64.52c0,.37-.57.67-1.26.67s-1.26-.3-1.26-.67V47.86A1.26,1.26,0,0,1,289.78,46.6Z" style="fill:#ad9e9f"/><path d="M282.15,33.4l1.08-.59.07,0h0a1.37,1.37,0,0,1,1.23.16l10.77,6.22a5,5,0,0,1,2.08,4V63.75a1.88,1.88,0,0,1-.65,1.62l-1.1.61-.26-.63s0,0-.07,0L284.56,59.1a5,5,0,0,1-2.08-4V34.49c0-.08,0-.15,0-.23Z" style="fill:#3d79c2"/><path d="M283.49,59.68l10.78,6.22c1.14.66,2.07-.05,2.07-1.57V43.69a5,5,0,0,0-2.07-4L283.49,33.5c-1.14-.66-2.07,0-2.07,1.57V55.71A5,5,0,0,0,283.49,59.68Z" style="fill:#418bd6"/><path d="M294.36,64.74a1.2,1.2,0,0,0,.59-.15,1.86,1.86,0,0,0,.76-1.7V43.81a4.65,4.65,0,0,0-1.95-3.71l-9.51-5.49a1.42,1.42,0,0,0-1.44-.09,1.87,1.87,0,0,0-.76,1.69V55.29A4.68,4.68,0,0,0,284,59l9.5,5.48A1.69,1.69,0,0,0,294.36,64.74ZM283.41,34.86a1.27,1.27,0,0,1,.6.18l9.5,5.49a4.17,4.17,0,0,1,1.71,3.28V62.89a1.42,1.42,0,0,1-.51,1.27.93.93,0,0,1-.95-.1l-9.51-5.48a4.21,4.21,0,0,1-1.7-3.29V36.21a1.39,1.39,0,0,1,.51-1.26A.68.68,0,0,1,283.41,34.86Z" style="fill:#fff"/><path d="M292.5,58.25l-7.24-4.18a3.47,3.47,0,0,1-1.45-2.77V39.78c0-1.07.65-1.56,1.45-1.1l7.24,4.18A3.47,3.47,0,0,1,294,45.63V57.16C294,58.22,293.3,58.71,292.5,58.25Z" style="fill:#fff"/><polygon points="293.07 53.7 284.69 48.86 284.69 41.77 293.07 46.61 293.07 53.7" style="fill:#418bd6"/><polygon points="290.87 44.18 286.89 41.88 286.89 40.78 290.87 43.08 290.87 44.18" style="fill:#418bd6"/><path d="M285.35,56a1.64,1.64,0,0,1-.67-1.29V53.05c0-.5.3-.73.67-.51a1.59,1.59,0,0,1,.68,1.29v1.62C286,55.94,285.73,56.17,285.35,56Z" style="fill:#fff"/><path d="M292.41,60a1.62,1.62,0,0,1-.68-1.29V57.12c0-.49.31-.72.68-.51a1.61,1.61,0,0,1,.67,1.29v1.62C293.08,60,292.78,60.25,292.41,60Z" style="fill:#fff"/><path d="M286,52.28c0,.49-.3.72-.67.5a1.6,1.6,0,0,1-.66-1.27c0-.49.3-.71.66-.5A1.58,1.58,0,0,1,286,52.28Z" style="fill:#418bd6"/><path d="M293.07,56.35c0,.49-.29.72-.66.51a1.6,1.6,0,0,1-.67-1.27c0-.49.3-.72.67-.51A1.59,1.59,0,0,1,293.07,56.35Z" style="fill:#418bd6"/><polygon points="136.86 79.76 136.86 192.88 140.59 190.71 140.59 79.76 136.86 79.76" style="fill:#ad9e9f"/><polygon points="118.85 79.76 118.85 182.49 136.86 192.88 136.86 79.76 118.85 79.76" style="fill:#c6b7b8"/><polygon points="264.95 5.62 264.95 118.74 268.68 116.56 268.68 5.62 264.95 5.62" style="fill:#ad9e9f"/><polygon points="246.94 5.62 246.94 108.35 264.95 118.74 264.95 5.62 246.94 5.62" style="fill:#c6b7b8"/><polygon points="108.78 81.95 108.78 85.82 146.95 91.87 146.95 87.99 108.78 81.95" style="fill:#3d79c2"/><polygon points="288.88 6.05 146.95 87.99 108.78 81.95 250.71 0 288.88 6.05" style="fill:#62aeed"/><polygon points="288.88 6.05 288.88 9.92 146.95 91.87 146.95 87.99 288.88 6.05" style="fill:#4d9fe2"/><polygon points="264.13 90.86 249.85 99.1 233.36 89.58 247.64 81.34 264.13 90.86" style="fill:#62aeed"/><polygon points="259.86 90.48 249.75 96.32 238.07 89.58 248.19 83.74 259.86 90.48" style="fill:#3d79c2"/><polygon points="264.13 118.18 249.85 126.42 233.36 116.9 247.64 108.66 264.13 118.18" style="fill:#418bd6"/><polygon points="264.13 90.86 249.85 99.1 249.85 126.42 264.13 118.18 264.13 90.86" style="fill:#4d9fe2"/><polygon points="233.36 89.58 233.36 116.9 249.85 126.42 249.85 99.1 233.36 89.58" style="fill:#3d79c2"/><path d="M236.75,128.89c-2.22-2.07-5.54-4.14-6-5.52a13,13,0,0,1-.51-3.6c0-.71,0-3.75,0-3.75l-2.34-1.35s0,3.17,0,4a7.2,7.2,0,0,1-.51,2.81c-.48.81-3.08-.35-5.3-.86a2.13,2.13,0,0,0-.94,0h0a4.15,4.15,0,0,0-1.62.85l.44.06a3.4,3.4,0,0,0-.44,1.36l.8.46c.36-.69,1.39-.84,3.05-.29a36.67,36.67,0,0,1,5.5,2.7l.23.14.24.14a43.59,43.59,0,0,1,5.49,3.64c1.66,1.37,1.91,1.86,1.91,3l.94,1.81,1-.58C238.49,132.56,238.48,130.49,236.75,128.89Z" style="fill:#cebdbc"/><path d="M235.75,129.46c-2.23-2.06-5.54-4.14-6-5.51a13.56,13.56,0,0,1-.51-3.61c0-.71,0-3.75,0-3.75l-2.34-1.35s0,3.17,0,4a7.31,7.31,0,0,1-.5,2.8c-.49.81-3.08-.35-5.31-.86-1.73-.39-2.45,1.08-2.59,2.25l.8.46c.37-.69,1.4-.83,3.06-.29a36,36,0,0,1,5.49,2.71l.24.14.23.14a42.64,42.64,0,0,1,5.49,3.63c1.67,1.37,1.92,1.86,1.92,3l1.94,1.23C237.48,133.13,237.48,131.06,235.75,129.46Z" style="fill:#f4f0ef"/><path d="M229.36,111.65h-1.29V108c0-3,1.24-3.6,2.55-4.18l.25-.12a1.18,1.18,0,0,0,.54-1c0-.55-.15-2.5-3.52-4.45-3.55-2-9.38-2.73-9.44-2.74l.15-1.28c.25,0,6.15.72,9.93,2.9s4.22,4.69,4.17,5.63a2.41,2.41,0,0,1-1.29,2.16l-.27.12c-1.19.53-1.78.79-1.78,3Z" style="fill:#fff"/><path d="M239.29,117.28l-8.95-5.17a18.51,18.51,0,0,1-8.86-10.38,55.77,55.77,0,0,1-2.31-8.52c-.45-2.11-1-4.5-1.72-7.35-1.58-6-3.88-9.74-6.63-11.49a.88.88,0,0,0-.67-.09l-1.11.65a12.61,12.61,0,0,1,4.59,6c1.3,3.63,3.59,15,4.91,18.91a21.08,21.08,0,0,0,2.57,4.63,18.74,18.74,0,0,0,5.38,6.8c.52.59,1,1.09,1.32,1.46,2,2.15,10.59,6.24,10.59,6.24a4.64,4.64,0,0,0,1.15-.7A.69.69,0,0,0,239.29,117.28Z" style="fill:#fff"/><path d="M238,119.1a.73.73,0,0,1-.35-.09l-8.95-5.17a19.8,19.8,0,0,1-9.48-11.1A57.47,57.47,0,0,1,216.8,94c-.45-2.09-1-4.46-1.71-7.29-1.48-5.61-3.48-9.19-6-10.62a.71.71,0,0,1,.7-1.23c2.82,1.63,5,5.5,6.63,11.49.75,2.86,1.27,5.24,1.73,7.35a55.47,55.47,0,0,0,2.3,8.52,18.51,18.51,0,0,0,8.86,10.38l9,5.17a.71.71,0,0,1-.36,1.32Z" style="fill:#f4f0ef"/><path d="M218.27,93.6c-.46-2.11-1-4.49-1.73-7.35-1.57-6-3.8-9.86-6.62-11.48a.71.71,0,0,0-.81.07l-19,11.22s4.87,4.49,6.33,10.07c.93,3.51,2.52,10.2,4.1,15.52L220,100.42A68.49,68.49,0,0,1,218.27,93.6Z" style="fill:#62aeed"/><path d="M219.44,130.07l18.88-11.15a.41.41,0,0,0,.11-.07l.08,0h0a.81.81,0,0,0,.16-.16.72.72,0,0,0-.26-1l-8.95-5.17a18.34,18.34,0,0,1-6.86-6.32l-20,11.51a8,8,0,0,0,.52,1C205.24,122,219.44,130.07,219.44,130.07Z" style="fill:#62aeed"/><path d="M220.33,128.41l-9-5.17a18.49,18.49,0,0,1-8.86-10.37,57.08,57.08,0,0,1-2.31-8.53c-.45-2.11-1-4.49-1.72-7.35-1.58-6-3.88-9.74-6.63-11.49a.93.93,0,0,0-.67-.09l-1.1.65a12.69,12.69,0,0,1,4.58,6c1.3,3.63,3.59,15,4.92,18.92a20.73,20.73,0,0,0,2.56,4.62,18.65,18.65,0,0,0,5.39,6.8c.52.59,1,1.1,1.31,1.46,2,2.15,10.59,6.24,10.59,6.24a4.87,4.87,0,0,0,1.15-.69A.71.71,0,0,0,220.33,128.41Z" style="fill:#fff"/><path d="M219,130.23a.73.73,0,0,1-.35-.09L209.69,125a19.81,19.81,0,0,1-9.48-11.09,56.17,56.17,0,0,1-2.36-8.74c-.46-2.09-1-4.46-1.72-7.29-1.47-5.61-3.48-9.18-6-10.62a.69.69,0,0,1-.26-1,.7.7,0,0,1,1-.26c2.82,1.63,5.05,5.49,6.62,11.48.75,2.86,1.27,5.25,1.73,7.35a54.47,54.47,0,0,0,2.31,8.53,18.45,18.45,0,0,0,8.86,10.37l8.95,5.17a.72.72,0,0,1,.26,1A.7.7,0,0,1,219,130.23Z" style="fill:#f4f0ef"/><path d="M209.45,123.05h-1.29v-3.69c0-3.06,1.24-3.61,2.56-4.19l.25-.12a1.15,1.15,0,0,0,.53-1c0-.55-.14-2.5-3.52-4.45-3.55-2-9.37-2.73-9.43-2.74l.14-1.28c.25,0,6.15.72,9.94,2.9s4.21,4.69,4.17,5.64a2.42,2.42,0,0,1-1.3,2.15l-.26.12c-1.19.53-1.79.79-1.79,3Z" style="fill:#f4f0ef"/><path d="M208.42,123.77h-1.29v-3.69c0-3.06,1.24-3.61,2.55-4.19l.25-.11a1.17,1.17,0,0,0,.54-1c0-.55-.15-2.5-3.52-4.45-3.55-2-9.38-2.73-9.44-2.74l.15-1.28c.25,0,6.15.72,9.93,2.91s4.22,4.68,4.17,5.63a2.41,2.41,0,0,1-1.29,2.15l-.27.12c-1.18.53-1.78.79-1.78,3Z" style="fill:#fff"/><path d="M218.35,129.4l-8.95-5.17a18.51,18.51,0,0,1-8.86-10.38,56.62,56.62,0,0,1-2.31-8.52c-.45-2.11-1-4.5-1.72-7.35-1.58-6-3.88-9.74-6.63-11.49a.88.88,0,0,0-.67-.09l-1.1.65a12.69,12.69,0,0,1,4.58,6c1.3,3.63,3.59,15,4.92,18.92a21,21,0,0,0,2.56,4.62,18.74,18.74,0,0,0,5.38,6.8c.53.59,1,1.1,1.32,1.46,2,2.15,10.59,6.24,10.59,6.24a4.87,4.87,0,0,0,1.15-.69A.7.7,0,0,0,218.35,129.4Z" style="fill:#fff"/><path d="M217,131.22a.73.73,0,0,1-.35-.09L207.71,126a19.8,19.8,0,0,1-9.48-11.1,57.16,57.16,0,0,1-2.37-8.73c-.45-2.09-1-4.46-1.71-7.29-1.48-5.61-3.48-9.19-6-10.62A.71.71,0,1,1,188.9,87c2.82,1.62,5,5.49,6.62,11.48.75,2.86,1.27,5.24,1.73,7.35a54.47,54.47,0,0,0,2.31,8.53,18.48,18.48,0,0,0,8.85,10.37l9,5.17a.71.71,0,0,1-.36,1.32Z" style="fill:#f4f0ef"/><path d="M197.33,105.72c-.46-2.1-1-4.49-1.72-7.35-1.58-6-3.81-9.85-6.63-11.48a.69.69,0,0,0-.81.08l-19,11.21s4.87,4.49,6.34,10.07c.92,3.51,2.52,10.21,4.09,15.52L199,112.54C198.35,110.41,197.89,108.28,197.33,105.72Z" style="fill:#62aeed"/><path d="M198.5,142.2,217.38,131a.41.41,0,0,0,.11-.07l.08,0h0a.61.61,0,0,0,.16-.16.72.72,0,0,0-.26-1l-8.95-5.17a18.34,18.34,0,0,1-6.86-6.32l-19.95,11.52a8.61,8.61,0,0,0,.52,1C184.3,134.16,198.5,142.2,198.5,142.2Z" style="fill:#62aeed"/><path d="M199.39,140.53l-8.95-5.17A18.49,18.49,0,0,1,181.58,125a55.61,55.61,0,0,1-2.3-8.53c-.46-2.1-1-4.49-1.73-7.35-1.58-6-3.88-9.74-6.63-11.48a.9.9,0,0,0-.67-.1l-1.1.65a12.68,12.68,0,0,1,4.58,6c1.31,3.62,3.59,15,4.92,18.91a21,21,0,0,0,2.56,4.63,18.61,18.61,0,0,0,5.39,6.79c.52.6,1,1.1,1.32,1.46,2,2.16,10.58,6.25,10.58,6.25a4.64,4.64,0,0,0,1.15-.7A.71.71,0,0,0,199.39,140.53Z" style="fill:#fff"/><path d="M198.05,142.36a.64.64,0,0,1-.35-.1l-8.95-5.17A19.73,19.73,0,0,1,179.28,126a55.24,55.24,0,0,1-2.37-8.73c-.46-2.1-1-4.47-1.72-7.29-1.47-5.62-3.48-9.19-6-10.62a.71.71,0,0,1,.71-1.23c2.82,1.63,5.05,5.49,6.62,11.49.76,2.85,1.27,5.24,1.73,7.34a55.59,55.59,0,0,0,2.31,8.53,18.48,18.48,0,0,0,8.86,10.38l8.95,5.16a.71.71,0,0,1-.36,1.33Z" style="fill:#f4f0ef"/><path d="M188.51,135.17h-1.29v-3.69c0-3.06,1.24-3.61,2.56-4.19l.25-.11a1.21,1.21,0,0,0,.54-1.05c0-.55-.15-2.5-3.53-4.44-3.55-2-9.37-2.74-9.43-2.75l.15-1.28c.24,0,6.14.72,9.93,2.91s4.21,4.68,4.17,5.63a2.42,2.42,0,0,1-1.3,2.15l-.26.12c-1.19.53-1.79.79-1.79,3Z" style="fill:#f4f0ef"/><path d="M175.55,164.15c-2.22-2.06-5.54-4.14-6-5.51A13.12,13.12,0,0,1,169,155c0-.7,0-6.72,0-6.72L166.67,147s0,6.14,0,6.93a7.11,7.11,0,0,1-.51,2.8c-.48.82-3.08-.35-5.3-.86a2.3,2.3,0,0,0-.94,0h0a4.07,4.07,0,0,0-1.62.85l.44.05a3.45,3.45,0,0,0-.44,1.36l.8.47c.36-.69,1.39-.84,3.05-.29a35.14,35.14,0,0,1,5.49,2.7l.24.14.24.14a44.47,44.47,0,0,1,5.49,3.63c1.66,1.37,1.91,1.87,1.91,3l.94,1.8,1-.57C177.29,167.83,177.28,165.75,175.55,164.15Z" style="fill:#cebdbc"/><path d="M174.55,164.73c-2.23-2.07-5.54-4.14-6-5.52a13.43,13.43,0,0,1-.51-3.6c0-.71,0-6.72,0-6.72l-2.34-1.35s0,6.14,0,6.92a7.4,7.4,0,0,1-.5,2.81c-.49.81-3.08-.36-5.31-.86-1.73-.4-2.45,1.08-2.59,2.24l.8.47c.37-.69,1.4-.84,3.06-.29a36,36,0,0,1,5.49,2.7l.24.14.23.14a43.73,43.73,0,0,1,5.49,3.63c1.67,1.38,1.92,1.87,1.92,3.05l1.94,1.23C176.28,168.4,176.28,166.33,174.55,164.73Z" style="fill:#f4f0ef"/><path d="M187.42,135.84h-1.29v-3.7c0-3,1.24-3.6,2.55-4.19l.26-.11a1.18,1.18,0,0,0,.53-1c0-.55-.14-2.5-3.52-4.45-3.55-2-9.38-2.74-9.43-2.74l.14-1.29c.25,0,6.15.73,9.94,2.91s4.21,4.69,4.16,5.63a2.41,2.41,0,0,1-1.29,2.16l-.26.11c-1.19.53-1.79.8-1.79,3Z" style="fill:#fff"/><path d="M197.36,141.46l-9-5.17a18.49,18.49,0,0,1-8.86-10.37,55.61,55.61,0,0,1-2.3-8.53c-.46-2.1-1-4.49-1.73-7.35-1.58-6-3.88-9.74-6.63-11.48a.88.88,0,0,0-.66-.1l-1.11.65a12.68,12.68,0,0,1,4.58,6c1.31,3.62,3.59,15,4.92,18.91a20.67,20.67,0,0,0,2.57,4.63,18.49,18.49,0,0,0,5.38,6.79c.52.6,1,1.1,1.32,1.46,2,2.16,10.58,6.25,10.58,6.25a4.64,4.64,0,0,0,1.15-.7A.71.71,0,0,0,197.36,141.46Z" style="fill:#fff"/><path d="M196,143.29a.78.78,0,0,1-.35-.1L186.71,138a19.73,19.73,0,0,1-9.47-11.09,56.16,56.16,0,0,1-2.37-8.74c-.46-2.09-1-4.46-1.71-7.28-1.48-5.62-3.49-9.19-6-10.62a.72.72,0,0,1-.26-1,.71.71,0,0,1,1-.26c2.82,1.63,5,5.49,6.63,11.49.75,2.85,1.26,5.24,1.72,7.34a55.59,55.59,0,0,0,2.31,8.53,18.45,18.45,0,0,0,8.86,10.37l9,5.17a.71.71,0,0,1-.36,1.33Z" style="fill:#f4f0ef"/><path d="M176.33,117.79c-.45-2.11-1-4.5-1.72-7.35-1.58-6-3.81-9.86-6.63-11.49a.71.71,0,0,0-.81.08l-19,11.22s4.87,4.49,6.34,10.06c.92,3.51,2.52,10.21,4.1,15.53L178,124.6C177.35,122.47,176.89,120.34,176.33,117.79Z" style="fill:#62aeed"/><path d="M177.5,154.26l18.89-11.16.11-.06.07,0h0a.61.61,0,0,0,.16-.16.69.69,0,0,0-.26-1l-8.95-5.17a18.43,18.43,0,0,1-6.86-6.32L160.7,141.88a8.93,8.93,0,0,0,.51,1C163.3,146.23,177.5,154.26,177.5,154.26Z" style="fill:#62aeed"/><path d="M178.4,152.6l-9-5.17a18.48,18.48,0,0,1-8.86-10.38,54.64,54.64,0,0,1-2.31-8.52c-.46-2.11-1-4.5-1.73-7.35-1.57-6-3.87-9.74-6.62-11.49a.88.88,0,0,0-.67-.09l-1.11.65a12.62,12.62,0,0,1,4.58,6c1.31,3.62,3.59,15,4.92,18.91a21.08,21.08,0,0,0,2.57,4.63,18.64,18.64,0,0,0,5.38,6.8c.52.59,1,1.09,1.32,1.46,2,2.15,10.58,6.24,10.58,6.24a4.66,4.66,0,0,0,1.16-.7A.7.7,0,0,0,178.4,152.6Z" style="fill:#fff"/><path d="M177.06,154.42a.7.7,0,0,1-.36-.1l-8.95-5.16a19.79,19.79,0,0,1-9.47-11.1,56.33,56.33,0,0,1-2.37-8.73c-.45-2.09-1-4.46-1.71-7.29-1.48-5.61-3.49-9.19-6-10.62a.71.71,0,0,1,.71-1.23c2.82,1.63,5.05,5.5,6.63,11.49.75,2.85,1.27,5.24,1.72,7.35a56.62,56.62,0,0,0,2.31,8.52,18.51,18.51,0,0,0,8.86,10.38l8.95,5.17a.7.7,0,0,1,.26,1A.72.72,0,0,1,177.06,154.42Z" style="fill:#f4f0ef"/><path d="M196.11,165.59s-1.16.33-2,.64-1.27-1-1.27-1a5.37,5.37,0,0,0-1.08,2.52c-.24,1.55-.27,1.95.25,2.57s1.59.35,1.59.35a9.86,9.86,0,0,0,2.27,3.46,3.56,3.56,0,0,0,4.89,0c.93-.91-1.84-3.73-3-5.77C196.94,166.81,196.11,165.59,196.11,165.59Z" style="fill:#30282a"/><path d="M196.76,166.6a12.22,12.22,0,0,0-2.48.86c-.57.4-.27,1.12.82.76s2.16-.74,2.16-.74Z" style="fill:#fff"/><path d="M197.9,168.56a11.79,11.79,0,0,0-2.48.87c-.56.39-.26,1.12.83.75s2.2-.76,2.2-.76Z" style="fill:#fff"/><path d="M194.81,159a8.86,8.86,0,0,1-.33,1.5,5.86,5.86,0,0,0,.17,2.48,1.3,1.3,0,0,0,1,.72,3.24,3.24,0,0,0,1.41,0,10.51,10.51,0,0,0,1.77,1.64,9.34,9.34,0,0,0,3.81,1.16c1.31,0,1.93-.93,1.85-1.42a10.93,10.93,0,0,0-2.05-2.76c-2.05-2.21-3.22-3.38-3.75-3.58s-1.37.78-2.11,1S195.54,159.34,194.81,159Z" style="fill:#30282a"/><path d="M199.68,159.39a9.72,9.72,0,0,0-1.53,1.09c-.45.46-.08,1.14.75.6s1.47-1,1.47-1Z" style="fill:#fff"/><path d="M201,160.75s-1,.73-1.33,1c-.62.54,0,1.37.91.69.62-.46,1.19-.93,1.19-.93Z" style="fill:#fff"/><path d="M192.87,150.67a32.54,32.54,0,0,0,1.43,8.5c.6,1,3.86,1.16,5.67,0-.15-1.5-.06-5.38,0-6.89,0-2.34.3-6.7.13-8.12-.2-1.71.94-3.17-.6-4.37s-4.7-2.49-6.5-3.49-5.07-1.57-6.83-2.54c-2.29-1.26-4.56-4-7.41-3.92a.09.09,0,0,0-.05.17l.09.06c-.06,0-2.46,4.24-1.68,5.87,1.62,3.39,8.46,7.78,15.82,9.19C192,147.34,192.85,149.93,192.87,150.67Z" style="fill:#7e42b2"/><path d="M191.57,147.6c-1.67-3.14-8.21-7.29-10.25-8.29a24.56,24.56,0,0,0-3.6-5.36,14.47,14.47,0,0,1-3.84,2.93,25.54,25.54,0,0,1-4.16,2c.64,3.32,2,4.68,5.35,6.78a76.89,76.89,0,0,0,11.16,5.92c0,2.76.72,5.11,2.37,8.57,1.35,2.82,1.8,4.1,3,6.79,1,.5,5.22,0,5.69-.51C196.36,161.61,193.45,151.13,191.57,147.6Z" style="fill:#995bce"/><path d="M176.55,115a16.91,16.91,0,0,1,5.57,2.81c1.24,1,2.28,1.42,2,2.55-.19.91-.21,3.2-.91,4.26s-1.87,3.06-1.87,3.06l-2.24-.62s.17-2.5.14-2.89a14.15,14.15,0,0,1,.42-3.22,13.86,13.86,0,0,1-5.16-1.87Z" style="fill:#ffb8a3"/><path d="M172.89,112.37c-2.13-1-3.79-1.15-5.1.36,0,0,3.33,3.23,3.81,4.28a21.76,21.76,0,0,0,2.83,3.34c1.12,1.16,3.71-3.84,4.22-4.92C176.23,113.57,174.86,112.47,172.89,112.37Z" style="fill:#ff9e03"/><path d="M178,115a17.5,17.5,0,0,1-1.44,2.76c-.8,1.18-1.46,2-1.46,2l.46.57a9,9,0,0,0,1.95-2,13.24,13.24,0,0,0,1.43-2.75Z" style="fill:#fff"/><path d="M181.77,130.47c-.93-3.66-4.87-5.34-5.76-9,.26-2.13-1-4-2.3-5.72-.8-1-2.24-2.82-3.42-3.38s-2.6.37-3.61,1a61.49,61.49,0,0,0-6.27,5.68c-1,1.15-.27,1.73-.23,3.16.08,3.25,2.48,6.66,4.18,9.3.91,1.41,2,2.64,3,4a9.54,9.54,0,0,1,1.89,3.58C173.22,139.2,181.78,133.74,181.77,130.47Z" style="fill:#ffb501"/><path d="M161.69,117.76s.78,1.44,3.41,1.28,4.22-1.45,4.21-3a3.7,3.7,0,0,0-1.52-2.58A57.36,57.36,0,0,0,161.69,117.76Z" style="fill:#fff"/><path d="M171.58,128.34s.53,7-.28,9.37c-1.15,3.38-2.15,6.48-.73,7.72,1.26,1.12,5.11,1.3,7.47-.53a6.11,6.11,0,0,0,2.31-4.59l-1.7.2a4.41,4.41,0,0,1-2.23,3.54c-2.13,1.09-4.9,1.36-5.18-.76s1.89-5.27,2-8.12,0-6.43,0-6.43Z" style="fill:#231d1f"/><path d="M168.16,115.05c-.41-.44-.92-1.13-1.3-1.57s-1-1.59-1.78-1.76a19.22,19.22,0,0,0-4,1.26,8.77,8.77,0,0,1,1.43,4.55c.62,1,3.75.87,4.84.06C168.07,117.08,168.86,115.82,168.16,115.05Z" style="fill:#ffb8a3"/><path d="M166.06,106.62a5.79,5.79,0,0,0-3.53-2.19c-1.37-.08-2.76.93-3.72,1.83-1.48,1.38-1.17,4,.74,5.79,1.76,1.64,5.32,3.49,7.7,2.2,1.21-.66,1.39-2.11,1-3.51A10.7,10.7,0,0,0,166.06,106.62Z" style="fill:#ffc8b5"/><path d="M158.24,107.05a3.32,3.32,0,0,0-.64,4,7.87,7.87,0,0,0,4.29,3.64c.14.06-.37-1.94-.44-3.28a8.66,8.66,0,0,0-.55-2.87,5.51,5.51,0,0,0,2-.17,6.38,6.38,0,0,0,1.68-.36c.65-.27,1.31-.94,2-.56.12.16.43.5.55.66.22-1.65-.89-4.17-2.93-4.7C161.45,102.69,158.17,104.19,158.24,107.05Z" style="fill:#30282a"/><path d="M180.71,124.11c-1.38-1.63-3.19-3.64-5.55-3.41-1.12.11-3.49,1.93-3.85,2.26-1.36,1.29-1.34,3-1,4.67a68.42,68.42,0,0,0,2.67,9.11,10.4,10.4,0,0,0,3.25,4.84c1.22,1,4.07.52,5.38-.31,1.93-1.23,4.09-2.09,5.4-4C189.93,133.09,183.36,127.25,180.71,124.11Z" style="fill:#30282a"/><path d="M171.4,123.93s-.83,1.71.28,6.07c.82,3.23,2.71,7.88,4,9.52s1.85,1.77,2.4,1-1.35-2.55-2.4-4.79-2.37-6.61-2-8.7C173.89,125.35,171.4,123.93,171.4,123.93Z" style="fill:#231d1f"/><path d="M171.7,125.64a11.16,11.16,0,0,0,.88,2.12,7.62,7.62,0,0,0,1.2,1.64c1.46,1.51,6.6-.12,7.6-1.74s.6-3.17-1.24-4.88-2.91-3-5.18-2.33c-1,.28-3.92,1.8-4.39,3.48C171.16,123.93,171.2,124.41,171.7,125.64Z" style="fill:#4d4143"/><path d="M179.89,123.18c-.83-.81-2-.19-3.09.1a6.5,6.5,0,0,0-2.59,1.28c-.53.48-.93,1.67-2,2.3l-4.14,2.56a14.84,14.84,0,0,0-2.36-4.07c-.68.14-.91.7-1.57.94-1,.38-2.92,1.28-2.9,1.29a11.33,11.33,0,0,0,2.54,4.32,11.19,11.19,0,0,0,3,2.19c1.88,1.17,2.94.16,4.46-1.2.77-.69,2.31-3.67,4-5.24,1.08-1,3.06-1.17,3.94-1.81S180.36,123.63,179.89,123.18Z" style="fill:#ffc8b5"/><path d="M164.26,121.38a8.15,8.15,0,0,0-3.85-2.34,4.64,4.64,0,0,0-2,5.58,19.09,19.09,0,0,0,3.35,5.72c1.45-.21,5.06-2.63,5.74-3.84A23.23,23.23,0,0,0,164.26,121.38Z" style="fill:#ff9e03"/><path d="M161.88,111.12s-1.58-.92-1.8.28,1,1.76,1.8,1.89S161.88,111.12,161.88,111.12Z" style="fill:#ffc8b5"/><path d="M176.11,122a5.13,5.13,0,0,0-2.47,3.29c-.24.88,1,.65,1.53,0a23.06,23.06,0,0,0,1.23-2.67C176.7,122.21,176.42,121.86,176.11,122Z" style="fill:#ffc8b5"/><path d="M161.14,129.57a13.43,13.43,0,0,0,3.21-1.49,17,17,0,0,0,2.73-2.39l.47,1.09a10,10,0,0,1-2.56,2.27,19.87,19.87,0,0,1-3.15,1.46Z" style="fill:#fff"/><path d="M178.75,128.35s.2,1.18,1.05,1.47,2.31-.78,2.13-1.72a1.84,1.84,0,0,0-1-1.29Z" style="fill:#fff"/><path d="M184,129.57a38.18,38.18,0,0,1-3.6,2.5c-1.77,1.05-3.83,2.13-3.83,2.13a11.14,11.14,0,0,0,3.36,4.5c2.1,1.38,5.94-1.75,6.5-3.53S184,129.57,184,129.57Z" style="fill:#231d1f"/><path d="M176.61,135.45h-.08a.11.11,0,0,1-.1-.11.1.1,0,0,1,.1-.09,11.54,11.54,0,0,0,4.91-1.39c3.44-1.65,4.14-2.5,4.14-2.51a.11.11,0,0,1,.14,0,.11.11,0,0,1,0,.14s-.71.89-4.21,2.57A12,12,0,0,1,176.61,135.45Z" style="fill:#fff"/><path d="M178.14,138.07a.09.09,0,0,1-.09-.06.1.1,0,0,1,.06-.13,9.22,9.22,0,0,0,3.3-2.43,27.77,27.77,0,0,0,3.23-5.42.1.1,0,0,1,.14,0,.1.1,0,0,1,0,.13,28,28,0,0,1-3.26,5.46,9.27,9.27,0,0,1-3.39,2.49Z" style="fill:#fff"/><path d="M177.61,137.25a.1.1,0,0,1-.1-.08.09.09,0,0,1,.08-.11s4.13-.86,6.2-1.45a9.74,9.74,0,0,0,3.37-1.66.1.1,0,0,1,.14,0,.11.11,0,0,1,0,.14,10.23,10.23,0,0,1-3.44,1.7c-2.09.59-6.18,1.44-6.22,1.45Z" style="fill:#fff"/><path d="M179.37,139.62a.1.1,0,0,1-.09-.06.09.09,0,0,1,.06-.13,14,14,0,0,0,3.15-1.93,22.14,22.14,0,0,0,3.88-4.9.09.09,0,0,1,.13,0,.1.1,0,0,1,0,.13,22.5,22.5,0,0,1-3.93,5,13.45,13.45,0,0,1-3.21,2Z" style="fill:#fff"/><path d="M167.52,147.24h-1.29v-3.7c0-3,1.24-3.6,2.55-4.19l.25-.11a1.19,1.19,0,0,0,.54-1c0-.55-.15-2.5-3.52-4.45-3.55-2.05-9.38-2.74-9.44-2.74l.15-1.29c.25,0,6.15.73,9.93,2.91s4.22,4.69,4.17,5.63a2.43,2.43,0,0,1-1.29,2.16l-.27.11c-1.19.53-1.78.8-1.78,3Z" style="fill:#f4f0ef"/><polygon points="79.87 229.78 24.22 197.65 79.85 165.64 135.5 197.77 79.87 229.78" style="fill:#c6b7b8"/><polygon points="128.36 198.81 130.19 197.75 80.03 168.79 29.88 197.65 31.72 198.71 80.03 170.91 128.36 198.81" style="fill:#ad9e9f"/><polygon points="128.36 198.81 80.03 170.91 31.72 198.71 80.05 226.61 128.36 198.81" style="fill:#97c941"/><polygon points="24.22 197.65 24.22 200.92 79.87 233.05 79.87 229.78 24.22 197.65" style="fill:#ad9e9f"/><polygon points="135.5 197.77 135.5 201.04 79.87 233.05 79.87 229.78 135.5 197.77" style="fill:#ad9e9f"/><path d="M108.21,192.57c-2.26-1.73-6-2.29-8.72-2.66a18.81,18.81,0,0,0-3.18-.2,4.82,4.82,0,0,0-.17-1.09c-.85-3.19-5.15-4.42-8.66-4.49-2.48,0-9-.5-11.37.14-1.92.51-4.66,2.25-5.17,3.91-3.76-.76-8.91-1.18-11.86,1.75-3.35-.36-6.95.22-9.35,2.33-1.81,1.59-.59,3.25,1.18,4.34-2,.65-3.76,1.93-3.37,4.1.51,2.85,4.35,4.06,7.3,4.32a3.64,3.64,0,0,0,.33,2.13c1.2,2.49,4.55,3.41,7,3.83a16.54,16.54,0,0,0,7.17-.13c1.49,2.08,5,3.07,7.17,3.5,3.81.72,11.43-.06,14.34-3.78a19.81,19.81,0,0,0,12.92-3.07c2.08-1.45,4.07-3.77,2.2-6.23a5.77,5.77,0,0,0-.72-.76,8.24,8.24,0,0,0,3.87-2.44C110.61,196.19,110,194,108.21,192.57Z" style="fill:#6c9925;mix-blend-mode:multiply;opacity:0.30000000000000004"/><path d="M109.05,132.42a62.82,62.82,0,0,0-2.19,8.56c-.45,2.06-.84,3.56-2.68,4.91-1,.74-2.18,1.15-3.19,1.88-.23.18-.2.67.17.63a7.3,7.3,0,0,0,6.14-4.46,37.53,37.53,0,0,0,1.94-11.49C109.24,132.33,109.09,132.33,109.05,132.42Z" style="fill:#753814"/><path d="M77.37,153.59a8.61,8.61,0,0,1-2.87-5.91A7.25,7.25,0,0,1,75.83,143a6.21,6.21,0,0,1-1.73-5.76,4.7,4.7,0,0,1-1.63,0,4.92,4.92,0,0,1-1.35-.53,3.82,3.82,0,0,1-3,2.27,3.63,3.63,0,0,1-3-1.41,6.27,6.27,0,0,1-6.55-.23,4.41,4.41,0,0,1-1-1,11.39,11.39,0,0,0-.16,1.53c-.07,2.27.7,5.29,2.64,6.7a2.89,2.89,0,0,0,2.89.29,2.66,2.66,0,0,0,4,1.69,8,8,0,0,0,4.1,6.06,5.45,5.45,0,0,0,2.1,4.7c1.09.79,3.84,1.44,5.06.36A6.6,6.6,0,0,1,77.37,153.59Z" style="fill:#479925"/><path d="M85.93,157.59a10.26,10.26,0,0,0,3-4.66c1.56.56,3.86-.4,5-1.48a8,8,0,0,0,2.23-5.06c2.43-1.16,4.94-5.2,5.55-6.71,1.09-2.72,1-7-1.11-9,1.89-3.5.38-10.17-1.45-12.61-1.34-1.79-3.43-3.74-5.72-2.3a4.14,4.14,0,0,0-1.12,1.09,4.09,4.09,0,0,0-2.65-1.62c-2.58-.23-5.33,1.77-6.85,4a7.31,7.31,0,0,0-3.9-3.65A4.43,4.43,0,0,0,73.68,117,5.48,5.48,0,0,0,65,115.69c-3.73,3.45-5.66,11.09-4.44,16.21l-.18,0c-1.68.46-2.51,2.55-2.84,4.36a4.41,4.41,0,0,0,1,1,6.27,6.27,0,0,0,6.55.23,3.63,3.63,0,0,0,3,1.41,3.82,3.82,0,0,0,3-2.27,4.92,4.92,0,0,0,1.35.53,4.7,4.7,0,0,0,1.63,0A6.21,6.21,0,0,0,75.83,143a7.25,7.25,0,0,0-1.33,4.69,8.61,8.61,0,0,0,2.87,5.91,6.6,6.6,0,0,0,.86,4h0C80.2,159.52,83.93,159.25,85.93,157.59Z" style="fill:#479925"/><path d="M85.93,157.59a10.26,10.26,0,0,0,3-4.66c1.56.56,3.86-.4,5-1.48a8,8,0,0,0,2.23-5.06c2.43-1.16,4.94-5.2,5.55-6.71,1.09-2.72,1-7-1.11-9,1.89-3.5.38-10.17-1.45-12.61-1.34-1.79-3.43-3.74-5.72-2.3a4.14,4.14,0,0,0-1.12,1.09,4.09,4.09,0,0,0-2.65-1.62c-2.58-.23-5.33,1.77-6.85,4a7.31,7.31,0,0,0-3.9-3.65A4.43,4.43,0,0,0,73.68,117,5.48,5.48,0,0,0,65,115.69c-3.73,3.45-5.66,11.09-4.44,16.21l-.18,0c-1.68.46-2.51,2.55-2.84,4.36a4.41,4.41,0,0,0,1,1,6.27,6.27,0,0,0,6.55.23,3.63,3.63,0,0,0,3,1.41,3.82,3.82,0,0,0,3-2.27,4.92,4.92,0,0,0,1.35.53,4.7,4.7,0,0,0,1.63,0A6.21,6.21,0,0,0,75.83,143a7.25,7.25,0,0,0-1.33,4.69,8.61,8.61,0,0,0,2.87,5.91,6.6,6.6,0,0,0,.86,4h0C80.2,159.52,83.93,159.25,85.93,157.59Z" style="fill:#1c8233;mix-blend-mode:darken;opacity:0.5"/><path d="M82.63,170.5c-1.5,3.24-1.31,6.85-1.75,10.32a28.53,28.53,0,0,1-2.1,6.9c-1,2.56.08,6.48-1.54,10.56A2.81,2.81,0,0,1,77,199c-.26,1.29-.66,2.82-.75,3.52a28.93,28.93,0,0,0-.63,5.46c.1,1.55,1.27,1.46,1.37.17a13.4,13.4,0,0,1,2.2-5.94c.35-.55,1-2.9,2.12-3.89,1.37-1.24,2.33.32,3,1.05a9.64,9.64,0,0,0,2.16,1.59c1,.6,2.28.47,3.07,1.27a19,19,0,0,0,2.62,1.54c1,.65,1.33,1.3,1.69,1.1.69-.38.6-1.1,0-1.67a42.59,42.59,0,0,0-3.37-3.22c-1.67-1.33-3.58-2.05-4.1-3.1a6.11,6.11,0,0,0,2,.08c2-.15,4.83-2.62,6.89-2.2,2.55.52,4.2-.26,2.19-1.49-2.5-1.54-9.27-1.18-10.72-3.3s-1.73-5-1.92-9.64c-.09-2.15-.1-4.48-.09-6.82a23.88,23.88,0,0,1,.74-4.95,15.81,15.81,0,0,1,.91-2.38C84.67,166.77,83.51,168.59,82.63,170.5Z" style="fill:#753814"/><path d="M82.63,170.5c-1.5,3.24-1.31,6.85-1.75,10.32a28.53,28.53,0,0,1-2.1,6.9c-1,2.56.08,6.48-1.54,10.56A2.81,2.81,0,0,1,77,199c-.26,1.29-.66,2.82-.75,3.52a28.93,28.93,0,0,0-.63,5.46c.1,1.55,1.27,1.46,1.37.17a13.4,13.4,0,0,1,2.2-5.94c.35-.55,1-2.9,2.12-3.89,1.37-1.24,2.33.32,3,1.05a9.64,9.64,0,0,0,2.16,1.59c1,.6,2.28.47,3.07,1.27a19,19,0,0,0,2.62,1.54c1,.65,1.33,1.3,1.69,1.1.69-.38.6-1.1,0-1.67a42.59,42.59,0,0,0-3.37-3.22c-1.67-1.33-3.58-2.05-4.1-3.1a6.11,6.11,0,0,0,2,.08c2-.15,4.83-2.62,6.89-2.2,2.55.52,4.2-.26,2.19-1.49-2.5-1.54-9.27-1.18-10.72-3.3s-1.73-5-1.92-9.64c-.09-2.15-.1-4.48-.09-6.82a23.88,23.88,0,0,1,.74-4.95,15.81,15.81,0,0,1,.91-2.38C84.67,166.77,83.51,168.59,82.63,170.5Z" style="fill:#804119"/><path d="M93.16,141.29c0-.12-.24-.13-.26,0-.6,3.75-.58,7.66-1.68,11.32-1.17,3.88-3.53,6.79-5.66,10.15-.24.38-.45.78-.66,1.18,0-.52,0-1,0-1.52.06-4.35.31-34.64.35-36.28l-9.28-3c.08,3.2.38,10.15.18,18-.33,12.64-.59,25.63-.73,32.75a94.1,94.1,0,0,1-2,17.6c-.44,1.76-2.93,2.73-4.39,3.38a10.45,10.45,0,0,0-4.37,2.8c-.23.29-.55,1.73,1.29.77s4-.87,6.18-.77c2,.1,3.09-1.14,4-1.12s1.24.88,1.1,1.76c1.62-4.08.55-8,1.54-10.56a28.53,28.53,0,0,0,2.1-6.9c.44-3.47.25-7.08,1.75-10.32.88-1.91,2-3.73,3.75-4.36,1.21-2.65,3-4.94,4.43-7.52A23.66,23.66,0,0,0,93.16,141.29Z" style="fill:#753814"/><path d="M77.11,144.75c-.3-.24-.65-.54-1-.87,0,1,0,2-.08,3a14.09,14.09,0,0,0-5-3.19A14.7,14.7,0,0,1,66.6,141c-2.58-2.51-3-7.38-2.88-12.73,0-.06-.56-.53-.56-.47-.17,3.26-.54,8.49.91,11.68a11.35,11.35,0,0,1-2.87-3.08c-1.34-2.14-2.76-4-3.33-6.45H56.75c-.21,4.48,2.61,8.95,5.82,11.85,4.37,3.93,10.41,5.2,13.34,9.8-.2,8.9-.37,17.09-.47,22.22a94.1,94.1,0,0,1-2,17.6c-.44,1.76-2.93,2.73-4.39,3.38a10.45,10.45,0,0,0-4.37,2.8c-.23.29-.55,1.73,1.29.77s4-.87,6.18-.77a4.13,4.13,0,0,0,.88,0c-.9,0-2.27,0-2.27,0s3.28-1.92,3.88-3.8.43-5.76,1.55-9.1,2.37-6.53,2-9.28.16-16.65.74-21S79.26,146.47,77.11,144.75Z" style="fill:#662c10"/><path d="M93.16,141.29c0-.12-.24-.13-.26,0-.6,3.75-.58,7.66-1.68,11.32-1.17,3.88-3.53,6.79-5.66,10.15-.24.38-.45.78-.66,1.18,0-.52,0-1,0-1.52,0-.3,0-.71,0-1.23-.48.25-1,.52-1.57.73-1.28.52-2.87,2-3,5.24s.39,10.3-.87,13.39a41.3,41.3,0,0,0-2.2,8.62,77,77,0,0,0-.34,7.7,1.7,1.7,0,0,1,.3,1.41c1.62-4.08.55-8,1.54-10.56a28.53,28.53,0,0,0,2.1-6.9c.44-3.47.25-7.08,1.75-10.32.88-1.91,2-3.73,3.75-4.36,1.21-2.65,3-4.94,4.43-7.52A23.66,23.66,0,0,0,93.16,141.29Z" style="fill:#753814"/><path d="M77.28,189.17a41.3,41.3,0,0,1,2.2-8.62c1.26-3.09.72-10.13.87-13.39s1.74-4.72,3-5.24c.53-.21,1.09-.48,1.57-.73.08-7.07.29-33.52.33-35l-9.28-3c.08,3.2.38,10.15.18,18,0,.92,0,1.85-.07,2.77.36.33.71.63,1,.87,2.15,1.72,2.32,5.41,1.75,9.7s-1.15,18.21-.74,21-.84,5.93-2,9.28-1,7.21-1.55,9.1-3.88,3.8-3.88,3.8,1.37.06,2.27,0a12.27,12.27,0,0,0,2.62-1,1.64,1.64,0,0,1,.51-.1,1,1,0,0,1,.8.35A77,77,0,0,1,77.28,189.17Z" style="fill:#6b3012"/><path d="M120.33,127.87a4.67,4.67,0,0,0-.72-1.82,3.4,3.4,0,0,0-.48-.52,5.26,5.26,0,0,0,.68-3.76,2.48,2.48,0,0,0-1.07-1.27,5.91,5.91,0,0,0,.87-3.26,4.1,4.1,0,0,0-1.69-3,5.36,5.36,0,0,0,.64-4.39,2.41,2.41,0,0,0-2.25-1.72,1.47,1.47,0,0,0-.55.12,2.3,2.3,0,0,0-.44-1.1c-.61-.68-1.38-.33-2,.25-.45-1.15-1.54-2.27-2.61-1.19a2.44,2.44,0,0,0-.47.71,4,4,0,0,0-1.28-.52,3.05,3.05,0,0,0-1.72.12,2.94,2.94,0,0,0-1.9,2.43,2.67,2.67,0,0,0,0,.4,2,2,0,0,0-2.31,1.48,5.71,5.71,0,0,0,0,3.3,1.71,1.71,0,0,0-1,1.18,2.45,2.45,0,0,0,.62,2.17l0,0a2.71,2.71,0,0,0-1.06,1.39,2.11,2.11,0,0,0-.12.43,3.3,3.3,0,0,0,.38,1.94,2.34,2.34,0,0,0-1,.63,5.16,5.16,0,0,0-1.17,4.65,5,5,0,0,0,1.41,2.27,2.41,2.41,0,0,0-.39.72,3,3,0,0,0,.8,2.9,5.34,5.34,0,0,0,2.24,1.37,3.4,3.4,0,0,0-.05,1.31,3.5,3.5,0,0,0,2.41,2.73,5.22,5.22,0,0,0,4.51-.4,4,4,0,0,0,1.37-1.52,4.44,4.44,0,0,0,2.55.83,6.06,6.06,0,0,0,5.12-3.66c0-.07,0-.16.09-.24A8.85,8.85,0,0,0,120.33,127.87Z" style="fill:#6ebc3b"/><path d="M119.13,125.53a5.26,5.26,0,0,0,.68-3.76,2.48,2.48,0,0,0-1.07-1.27,5.91,5.91,0,0,0,.87-3.26,4.1,4.1,0,0,0-1.69-3,5.36,5.36,0,0,0,.64-4.39,2.41,2.41,0,0,0-2.25-1.72,1.47,1.47,0,0,0-.55.12,2.3,2.3,0,0,0-.44-1.1c-.61-.68-1.38-.33-2,.25-.45-1.15-1.54-2.27-2.61-1.19a2.44,2.44,0,0,0-.47.71,4,4,0,0,0-1.28-.52,4.63,4.63,0,0,0-.31.58c-1.74-.32-2.29,1.81-2.42,3.21a5.4,5.4,0,0,0,.54,3.12l-.06,0a1.92,1.92,0,0,0-.76,2.16A6.21,6.21,0,0,0,107,118a2.49,2.49,0,0,0-.83.5,3.67,3.67,0,0,0-.86,3.57,8.84,8.84,0,0,0,2.81,4.2,1.42,1.42,0,0,0,0,.36,2.85,2.85,0,0,0,1.63,2,4,4,0,0,0,2.59.31,1.86,1.86,0,0,0,.19.4,2.07,2.07,0,0,0,2.15.83,2.14,2.14,0,0,0,1.6-1.39,4.17,4.17,0,0,0,4-1,4.67,4.67,0,0,0-.72-1.82A3.4,3.4,0,0,0,119.13,125.53Z" style="fill:#cef275;mix-blend-mode:lighten;opacity:0.31"/><path d="M101.83,121.23a2.34,2.34,0,0,0-1,.63,5.16,5.16,0,0,0-1.17,4.65,5,5,0,0,0,1.41,2.27,2.41,2.41,0,0,0-.39.72,3,3,0,0,0,.8,2.9,5.34,5.34,0,0,0,2.24,1.37,3.4,3.4,0,0,0-.05,1.31,3.5,3.5,0,0,0,2.41,2.73,5.22,5.22,0,0,0,4.51-.4,4,4,0,0,0,1.37-1.52,4.44,4.44,0,0,0,2.55.83,6.06,6.06,0,0,0,5.12-3.66c0-.07,0-.16.09-.24a5,5,0,0,1-1.87,1.11,5.18,5.18,0,0,1-5-1.11,3.89,3.89,0,0,1-2.64.71,3.59,3.59,0,0,1-2.84-1.6,2,2,0,0,1-.27-.91,1.69,1.69,0,0,1-1-.3,3.06,3.06,0,0,1-1.35-1,2.53,2.53,0,0,1-.39-2.22.67.67,0,0,1,.06-.12,2.36,2.36,0,0,1-1.71-2,5.3,5.3,0,0,1,.67-3.09,7.57,7.57,0,0,1-1.67-3c0-.13,0-.28-.07-.42a2.11,2.11,0,0,0-.12.43A3.3,3.3,0,0,0,101.83,121.23Z" style="fill:#1c8233;mix-blend-mode:darken;opacity:0.30000000000000004"/><path d="M116.64,116a1.57,1.57,0,0,0-.47-.3,2.06,2.06,0,0,0,.48-1.48,1.56,1.56,0,0,0-1.35-1.41,1.57,1.57,0,0,0,0-2.1,1.13,1.13,0,0,0-1.31,0,2.36,2.36,0,0,0-.07-.33c-.29-.91-1.43-2-2.48-1.61-.77.32-.68,1.62-.19,2.34a1.35,1.35,0,0,0-.94.79,1.38,1.38,0,0,0,.51,1.44c0,.06-.09.13-.14.2a1.23,1.23,0,0,0-.95.65,1.35,1.35,0,0,0,.5,1.64,1.77,1.77,0,0,0-.47.75,1.23,1.23,0,0,0,.31,1.22,2.51,2.51,0,0,0-.38,2.79,1.31,1.31,0,0,0,1.38.54,2.27,2.27,0,0,0,.11.51,2,2,0,0,0,2.34,1.4,3,3,0,0,0,1.84-2.48,5.19,5.19,0,0,0,.14-.82l.1,0a2.9,2.9,0,0,0,1.53-1.69A1.84,1.84,0,0,0,116.64,116Z" style="fill:#cef275;mix-blend-mode:lighten;opacity:0.31"/><path d="M107.14,94.13a9.07,9.07,0,0,0-4.09-6.08l.2-.42c1.37-2.95.91-6.75-2-8.6a5.57,5.57,0,0,0-2.46-.69,4.64,4.64,0,0,0-.09-4.16,4.24,4.24,0,0,0-2.43-1.81,6.42,6.42,0,0,0,.3-2.8,6.17,6.17,0,0,0-3.39-4.74,5.4,5.4,0,0,0-2.38-.48,4.76,4.76,0,0,0-1.85-3.84A4.54,4.54,0,0,0,84,60.07a3.28,3.28,0,0,0-.31.2,2.75,2.75,0,0,0-2-.34,2.17,2.17,0,0,0-1.41,1,5.22,5.22,0,0,0-1.47-.88,3.68,3.68,0,0,0-2.58-.21,1.09,1.09,0,0,0-.77,1A17.22,17.22,0,0,0,76,67.57a4.48,4.48,0,0,0-5,1.62c-1.07,1.53-.69,3.21.24,4.69-3-1.1-6.65-.19-7.78,3.16A7.79,7.79,0,0,0,64,82.75l0,.09a3.86,3.86,0,0,0-2.78,2.57A5.08,5.08,0,0,0,62.2,90a3.74,3.74,0,0,0-2.21,3,5,5,0,0,0,1.18,3.42,10,10,0,0,0-3.62,10.67A9.43,9.43,0,0,0,61.94,112a4.25,4.25,0,0,0-.47,3.73,5,5,0,0,0,1.89,2.22,7.45,7.45,0,0,0-.7,1.11,7.36,7.36,0,0,0,.21,6.87,7.54,7.54,0,0,0,6,3.38h.32a5.58,5.58,0,0,0,1.88,4.4,5.43,5.43,0,0,0,4.57.89l.37-.11a6.49,6.49,0,0,0,6.22,3.32,8,8,0,0,0,5.28-3.51,9.33,9.33,0,0,0,7.31-2.32c2.2-1.77,4.46-4.43,4.48-7.41a6.41,6.41,0,0,0-.12-1.23,8.6,8.6,0,0,0,4.32-5.07,9,9,0,0,0,.47-2.14,9.87,9.87,0,0,0-1.85-6.34,12,12,0,0,0,2.79-4.61c0-.18.13-.38.16-.54a6,6,0,0,0-.68-4.2A7,7,0,0,0,107.14,94.13Z" style="fill:#6ebc3b"/><path d="M104.43,100.4a7,7,0,0,0,2.71-6.27,9.07,9.07,0,0,0-4.09-6.08l.2-.42c1.37-2.95.91-6.75-2-8.6a5.57,5.57,0,0,0-2.46-.69,4.64,4.64,0,0,0-.09-4.16,4.24,4.24,0,0,0-2.43-1.81,6.42,6.42,0,0,0,.3-2.8,6.17,6.17,0,0,0-3.39-4.74,5.4,5.4,0,0,0-2.38-.48,4.76,4.76,0,0,0-1.85-3.84A4.54,4.54,0,0,0,84,60.07a3.28,3.28,0,0,0-.31.2,2.75,2.75,0,0,0-2-.34,2.17,2.17,0,0,0-1.41,1,5.22,5.22,0,0,0-1.47-.88,7.05,7.05,0,0,0-1.1,3.52,8.18,8.18,0,0,0,.53,2.91,2.33,2.33,0,0,0-1.12.56,2.54,2.54,0,0,0-.09,3.46c-1.78.33-3.38,1.67-3.23,3.59A4.31,4.31,0,0,0,75.48,77a3.25,3.25,0,0,0-1.71,3.17,2.44,2.44,0,0,0,1,1.74A6.48,6.48,0,0,0,73.11,87a5.63,5.63,0,0,0,4,4A3.17,3.17,0,0,0,77,92.57a3.77,3.77,0,0,0,2.51,2.59,5.26,5.26,0,0,0,.56,6.64,5.1,5.1,0,0,0,4.9,1.48,5.42,5.42,0,0,0,.82-.3A6.07,6.07,0,0,0,89,106.19a5.74,5.74,0,0,0,4.25-.65c2.18,2.13,6.39,3.25,8.82-.07a3,3,0,0,0,2.87-.33c0-.18.13-.38.16-.54A6,6,0,0,0,104.43,100.4Z" style="fill:#cef275;mix-blend-mode:lighten;opacity:0.31"/><path d="M61.26,85.41A5.08,5.08,0,0,0,62.2,90a3.74,3.74,0,0,0-2.21,3,5,5,0,0,0,1.18,3.42,10,10,0,0,0-3.62,10.67A9.43,9.43,0,0,0,61.94,112a4.25,4.25,0,0,0-.47,3.73,5,5,0,0,0,1.89,2.22,7.45,7.45,0,0,0-.7,1.11,7.36,7.36,0,0,0,.21,6.87,7.54,7.54,0,0,0,6,3.38h.32a5.58,5.58,0,0,0,1.88,4.4,5.43,5.43,0,0,0,4.57.89l.37-.11a6.49,6.49,0,0,0,6.22,3.32,8,8,0,0,0,5.28-3.51,9.33,9.33,0,0,0,7.31-2.32c2.2-1.77,4.46-4.43,4.48-7.41a6.41,6.41,0,0,0-.12-1.23,8.6,8.6,0,0,0,4.32-5.07,8.8,8.8,0,0,1-1.38.8,10.09,10.09,0,0,1-5.44.68,7.16,7.16,0,0,1-2.31,1.36,5,5,0,0,1-4.61-.6,5.18,5.18,0,0,1-3.06,1.64,4.71,4.71,0,0,1-3.75-1.3,3.44,3.44,0,0,1-.7-.67,5.88,5.88,0,0,1-1.39,0,5.6,5.6,0,0,1-3.65-2.1,5.3,5.3,0,0,1-4.58-2.57,3.9,3.9,0,0,1-.19-3.05,9,9,0,0,1-2.55-1.94,4.91,4.91,0,0,1-1.36-3.08,5,5,0,0,1-3-2.88,5.46,5.46,0,0,1,1-4.78,4.4,4.4,0,0,1-1.28-1.61,3.85,3.85,0,0,1,.23-3.67,5.33,5.33,0,0,1-1.12-2.32,6.56,6.56,0,0,1,1.06-4.34A5.13,5.13,0,0,1,65,86.76a4.43,4.43,0,0,1,.28-2.21A9.87,9.87,0,0,1,64,82.75l0,.09A3.86,3.86,0,0,0,61.26,85.41Z" style="fill:#1c8233;mix-blend-mode:darken;opacity:0.30000000000000004"/><path d="M97.9,89.31a8.31,8.31,0,0,0,.44-.73,8.77,8.77,0,0,0,.12-7.6c-1-2.16-3.18-4.55-5.71-4.72a.48.48,0,0,0-.12,0,4.94,4.94,0,0,0-.27-4.58,3,3,0,0,0-2.63-1.6l0,0A2.79,2.79,0,0,0,89,68.26a2.07,2.07,0,0,0-1.82-.59,1.86,1.86,0,0,0-.68-1.16,3.31,3.31,0,0,0-3.79,0c-2.67,1.68-2.26,5.64-.65,8.17a2.07,2.07,0,0,0-1.68,2.82c-1.93.65-2.85,3.12-2,5.21a3.47,3.47,0,0,0,2.2,1.93,4.44,4.44,0,0,0,.22,3.05,2.9,2.9,0,0,0,2.55,1.59,3.42,3.42,0,0,0,.44,0,6.4,6.4,0,0,0,2.7,6.7,2.67,2.67,0,0,0,3-.31,2.49,2.49,0,0,0,1.77,1.64,2.25,2.25,0,0,0,2.27-.73,2.43,2.43,0,0,0,1.79.93c1.81.15,3.05-1.38,3.5-3s.47-3.92-.93-5.13Z" style="fill:#cef275;mix-blend-mode:lighten;opacity:0.31"/><path d="M56.93,132.91a11.28,11.28,0,0,0,2.44,5.23c2.13,2.66,4,5.38,9.24,8.24a14.9,14.9,0,0,1,5.75,5,14.36,14.36,0,0,1,1.44,5.33s1.36-.59,1.34-4.87c0-2.35-2.26-3.89-4.11-4.92s-4.41-2-7.08-3.61a16.19,16.19,0,0,1-6.11-6,16.84,16.84,0,0,1-2.26-4.92Z" style="fill:#5e250e"/><path d="M67.79,113.23a4.62,4.62,0,0,0-2.09-3.11l.11-.21a3.45,3.45,0,0,0-1-4.4,3.07,3.07,0,0,0-1.26-.35,2.36,2.36,0,0,0,0-2.12,2.13,2.13,0,0,0-1.24-.92,3.32,3.32,0,0,0,.15-1.44,3.15,3.15,0,0,0-1.73-2.41A2.65,2.65,0,0,0,59.44,98a2.43,2.43,0,0,0-.94-2A2.33,2.33,0,0,0,56,95.83l-.15.11a1.42,1.42,0,0,0-1-.18,1.1,1.1,0,0,0-.72.52,2.72,2.72,0,0,0-.75-.45A1.89,1.89,0,0,0,52,95.72a.56.56,0,0,0-.39.51,8.74,8.74,0,0,0,.24,3.44,2.27,2.27,0,0,0-2.54.82,2.06,2.06,0,0,0,.12,2.4,2.94,2.94,0,0,0-4,1.61,3.91,3.91,0,0,0,.28,2.91s0,0,0,0a2,2,0,0,0-1.42,1.31,2.61,2.61,0,0,0,.48,2.36,1.91,1.91,0,0,0-1.13,1.54,2.52,2.52,0,0,0,.61,1.75,5.1,5.1,0,0,0-1.85,5.45,4.73,4.73,0,0,0,2.24,2.46,2.19,2.19,0,0,0-.24,1.91,2.59,2.59,0,0,0,1,1.13,4,4,0,0,0-.35.57,3.77,3.77,0,0,0,.1,3.5,3.85,3.85,0,0,0,3.09,1.73.86.86,0,0,0,.16,0,2.9,2.9,0,0,0,1,2.25,2.79,2.79,0,0,0,2.34.45l.18-.05a3.33,3.33,0,0,0,3.18,1.69,4.09,4.09,0,0,0,2.7-1.79,4.77,4.77,0,0,0,3.73-1.19,5.36,5.36,0,0,0,2.29-3.78,3.36,3.36,0,0,0-.06-.63,4.39,4.39,0,0,0,2.2-2.58,4.44,4.44,0,0,0,.24-1.1,5,5,0,0,0-.94-3.24,6.12,6.12,0,0,0,1.42-2.35c0-.09.07-.19.09-.28a3.1,3.1,0,0,0-.35-2.14A3.58,3.58,0,0,0,67.79,113.23Z" style="fill:#6ebc3b"/><path d="M66.41,116.43a3.58,3.58,0,0,0,1.38-3.2,4.62,4.62,0,0,0-2.09-3.11l.11-.21a3.45,3.45,0,0,0-1-4.4,3.07,3.07,0,0,0-1.26-.35,2.36,2.36,0,0,0,0-2.12,2.13,2.13,0,0,0-1.24-.92,3.32,3.32,0,0,0,.15-1.44,3.15,3.15,0,0,0-1.73-2.41A2.65,2.65,0,0,0,59.44,98a2.43,2.43,0,0,0-.94-2A2.33,2.33,0,0,0,56,95.83l-.15.11a1.42,1.42,0,0,0-1-.18,1.1,1.1,0,0,0-.72.52,2.72,2.72,0,0,0-.75-.45,3.58,3.58,0,0,0-.56,1.8,4.16,4.16,0,0,0,.27,1.48,1.23,1.23,0,0,0-.57.29,1.3,1.3,0,0,0-.05,1.77A1.82,1.82,0,0,0,50.79,103a2.15,2.15,0,0,0,.83,1.46,1.67,1.67,0,0,0-.87,1.62,1.24,1.24,0,0,0,.49.89,3.31,3.31,0,0,0-.83,2.59,2.86,2.86,0,0,0,2.06,2,1.56,1.56,0,0,0-.08.85,1.93,1.93,0,0,0,1.28,1.32,2.68,2.68,0,0,0,.29,3.39,2.6,2.6,0,0,0,2.5.76,3.52,3.52,0,0,0,.42-.15,3,3,0,0,0,1.65,1.63,2.89,2.89,0,0,0,2.17-.33c1.12,1.09,3.27,1.66,4.51,0a1.57,1.57,0,0,0,1.46-.17c0-.09.07-.19.09-.28A3.1,3.1,0,0,0,66.41,116.43Z" style="fill:#cef275;mix-blend-mode:lighten;opacity:0.31"/><path d="M44.36,108.77a2.61,2.61,0,0,0,.48,2.36,1.91,1.91,0,0,0-1.13,1.54,2.52,2.52,0,0,0,.61,1.75,5.1,5.1,0,0,0-1.85,5.45,4.73,4.73,0,0,0,2.24,2.46,2.19,2.19,0,0,0-.24,1.91,2.59,2.59,0,0,0,1,1.13,4,4,0,0,0-.35.57,3.77,3.77,0,0,0,.1,3.5,3.85,3.85,0,0,0,3.09,1.73.86.86,0,0,0,.16,0,2.9,2.9,0,0,0,1,2.25,2.79,2.79,0,0,0,2.34.45l.18-.05a3.33,3.33,0,0,0,3.18,1.69,4.09,4.09,0,0,0,2.7-1.79,4.77,4.77,0,0,0,3.73-1.19,5.36,5.36,0,0,0,2.29-3.78,3.36,3.36,0,0,0-.06-.63,4.39,4.39,0,0,0,2.2-2.58,5.47,5.47,0,0,1-.7.4,5.17,5.17,0,0,1-2.78.35,3.58,3.58,0,0,1-1.18.69,2.57,2.57,0,0,1-2.36-.3,2.58,2.58,0,0,1-1.56.83,2.39,2.39,0,0,1-1.91-.66,1.67,1.67,0,0,1-.36-.34,3.35,3.35,0,0,1-.71,0,2.86,2.86,0,0,1-1.86-1.07,2.71,2.71,0,0,1-2.34-1.31,2,2,0,0,1-.1-1.56,4.75,4.75,0,0,1-1.3-1A2.53,2.53,0,0,1,48.1,120a2.53,2.53,0,0,1-1.56-1.47,2.8,2.8,0,0,1,.5-2.44,2.28,2.28,0,0,1-.65-.82,2,2,0,0,1,.11-1.87,2.79,2.79,0,0,1-.56-1.19,3.32,3.32,0,0,1,.54-2.22,2.39,2.39,0,0,1-.2-.55,2.29,2.29,0,0,1,.15-1.12,4.62,4.62,0,0,1-.66-.93s0,0,0,0A2,2,0,0,0,44.36,108.77Z" style="fill:#1c8233;mix-blend-mode:darken;opacity:0.30000000000000004"/><path d="M62.93,110.4l.21-.34a4.13,4.13,0,0,0,0-3.55,3.61,3.61,0,0,0-2.67-2.21h-.05a2.31,2.31,0,0,0-.13-2.14,1.4,1.4,0,0,0-1.23-.74h0a1.29,1.29,0,0,0-.3-.87,1,1,0,0,0-.85-.27.88.88,0,0,0-.32-.54,1.53,1.53,0,0,0-1.77,0c-1.25.79-1.06,2.64-.31,3.81a1,1,0,0,0-.78,1.32,1.86,1.86,0,0,0-.95,2.44,1.65,1.65,0,0,0,1,.9,2.1,2.1,0,0,0,.1,1.42,1.36,1.36,0,0,0,1.19.75l.21,0a3,3,0,0,0,1.26,3.13,1.24,1.24,0,0,0,1.41-.15,1.19,1.19,0,0,0,.83.77,1.07,1.07,0,0,0,1.06-.34,1.19,1.19,0,0,0,.84.43,1.68,1.68,0,0,0,1.64-1.39,2.39,2.39,0,0,0-.44-2.39Z" style="fill:#cef275;mix-blend-mode:lighten;opacity:0.31"/><path d="M105.87,146.52a6,6,0,0,0-.91-2.3,4.82,4.82,0,0,0-.61-.66,6.69,6.69,0,0,0,.86-4.75,3.15,3.15,0,0,0-1.35-1.61,7.5,7.5,0,0,0,1.1-4.12,5.15,5.15,0,0,0-2.14-3.83,6.75,6.75,0,0,0,.8-5.55,3,3,0,0,0-2.84-2.19,2.43,2.43,0,0,0-.7.15,2.89,2.89,0,0,0-.55-1.38c-.76-.86-1.75-.42-2.5.31-.58-1.45-2-2.86-3.31-1.5a3.19,3.19,0,0,0-.59.9,4.78,4.78,0,0,0-1.62-.66,3.82,3.82,0,0,0-2.17.15,3.71,3.71,0,0,0-2.41,3.08,4.17,4.17,0,0,0,0,.5A2.5,2.5,0,0,0,84,124.93a7.19,7.19,0,0,0,.06,4.18,2.09,2.09,0,0,0-1.33,1.49,3.07,3.07,0,0,0,.78,2.75l0,0a3.44,3.44,0,0,0-1.35,1.76,3.06,3.06,0,0,0-.15.54,4.17,4.17,0,0,0,.49,2.45,2.93,2.93,0,0,0-1.31.8,6.08,6.08,0,0,0,.3,8.76,3.08,3.08,0,0,0-.5.9,3.76,3.76,0,0,0,1,3.67A6.76,6.76,0,0,0,84.81,154a4.17,4.17,0,0,0-.06,1.65,4.41,4.41,0,0,0,3,3.46,6.6,6.6,0,0,0,5.7-.51,5.21,5.21,0,0,0,1.74-1.92,5.51,5.51,0,0,0,3.23,1c2.85,0,5.31-2.14,6.47-4.62,0-.1.07-.21.11-.3A11.12,11.12,0,0,0,105.87,146.52Z" style="fill:#6ebc3b"/><path d="M104.35,143.56a6.69,6.69,0,0,0,.86-4.75,3.15,3.15,0,0,0-1.35-1.61,7.5,7.5,0,0,0,1.1-4.12,5.15,5.15,0,0,0-2.14-3.83,6.75,6.75,0,0,0,.8-5.55,3,3,0,0,0-2.84-2.19,2.43,2.43,0,0,0-.7.15,2.89,2.89,0,0,0-.55-1.38c-.76-.86-1.75-.42-2.5.31-.58-1.45-2-2.86-3.31-1.5a3.19,3.19,0,0,0-.59.9,4.78,4.78,0,0,0-1.62-.66,5.72,5.72,0,0,0-.39.73c-2.2-.4-2.9,2.29-3.06,4.06a6.76,6.76,0,0,0,.68,3.95l-.07,0c-1,.51-1.11,1.72-1,2.74a7.66,7.66,0,0,0,1.34,3.22,3.45,3.45,0,0,0-1,.63,4.61,4.61,0,0,0-1.09,4.52,11.13,11.13,0,0,0,3.55,5.31,2.32,2.32,0,0,0,0,.46,3.63,3.63,0,0,0,2.06,2.59,5,5,0,0,0,3.28.39,2,2,0,0,0,.25.5,2.6,2.6,0,0,0,2.72,1.06,2.75,2.75,0,0,0,2-1.76c1.62.68,3.55,0,5.12-1.23a6,6,0,0,0-.91-2.3A4.82,4.82,0,0,0,104.35,143.56Z" style="fill:#cef275;mix-blend-mode:lighten;opacity:0.31"/><path d="M82.47,138.12a2.93,2.93,0,0,0-1.31.8,6.08,6.08,0,0,0,.3,8.76,3.08,3.08,0,0,0-.5.9,3.76,3.76,0,0,0,1,3.67A6.76,6.76,0,0,0,84.81,154a4.17,4.17,0,0,0-.06,1.65,4.41,4.41,0,0,0,3,3.46,6.6,6.6,0,0,0,5.7-.51,5.21,5.21,0,0,0,1.74-1.92,5.51,5.51,0,0,0,3.23,1c2.85,0,5.31-2.14,6.47-4.62,0-.1.07-.21.11-.3a6.44,6.44,0,0,1-2.36,1.4,6.56,6.56,0,0,1-6.3-1.41,4.94,4.94,0,0,1-3.34.9,4.53,4.53,0,0,1-3.59-2,2.55,2.55,0,0,1-.34-1.16,2.08,2.08,0,0,1-1.32-.37,3.93,3.93,0,0,1-1.72-1.31,3.21,3.21,0,0,1-.49-2.82l.07-.15a3,3,0,0,1-2.15-2.47,6.61,6.61,0,0,1,.85-3.91,9.6,9.6,0,0,1-2.12-3.81c0-.17-.06-.36-.1-.53a3.06,3.06,0,0,0-.15.54A4.17,4.17,0,0,0,82.47,138.12Z" style="fill:#1c8233;mix-blend-mode:darken;opacity:0.30000000000000004"/><path d="M101.38,132.57a2.09,2.09,0,0,0-.64-.42,2.81,2.81,0,0,0,.65-2,2.12,2.12,0,0,0-1.85-1.92c.6-1,.82-2.17-.06-2.88a1.55,1.55,0,0,0-1.79-.06,2.63,2.63,0,0,0-.1-.46c-.39-1.24-2-2.78-3.38-2.19-1.06.43-.93,2.21-.26,3.18a1.67,1.67,0,0,0-.59,3.07,1.85,1.85,0,0,0-.19.27,1.67,1.67,0,0,0-1.31.89,1.83,1.83,0,0,0,.69,2.23,2.44,2.44,0,0,0-.65,1,1.71,1.71,0,0,0,.43,1.67,3.42,3.42,0,0,0-.52,3.81,1.82,1.82,0,0,0,1.89.75,2.87,2.87,0,0,0,.15.68,2.66,2.66,0,0,0,3.2,1.92c1.53-.45,2.19-2,2.52-3.38a9.5,9.5,0,0,0,.19-1.13l.14,0a4,4,0,0,0,2.09-2.31A2.53,2.53,0,0,0,101.38,132.57Z" style="fill:#cef275;mix-blend-mode:lighten;opacity:0.31"/><path d="M50.41,128.61a6.58,6.58,0,0,0-.51-1c-.2-.42-.22-.86-.39-1.29a.2.2,0,0,0-.37-.05,1.89,1.89,0,0,0,1,2.65A.23.23,0,0,0,50.41,128.61Z" style="fill:#1c8233;mix-blend-mode:darken;opacity:0.5"/><path d="M53.72,128.56a.19.19,0,0,0-.34,0,4.94,4.94,0,0,0-.38,1.08,7.57,7.57,0,0,0-.46,1.23.35.35,0,0,0,.58.34A2.5,2.5,0,0,0,53.72,128.56Z" style="fill:#1c8233;mix-blend-mode:darken;opacity:0.5"/><path d="M60.39,128.91a7.13,7.13,0,0,1-.8.93c-.27.23-.51.34-.63.69a.27.27,0,0,0,.18.33c.92.34,1.68-1.06,1.59-1.81C60.71,128.91,60.51,128.77,60.39,128.91Z" style="fill:#1c8233;mix-blend-mode:darken;opacity:0.5"/><path d="M70.23,120.92a2.35,2.35,0,0,0-.32-1,.2.2,0,0,0-.27,0c-.68.66-.08,2.29.57,2.78.27.2.59-.13.53-.4C70.63,121.79,70.35,121.39,70.23,120.92Z" style="fill:#1c8233;mix-blend-mode:darken;opacity:0.5"/><path d="M72.83,123.31c-.1-.55-.06-1.12-.19-1.67a.22.22,0,0,0-.39-.06c-.56.84-.6,2.73.33,3.33a.27.27,0,0,0,.41-.17A3.35,3.35,0,0,0,72.83,123.31Z" style="fill:#1c8233;mix-blend-mode:darken;opacity:0.5"/><path d="M79.84,129.56a7.6,7.6,0,0,1-1.07.82,1.35,1.35,0,0,0-.63.64c-.06.14.06.27.18.32.9.37,1.66-.89,1.85-1.58A.2.2,0,0,0,79.84,129.56Z" style="fill:#1c8233;mix-blend-mode:darken;opacity:0.5"/><path d="M86.62,153.39c-.19-.37-.48-.67-.7-1a6.88,6.88,0,0,1-.55-1.24c-.07-.18-.39-.25-.43,0a2.5,2.5,0,0,0,1.34,2.7C86.54,153.92,86.73,153.6,86.62,153.39Z" style="fill:#1c8233;mix-blend-mode:darken;opacity:0.5"/><path d="M90.12,155.52a1.39,1.39,0,0,1-1-1.58.25.25,0,0,0-.42-.25A1.38,1.38,0,0,0,90.06,156C90.26,156,90.35,155.62,90.12,155.52Z" style="fill:#1c8233;mix-blend-mode:darken;opacity:0.5"/><path d="M109.36,134.34a3,3,0,0,0-1.59,1.13.29.29,0,0,0,.25.44,1.82,1.82,0,0,0,1.63-1.28A.24.24,0,0,0,109.36,134.34Z" style="fill:#1c8233;mix-blend-mode:darken;opacity:0.5"/><path d="M97.81,111.19a.21.21,0,0,0-.39-.1c-.28.45-.43,1-.69,1.45s-.65.87-.94,1.34a.34.34,0,0,0,.46.45A3.93,3.93,0,0,0,97.81,111.19Z" style="fill:#cef275;mix-blend-mode:lighten;opacity:0.31"/><path d="M93.41,114.16a11.55,11.55,0,0,0-2-1,.31.31,0,0,0-.42.42,2.27,2.27,0,0,0,2.18,1.28A.42.42,0,0,0,93.41,114.16Z" style="fill:#cef275;mix-blend-mode:lighten;opacity:0.31"/><path d="M68.64,78.68a1.86,1.86,0,0,0-.8,2.27.32.32,0,0,0,.57-.08,9.06,9.06,0,0,0,.13-.91A3.45,3.45,0,0,1,69,79,.24.24,0,0,0,68.64,78.68Z" style="fill:#cef275;mix-blend-mode:lighten;opacity:0.31"/><path d="M69.5,85.61a.17.17,0,0,0-.26,0,3.53,3.53,0,0,0-.87,2,.28.28,0,0,0,.42.24A1.94,1.94,0,0,0,69.5,85.61Z" style="fill:#cef275;mix-blend-mode:lighten;opacity:0.31"/><path d="M72.69,105.94a8.47,8.47,0,0,1-.79-.54,2,2,0,0,1-.44-.92.22.22,0,0,0-.4,0c-.68,1,.51,2.6,1.63,2.07A.33.33,0,0,0,72.69,105.94Z" style="fill:#cef275;mix-blend-mode:lighten;opacity:0.31"/><path d="M79.5,112.93c-.34-.3-.79-.3-1.2-.48s-.82-.5-1.25-.72a.14.14,0,0,0-.21.15c.14,1,1.62,2.14,2.58,1.66A.39.39,0,0,0,79.5,112.93Z" style="fill:#cef275;mix-blend-mode:lighten;opacity:0.31"/><path d="M85.84,69a.15.15,0,0,0-.19.15,2.91,2.91,0,0,0,.34,1,8.38,8.38,0,0,0,.34,1.11.39.39,0,0,0,.7-.1A2,2,0,0,0,85.84,69Z" style="fill:#cef275;mix-blend-mode:lighten;opacity:0.31"/><path d="M99.29,100.23c-.27-.18-.52.11-.48.37a2.81,2.81,0,0,1,.07,1.19c-.09.34-.32.59-.3,1,0,.18.17.4.38.37C100.25,103,100.18,100.83,99.29,100.23Z" style="fill:#cef275;mix-blend-mode:lighten;opacity:0.31"/><path d="M77.46,85.94c0-.21-.19-.45-.41-.3-.74.52-1.53,2.61-.37,3.1a.29.29,0,0,0,.39-.1,2,2,0,0,0,.14-1.19A7.11,7.11,0,0,1,77.46,85.94Z" style="fill:#cef275;mix-blend-mode:lighten;opacity:0.31"/><path d="M92.29,78.54a.21.21,0,0,0-.3.13c-.09.36,0,.73-.09,1.1s-.22.69-.25,1.07a.39.39,0,0,0,.58.33A1.71,1.71,0,0,0,92.29,78.54Z" style="fill:#cef275;mix-blend-mode:lighten;opacity:0.31"/><path d="M95.58,82.12a.19.19,0,0,0-.17.29,2.89,2.89,0,0,1,.48.94c.06.34-.08.66,0,1s.52.39.75.2C97.42,83.86,96.62,82.08,95.58,82.12Z" style="fill:#cef275;mix-blend-mode:lighten;opacity:0.31"/><path d="M94.07,91.4a.38.38,0,0,0-.56.43c.14.48-.18.81-.33,1.23a.39.39,0,0,0,.27.48C94.73,93.91,94.89,92,94.07,91.4Z" style="fill:#cef275;mix-blend-mode:lighten;opacity:0.31"/><path d="M82.35,182.68c-.73,1.19-.86,7.53-.73,9.59a50,50,0,0,1-.28,6,1.38,1.38,0,0,1,2,0c-.08-2-.59-3.47-.66-6.33S83.17,181.36,82.35,182.68Z" style="fill:#753814"/><path d="M86.4,196.84a12.49,12.49,0,0,1-1.5-3.54c-.38-1.8-.9-3.22-.51-3.92s.65.51.93,1.54A4.43,4.43,0,0,0,87,193.63a5.18,5.18,0,0,0,3.27,1.15,3.26,3.26,0,0,1,2,.62,8.77,8.77,0,0,1-3,1.33A14.64,14.64,0,0,1,86.4,196.84Z" style="fill:#753814"/><path d="M80,186.48c-1.19,1.24,0,4.45-.49,6.54s-1.35,6.32-1.47,7.17.37.61,1.47-1.91.38-4.07.87-7.17S81.16,185.24,80,186.48Z" style="fill:#914920;mix-blend-mode:lighten;opacity:0.9"/><path d="M83.37,173.34a9.69,9.69,0,0,0-.65,4.8c.3,2.29.47,6.45.65,8s.88,1.09.88-1.5,0-6.06-.24-8.12S83.83,172.66,83.37,173.34Z" style="fill:#914920;mix-blend-mode:lighten;opacity:0.9"/></g></g></svg>