<svg xmlns="http://www.w3.org/2000/svg" viewBox="0 0 2518.01 1619.23"><g style="isolation:isolate"><g id="Layer_1" data-name="Layer 1"><g style="opacity:0.30000000000000004"><g style="mix-blend-mode:multiply;opacity:0.56"><path d="M2478.27,1378c-.29,9.55-1,19.22-2.32,29-.2,1.64-.44,3.28-.68,4.92a312.77,312.77,0,0,1-10,44.67q-.69,2.32-1.45,4.66c-3.12,9.91-6.79,19.91-11,29.91v0c-15.18,35.83-37.52,72.11-68.29,107.82q-8.73,10.13-18.37,20.18H51.21q.21-9.9,1-20.18a401.65,401.65,0,0,1,28.19-122.69A396.6,396.6,0,0,1,106.73,1423c.82-1.43,1.67-2.87,2.54-4.27,1.3-2.18,2.66-4.33,4-6.51.8-1.25,1.57-2.48,2.39-3.73,6.65-10.3,13.93-20.57,21.93-30.81,1-1.26,2-2.51,3-3.79v0c1.5-1.86,3-3.71,4.52-5.56a487.86,487.86,0,0,1,53.15-54.94c28.89-25.67,63.12-50.45,103.56-73.74,1.16-.69,2.34-1.38,3.55-2h0c14.8-8.42,30.36-16.63,46.85-24.63l17.35-8.45a1.14,1.14,0,0,1,.37-.18c1.62-.81,3.21-1.62,4.81-2.39.29-.15.58-.27.84-.42h0c1.33-.66,2.61-1.31,3.91-2q5.66-2.77,11.17-5.55,14.07-7,27.22-13.77c344.88-177.17,226.9-216.58,241-490.82.14-3,.39-5.94.68-8.93.12-1.28.26-2.56.43-3.85,34.2-292.48,788.32-793,1143.53-652.23,89.44,35.44,150.69,93.84,190.94,163.41,121.94,210.67,51.26,523.52-11.53,609.83q-4.61,6.36-8.71,13.35c-.67,1.16-1.35,2.33-2,3.52-.78,1.38-1.53,2.78-2.25,4.18-.56,1-1.06,2-1.57,3.08-.63,1.22-1.23,2.48-1.82,3.73s-1.2,2.51-1.74,3.79c-51.43,114.21-20.86,319.32,155,311.38,1.74-.06,3.5-.15,5.27-.27q11-.75,22.74-2.62a310.45,310.45,0,0,0,32-6.9q10.34-2.78,21.17-6.39a177.38,177.38,0,0,1,41.56-8.63,175.11,175.11,0,0,1,21.7-.57c1.74.06,3.51.15,5.25.27a188,188,0,0,1,55.28,12.27h0q2.83,1,5.59,2.24a213.65,213.65,0,0,1,46.12,26.6C2438.43,1203.17,2481.12,1284.44,2478.27,1378Z" style="fill:#bbdefb"/></g><g style="mix-blend-mode:multiply;opacity:0.56"><path d="M2517.23,1387.24c-.36,5-.87,10.09-1.5,15.17-.19,1.61-.41,3.22-.65,4.84-1.09,7.91-2.54,15.85-4.3,23.85-12.47,56-41.67,113.49-92.29,168q-9.47,10.17-19.94,20.18H83.33c1.45-6.6,3-13.35,4.86-20.18A489.14,489.14,0,0,1,109.44,1536q4.28-10.44,9.25-21c2.3-4.9,4.69-9.79,7.18-14.72a513.61,513.61,0,0,1,28.07-48.34c.79-1.22,1.59-2.45,2.41-3.67.42-.6.83-1.22,1.24-1.82.92-1.38,1.83-2.75,2.8-4.12q9.75-14.25,20.93-28.49c2.66-3.34,5.35-6.68,8.13-10q5.91-7.15,12.2-14.3,12.25-13.87,26-27.59,21.09-21,46.09-41.56c1.5-1.22,3-2.45,4.5-3.67h0c14.75-11.85,30.48-23.5,47.35-34.93h0c1.11-.75,2.25-1.53,3.38-2.27q19.62-13.12,41.24-25.8l3.7-2.15q5.91-3.45,12-6.81c.94-.53,1.91-1.07,2.87-1.58.44-.27.9-.51,1.36-.75.17-.11.34-.2.51-.29,1.16-.63,2.32-1.29,3.5-1.91q18.31-9.95,38-19.5C857.1,1014.54,644,979.81,658.89,689.45c.14-3,.39-5.94.68-8.93.12-1.28.26-2.56.43-3.85C695.61,386,1495.36-50.47,1850.57,90.31c61.9,24.54,108.92,58.13,143.9,97.54,168.67,190,57.65,514.74-11.53,609.83q-4.61,6.36-8.71,13.35c-.67,1.16-1.35,2.33-2,3.52-.78,1.38-1.53,2.78-2.25,4.18-.53,1-1.06,2-1.57,3.08-.63,1.22-1.23,2.48-1.82,3.73s-1.18,2.54-1.74,3.79c-48.56,109.13-13.34,293.68,153.38,291.94,1.2,0,2.44,0,3.67-.06a3.57,3.57,0,0,0,.56,0c1.74,0,3.5-.08,5.27-.2a263.21,263.21,0,0,0,37.1-4.57h0c1.72-.3,3.44-.66,5.18-1.05h0a368.07,368.07,0,0,0,42.16-11.46,201.79,201.79,0,0,1,132.73,1.31c2,.69,3.91,1.4,5.85,2.15a229.17,229.17,0,0,1,42.28,21.56C2471.33,1179.35,2525.16,1277.76,2517.23,1387.24Z" style="fill:#bbdefb"/></g></g><g style="mix-blend-mode:multiply;opacity:0.56"><g style="mix-blend-mode:multiply;opacity:0.56"><ellipse cx="2225.71" cy="818.42" rx="188.34" ry="153.26" transform="translate(163.16 1988.67) rotate(-49.76)" style="fill:#bbdefb"/></g><g style="mix-blend-mode:multiply;opacity:0.56"><ellipse cx="2215.37" cy="856.2" rx="188.34" ry="153.26" transform="translate(130.67 1994.15) rotate(-49.76)" style="fill:#bbdefb"/></g></g><g style="mix-blend-mode:multiply;opacity:0.56"><g style="mix-blend-mode:multiply;opacity:0.56"><ellipse cx="400.79" cy="754.9" rx="264.47" ry="215.2" transform="translate(-434.36 573.16) rotate(-49.76)" style="fill:#bbdefb"/></g><g style="mix-blend-mode:multiply;opacity:0.56"><ellipse cx="386.27" cy="807.95" rx="264.47" ry="215.2" transform="translate(-480 580.86) rotate(-49.76)" style="fill:#bbdefb"/></g></g><g style="mix-blend-mode:multiply;opacity:0.56"><g style="mix-blend-mode:multiply;opacity:0.56"><ellipse cx="501.36" cy="243.04" rx="128.05" ry="104.2" transform="translate(-46.12 346.48) rotate(-36.56)" style="fill:#bbdefb"/></g><g style="mix-blend-mode:multiply;opacity:0.56"><ellipse cx="488.65" cy="266.45" rx="128.05" ry="104.2" transform="translate(-62.56 343.52) rotate(-36.56)" style="fill:#bbdefb"/></g></g><path d="M2124.49,1373.46c-18.42-17.64-59.84,76.84-59.84,76.84s32.74-31.36,50.43-44S2130,1378.7,2124.49,1373.46Z" style="fill:#9dc89e"/><path d="M2064.51,1492.39l-4.44-1.1c.25-3.59.54-7.21.84-10.87.08-1.15.17-2.31.28-3.45a.26.26,0,0,1,0-.09c1-12.75,2.18-25.2,3.36-37.19.72-7.34,1.47-14.51,2.21-21.46.06-.61.13-1.25.22-1.86,0,0,0,0,0,0,6-55.23,12.25-96.3,13.15-102.07.06-.42.1-.65.11-.69l4.45.7c0,.15-.53,3.31-1.36,9-1.46,9.85-3.94,27.31-6.77,49.77v0c-.23,1.79-.44,3.61-.68,5.46-2.26,18.21-4.66,39.39-6.92,62.29-1.18,12-2.31,24.44-3.33,37.2l0,.08c-.07.92-.14,1.81-.21,2.73-.17,2.11-.34,4.19-.48,6.27C2064.78,1488.85,2064.65,1490.62,2064.51,1492.39Z" style="fill:#9dc89e"/><path d="M2067,1418.67s-37.52-78.31-24-103.13,30.87-6,27.29,32.13S2067,1418.67,2067,1418.67Z" style="fill:#9dc89e"/><path d="M2074.89,1380.44s9.82-52.1,35.21-70.5,32.31,5.76,10,27.87S2078.08,1372.13,2074.89,1380.44Z" style="fill:#9dc89e"/><path d="M2082.67,1326.8s-15.2-65.85-2-86.22,31.56,3,18,36.06S2082.67,1326.8,2082.67,1326.8Z" style="fill:#9dc89e"/><path d="M2039.27,1606.37S2081,1490.91,2178.67,1454l-25.33,52.48,48-58.73a219.38,219.38,0,0,1,74.79-21.62c41.91-4,51.82-2.88,51.82-2.88l-30.35,37.06,67-38.85s84.63-.26,152,26.72c0,0-43,7-70.73,39.85s-68.86,42.77-68.86,42.77-22.82-13.5-59.74-14.1c0,0,33.23,14.77,39.31,25.41,0,0-31,14-47.19,24.46s-53.26,24.67-53.26,24.67l-49.51-23.17,30.73,30.48s-25.79,20.33-74.46,12.3S2039.27,1606.37,2039.27,1606.37Z" style="fill:#9dc89e"/><path d="M2152.52,1530.21a1.9,1.9,0,0,1-.76-3.65c1.75-.76,177.3-75.91,339.87-80.93a1.94,1.94,0,0,1,2,1.84,1.91,1.91,0,0,1-1.85,2c-161.83,5-336.73,79.87-338.48,80.62A1.84,1.84,0,0,1,2152.52,1530.21Z" style="fill:#599e85"/><path d="M2336,1553.79l-.25,0c-.37,0-9.48-1.37-39-16.15-29.11-14.55-83.94-30.23-84.49-30.38a1.9,1.9,0,0,1,1-3.66c.55.15,55.72,15.93,85.15,30.64,28.68,14.34,37.75,15.77,37.84,15.78a1.9,1.9,0,0,1-.26,3.79Z" style="fill:#599e85"/><path d="M2440.31,1494.56c-6.53,0-33.62-.51-53.13-8.47-21.28-8.7-52.77-13.37-53.09-13.42a1.9,1.9,0,0,1,.55-3.76c.32,0,32.27,4.79,54,13.65,21.15,8.64,52.72,8.18,53,8.18a1.91,1.91,0,1,1,.07,3.81Z" style="fill:#599e85"/><path d="M2194.81,1605.06a1.86,1.86,0,0,1-1.06-.32l-46.52-31.29a1.9,1.9,0,1,1,2.12-3.16l46.52,31.29a1.9,1.9,0,0,1-1.06,3.48Z" style="fill:#599e85"/><path d="M2322.11,1474.75a1.88,1.88,0,0,1-1.34-.55,1.9,1.9,0,0,1,0-2.69,169.16,169.16,0,0,1,24-19.64c13-8.69,36.32-31,36.55-31.23a1.9,1.9,0,0,1,2.64,2.74c-1,.93-23.77,22.78-37.08,31.65a169.43,169.43,0,0,0-23.38,19.15A1.88,1.88,0,0,1,2322.11,1474.75Z" style="fill:#599e85"/><path d="M2201.64,1511.22a1.81,1.81,0,0,1-.72-.14,1.89,1.89,0,0,1-1.05-2.45c.09-.23,2.34-5.63,18.2-25.29,15.59-19.34,38.32-57.13,38.54-57.51a1.91,1.91,0,1,1,3.27,2c-.23.38-23.09,38.4-38.85,57.94-15.24,18.89-17.54,24.11-17.63,24.33A1.92,1.92,0,0,1,2201.64,1511.22Z" style="fill:#599e85"/><path d="M2081.37,1607.1s-47.24,17.13-57.95-7.73c-12.61-29.29-6.3-93.07-.43-121.95,10.84-53.39,56.14-22.14,62.86-49s-7-99.59,24.6-126.33,30.46,17.68,84.56-64.25,62.35-27.6,91.9-44.93,88-75,104.93-48.09-69.84,132.77-102.73,167.07-19.41,41.18,2.77,51-11.25,73.48-75.42,107.72-48.38,43.87-36.59,63.37S2172.47,1602.25,2081.37,1607.1Z" style="fill:#599e85"/><path d="M2066.32,1578.47l-4.88-1.36c34.2-122.82,111.75-225.95,170.78-290.84,63.94-70.27,120.57-112.1,121.13-112.52l3,4.09c-.56.42-56.86,42-120.46,111.94C2177.27,1354.24,2100.25,1456.65,2066.32,1578.47Z" style="fill:#9dc89e"/><path d="M2134.31,1423.75l-2.13-4.61c58.07-26.79,112.75-32.86,113.29-32.92l.54,5C2245.48,1391.32,2191.58,1397.33,2134.31,1423.75Z" style="fill:#9dc89e"/><path d="M2207,1323l-4.4-2.55c34.26-59.11,27.19-106.87,27.11-107.35l5-.8C2235,1214.3,2242.21,1262.21,2207,1323Z" style="fill:#9dc89e"/><path d="M2143.34,1409.9l-4.8-1.62c17.37-51.45,6.51-88.63,6.4-89l4.86-1.47C2150.27,1319.38,2161.24,1356.92,2143.34,1409.9Z" style="fill:#9dc89e"/><path d="M2242,1282.81l-2-4.66c1.28-.55,31.44-13.49,59.23-13.49h.68l0,5.07h-.63C2272.47,1269.74,2242.31,1282.68,2242,1282.81Z" style="fill:#9dc89e"/><path d="M270.53,1242.44c0-1-3.91-97.11-36.08-165l4.59-2.17c32.62,68.89,36.52,166.06,36.56,167Z" style="fill:#599e85"/><path d="M265.42,1168.13s-29.7-48.24-55.27-82.32S137.68,1104.85,265.42,1168.13Z" style="fill:#599e85"/><path d="M269,1197.72s11.6-46.65,11.9-77.41,23.55-40.06,32.62-7.2S269,1197.72,269,1197.72Z" style="fill:#599e85"/><path d="M231.72,1263.59s31.91-35.95,46.45-63.06,39.44-24.56,32.24,8.76S231.72,1263.59,231.72,1263.59Z" style="fill:#599e85"/><path d="M241.39,1086.56S227.7,1003,210.88,992.74s-28.12,16-14.55,41.78S241.39,1086.56,241.39,1086.56Z" style="fill:#599e85"/><path d="M256.79,1503.15s-24.87-26-51.66-45.12-42.1-36.36-42.1-36.36l6.7,58.36-23-47.84s-31.57-20.09-74.63-29.66-70.8-32.21-70.8-32.21,23.92,110.18,72.72,151.09c0,0,49.75,2.63,62.19,13.16,0,0-43.06-1.92-64.11,7.65a616,616,0,0,1,52.63,40.19c26.79,23,93.84,27.42,139.72,29s102.26,0,102.26,0-4.87-23-36.36-50.87S256.79,1503.15,256.79,1503.15Z" style="fill:#599e85"/><path d="M338,1605c-45.3-7.54-95.41-42.65-139.62-73.63-17-11.89-33-23.12-48-32.35C95.87,1465.5,1,1372.61,0,1371.68L2.67,1369c1,.94,95.55,93.52,149.72,126.85,15.1,9.3,31.17,20.56,48.18,32.48,43.88,30.75,93.61,65.6,138.06,73Z" style="fill:#9dc89e"/><path d="M109.52,1469.42c-.2-.06-19.64-6.5-37-8.15-17.78-1.7-45.79-11.28-47-11.69l1.24-3.6c.28.1,28.76,9.85,46.09,11.5,17.78,1.69,37,8.06,37.81,8.34Z" style="fill:#9dc89e"/><path d="M135.3,1569a226.26,226.26,0,0,1-32.62-2.42l.6-3.76c.39.06,39.09,6.17,66-1.65a218.25,218.25,0,0,0,26.7-10c11.86-5.13,20.43-8.82,28.65-6l-1.23,3.61c-6.84-2.36-14.84,1.11-25.91,5.9a222.33,222.33,0,0,1-27.15,10.19C159.35,1568,146.68,1569,135.3,1569Z" style="fill:#9dc89e"/><path d="M231.9,1554.54c-8.59-5.65-9.07-14.44-9.72-26.61-.4-7.54-.86-16.09-3.28-26.25-6.23-26.16-11.77-40.1-11.83-40.24l3.53-1.41c.06.14,5.7,14.29,12,40.77a143.59,143.59,0,0,1,3.38,26.93c.62,11.46,1,19,8,23.62Z" style="fill:#9dc89e"/><path d="M140.25,1492.29c-4.73-7-7.55-15.39-11.12-26-1.22-3.63-2.54-7.54-4.06-11.77-5.85-16.3-14-38.3-14.1-38.52l3.57-1.32c.08.22,8.26,22.24,14.12,38.55,1.52,4.25,2.85,8.19,4.08,11.85,3.47,10.33,6.22,18.49,10.67,25.09Z" style="fill:#9dc89e"/><path d="M229.5,1604.92l-1.43-3.52c.2-.08,20.79-8.5,32.43-14.32,3.27-1.64,5.83-3.11,7.89-4.29,5.49-3.16,8.52-4.9,13.3-2.44l-1.75,3.38c-2.82-1.45-4.21-.77-9.65,2.36-2.1,1.2-4.71,2.71-8.09,4.4C250.43,1596.37,229.71,1604.84,229.5,1604.92Z" style="fill:#9dc89e"/><path d="M395.34,1611.28s56.92-.27,77.92-7.27c1.78-.59,5.35-102.21-7.93-136.28-19.77-50.76-79.73-18.79-85.5-45.92s10.51-99.28-20.15-127.12-31.06,16.61-82.25-67.18-61.34-29.76-90.27-48.12-85.33-78.1-103.18-51.75,65.15,135.15,96.81,170.58,17.94,41.83-4.56,50.88,8.66,73.83,71.59,110.3,46.81,45.54,34.34,64.62S304.46,1603.24,395.34,1611.28Z" style="fill:#9dc89e"/><path d="M394.07,1572.5l4.94-1.19c-29.88-124-103.76-229.73-160.47-296.65C177.11,1202.19,122,1158.39,121.43,1158l-3.14,4c.54.44,55.34,44,116.45,116.1C291.07,1344.51,364.44,1449.56,394.07,1572.5Z" style="fill:#599e85"/><path d="M331.56,1415.49l2.29-4.53c-57.09-28.82-111.52-36.81-112.07-36.88l-.71,5C221.6,1379.18,275.25,1387.07,331.56,1415.49Z" style="fill:#599e85"/><path d="M262.47,1312.23l4.48-2.38c-32.16-60.28-23.42-107.77-23.33-108.24l-5-1C238.25,1202.63,229.4,1250.26,262.47,1312.23Z" style="fill:#599e85"/><path d="M323,1401.33l4.86-1.45c-15.56-52-3.4-88.81-3.27-89.18l-4.81-1.63C319.27,1310.62,307,1347.76,323,1401.33Z" style="fill:#599e85"/><path d="M228.88,1270.85l2.18-4.58c-1.26-.6-30.94-14.59-58.72-15.56l-.68,0-.14,5.07.63,0C198.9,1256.72,228.58,1270.71,228.88,1270.85Z" style="fill:#599e85"/><rect x="48.58" y="1603.16" width="2419.72" height="16.07" style="fill:#70617f"/><polygon points="1316.89 1264.02 1316.89 1503.74 1305.54 1503.74 1259.02 1495.39 1212.49 1503.74 1201.11 1503.74 1201.11 1264.02 1316.89 1264.02" style="fill:#2b3f6b"/><path d="M344,487.54v-8.21a134.4,134.4,0,0,0,23.14-2l1.42,8.08A143.82,143.82,0,0,1,344,487.54Zm-24.56-2.11a141.21,141.21,0,0,1-23.83-6.35l2.8-7.71a132.83,132.83,0,0,0,22.44,6ZM392.34,479l-2.81-7.71a132.39,132.39,0,0,0,21-9.83l4.11,7.1A141.36,141.36,0,0,1,392.34,479ZM273.21,468.66A143.33,143.33,0,0,1,253,454.51l5.27-6.28a134,134,0,0,0,19,13.32Zm161.65-14.25-5.28-6.28A134.91,134.91,0,0,0,446,431.7l6.28,5.27A142.85,142.85,0,0,1,434.86,454.41Zm-199.3-17.32a142.09,142.09,0,0,1-14.18-20.17l7.1-4.11a133.94,133.94,0,0,0,13.36,19Zm230.89-20.31-7.1-4.1a133.44,133.44,0,0,0,9.82-21.06l7.71,2.81A142.31,142.31,0,0,1,466.45,416.78ZM210.93,394.59a140.74,140.74,0,0,1-6.4-23.82l8.09-1.42a132.56,132.56,0,0,0,6,22.43Zm272.32-24-8.08-1.41a134.5,134.5,0,0,0,2-23.15v-.34h8.2V346A142.89,142.89,0,0,1,483.25,370.6ZM202.38,346.21V346a142.62,142.62,0,0,1,2.09-24.38l8.09,1.4a134.44,134.44,0,0,0-2,23Zm272.73-23.64a132.57,132.57,0,0,0-6.05-22.42l7.7-2.82a140.47,140.47,0,0,1,6.43,23.81ZM218.52,300.62l-7.71-2.8a141.52,141.52,0,0,1,10.41-22.37l7.11,4.1A133.49,133.49,0,0,0,218.52,300.62Zm240.67-21.48a134.8,134.8,0,0,0-13.38-19l6.27-5.29A142.61,142.61,0,0,1,466.28,275ZM241.64,260.51l-6.29-5.27a142.85,142.85,0,0,1,17.41-17.46l5.28,6.28A134.83,134.83,0,0,0,241.64,260.51Zm187.71-16.76a135.16,135.16,0,0,0-19.05-13.3l4.09-7.11a142.49,142.49,0,0,1,20.22,14.12ZM277,230.69l-4.12-7.09a140.42,140.42,0,0,1,22.32-10.47l2.82,7.7A132.75,132.75,0,0,0,277,230.69Zm112.18-10a132.5,132.5,0,0,0-22.44-5.95l1.4-8.08A140,140,0,0,1,392,213Zm-68.73-5.87-1.43-8.07a141.74,141.74,0,0,1,24.55-2.17l0,8.2A134.33,134.33,0,0,0,320.49,214.79Z" style="fill:#7bceef"/><path d="M2177.18,1110.91v-6.44a73.75,73.75,0,0,0,12.7-1.11l1.11,6.34A80.54,80.54,0,0,1,2177.18,1110.91Zm-13.81-1.19a78.46,78.46,0,0,1-13.39-3.57l2.2-6.05a72.43,72.43,0,0,0,12.3,3.28Zm41-3.6-2.2-6a72.4,72.4,0,0,0,11.53-5.39l3.23,5.57A80.13,80.13,0,0,1,2204.37,1106.12Zm-67-5.83a79.47,79.47,0,0,1-11.35-8l4.13-4.93a73.82,73.82,0,0,0,10.44,7.31Zm90.86-8-4.14-4.93a74.44,74.44,0,0,0,9-9l4.93,4.14A81,81,0,0,1,2228.27,1092.29Zm-112-9.74a79.42,79.42,0,0,1-8-11.33l5.57-3.23a73.7,73.7,0,0,0,7.32,10.42ZM2246,1071.14l-5.57-3.23a72.5,72.5,0,0,0,5.39-11.54l6,2.2A78.93,78.93,0,0,1,2246,1071.14Zm-143.62-12.47a79.46,79.46,0,0,1-3.59-13.39l6.34-1.12a72.49,72.49,0,0,0,3.3,12.3Zm153.07-13.49-6.34-1.11a74.63,74.63,0,0,0,1.09-12.69v-.19h6.44v.24A80.38,80.38,0,0,1,2255.47,1045.18Zm-157.87-13.71v-.09a80.3,80.3,0,0,1,1.17-13.71l6.35,1.1a73.61,73.61,0,0,0-1.09,12.61Zm151.49-13a72.66,72.66,0,0,0-3.31-12.29l6-2.22a79.52,79.52,0,0,1,3.61,13.39Zm-140.7-12-6-2.2a78.83,78.83,0,0,1,5.85-12.57l5.57,3.22A72.1,72.1,0,0,0,2108.39,1006.47Zm132-11.78a74,74,0,0,0-7.33-10.42l4.92-4.15a80.54,80.54,0,0,1,8,11.33Zm-119.3-10.22-4.93-4.13a79.5,79.5,0,0,1,9.78-9.81l4.15,4.92A73.73,73.73,0,0,0,2121.06,984.47ZM2224,975.28a73.78,73.78,0,0,0-10.45-7.29l3.21-5.58a80.34,80.34,0,0,1,11.37,7.93Zm-83.52-7.16-3.23-5.57a78.67,78.67,0,0,1,12.54-5.88l2.21,6A73.7,73.7,0,0,0,2140.48,968.12Zm61.52-5.5a73.71,73.71,0,0,0-12.31-3.27l1.09-6.34a79.34,79.34,0,0,1,13.41,3.56Zm-37.7-3.22-1.12-6.34a80.46,80.46,0,0,1,13.8-1.22v6.44A74.65,74.65,0,0,0,2164.3,959.4Z" style="fill:#7bceef"/><path d="M786.55,1442.13v-9.72a111.28,111.28,0,0,0,19.15-1.66l1.69,9.56A121.82,121.82,0,0,1,786.55,1442.13Zm-20.83-1.79A119.62,119.62,0,0,1,745.5,1435l3.32-9.13a109.12,109.12,0,0,0,18.57,5Zm61.86-5.44-3.32-9.12a110.57,110.57,0,0,0,17.4-8.14l4.86,8.4A118.66,118.66,0,0,1,827.58,1434.9Zm-101-8.79a120.84,120.84,0,0,1-17.14-12l6.24-7.45a111.89,111.89,0,0,0,15.75,11ZM863.65,1414l-6.26-7.43A111.36,111.36,0,0,0,871,1393l7.44,6.25A121.46,121.46,0,0,1,863.65,1414Zm-169-14.69a121,121,0,0,1-12-17.11l8.4-4.87A111.33,111.33,0,0,0,702,1393.09Zm195.83-17.23-8.4-4.86a111.21,111.21,0,0,0,8.13-17.42l9.12,3.32A119.29,119.29,0,0,1,890.43,1382.11ZM673.71,1363.3a119.34,119.34,0,0,1-5.42-20.21l9.56-1.68a109.92,109.92,0,0,0,5,18.55Zm231-20.36-9.56-1.67a111.39,111.39,0,0,0,1.65-19.16v-.28h9.72v.37A120.47,120.47,0,0,1,904.68,1342.94Zm-238.22-20.68v-.15a122,122,0,0,1,1.77-20.68l9.57,1.67a111.65,111.65,0,0,0-1.63,19Zm228.61-19.57a110.26,110.26,0,0,0-5-18.55l9.12-3.35a119.83,119.83,0,0,1,5.45,20.2Zm-212.33-18.16-9.13-3.31a118.83,118.83,0,0,1,8.83-19l8.41,4.85A109.9,109.9,0,0,0,682.74,1284.53Zm199.15-17.78A110.07,110.07,0,0,0,870.82,1251l7.43-6.27a121,121,0,0,1,12,17.1Zm-180-15.41-7.45-6.24a121.46,121.46,0,0,1,14.76-14.81l6.27,7.43A111.28,111.28,0,0,0,701.87,1251.34Zm155.33-13.87a110.55,110.55,0,0,0-15.77-11l4.85-8.42a120.06,120.06,0,0,1,17.15,12Zm-126-10.81-4.88-8.4a120,120,0,0,1,18.93-8.88l3.34,9.12A110.15,110.15,0,0,0,731.17,1226.66Zm92.83-8.3a110.36,110.36,0,0,0-18.58-4.93l1.66-9.57a119.56,119.56,0,0,1,20.22,5.37Zm-56.89-4.85-1.69-9.57a120.74,120.74,0,0,1,20.83-1.84l0,9.72A111.33,111.33,0,0,0,767.11,1213.51Z" style="fill:#7bceef"/><path d="M290.63,779.05a46.82,46.82,0,1,1,46.81-46.82A46.87,46.87,0,0,1,290.63,779.05Zm0-87.53a40.71,40.71,0,1,0,40.7,40.71A40.75,40.75,0,0,0,290.63,691.52Z" style="fill:#7bceef"/><path d="M556.21,127.56a35.23,35.23,0,1,1,35.23-35.23A35.27,35.27,0,0,1,556.21,127.56Zm0-65.86a30.63,30.63,0,1,0,30.63,30.63A30.66,30.66,0,0,0,556.21,61.7Z" style="fill:#7bceef"/><path d="M1728.94,1378.09a78.69,78.69,0,1,1,78.69-78.69A78.78,78.78,0,0,1,1728.94,1378.09Zm0-147.11a68.42,68.42,0,1,0,68.42,68.42A68.51,68.51,0,0,0,1728.94,1231Z" style="fill:#7bceef"/><path d="M2179.68,578.53a46.82,46.82,0,1,1,46.82-46.81A46.87,46.87,0,0,1,2179.68,578.53Zm0-87.52a40.71,40.71,0,1,0,40.71,40.71A40.75,40.75,0,0,0,2179.68,491Z" style="fill:#7bceef"/><path d="M1259,1351.57v143.82l-46.52,8.35-482.09,86.52a827.06,827.06,0,0,1-146.06,13H550c-13.47,0-20.55-16.06-11.39-25.94,13.21-14.25,31.45-31.06,51.54-41.28,40.18-20.45,122.78-43.43,166.71-54.78l444.2-114.75Z" style="fill:#374c82"/><path d="M1259,1351.57v143.82l46.53,8.35,482.08,86.52a827.09,827.09,0,0,0,146.07,13H1968c13.47,0,20.56-16.06,11.4-25.94-13.22-14.25-31.46-31.06-51.55-41.28-40.18-20.45-122.77-43.43-166.7-54.78l-444.2-114.75Z" style="fill:#374c82"/><rect x="351.54" y="84.62" width="1814.93" height="1215.72" rx="58.73" style="fill:#374c82"/><rect x="414.07" y="147.15" width="1689.86" height="1090.66" rx="18.98" style="fill:#fff"/><rect x="414.27" y="147.28" width="1689.46" height="1090.4" rx="18.98" style="fill:#bbdefb"/><rect x="467.06" y="201.46" width="1583.89" height="982.05" rx="17.44" style="fill:#fff"/><rect x="453.4" y="192.99" width="1611.2" height="998.98" rx="17.74" style="fill:#fff"/><rect x="453.4" y="192.99" width="1611.2" height="998.98" rx="17.74" style="fill:#fff"/><circle cx="2005.32" cy="237.09" r="19.83" transform="translate(1450.08 2178.54) rotate(-80.78)" style="fill:#0097bf"/><circle cx="1949.4" cy="237.09" r="19.83" transform="translate(1270.78 2079.87) rotate(-76.72)" style="fill:#00a8e3"/><circle cx="1893.48" cy="237.09" r="19.83" transform="translate(1227.7 2025.45) rotate(-76.72)" style="fill:#bbdefb"/><rect x="491.93" y="281.18" width="1534.15" height="14.36" style="fill:#bbdefb"/><path d="M1996.41,334.85,521.59,323.31a29.56,29.56,0,0,0-29.66,29.47v765.55a29.56,29.56,0,0,0,29.66,29.46H814.1l1182.31-1.52a29.57,29.57,0,0,0,29.67-29.47V364.32A29.57,29.57,0,0,0,1996.41,334.85Z" style="fill:#fff"/><path d="M814.11,1151.9H521.59a33.7,33.7,0,0,1-33.76-33.57V352.78a33.7,33.7,0,0,1,33.76-33.57l1474.86,11.54a33.7,33.7,0,0,1,33.73,33.57V1116.8a33.71,33.71,0,0,1-33.77,33.57ZM521.56,327.41A25.49,25.49,0,0,0,496,352.78v765.55a25.49,25.49,0,0,0,25.56,25.36H814.1l1182.31-1.52A25.5,25.5,0,0,0,2022,1116.8V364.32A25.5,25.5,0,0,0,1996.41,339Z" style="fill:#bbdefb"/><rect x="544.51" y="377.62" width="1428.98" height="209.68" rx="16.96" style="fill:#bbdefb"/><rect x="544.51" y="630.71" width="1428.98" height="209.68" rx="16.96" style="fill:#bbdefb"/><rect x="544.51" y="883.8" width="1428.98" height="209.68" rx="16.96" style="fill:#bbdefb"/><path d="M753.75,482.46a82.46,82.46,0,0,1-33.17,66.08c-.85.64-1.7,1.26-2.57,1.86s-1.58,1.06-2.37,1.56c-.25.15-.5.33-.76.48s-.75.47-1.14.68a79.79,79.79,0,0,1-11.12,5.6c-.91.39-1.84.75-2.78,1.1A82.42,82.42,0,0,1,688.92,563c-1,.23-2,.42-3,.6a83.08,83.08,0,0,1-9.13,1.12c-1.57.09-3.13.15-4.72.17h-.73a82.29,82.29,0,0,1-11.17-.75c-1.44-.19-2.87-.43-4.3-.72A80.94,80.94,0,0,1,628.7,553c-.17-.09-.35-.21-.5-.31-.91-.56-1.8-1.12-2.69-1.71l-.38-.26s0,0,0,0a82.42,82.42,0,1,1,128.66-68.24Z" style="fill:#fff"/><rect x="794.95" y="420.49" width="539.54" height="22.21" style="fill:#fff"/><g style="opacity:0.6000000000000001"><rect x="794.95" y="467.18" width="404.33" height="13.24" style="fill:#fff"/><rect x="794.95" y="499.18" width="160.32" height="13.24" style="fill:#fff"/><rect x="1316.13" y="499.18" width="284.9" height="13.24" style="fill:#fff"/><rect x="998.72" y="499.18" width="280.07" height="13.24" style="fill:#fff"/><rect x="794.95" y="531.19" width="806.09" height="13.24" style="fill:#fff"/></g><rect x="1649.64" y="445.28" width="274.28" height="74.36" rx="37.18" style="fill:#5eb9f7"/><path d="M695.3,432.75l0,.05.66,2.77.67,3v.06c0,.06,0,.11,0,.13v0a7.73,7.73,0,0,1,1,.52v0s0,0,0,0v0l.27.14-2.57,7.57-.39,1.18c.23.69.45,1.41.64,2.08v0a.83.83,0,0,1,0,.12c.07.21.15.44.21.65v0c.1.37.19.68.27,1,.17.62.31,1.2.46,1.74-1.08,1.08-2.18,2.14-3.34,3.24-.83.77-1.68,1.57-2.53,2.34-2,1.87-4.11,3.71-6.24,5.5-1.23,1.1-2.51,2.17-3.76,3.23-2,1.66-4,3.28-5.91,4.79v0c-1.34,1.06-2.61,2.09-3.85,3l0,0c-.36.31-.75.62-1.14.91l0,0-.81.62,0,0c-2.24,1.73-4.23,3.28-5.91,4.52-.34.28-.69.52-1,.77h0c-2,1.48-3.32,2.45-3.77,2.78l-.17.12s-18.43-11.17-17.5-33c0-.26,0-.51,0-.76a.12.12,0,0,1,0-.08s0,0,0,0v-.22c0-.19,0-.42.08-.65,0,0,0-.08,0-.12a9.72,9.72,0,0,1,.19-1.83c0-.27.08-.56.11-.85,0,0,0-.08,0-.14.08-.48.18-1,.27-1.49a1.05,1.05,0,0,1,.08-.34.4.4,0,0,1,0-.2v0c0-.17.06-.32.1-.52,0,0,0,0,0,0s0-.21.05-.31c.18-.71.35-1.42.56-2.12.06-.21.12-.43.2-.64a50.55,50.55,0,0,1,20.24-27.23l.08,0a2.2,2.2,0,0,1,.36,0l14.12.14c1.12,4.3,1.84,6,6.22,4.65,4-1.26,5.53-3.32,6.92-4.52l2.57,0a5.23,5.23,0,0,1,1.42.19l1.55.41a1.21,1.21,0,0,1,.25.08c2.86,2.72,1.43,6.95,1.8,9.71a2.92,2.92,0,0,0,1,2.07,3.27,3.27,0,0,0,1,.46,3.78,3.78,0,0,0,.56.1l-.41.37-4.65,3.8Z" style="fill:#2e2f4d"/><path d="M691.75,510a7,7,0,0,1,2.54,10.3,1.43,1.43,0,0,1-.14.2c-3.2,4.37-10.69,10.81-26.66,6.94a37,37,0,0,1-12.91-5.78,7,7,0,0,1,.17-11.53,8.66,8.66,0,0,0,3.71-4.34c.78-2.69,0-19.49-.9-28-.31-2.86-1-8.58-1-8.58l27,12.84s.08,7.06.23,12.79c.09,3.39.31,6.3.36,7C684.33,505.34,688.15,508.14,691.75,510Z" style="fill:#f6a49d"/><path d="M666,475c-.9,2.4-5.91,2.81-11.21.92s-8.59-5.22-8-7.76c.82-3.38,5.91-2.82,11.21-.93S666.89,472.62,666,475Z" style="fill:#d47c74"/><path d="M683.49,482.05s.08,7.06.23,12.79a13.85,13.85,0,0,1-5.46,1.16c-13.85-.38-20.82-23.56-20.82-23.56Z" style="fill:#d47c74"/><path d="M698,467.05c0,1-.07,1.89-.15,2.82a32,32,0,0,1-.6,4.06c-.08.36-.15.75-.23,1.12s-.21.85-.31,1.27c-2.13,7.88-6.74,13.7-13.06,15.32l-.44.11c-7,1.53-14.45-2.35-20.21-9.59a39.21,39.21,0,0,1-3.47-5.12c-.54-1-1.07-2-1.55-3,0,0,0-.06,0-.09-.38-.84-.77-1.65-1.14-2.53,0,0,0-.06,0-.08-.63-1.59-1.21-3.27-1.71-5a1.13,1.13,0,0,1-.08-.24v0c-.21-.77-.43-1.52-.6-2.31s-.35-1.53-.48-2.28c.46-.54.79-3.73,1.43-7,0-.22.07-.43.11-.66h0a19.82,19.82,0,0,1,1.57-5.1,1.14,1.14,0,0,1,.09-.16l.49-.81h0c.12-.19.26-.4.41-.6a5.68,5.68,0,0,1,.44-.56,11.51,11.51,0,0,1,2.13-2.06,13.94,13.94,0,0,1,2.09-1.32h0l.39-.21h0a19.7,19.7,0,0,1,5.7-1.66h0c1.12-.17,2.26-.27,3.42-.33h0c1.24-.07,2.52-.09,3.79-.06,1.91,0,3.84.14,5.72.26h.48l1.76.1,1.1.06h0c1.2,0,2.32.06,3.3.06,2,0,3.4-.16,3.73-.5a32.74,32.74,0,0,1,1.37,3.28c.39,1,.75,2,1.08,3.11.1.29.2.6.29.89.23.69.45,1.41.64,2.08v0a.83.83,0,0,1,0,.12c.07.21.15.44.21.65v0c.1.37.19.68.27,1,.17.62.31,1.2.46,1.74l.12.5a52.07,52.07,0,0,1,1.31,9.33C698,464.87,698,466,698,467.05Z" style="fill:#f6a49d"/><path d="M690.24,477.35a27.56,27.56,0,0,1-16.84,1.7s3.9,6.83,10.13,6.2S690.24,477.35,690.24,477.35Z" style="fill:#fff"/><path d="M694.86,433h0c0,.32,0,.69-.06,1.09,0,.77-.11,1.66-.18,2.59-.1,1.47-.22,3-.32,4.31-.13,1.62-.23,2.8-.23,2.8s-.17.16-.51.42c-2,1.55-9.38,6.67-18.38,4l-.15,0a29.68,29.68,0,0,0-3.38-.84,20.93,20.93,0,0,0-2.3-.31c-4.05-.32-6.66.83-8.05,3a9,9,0,0,0-1.26,5c0,5.52,1.91,11.84-.33,12.92h0a2.33,2.33,0,0,1-1.53.06,6.9,6.9,0,0,1-2.84-1.59l-.37-.33h0a30.13,30.13,0,0,1-5.39-7.75l-.12-.87a19.15,19.15,0,0,1-.18-2.12,22.49,22.49,0,0,1,14.85-22.2l.12,0c.3-.08,24.74-1.26,29.74-1.4C694.29,432.15,694.59,432.6,694.86,433Z" style="fill:#2e2f4d"/><path d="M713.84,516.5l0-.49,0-.44-.06-1.2v-.07l-21.67-6.48h0l-5-1.5-.27.31-.48.56a10.21,10.21,0,0,1-.77.83,19.33,19.33,0,0,1-2.69,2.22,20.33,20.33,0,0,1-2.32,1.39,4.39,4.39,0,0,1-.44.21,23.46,23.46,0,0,1-4.08,1.53,21.79,21.79,0,0,1-3.88.69c-5.66.45-11.05-1.56-14.5-6.54a5.66,5.66,0,0,1-.37-.53l-4.37,1.24-30.65,8.69,0,.18,0,.21c0,.25.06.6.1,1,.09,1.06.23,2.65.4,4.66.43,4.86,1.06,12.26,1.78,20.84l0,.25c0,.44.07.89.13,1.35l.16,1.95c.09,1.1.19,2.2.29,3.32l.38.26c.89.59,1.78,1.15,2.69,1.71.15.1.33.22.5.31a80.94,80.94,0,0,0,27.16,10.41c1.43.29,2.86.53,4.3.72a82.29,82.29,0,0,0,11.17.75h.73c1.59,0,3.15-.08,4.72-.17a83.08,83.08,0,0,0,9.13-1.12c1-.18,2-.37,3-.6a82.42,82.42,0,0,0,10.92-3.17c.94-.35,1.87-.71,2.78-1.1a79.79,79.79,0,0,0,11.12-5.6c.39-.21.78-.45,1.14-.68C714.54,536.12,714,521.81,713.84,516.5Z" style="fill:#bbdefb"/><path d="M683.29,510.85l.86,8.42a5.67,5.67,0,0,1-1.68,4.65h0a5.71,5.71,0,0,1-7.48.47l-.3-.23a5.75,5.75,0,0,1-2.24-4.19l-.49-8.12L676,501Z" style="fill:#f8cd9e"/><polygon points="684.93 497.37 675.98 501.04 682.51 518.34 692.07 507.82 684.93 497.37" style="fill:#bbdefb"/><polygon points="658.24 496.8 652.49 509.02 675.98 518.75 675.98 501.04 658.24 496.8" style="fill:#bbdefb"/><path d="M688.92,563c-1,.23-2,.42-3,.6a83.08,83.08,0,0,1-9.13,1.12c-1.57.09-3.13.15-4.72.17l1-9.19v0l3-27,.38-3.42.29-2.59,4.45-2.07.69,3.83.66,3.61,4.58,25.38v.06Z" style="fill:#f8cd9e"/><path d="M673.09,555.69v0L659.93,524.8l-6-14-.59-1.39v0l-.49-1.14-30.65,8.67v0l0,.18,0,.21.06.37.09.94,0,.14.45,4.23v0l0,.23,1.68,21,0,.39.06.81.16,1.95.25,3.3s0,0,0,0l.38.26c.89.59,1.78,1.15,2.69,1.71.15.1.33.22.5.31a80.94,80.94,0,0,0,27.16,10.41c1.43.29,2.86.53,4.3.72a82.29,82.29,0,0,0,11.17.75h.73c1.59,0,3.15-.08,4.72-.17Zm42.08-15.78-1.33-23.41,0-.49,0-.44-.06-1.2v-.06l-21.67-6.49h0v0l-.23,2.21-1.54,14.41h0l-3.09,28.9v.06l-1.28,10.16c1-.18,2-.37,3-.6a82.42,82.42,0,0,0,10.92-3.17c.94-.35,1.87-.71,2.78-1.1a79.79,79.79,0,0,0,11.12-5.6c.39-.21.78-.45,1.14-.68s.51-.33.76-.48Q715.52,545.93,715.17,539.91Z" style="fill:#867796"/><path d="M628.7,553c-.17-.09-.35-.21-.5-.31-.91-.56-1.8-1.12-2.69-1.71l-.38-.26s0,0,0,0a82,82,0,0,1-16.88-15.27c7.66-14.07,13.88-18.49,13.88-18.49l.06.39.2,1,0,.27,0,.14.78,4.19,3.63,19.85,0,.16Z" style="fill:#867796"/><path d="M728.54,541.78a81.43,81.43,0,0,1-8,6.76c-.85.64-1.7,1.26-2.57,1.86s-1.58,1.06-2.37,1.56c-.25.15-.5.33-.76.48s-.75.47-1.14.68V514.31s6.92,3.52,9.18,7.85C723.67,523.61,725.89,531.66,728.54,541.78Z" style="fill:#867796"/><g style="opacity:0.5"><path d="M667.74,553.87l-11.38,6.69,3.8,3.57c-1.44-.19-2.87-.43-4.3-.72l-3.52-3.3,8.4-4.94-12-2L636.87,516l2.3-.73L650.58,551Z" style="fill:#5c4e6d"/><path d="M705.63,555.75H698l4.64,3c-.91.39-1.84.75-2.78,1.1l-10.14-6.51h13.71l3.27-37.76,2.41.19Z" style="fill:#5c4e6d"/></g><g style="opacity:0.5"><path d="M722.19,529.13l-1.61,19.41c-.85.64-1.7,1.26-2.57,1.86l1.76-21.46Z" style="fill:#5c4e6d"/></g><g style="opacity:0.5"><path d="M628.2,552.69c-.91-.56-1.8-1.12-2.69-1.71l-.89-6.34,0-.39,0-.15,0-.25-2.86-20.69,1.08-.15h.12l.33-.06.88-.12,2.75,20,0,.16Z" style="fill:#5c4e6d"/></g><polygon points="669.73 516.93 657.2 512.43 657.61 511.29 670.14 515.79 669.73 516.93" style="fill:#91c3e5"/><rect x="683.4" y="512.67" width="8.22" height="1.21" transform="translate(-166.18 598.97) rotate(-42.48)" style="fill:#91c3e5"/><path d="M702.1,424.44v.29a5.62,5.62,0,0,1-1.15,3.19,5.17,5.17,0,0,1-.49.56c-.14.14-.27.25-.41.37l-4.65,3.81-.1.1,0,0-.47.13-1,.28-5.17,1.52h0l-20.79,6h0l-5.7,1.66h0l-.53.15L651.74,444l-1.37.19-5.64.82,0,0-3.16.47-1.14.16-2,.29h0l-.09,0-6-1.44a5.7,5.7,0,0,1-4.18-7l1.21-4.49a5.6,5.6,0,0,1,1.76-2.81l1.19-1.06a5.73,5.73,0,0,1,1.21-.82L660,415a1.28,1.28,0,0,1,.37-.14l1.19-.27.08,0a2.46,2.46,0,0,1,.37,0l14.13.14,13.12.14,2.58,0a4.82,4.82,0,0,1,1.42.19l1.55.41a1.44,1.44,0,0,1,.25.08,5.5,5.5,0,0,1,2.56,1.68l3.06,3.51A5.6,5.6,0,0,1,702.1,424.44Z" style="fill:#70617f"/><g style="opacity:0.5"><path d="M698.92,427.78a.37.37,0,0,0,0,.14,17.26,17.26,0,0,1-3.48,4.74l-.1.1,0,0-.41.27-1.06.68-2.24,1.47-3.22,2.1-5.27,3.44-.79.51-.91.6c-.35.24-.71.45-1.08.67a30.6,30.6,0,0,1-11.24,4,31.3,31.3,0,0,1-5,.27h-.29l-1.64-.06-3.61-.11-1.42,0-6.35-.2-1.17,0-.2,0-6.14-.19-1.78-.06-1.09,0-2-.06h0s-5.07-2.81-3.14-3.94c1.1-.65,3.4.37,6,.45a7.8,7.8,0,0,0,1.18,0,7,7,0,0,0,4.82-2.6c2.61-3.06,5.33-3.14,8.14-2.48.41.1.84.2,1.25.33,1.42.39,2.85.9,4.31,1.21,4.63,1,4.61-.25,9.2-6.12a6.77,6.77,0,0,1,.48-.65s0,0,0-.06c4-4.94,7.19-1.91,11-.51a9.87,9.87,0,0,0,2.17.55h0a7.53,7.53,0,0,0,1.17,0,7.8,7.8,0,0,0,.94-.12,8,8,0,0,0,2.08-.74c3.38-1.72,5.67-5.37,9-5.48a2.35,2.35,0,0,1,.53,0,2,2,0,0,1,.37,0C699.05,426.08,699.23,426.84,698.92,427.78Z" style="fill:#605270"/></g><path d="M695.32,447.08c-.19.1-.42.2-.66.3l-.7.27c-.51.2-1.08.39-1.68.59l-.61.17c-.95.29-2,.57-3.16.84l-2.16.47c-.69.16-1.39.29-2.13.45-3.87.76-8.28,1.48-12.81,2.11h0c-2.67.35-5.39.68-8,.93l-1.74.18-1.48.12v0c-.35,0-.68,0-1,.07-1.24.1-2.45.18-3.65.26l-1.11.06c-1.79.07-3.49.11-5.07.11-.34,0-.67,0-1,0-3.63-.05-6.42-.43-7.75-1.19a1.63,1.63,0,0,1-.82-.88l-.1-.46v-.1s0,0,0,0a4.3,4.3,0,0,1,.08-.86s0-.08,0-.12a5.56,5.56,0,0,1,1.17-2.07l.14-.15a13.82,13.82,0,0,1,2.17-2c.46-.35.95-.71,1.5-1.08l0,0c.45-.29.92-.58,1.42-.87l4.8-1.12,1.51-.35,35-8.1,1.21.12h0a20.41,20.41,0,0,1,2.89.49,12.87,12.87,0,0,1,2.11.64c.11.06.23.1.33.16a3.85,3.85,0,0,1,.64.33,3.58,3.58,0,0,1,2,2.2v.06c0,.06,0,.12,0,.14v0a5.1,5.1,0,0,1,1,.53v0a1,1,0,0,1,.29.19C700.19,441.17,701.51,444.29,695.32,447.08Z" style="fill:#70617f"/><path d="M696.63,438.75l-2.18.51-1.06.25-5.91,1.37-2.35.54-4.84,1.12-18.21,4.21-4.49,1-1.54.37-6.29,1.44-1.15.28-8,1.85v0l-.88.19-.1-.46,0,0-.62-2.72-.65-2.75h0l2.07-.49,1.15-.27,4.57-1.05,4.8-1.12,1.51-.35,35-8.1,6.4-1.48.94-.22.49-.11.64,2.77.68,3v.06C696.59,438.67,696.59,438.73,696.63,438.75Z" style="fill:#605270"/><polygon points="695.91 435.57 694.68 435.86 694 436.02 693.65 436.09 688.34 437.32 675.1 440.39 672.25 441.05 662.67 443.26 659.62 443.96 650.84 446.01 649.55 446.3 649.33 446.34 641 448.27 640.88 448.29 639.91 448.53 638.97 448.74 638.33 445.99 638.36 445.99 640.43 445.5 641.59 445.23 646.15 444.18 650.96 443.06 652.46 442.71 687.44 434.61 693.84 433.13 694.78 432.91 695.27 432.8 695.91 435.57" style="fill:#f8cd9e"/><circle cx="673.91" cy="735.55" r="82.41" transform="translate(-322.73 691.97) rotate(-45)" style="fill:#fff"/><rect x="797.53" y="673.58" width="343.8" height="22.21" style="fill:#fff"/><g style="opacity:0.6000000000000001"><rect x="797.53" y="720.26" width="404.33" height="13.24" style="fill:#fff"/><rect x="797.53" y="752.27" width="160.32" height="13.24" style="fill:#fff"/><rect x="1318.72" y="752.27" width="284.9" height="13.24" style="fill:#fff"/><rect x="1001.31" y="752.27" width="280.07" height="13.24" style="fill:#fff"/><rect x="797.53" y="784.28" width="806.09" height="13.24" style="fill:#fff"/></g><rect x="1652.23" y="698.37" width="274.28" height="74.36" rx="37.18" style="fill:#5eb9f7"/><path d="M660.65,738.53s-22.3-13.5-16.37-39.88,32.83-39.12,34.55-32.83,1.71,9.09,6.9,7.44c7-2.23,6.49-7,10.82-5,8.12,3.88-1.55,14.46,8.4,13.38,5.13-.55,7.71,2.29,6.4,8.08C708,704.43,660.65,738.53,660.65,738.53Z" style="fill:#2e2f4d"/><path d="M694.23,763.09a7,7,0,0,1,2.55,10.3l-.15.2c-3.2,4.37-10.69,10.81-26.66,6.94a37.12,37.12,0,0,1-12.91-5.78,7,7,0,0,1,.17-11.53,8.73,8.73,0,0,0,3.72-4.34c.77-2.69,0-19.49-.91-28-.31-2.86-1-8.58-1-8.58l27,12.84s.07,7.06.22,12.79c.09,3.39.31,6.3.36,7C686.81,758.43,690.63,761.22,694.23,763.09Z" style="fill:#f6a49d"/><path d="M668.48,728.1c-.89,2.4-5.91,2.81-11.21.92s-8.59-5.22-8-7.76c.81-3.38,5.9-2.81,11.2-.92S669.37,725.7,668.48,728.1Z" style="fill:#d47c74"/><path d="M686,735.13s.07,7.06.22,12.79a14,14,0,0,1-5.46,1.17c-13.85-.39-20.82-23.56-20.82-23.56Z" style="fill:#d47c74"/><path d="M700.48,720.13c0,1-.07,1.89-.15,2.82a32,32,0,0,1-.6,4.06c-.08.36-.15.75-.23,1.12s-.21.85-.31,1.27c-2.12,7.88-6.74,13.7-13.06,15.32l-.44.12c-7,1.52-14.45-2.36-20.2-9.6a38.29,38.29,0,0,1-3.48-5.12c-.54-1-1.06-2-1.55-3a.16.16,0,0,1,0-.09c-.39-.83-.78-1.65-1.14-2.53,0,0,0-.06,0-.08a50.07,50.07,0,0,1-1.72-5,1.27,1.27,0,0,1-.08-.23v0c-.21-.78-.42-1.53-.6-2.32s-.35-1.53-.48-2.28c.46-.54.79-3.73,1.43-7,0-.22.08-.43.11-.66h0a19.82,19.82,0,0,1,1.57-5.1.66.66,0,0,1,.09-.15l.49-.82h0a5.12,5.12,0,0,1,.4-.59,3.45,3.45,0,0,1,.45-.56,10.92,10.92,0,0,1,2.12-2.07,13.13,13.13,0,0,1,2.09-1.31h0a2.36,2.36,0,0,1,.38-.22h0a19.7,19.7,0,0,1,5.7-1.66h0c1.12-.17,2.26-.27,3.42-.33h0c1.23-.07,2.51-.09,3.78,0,1.91,0,3.85.13,5.72.25l.48,0c.6,0,1.2,0,1.76.09l1.1.06h0c1.2,0,2.32.06,3.3.06,2,0,3.4-.16,3.73-.5a30.55,30.55,0,0,1,1.37,3.28c.39,1,.76,2,1.08,3.11.1.29.2.6.29.89.24.69.45,1.41.64,2.08v0a.83.83,0,0,1,0,.12c.08.21.15.44.21.66v0c.1.36.2.67.27,1,.18.62.31,1.2.47,1.74,0,.17.07.35.11.5a52.11,52.11,0,0,1,1.32,9.33C700.5,718,700.52,719.05,700.48,720.13Z" style="fill:#f6a49d"/><path d="M692.72,730.43a27.56,27.56,0,0,1-16.84,1.7s3.9,6.83,10.14,6.2S692.72,730.43,692.72,730.43Z" style="fill:#fff"/><path d="M697.34,686.11h0c0,.32,0,.69-.06,1.09,0,.77-.11,1.66-.18,2.59-.1,1.47-.22,3-.32,4.31-.13,1.62-.23,2.8-.23,2.8s-.17.16-.51.42c-2,1.55-9.38,6.67-18.38,4l-.15,0a29.68,29.68,0,0,0-3.38-.84,20.61,20.61,0,0,0-2.3-.31c-4.05-.32-6.66.84-8.05,3a8.9,8.9,0,0,0-1.25,5c0,5.53,1.91,11.84-.34,12.92h0a2.33,2.33,0,0,1-1.53.06,6.89,6.89,0,0,1-2.83-1.58l-.37-.33h0a30.25,30.25,0,0,1-5.38-7.75l-.13-.87a19.15,19.15,0,0,1-.18-2.12,22.49,22.49,0,0,1,14.85-22.2l.12,0c.3-.08,24.74-1.26,29.74-1.4C696.78,685.23,697.07,685.68,697.34,686.11Z" style="fill:#2e2f4d"/><path d="M716.32,769.58l0-.48,0-.45,0-1.2v-.07l-21.68-6.47h0l-5-1.51-.27.31-.48.56a10.21,10.21,0,0,1-.77.83,19.33,19.33,0,0,1-2.69,2.22,19.65,19.65,0,0,1-2.31,1.39,3,3,0,0,1-.45.21,23.67,23.67,0,0,1-4.07,1.53,22.06,22.06,0,0,1-3.89.69c-5.66.45-11.05-1.56-14.5-6.54-.14-.18-.25-.35-.37-.52l-4.36,1.23L624.69,770l0,.18,0,.21c0,.25.06.6.1,1,.09,1.07.23,2.65.4,4.66.43,4.87,1.06,12.26,1.78,20.84l0,.25c0,.44.08.89.13,1.35l.16,2c.1,1.1.19,2.2.29,3.33a3.57,3.57,0,0,1,.38.25c.89.59,1.78,1.15,2.69,1.72.15.09.33.21.5.3a81.25,81.25,0,0,0,27.16,10.42c1.43.28,2.86.52,4.31.71a82.14,82.14,0,0,0,11.16.75h.73c1.59,0,3.15-.07,4.72-.17a83.08,83.08,0,0,0,9.13-1.12c1-.17,2-.37,3-.6a82.72,82.72,0,0,0,10.91-3.17c.95-.35,1.87-.71,2.78-1.1a80.46,80.46,0,0,0,11.13-5.6c.38-.21.77-.44,1.14-.68C717,789.2,716.52,774.89,716.32,769.58Z" style="fill:#d7efff"/><path d="M685.77,763.93l.86,8.42A5.7,5.7,0,0,1,685,777h0a5.71,5.71,0,0,1-7.48.47l-.31-.23a5.71,5.71,0,0,1-2.23-4.19l-.5-8.12,4-10.81Z" style="fill:#e96362"/><polygon points="687.41 750.45 678.46 754.12 685 771.42 694.55 760.9 687.41 750.45" style="fill:#d7efff"/><polygon points="660.73 749.88 654.97 762.11 678.46 771.84 678.46 754.12 660.73 749.88" style="fill:#d7efff"/><path d="M691.41,816.07c-1,.23-2,.43-3,.6a83.08,83.08,0,0,1-9.13,1.12c-1.57.1-3.13.15-4.72.17l1-9.19v0l3-27,.39-3.42.29-2.59,4.44-2.07.69,3.83.66,3.61,4.58,25.38v.06Z" style="fill:#e96362"/><path d="M675.57,808.77v0l-13.16-30.85-6-14-.6-1.39v0l-.48-1.14L624.69,770v0l0,.18,0,.21.06.37.09.94,0,.14.45,4.23v0l0,.23,1.68,21,0,.39,0,.81.16,2,.25,3.31s0,0,0,0a3.57,3.57,0,0,1,.38.25c.89.59,1.78,1.15,2.69,1.72.15.09.33.21.5.3a81.25,81.25,0,0,0,27.16,10.42c1.43.28,2.86.52,4.31.71a82.14,82.14,0,0,0,11.16.75h.73c1.59,0,3.15-.07,4.72-.17ZM717.66,793l-1.34-23.41,0-.48,0-.45,0-1.2v-.05l-21.68-6.49h0v0l-.24,2.2-1.54,14.41v0l-3.09,28.89v.06l-1.28,10.16c1-.17,2-.37,3-.6a82.72,82.72,0,0,0,10.91-3.17c.95-.35,1.87-.71,2.78-1.1a80.46,80.46,0,0,0,11.13-5.6c.38-.21.77-.44,1.14-.68l.75-.48Q718,799,717.66,793Z" style="fill:#867796"/><path d="M631.18,806.08c-.17-.09-.35-.21-.5-.3-.91-.57-1.8-1.13-2.69-1.72a3.57,3.57,0,0,0-.38-.25s0,0,0,0a82.63,82.63,0,0,1-16.88-15.28c7.67-14.06,13.89-18.49,13.89-18.49l0,.39.2,1,0,.27,0,.14.78,4.19,3.63,19.86,0,.15Z" style="fill:#867796"/><path d="M731,794.86a81.43,81.43,0,0,1-8,6.76c-.85.64-1.7,1.26-2.56,1.86s-1.59,1.06-2.38,1.56l-.75.48c-.37.24-.76.47-1.14.68V767.4s6.91,3.51,9.17,7.84C726.15,776.69,728.38,784.74,731,794.86Z" style="fill:#867796"/><g style="opacity:0.5"><path d="M670.22,807l-11.38,6.69,3.81,3.57c-1.45-.19-2.88-.43-4.31-.71l-3.52-3.31,8.41-4.94-12-2L639.35,769.1l2.3-.74,11.42,35.75Z" style="fill:#5c4e6d"/><path d="M708.11,808.83h-7.64l4.63,3c-.91.39-1.83.75-2.78,1.1l-10.14-6.51h13.71l3.27-37.76,2.41.2Z" style="fill:#5c4e6d"/></g><g style="opacity:0.5"><path d="M724.67,782.21l-1.61,19.41c-.85.64-1.7,1.26-2.56,1.86L722.25,782Z" style="fill:#5c4e6d"/></g><g style="opacity:0.5"><path d="M630.68,805.78c-.91-.57-1.8-1.13-2.69-1.72l-.88-6.34,0-.39,0-.15,0-.25-2.86-20.69,1.08-.15h.12l.33-.06.89-.12,2.74,20,0,.15Z" style="fill:#5c4e6d"/></g><polygon points="672.21 770.01 659.68 765.51 660.09 764.37 672.62 768.87 672.21 770.01" style="fill:#bbdefb"/><rect x="685.88" y="765.75" width="8.22" height="1.21" transform="translate(-336.43 667.06) rotate(-42.48)" style="fill:#bbdefb"/><circle cx="673.91" cy="988.64" r="82.41" transform="translate(-501.69 766.09) rotate(-45)" style="fill:#fff"/><rect x="797.53" y="926.67" width="678.6" height="22.21" style="fill:#fff"/><g style="opacity:0.6000000000000001"><rect x="797.53" y="973.35" width="404.33" height="13.24" style="fill:#fff"/><rect x="797.53" y="1005.36" width="160.32" height="13.24" style="fill:#fff"/><rect x="1318.72" y="1005.36" width="284.9" height="13.24" style="fill:#fff"/><rect x="1001.31" y="1005.36" width="280.07" height="13.24" style="fill:#fff"/><rect x="797.53" y="1037.37" width="806.09" height="13.24" style="fill:#fff"/></g><rect x="1652.23" y="951.46" width="274.28" height="74.36" rx="37.18" style="fill:#5eb9f7"/><path d="M698.06,938.91a.29.29,0,0,0,0,.06l.66,2.76.68,3v.06c0,.05,0,.11,0,.13v0a8.4,8.4,0,0,1,1,.52v0s0,0,0,0v0l.27.13-2.57,7.58-.38,1.17c.23.7.44,1.41.63,2.09v0a.83.83,0,0,1,0,.12,5.45,5.45,0,0,1,.21.65v0c.1.37.2.68.27,1,.18.61.31,1.19.47,1.73-1.08,1.09-2.18,2.15-3.34,3.25l-2.53,2.34c-2,1.87-4.12,3.71-6.24,5.5-1.24,1.1-2.51,2.16-3.77,3.23-2,1.66-4,3.28-5.91,4.79v0c-1.33,1.06-2.61,2.08-3.84,3l0,0c-.37.31-.76.62-1.14.91l0,0c-.27.21-.54.42-.81.61l0,0c-2.24,1.74-4.23,3.29-5.91,4.52-.35.29-.7.52-1,.78h0c-2,1.48-3.32,2.45-3.76,2.78l-.18.11s-18.42-11.16-17.5-33c0-.25,0-.5,0-.75a.12.12,0,0,1,0-.08s0,0,0,0v-.21c0-.19,0-.42.08-.66,0,0,0-.07,0-.11a10.85,10.85,0,0,1,.19-1.84c0-.27.08-.56.12-.85a1.23,1.23,0,0,0,0-.13c.07-.48.17-1,.27-1.49a1.55,1.55,0,0,1,.07-.35.38.38,0,0,1,0-.19v0c0-.17.06-.33.1-.52,0,0,0,0,0,0l.06-.31c.17-.71.34-1.43.56-2.12a4.71,4.71,0,0,1,.19-.64,50.55,50.55,0,0,1,20.24-27.23l.08,0a2.33,2.33,0,0,1,.37,0l14.12.13c1.12,4.31,1.83,6,6.22,4.66,4-1.26,5.52-3.32,6.91-4.52l2.57,0a5.3,5.3,0,0,1,1.43.19l1.54.41a1.25,1.25,0,0,1,.26.07c2.85,2.73,1.42,7,1.79,9.72a2.52,2.52,0,0,0,.08.56,2.48,2.48,0,0,0,.93,1.51,3.45,3.45,0,0,0,1,.46,4,4,0,0,0,.56.1c-.14.13-.27.25-.41.36l-4.65,3.81Z" style="fill:#2e2f4d"/><path d="M694.51,1016.18a7,7,0,0,1,2.55,10.3l-.15.2c-3.19,4.37-10.69,10.81-26.66,6.94a36.94,36.94,0,0,1-12.91-5.79,7,7,0,0,1,.18-11.52,8.76,8.76,0,0,0,3.71-4.34c.77-2.69,0-19.5-.91-28-.31-2.87-1.05-8.58-1.05-8.58l27,12.84s.07,7.06.22,12.78c.09,3.4.31,6.3.36,7C687.1,1011.51,690.91,1014.3,694.51,1016.18Z" style="fill:#f6a49d"/><path d="M668.76,981.19c-.89,2.4-5.91,2.81-11.21.92s-8.59-5.22-8-7.77c.81-3.37,5.9-2.81,11.2-.92S669.65,978.79,668.76,981.19Z" style="fill:#d47c74"/><path d="M686.26,988.22s.07,7.06.22,12.78a13.82,13.82,0,0,1-5.46,1.17c-13.85-.38-20.82-23.56-20.82-23.56Z" style="fill:#d47c74"/><path d="M700.77,973.22c0,1-.08,1.89-.16,2.82a29.94,29.94,0,0,1-.6,4.05c-.07.37-.15.76-.23,1.12s-.21.85-.31,1.28c-2.12,7.88-6.74,13.69-13.05,15.32l-.45.11c-7,1.53-14.45-2.35-20.2-9.6a37,37,0,0,1-3.48-5.12c-.54-1-1.06-2-1.54-3,0,0,0-.06,0-.1-.39-.83-.78-1.64-1.14-2.53,0,0,0-.06,0-.07a50.27,50.27,0,0,1-1.72-5,.9.9,0,0,1-.08-.23v0c-.21-.77-.42-1.52-.6-2.32s-.34-1.52-.48-2.27c.46-.55.79-3.73,1.43-7,0-.21.08-.42.12-.65h0a19.33,19.33,0,0,1,1.56-5.1,1.12,1.12,0,0,1,.1-.16c.15-.27.32-.54.48-.81h0a6.25,6.25,0,0,1,.4-.6,4.6,4.6,0,0,1,.45-.56,11.15,11.15,0,0,1,2.12-2.06,13.65,13.65,0,0,1,2.09-1.32h0a2.32,2.32,0,0,1,.38-.21h0a19.7,19.7,0,0,1,5.7-1.66h0a31.94,31.94,0,0,1,3.42-.33h0c1.23-.08,2.51-.1,3.78-.06,1.92,0,3.85.14,5.72.25l.48,0,1.76.1,1.1.06h0c1.2,0,2.32,0,3.3,0,2,0,3.4-.15,3.73-.5a31.69,31.69,0,0,1,1.37,3.29c.39,1,.76,2,1.09,3.11.09.29.19.59.29.88.23.7.44,1.41.63,2.09v0a.83.83,0,0,1,0,.12,5.45,5.45,0,0,1,.21.65v0c.1.37.2.68.27,1,.18.61.31,1.19.47,1.73,0,.18.08.35.11.51a51.86,51.86,0,0,1,1.32,9.33C700.79,971,700.81,972.14,700.77,973.22Z" style="fill:#f6a49d"/><path d="M693,983.52a27.52,27.52,0,0,1-16.84,1.69s3.91,6.83,10.14,6.2S693,983.52,693,983.52Z" style="fill:#fff"/><path d="M697.62,939.2h0c0,.33,0,.7-.06,1.1,0,.77-.1,1.66-.17,2.59-.11,1.47-.23,3-.33,4.31-.13,1.62-.22,2.8-.22,2.8s-.18.16-.52.42c-2,1.55-9.38,6.66-18.38,4l-.14,0a29.82,29.82,0,0,0-3.39-.84,20.61,20.61,0,0,0-2.3-.31c-4.05-.33-6.66.83-8.05,3a8.88,8.88,0,0,0-1.25,5c0,5.52,1.91,11.84-.34,12.91h0a2.26,2.26,0,0,1-1.53.07,6.92,6.92,0,0,1-2.83-1.59c-.13-.11-.25-.21-.37-.33h0a30.43,30.43,0,0,1-5.38-7.75l-.12-.87a19.36,19.36,0,0,1-.19-2.13,22.51,22.51,0,0,1,14.86-22.2l.12,0c.29-.07,24.73-1.25,29.73-1.4C697.06,938.32,697.35,938.77,697.62,939.2Z" style="fill:#2e2f4d"/><path d="M716.6,1022.67v-.49l0-.44-.06-1.2v-.08L694.84,1014h0l-5-1.5-.28.3-.48.57c-.25.28-.5.57-.77.83a19.33,19.33,0,0,1-2.69,2.22,21.11,21.11,0,0,1-2.31,1.39c-.16.07-.29.15-.45.21a23.67,23.67,0,0,1-4.07,1.53,23,23,0,0,1-3.89.69c-5.65.45-11-1.56-14.5-6.55a6.15,6.15,0,0,1-.37-.52l-4.36,1.24L625,1023.09l0,.17,0,.22c0,.25.06.6.1,1,.1,1.06.23,2.65.4,4.65.43,4.87,1.07,12.27,1.78,20.85l0,.25c0,.44.08.89.14,1.35l.15,2c.1,1.1.19,2.2.29,3.32l.39.25c.89.6,1.77,1.16,2.68,1.72l.5.31a81.23,81.23,0,0,0,27.16,10.41c1.43.29,2.86.52,4.31.72a82.25,82.25,0,0,0,11.16.75h.74c1.58,0,3.14-.08,4.71-.17a86.08,86.08,0,0,0,9.14-1.12c1-.18,2-.37,3-.6A83.36,83.36,0,0,0,702.6,1066c.95-.35,1.87-.72,2.78-1.1a81,81,0,0,0,11.13-5.6l1.14-.68C717.3,1042.29,716.8,1028,716.6,1022.67Z" style="fill:#bbdefb"/><path d="M686.06,1017l.85,8.42a5.72,5.72,0,0,1-1.67,4.65h0a5.71,5.71,0,0,1-7.48.47l-.31-.23a5.71,5.71,0,0,1-2.23-4.2l-.5-8.11,4-10.81Z" style="fill:#5eb9f7"/><polygon points="687.69 1003.54 678.74 1007.21 685.28 1024.51 694.83 1013.99 687.69 1003.54" style="fill:#bbdefb"/><polygon points="661.01 1002.97 655.25 1015.19 678.74 1024.92 678.74 1007.21 661.01 1002.97" style="fill:#bbdefb"/><path d="M691.69,1069.16c-1,.23-2,.42-3,.6a86.08,86.08,0,0,1-9.14,1.12c-1.57.09-3.13.15-4.71.17l1-9.19v0l3-27,.39-3.41.29-2.59,4.44-2.07.7,3.83.65,3.61,4.58,25.38v.06Z" style="fill:#5eb9f7"/><path d="M675.85,1061.86v0L662.7,1031l-6-14-.6-1.39v0l-.48-1.14L625,1023.07v0l0,.17,0,.22.06.36.1.95,0,.13.44,4.23v0l0,.24,1.68,21,0,.39.06.81.15,2,.25,3.3s0,0,0,0l.39.25c.89.6,1.77,1.16,2.68,1.72l.5.31a81.23,81.23,0,0,0,27.16,10.41c1.43.29,2.86.52,4.31.72a82.25,82.25,0,0,0,11.16.75h.74c1.58,0,3.14-.08,4.71-.17Zm42.09-15.78-1.34-23.41v-.49l0-.44-.06-1.2v-.06L694.84,1014h0v0l-.23,2.2L693,1030.62v0l-3.09,28.9v.06l-1.27,10.16c1-.18,2-.37,3-.6A83.36,83.36,0,0,0,702.6,1066c.95-.35,1.87-.72,2.78-1.1a81,81,0,0,0,11.13-5.6l1.14-.68.75-.48Q718.28,1052.1,717.94,1046.08Z" style="fill:#867796"/><path d="M631.46,1059.17l-.5-.31c-.91-.56-1.79-1.12-2.68-1.72l-.39-.25s0,0,0,0A82.6,82.6,0,0,1,611,1041.59c7.67-14.06,13.89-18.48,13.89-18.48l.06.39.19,1,.06.27,0,.13.77,4.2,3.63,19.85,0,.16Z" style="fill:#867796"/><path d="M731.3,1048a84.18,84.18,0,0,1-7.95,6.76c-.85.64-1.7,1.25-2.57,1.85s-1.59,1.07-2.38,1.57l-.75.48-1.14.68v-38.81s6.91,3.52,9.17,7.84C726.44,1029.77,728.66,1037.83,731.3,1048Z" style="fill:#867796"/><g style="opacity:0.5"><path d="M670.5,1060l-11.38,6.68,3.81,3.58c-1.45-.2-2.88-.43-4.31-.72l-3.51-3.3,8.4-5-12-2-11.86-37.16,2.3-.73,11.42,35.75Z" style="fill:#5c4e6d"/><path d="M708.4,1061.91h-7.65l4.63,3c-.91.38-1.83.75-2.78,1.1l-10.14-6.51h13.71l3.27-37.76,2.41.19Z" style="fill:#5c4e6d"/></g><g style="opacity:0.5"><path d="M725,1035.3l-1.6,19.41c-.85.64-1.7,1.25-2.57,1.85l1.75-21.46Z" style="fill:#5c4e6d"/></g><g style="opacity:0.5"><path d="M631,1058.86c-.91-.56-1.79-1.12-2.68-1.72l-.89-6.33,0-.39,0-.15,0-.25-2.86-20.69,1.08-.16h.12l.33-.05.89-.12,2.74,20,0,.16Z" style="fill:#5c4e6d"/></g><polygon points="672.49 1023.1 659.96 1018.6 660.37 1017.46 672.9 1021.96 672.49 1023.1" style="fill:#91c3e5"/><rect x="686.17" y="1018.84" width="8.22" height="1.21" transform="translate(-507.26 733.67) rotate(-42.48)" style="fill:#91c3e5"/><path d="M704.86,930.61v.29a5.56,5.56,0,0,1-1.15,3.18,4.35,4.35,0,0,1-.49.57,4.72,4.72,0,0,1-.41.37l-4.64,3.81-.1.09,0,0-.47.14-1,.27-5.17,1.53h0L670.62,947h0l-5.7,1.66h0l-.52.15-9.86,1.45-1.37.19-5.64.82,0,0-3.16.47-1.13.16-2,.29h0l-.1,0-6-1.45a5.69,5.69,0,0,1-3.67-2.79,5.76,5.76,0,0,1-.51-4.21l1.21-4.49a5.56,5.56,0,0,1,1.76-2.81l1.19-1.06a5.73,5.73,0,0,1,1.21-.82L662.8,921.2a1.09,1.09,0,0,1,.37-.14l1.19-.27.07,0a2.45,2.45,0,0,1,.38,0l14.13.14,13.12.13,2.57,0a4.94,4.94,0,0,1,1.43.2l1.54.41a1,1,0,0,1,.25.08,5.38,5.38,0,0,1,2.56,1.68l3.07,3.51A5.62,5.62,0,0,1,704.86,930.61Z" style="fill:#70617f"/><g style="opacity:0.5"><path d="M701.68,934a.28.28,0,0,0,0,.13c-.64,1.8-2.89,4.16-3.47,4.75l-.1.09,0,0-.41.28-1,.68-2.25,1.46-3.22,2.11-5.27,3.44-.78.5-.92.61c-.35.23-.7.45-1.07.66a30.47,30.47,0,0,1-11.25,4,30.07,30.07,0,0,1-5,.28h-.3l-1.64-.06-3.61-.12-1.42,0-6.35-.19-1.17,0-.19,0-6.15-.2-1.78,0-1.09,0-2-.06h0s-5.08-2.81-3.14-3.94c1.09-.65,3.39.37,6,.44a9.24,9.24,0,0,0,1.17,0,7,7,0,0,0,4.82-2.6c2.62-3.07,5.33-3.14,8.14-2.48.41.1.84.2,1.25.33,1.43.39,2.85.9,4.31,1.21,4.63,1,4.61-.25,9.2-6.13a6.82,6.82,0,0,1,.49-.64s0,0,0-.06c4-4.94,7.18-1.91,11-.51a9.78,9.78,0,0,0,2.16.55h0a7.36,7.36,0,0,0,2.11-.1,8.24,8.24,0,0,0,2.09-.74c3.38-1.72,5.66-5.37,9-5.49a2.26,2.26,0,0,1,.52,0,2.22,2.22,0,0,1,.38,0C701.82,932.25,702,933,701.68,934Z" style="fill:#605270"/></g><path d="M698.09,953.25a7.08,7.08,0,0,1-.67.29l-.7.28c-.51.19-1.07.39-1.68.58l-.6.18c-1,.29-2,.56-3.16.84l-2.17.47-2.13.45c-3.86.76-8.28,1.48-12.8,2.1h0c-2.68.36-5.39.69-8,.94l-1.73.18-1.49.11v0c-.35,0-.68,0-1,.08-1.25.1-2.46.18-3.65.25l-1.11.06c-1.8.08-3.5.12-5.08.12-.33,0-.66,0-1,0-3.63-.06-6.42-.43-7.75-1.19a1.67,1.67,0,0,1-.82-.88l-.09-.47v-.09s0,0,0,0a5.07,5.07,0,0,1,.07-.86s0-.08,0-.12a5.38,5.38,0,0,1,1.18-2.07.45.45,0,0,1,.13-.15,14.84,14.84,0,0,1,2.17-2c.47-.35,1-.7,1.5-1.07l0,0c.45-.29.92-.58,1.43-.88l4.8-1.11,1.5-.35,35-8.1,1.21.12h0a21.75,21.75,0,0,1,2.89.48,12.84,12.84,0,0,1,2.11.65c.12.06.23.09.33.15a4.81,4.81,0,0,1,.64.34,3.57,3.57,0,0,1,2,2.2v.06c0,.06,0,.12,0,.14v0a5.58,5.58,0,0,1,1,.52v0a1.31,1.31,0,0,1,.3.2C703,947.34,704.28,950.46,698.09,953.25Z" style="fill:#70617f"/><path d="M699.4,944.92l-2.19.5-1.05.26L690.24,947l-2.34.55-4.84,1.11-18.22,4.22-4.48,1-1.55.38-6.28,1.44-1.15.27-8,1.86v0l-.88.19-.09-.47,0,0-.63-2.71-.64-2.75h0l2.07-.49,1.15-.27,4.57-1.06,4.8-1.11,1.5-.35,35-8.1,6.4-1.49.94-.21L698,939l.64,2.77.69,3v.06C699.36,944.84,699.36,944.9,699.4,944.92Z" style="fill:#605270"/><polygon points="698.67 941.74 697.44 942.03 696.76 942.18 696.41 942.26 691.1 943.49 677.87 946.56 675.01 947.22 665.43 949.42 662.38 950.13 653.6 952.18 652.31 952.47 652.1 952.51 643.76 954.44 643.65 954.46 642.67 954.7 641.73 954.91 641.09 952.16 641.13 952.16 643.2 951.67 644.35 951.4 648.92 950.34 653.72 949.23 655.22 948.88 690.2 940.78 696.6 939.29 697.54 939.08 698.03 938.96 698.67 941.74" style="fill:#f8cd9e"/><rect x="2094.84" y="1502.31" width="115.46" height="26.28" transform="translate(4305.77 3030.01) rotate(179.98)" style="fill:#473d56"/><polygon points="2172.89 1207.27 2157.51 1256.38 2075.75 1236.51 2111.57 1202.78 2172.89 1207.27" style="fill:#f8cd9e"/><path d="M2261.66,1173.52l-161.85.07a19.71,19.71,0,0,0-19.7,19.72h0a19.72,19.72,0,0,0,19.72,19.7l104.51,0Z" style="fill:#f8cd9e"/><path d="M693.5,1528.54l134.33,1.7,24.93.33,223.84,9.36,2.32.11h1.26l39.3-.35,689.1-6.38,290.16-2.66,2.08-.05c103.52-14.38,121.8-69.31,121.8-69.31s6.33-101.14,3.94-112.29-27.08-21.48-27.08-21.48,5.45-54.87.78-59.74c-8.85-9.26-42.49-18-82.46-27-42.52-9.72-92.25-19.76-127-31.24-56.25-18.58-27.64-20.17-162.49-58.36s-352.52-30.62-417.25-6.2S1186,1262.87,1186,1262.87s-265.41,12.34-348.21,32c-54.68,13-104.7,44.25-132.4,64a52.15,52.15,0,0,0-6.06,5.09l-.05,0a52.58,52.58,0,0,0-16,38.74l.3,14.75,1.38,71.76C662.17,1519,693.5,1528.54,693.5,1528.54Z" style="fill:#f8cd9e"/><path d="M827.83,1530.24l24.93.33,223.84,9.36,3.58.1,38.86.92c.15-.42.3-.85.44-1.27a152.9,152.9,0,1,0-297.15-55.46A153.27,153.27,0,0,0,827.83,1530.24Z" style="fill:#473d56"/><circle cx="987.84" cy="1481.42" r="121.83" style="fill:#574a66"/><circle cx="966.08" cy="1481.43" r="121.83" transform="translate(-764.57 1117.02) rotate(-45)" style="fill:#70617f"/><circle cx="966.08" cy="1481.43" r="91.04" style="fill:#a791c9"/><circle cx="966.08" cy="1481.43" r="74.06" transform="translate(-764.57 1117.02) rotate(-45)" style="fill:#70617f"/><rect x="957.12" y="1402.59" width="17.92" height="157.67" transform="translate(1932.76 2962.46) rotate(179.98)" style="fill:#a791c9"/><rect x="957.12" y="1402.59" width="17.92" height="157.67" transform="translate(-514.95 2448.11) rotate(-90.02)" style="fill:#a791c9"/><rect x="957.12" y="1402.59" width="17.92" height="157.67" transform="translate(-764.72 1117.72) rotate(-45.02)" style="fill:#a791c9"/><rect x="957.12" y="1402.59" width="17.92" height="157.67" transform="translate(602.38 3212.22) rotate(-135.02)" style="fill:#a791c9"/><circle cx="966.08" cy="1481.43" r="13.54" transform="translate(-534.67 2417.2) rotate(-88.84)" style="fill:#70617f"/><circle cx="966.07" cy="1459.53" r="3.58" style="fill:#70617f"/><path d="M962.5,1503.33a3.59,3.59,0,1,0,3.58-3.59A3.59,3.59,0,0,0,962.5,1503.33Z" style="fill:#70617f"/><circle cx="944.18" cy="1481.43" r="3.58" style="fill:#70617f"/><path d="M988,1485a3.59,3.59,0,1,0-3.59-3.58A3.58,3.58,0,0,0,988,1485Z" style="fill:#70617f"/><path d="M948.05,1468.48a3.59,3.59,0,1,0,0-5.07A3.59,3.59,0,0,0,948.05,1468.48Z" style="fill:#70617f"/><path d="M979,1499.44a3.59,3.59,0,1,0,0-5.07A3.59,3.59,0,0,0,979,1499.44Z" style="fill:#70617f"/><path d="M984.09,1468.47a3.59,3.59,0,1,1,0-5.07A3.59,3.59,0,0,1,984.09,1468.47Z" style="fill:#70617f"/><path d="M953.13,1499.45a3.59,3.59,0,1,1,0-5.07A3.57,3.57,0,0,1,953.13,1499.45Z" style="fill:#70617f"/><path d="M1800.34,1483.74a153,153,0,0,0,8.24,49.56l290.17-2.67a152.9,152.9,0,1,0-298.41-46.89Z" style="fill:#473d56"/><circle cx="1964.1" cy="1481.02" r="121.83" transform="translate(-471.96 1822.61) rotate(-45)" style="fill:#574a66"/><circle cx="1942.34" cy="1481.03" r="121.83" transform="translate(-478.35 1807.22) rotate(-45)" style="fill:#70617f"/><circle cx="1942.34" cy="1481.03" r="91.04" transform="translate(-478.35 1807.22) rotate(-45)" style="fill:#a791c9"/><circle cx="1942.34" cy="1481.03" r="74.06" transform="translate(416.11 3388.05) rotate(-88.65)" style="fill:#70617f"/><rect x="1933.38" y="1402.19" width="17.92" height="157.67" transform="translate(3885.28 2961.26) rotate(179.98)" style="fill:#a791c9"/><rect x="1933.38" y="1402.19" width="17.92" height="157.67" transform="translate(462.1 3423.97) rotate(-90.02)" style="fill:#a791c9"/><rect x="1933.38" y="1402.19" width="17.92" height="157.67" transform="translate(-478.21 1808.21) rotate(-45.02)" style="fill:#a791c9"/><rect x="1933.38" y="1402.19" width="17.92" height="157.67" transform="translate(2269.53 3901.58) rotate(-135.02)" style="fill:#a791c9"/><circle cx="1942.34" cy="1481.03" r="13.54" transform="translate(-433.15 912.55) rotate(-23.87)" style="fill:#70617f"/><circle cx="1942.33" cy="1459.13" r="3.58" style="fill:#70617f"/><circle cx="1942.35" cy="1502.92" r="3.58" style="fill:#70617f"/><path d="M1920.44,1484.62a3.59,3.59,0,1,0-3.58-3.58A3.58,3.58,0,0,0,1920.44,1484.62Z" style="fill:#70617f"/><path d="M1964.24,1484.6a3.59,3.59,0,1,0-3.59-3.58A3.58,3.58,0,0,0,1964.24,1484.6Z" style="fill:#70617f"/><path d="M1924.32,1468.08a3.58,3.58,0,1,0,0-5.06A3.57,3.57,0,0,0,1924.32,1468.08Z" style="fill:#70617f"/><path d="M1955.3,1499a3.58,3.58,0,1,0,0-5.07A3.57,3.57,0,0,0,1955.3,1499Z" style="fill:#70617f"/><path d="M1960.35,1468.07a3.59,3.59,0,1,1,0-5.07A3.59,3.59,0,0,1,1960.35,1468.07Z" style="fill:#70617f"/><path d="M1929.4,1499.05a3.59,3.59,0,1,1,0-5.07A3.59,3.59,0,0,1,1929.4,1499.05Z" style="fill:#70617f"/><path d="M2141.12,1303.83l.05.05c24.16,22.06,58.31,23.63,58.31,23.63s5.45-54.87.78-59.74a19.64,19.64,0,0,0-2.75-2.31c-11.8-8.4-43.11-16.43-79.71-24.74C2116.42,1271.19,2127.09,1291,2141.12,1303.83Z" style="fill:#e96362"/><path d="M2141.12,1303.83l.05.05c24.16,22.06,58.31,23.63,58.31,23.63s5.45-54.87.78-59.74a19.64,19.64,0,0,0-2.75-2.31C2194.35,1281.65,2182.43,1303.65,2141.12,1303.83Z" style="fill:#d35757"/><path d="M1247.08,1262.59s78.9-1.4,172.41-3.35c12.74-.26,25.74-.55,38.86-.81h0c38.29-.84,77.53-1.72,113.62-2.63h0c4.59-.09,9.11-.19,13.6-.32,12.17-.29,23.92-.62,35-.91,7.52-.19,14.75-.42,21.66-.61l10.06-.29c113.81-3.49,181.54-45.46,181.54-45.46s-131.32-69.64-305.8-62c-2,.1-3.86.19-5.77.32q-10.12.63-20.16,1.89c-10.26,1.24-20.38,3-30.38,5.11L1460.6,1156a493,493,0,0,0-84.07,29.08c-9,4-17.71,8.16-26,12.37C1288.54,1228.72,1247.08,1262.59,1247.08,1262.59Z" style="fill:#70617f"/><polygon points="1705.7 1155.44 1694.6 1254.71 1676.55 1255.25 1690.31 1143.23 1705.7 1155.44" style="fill:#f8cd9e"/><path d="M1306.8,1262.81s5.34-27.08,17-36.45c5.93-4.75,17.56-6.58,27.57-7.22A16.86,16.86,0,0,1,1369.3,1236h0a16.92,16.92,0,0,1-12.35,16.28c-7.82,2.21-17.7,4.1-24.41,2.16,0,0-11.7,2-12,8.7Z" style="fill:#f8cd9e"/><path d="M1144.59,1505.16l0-5.58,521.34-2.45a38.85,38.85,0,0,0,38.67-38.86l2.05-98.4a162.74,162.74,0,0,0-26.5-89l-6.24-9.56,4.68-3,6.24,9.56a168.54,168.54,0,0,1,27.41,92.14l-2.06,98.4a44.42,44.42,0,0,1-44.22,44.4Z" style="fill:#fb9d7e"/><path d="M1100.5,1296.94v-5.59c5.24,0,525.12-1.24,568.59-1.39,59.25-.2,123.36-36.21,124-36.58l2.76,4.86c-.66.37-66,37.1-126.75,37.31C1625.62,1295.69,1105.75,1296.92,1100.5,1296.94Z" style="fill:#fb9d7e"/><path d="M1603.05,1321.77l71.27,0a6.77,6.77,0,0,0,6.77-6.77h0a6.77,6.77,0,0,0-6.78-6.76l-71.26,0a6.77,6.77,0,0,0-6.77,6.77h0A6.77,6.77,0,0,0,1603.05,1321.77Z" style="fill:#70617f"/><path d="M1223.86,1503.38l-.09-205.08c0-11.61,17.8-29.76,19.82-31.79l4,3.94c-5.06,5.07-18.19,20-18.19,27.85l.09,205.08Z" style="fill:#fb9d7e"/><g style="opacity:0.6000000000000001"><path d="M1502.2,1148.43l118.47,106.14c7.52-.19,14.75-.42,21.66-.61l-120-107.42Q1512.24,1147.17,1502.2,1148.43Z" style="fill:#fff"/><path d="M1460.6,1156,1572,1255.8h0c4.59-.09,9.11-.19,13.6-.32l-113.81-101.94Z" style="fill:#fff"/><path d="M1350.51,1197.48l69,61.76c12.74-.26,25.74-.55,38.86-.81l-81.82-73.32C1367.52,1189.13,1358.82,1193.27,1350.51,1197.48Z" style="fill:#fff"/></g><rect x="1359.1" y="1355.38" width="41.92" height="41.92" style="fill:#70617f"/><rect x="1401.02" y="1396.79" width="41.92" height="41.92" style="fill:#70617f"/><rect x="1442.94" y="1355.38" width="41.92" height="41.92" style="fill:#70617f"/><rect x="1485.11" y="1396.79" width="41.92" height="41.92" style="fill:#70617f"/><rect x="1526.77" y="1355.38" width="41.92" height="41.92" style="fill:#70617f"/><g style="opacity:0.32"><path d="M1849.1,1339.8c13.26,3.36-18.74,46.45-23.6,46.34s-5.44-28.14-90-30.09l-522.7-12.11s-66.34-.92-79.4,11-3.37,40.1-19,31.83-29.33-26.69-55.93-32.57,16.64-6.09,30.63-5.77-5.55-23.26,49.45-31.73S1764.36,1318.36,1849.1,1339.8Z" style="fill:#fff"/></g><g style="opacity:0.32"><path d="M1765.92,1423.8c10.29.42,13.75,14.34,4.64,19.13a7.46,7.46,0,0,1-3.63.93c-7.3-.19-193.8-9.92-317.7-14s-257.57-15.22-266.39-2.6,23.16,25.24,13.85,33.09-42.81-5.66-53.13-19.4,14.39,9.76,17.16-4.91-5.34-32.15,19-33.59C1202,1401.1,1680.39,1420.34,1765.92,1423.8Z" style="fill:#fff"/></g><path d="M683.61,1417.48c32,6.55,59.66-5.6,80.92-21.94,29.49-22.62,46.8-53.25,46.8-53.25-59.38,4.47-98.4,16.76-112,21.67l-.05,0a51.25,51.25,0,0,0-7.93,9.77,52.74,52.74,0,0,0-8.05,29Z" style="fill:#e96362"/><path d="M683.61,1417.48c32,6.55,59.66-5.6,80.92-21.94-4.85-4.37-35.9-30.79-73.17-21.78a52.74,52.74,0,0,0-8.05,29Z" style="fill:#d35757"/><rect x="2149.92" y="1435.31" width="5.58" height="70.07" transform="matrix(0.08, -1, 1, 0.08, 518.5, 3501.45)" style="fill:#fb9d7e"/><rect x="2126.66" y="1296.62" width="5.58" height="117.99" transform="translate(606.02 3368.43) rotate(-85.36)" style="fill:#fb9d7e"/><path d="M1003.91,1274.46c-86.58,22.2-174,56.62-175,57l-2-5.17c.88-.37,69.86-27.5,146-49.19Z" style="fill:#fb9d7e"/><rect x="695.42" y="1484.92" width="111.52" height="5.58" transform="translate(-53.79 28.4) rotate(-2.09)" style="fill:#fb9d7e"/><path d="M738,1603.26H423.19s23.42-68.69,97.56-43.72c0,0,18.75-58.53,70.25-56.58s67.91,50.11,67.91,50.11S728.13,1544.7,738,1603.26Z" style="fill:#599e85"/><path d="M1603.14,1603.26H1372.4s17.16-50.34,71.51-32c0,0,13.73-42.9,51.48-41.47s49.78,36.73,49.78,36.73S1595.9,1560.34,1603.14,1603.26Z" style="fill:#599e85"/><path d="M969.79,1603.26h-157s11.68-34.25,48.64-21.8c0,0,9.35-29.18,35-28.21s33.87,25,33.87,25S964.86,1574.07,969.79,1603.26Z" style="fill:#9dc89e"/><path d="M2045.91,1603.26H1867.18s13.29-39,55.39-24.82c0,0,10.64-33.23,39.88-32.12s38.56,28.45,38.56,28.45S2040.3,1570,2045.91,1603.26Z" style="fill:#9dc89e"/><path d="M643.64,1004a3.85,3.85,0,0,1-1.11.28l-.42,0c-.2,0-.41,0-.61,0a9.91,9.91,0,0,1-1.41-.24l0,0c-3.88-1-9.45-4.52-15.79-9.71a191.63,191.63,0,0,1-16-14.89c-2.14-2.18-4.28-4.46-6.38-6.78-1.13-1.21-2.24-2.47-3.33-3.72-4.89-5.59-9.6-11.41-13.78-17.1-.46-.61-.91-1.21-1.33-1.82l-.06-.08a13.11,13.11,0,0,0-.67-1.84,31.61,31.61,0,0,1-1.83-5.65c-.06-.23-.1-.43-.15-.63a11.87,11.87,0,0,0-.7-2c-12.38-28.43,18.13-81.2,18.13-81.2s.83,0,5.23,6.62c1.36,2,3.05,4.64,5.17,8.1,0,0,.06.08.08.12,6.39,10.4,16.6,28.13,32.86,58.32,2.06,3.86,3.88,7.58,5.41,11.19,1.48,3.41,2.71,6.71,3.74,9.88.46,1.35.87,2.68,1.23,4a4.34,4.34,0,0,1,.14.48c.39,1.37.73,2.73,1,4a77.48,77.48,0,0,1,1.64,10C656.47,989.52,650.43,1001.05,643.64,1004Z" style="fill:#f6a49d"/><path d="M653.07,961.33,608.28,979.4c-2.14-2.18-4.28-4.46-6.38-6.78-1.13-1.21-2.24-2.47-3.33-3.72-4.89-5.59-9.6-11.41-13.78-17.1-.46-.61-.91-1.21-1.33-1.82l-.06-.08a13.11,13.11,0,0,0-.67-1.84,31.61,31.61,0,0,1-1.83-5.65c-.06-.23-.1-.43-.15-.63-6.28-29.26,20.12-74.92,20.12-74.92s3.41,0,7.71,6.44c0,0,.06.08.08.12,6.39,10.4,16.6,28.13,32.86,58.32,2.06,3.86,3.88,7.58,5.41,11.19,1.48,3.41,2.71,6.71,3.74,9.88.46,1.35.87,2.68,1.23,4a4.34,4.34,0,0,1,.14.48C652.43,958.66,652.77,960,653.07,961.33Z" style="fill:#d47c74"/><path d="M655.11,951.12l-53.21,21.5-4.68,1.9L584.8,951.8l-4-7.31c.1-.91.62-1.58-.73-4.71-12.38-28.43,18.14-81.2,18.14-81.2s3.37-.06,7.78,6.55C611.4,873.22,654.08,948,655.11,951.12Z" style="fill:#f8cd9e"/><path d="M511.82,817.72s-29.43-17.67-33.61-52.57c-4.86-40.6,36.79-46.55,51.08-65.9a84.19,84.19,0,0,0,9.81-16.46,2.33,2.33,0,0,1,4.43.52c1.05,5.83,2.06,13.08,1.53,17.38a94.11,94.11,0,0,1-1.37,9.37s2.57-3.31,12.34-20.78a38.25,38.25,0,0,0,4.6-13.7,2.33,2.33,0,0,1,4.39-.83c4.81,9.35,8.81,18.16,8.5,29.92l-.34,12.86s4-.39,9.65-6.46h0a2.32,2.32,0,0,1,4.23,1.4c-.27,7.8-3.5,20-10.66,32.92C563.44,768.83,511.82,817.72,511.82,817.72Z" style="fill:#2e2f4d"/><path d="M560.36,851.13a12,12,0,0,1,4.53,17.6l-.24.34c-5.4,7.53-18.12,18.68-45.53,12.32a63.38,63.38,0,0,1-22.19-9.68A11.93,11.93,0,0,1,497,852c3.1-2.12,5.53-4.79,6.28-7.5,1.28-4.61-.29-33.37-2-47.94-.58-4.89-1.94-14.66-1.94-14.66l46.41,21.53s.24,12.08.6,21.88c.21,5.81.63,10.78.73,12C547.59,843.27,554.17,848,560.36,851.13Z" style="fill:#f6a49d"/><path d="M515.69,791.67c-1.49,4.12-10.07,4.91-19.17,1.76s-14.79-8.79-13.79-13.16c1.34-5.79,10.07-4.91,19.17-1.77S517.17,787.54,515.69,791.67Z" style="fill:#d47c74"/><path d="M545.76,803.41s.24,12.08.6,21.88a23.81,23.81,0,0,1-9.33,2.09c-23.71-.42-36-40-36-40Z" style="fill:#d47c74"/><path d="M494.72,768.69c.25,1.29.54,2.6.86,3.91,7.58,30.8,29.9,52,49.84,47.4,11.2-2.59,19.26-12.76,22.86-26.63.19-.71.36-1.43.52-2.16s.28-1.3.4-2a66.18,66.18,0,0,0,.92-7c.13-1.57.21-3.18.24-4.81,0-1.86,0-3.76-.12-5.68a87,87,0,0,0-2.39-16c-.29-1.16-.63-2.44-1-3.81-.16-.57-.32-1.15-.5-1.74-.11-.38-.23-.76-.35-1.15a2.17,2.17,0,0,0-.07-.24,112.69,112.69,0,0,0-6-16c-1,1.13-8.9,1.08-17.78.62-16.35-.84-34.24-1.32-42.14,13C496.64,752.73,496.05,767.11,494.72,768.69Z" style="fill:#f6a49d"/><path d="M544.57,784.52l2.58-.73c1.73-.5,2.81-2.06,2.32-3.37l-3.74-9.91a2.72,2.72,0,0,0-3.42-1.25h0a3,3,0,0,0-2.43,2.91L541,782.8C541.19,784.21,542.84,785,544.57,784.52Z" style="fill:#d47c74"/><path d="M518,767.6c.44,2.12,2.08,3.59,3.66,3.28s2.52-2.29,2.09-4.41-2.07-3.59-3.66-3.28S517.57,765.48,518,767.6Z" style="fill:#4f1d30"/><path d="M528.17,755.6a4.56,4.56,0,0,0-.69-.86A10.67,10.67,0,0,0,525.2,753a12.54,12.54,0,0,0-1.76-.85,13,13,0,0,0-2.13-.6,12.86,12.86,0,0,0-4.84,0,13.56,13.56,0,0,0-2.37.73,20.51,20.51,0,0,0-2.08,1.12c-.62.45-1.18.94-1.69,1.39a11.82,11.82,0,0,0-1.27,1.46,7,7,0,0,0-.88,1.34c-.23.42-.4.81-.54,1.13a8.37,8.37,0,0,0-.39,1s.38-.15,1-.45c.3-.15.66-.33,1-.56a13.51,13.51,0,0,1,1.32-.66c.49-.22,1-.53,1.5-.74s1.09-.47,1.65-.72,1.17-.41,1.76-.61,1.19-.38,1.82-.45a14.67,14.67,0,0,1,1.86-.29c.61-.11,1.23-.1,1.85-.15s1.21,0,1.79,0,1.14,0,1.66.09c1.06.07,2,.19,2.63.28Z" style="fill:#2e2f4d"/><path d="M556.24,761.82c.3,2.14,1.84,3.71,3.44,3.49s2.67-2.13,2.37-4.27-1.84-3.71-3.45-3.49S555.94,759.68,556.24,761.82Z" style="fill:#4f1d30"/><path d="M567.15,750.46a4.67,4.67,0,0,0-.64-.9,10.26,10.26,0,0,0-2.16-1.92,10.6,10.6,0,0,0-1.71-.95,12.3,12.3,0,0,0-2.07-.74,12.1,12.1,0,0,0-2.36-.35,11.48,11.48,0,0,0-2.48.1,14.86,14.86,0,0,0-2.41.58,21.46,21.46,0,0,0-2.16,1c-.64.41-1.23.87-1.77,1.28a12.41,12.41,0,0,0-1.35,1.38,6.69,6.69,0,0,0-1,1.29c-.26.41-.45.79-.61,1.09a9.91,9.91,0,0,0-.46,1s.4-.13,1-.39c.31-.14.68-.29,1.08-.5a14,14,0,0,1,1.36-.57c.5-.19,1-.47,1.54-.66s1.12-.4,1.69-.61,1.19-.34,1.79-.5,1.22-.31,1.85-.34a15,15,0,0,1,1.87-.19c.63-.06,1.25,0,1.86,0s1.21,0,1.79.12,1.14.11,1.65.19c1.06.13,2,.31,2.61.43Z" style="fill:#2e2f4d"/><g style="opacity:0.5"><path d="M509.18,786.11A11,11,0,1,0,519,774,11,11,0,0,0,509.18,786.11Z" style="fill:#d47c74"/></g><g style="opacity:0.5"><path d="M556.4,781.33a11.07,11.07,0,0,0,12,9.93l.36,0c.14-.64.28-1.3.4-2a66.18,66.18,0,0,0,.92-7c.13-1.57.21-3.18.24-4.81a77.21,77.21,0,0,0-.68-8,10.56,10.56,0,0,0-3.47-.22A11,11,0,0,0,556.4,781.33Z" style="fill:#d47c74"/></g><path d="M557.23,795.25s-13.55,6.74-28.81,3.18c0,0,6.81,11.63,17.46,10.44S557.23,795.25,557.23,795.25Z" style="fill:#fff"/><path d="M487.29,763.36s7.17,14.72,14.88,16.42,3.11-11.19,3-22.26,7.34-17.26,25.54-11.9,32.53-7.83,32.53-7.83,1.5-20.59,1.15-20.79-51.84,2.77-52.4,2.92l-.21.08a38.56,38.56,0,0,0-24.7,41.88Z" style="fill:#2e2f4d"/><path d="M445.09,1106.73l.85.19c8.57,2.07,30.14,6.39,78.07,12.16l2.63.31c8.09,1,15.42,1.53,22.06,1.78q3,.11,5.9.14c46.07.48,55.36-15.09,55.36-15.09s-.17-.75-.46-2.12c-2.26-10.53-12.26-57.72-14.18-80.27-.65-7.58,1.19-32.76,1.5-53.52.69-49,1.85-111.58,1.85-111.58l-45.88-12.41c-16.2,14.33-32.86,14.31-49.42.4l-.64-.54-54.15,12.24s4.68,153.72,4.68,164.56c0,6.92,2.21,35.84-5,59.27v0Z" style="fill:#f8cd9e"/><path d="M563.18,1092.78s-1.13,4.22-3.25,11.33c-.72,2.42-1.55,5.19-2.5,8.26-.14.42-.28.87-.42,1.33-3,9.47-6.87,21.51-11.6,34.66-2.22,6.22-4.64,12.68-7.23,19.26l-.1.26c-2.84,7.3-5.91,14.71-9.15,22-1.61,3.65-3.29,7.31-5,10.88-1.12,2.37-2.25,4.69-3.4,7-.1.18-.18.34-.26.51a237.38,237.38,0,0,1-19.16,32.35c-4.77,6.56-8.87,12.46-12.38,17.83-7.25,11.07-12.06,19.77-15.27,27-.49,1.13-1,2.2-1.37,3.27-5.32,13.21-5.13,21.31-5.74,30.52-1.11,17-3.21,55.76-26.21,104.18-15.27,32.15-23.94,43.14-29.73,62.91-1.64,5.6-3.05,10.75-4.32,15.53-.37,1.36-.71,2.69-1.05,4-.39,1.5-.77,3.13-1.13,4.87-1.24,5.81-2.35,12.84-3.38,20.17-.08.45-.14.91-.2,1.36v0c-.89,6.38-1.74,12.94-2.56,19-.61,4.5-1.19,8.74-1.78,12.5v0c-1.41,9.07-2.83,15.23-4.4,15a37.84,37.84,0,0,1-7.07-2.87c-2.47-1.17-5.35-2.69-8.38-4.4-2.43-1.4-4.93-2.93-7.39-4.57,0,0,0,0,0,0-10.51-7-19.84-15.61-16.2-22.11.22-.41.46-.81.71-1.23,2-3.5,4.7-7.58,7.57-12,1-1.54,2-3.13,3.05-4.77,1.41-2.24,2.85-4.58,4.22-7,.57-1,1.11-1.9,1.64-2.85l0,0a103.53,103.53,0,0,0,7-15.07,57.83,57.83,0,0,0,2.16-7.35c.21-.85.37-1.71.51-2.56.32-2,.59-5.07.79-8.89,1-18.34.87-41,2.44-75.39,6.54-31.1,14.14-66.4,21.85-100.61,4.22-9.61,8.32-18.58,11.94-27.85.28-.71.54-1.39.8-2.1a178.64,178.64,0,0,0,12.12-58c.53-11,1.7-24.11,3.33-38.23q1.54-7.73,2.91-14.84c.49-2.47.93-4.87,1.38-7.21,1.13-6,2.16-11.67,3.09-17,.28-1.51.54-3,.78-4.42,1.19-6.74,2.2-12.78,3.07-18.07.12-.79.25-1.56.37-2.33s.22-1.37.32-2c.14-.91.28-1.8.42-2.65.1-.61.19-1.19.29-1.78v0c1.77-11.39,2.58-17.67,2.64-18.17v0a22.19,22.19,0,0,1,3.19-7.07h103.4C559.93,1089.89,563.18,1092.78,563.18,1092.78Z" style="fill:#f6a49d"/><path d="M396.16,1590.07a10.37,10.37,0,0,1-11,7.2c-28.77-2.36-45.61-24.88-46.21-36.66a5.43,5.43,0,0,1,.9-3.22l13.88-21c-.37.46-5.87,19.82,23.18,26.5l.28.06c20.57,4.5,23.15-21,23.15-21S401.21,1573,396.16,1590.07Z" style="fill:#ffefe7"/><path d="M372.5,1586.5l.65.27c5.12,2.1,10,3,13.66,2.31,13.77-2.7,13.13-19.77,14.09-31.41a147.2,147.2,0,0,0-.24-21.91c-.19-2.53-.36-4.1-.36-4.1s-.9,8.87-5.87,15.23c-3.43,4.42-8.84,7.62-17.29,5.78l-.27-.07c-28.52-6.56-9.8-31.36-8.77-32.69-.07.06-.28.25-.57.54-3.48,3.33-20.37,20.25-22.67,34.54C343,1566.51,358.54,1580.59,372.5,1586.5Z" style="fill:#7986cb"/><path d="M587.58,1532.65l-.3,3.9-.65,8.14-.26,3.41-.08,1-.12,1.49-.14,1.62a21.75,21.75,0,0,1-15.59,6.38c-9.56,0-13.62-5.43-14-5.94,0,0,0,0,0,0l0-1c0-.12-.16-1.21-.4-3.13v0c-.13-1-.29-2.3-.47-3.79-.24-2-.52-4.31-.87-7,0-.39-.1-.79-.14-1.17-.08-.63-.16-1.3-.24-2,0,0,0-.08,0-.1-3.11-25.17-9-72.4-13.49-102.72,0,0,.32-123.47,1.31-131.14a.9.9,0,0,0,0-.22,34.72,34.72,0,0,0-.54-11c0-.14-.06-.34-.11-.57s0-.22-.06-.36c-1.91-9.69-6.88-25.49-16.41-61.37v0c0-.08,0-.12-.06-.2l-.81-21.73s2.91-115.2,3-119.76H604c.42,3.27.83,7,1.21,11,.08.93.16,1.86.24,2.81v0c.08.83.16,1.68.23,2.55.22,2.58.42,5.29.6,8.09.08,1.28.18,2.55.24,3.84l.06.87a3.27,3.27,0,0,1,0,.44c0,.33,0,.63.06,1,0,.14,0,.31,0,.45.07,1,.13,2.1.19,3.17s.12,2.14.18,3.21c.26,4.93.5,10.06.73,15.33.06,1.21.1,2.44.14,3.67,0,.51.06,1,.06,1.54.08,2.06.16,4.14.22,6.22.1,2.62.18,5.27.26,7.93,0,1.22.06,2.45.1,3.66.08,2.44.14,4.93.21,7.41,0,1.23.06,2.49.08,3.72.06,2.48.12,5,.16,7.47,0,1.45,0,2.89.08,4.32.06,3.56.12,7.11.16,10.64l.06,4.43c0,1.25,0,2.48,0,3.73C609.45,1214.9,590.43,1508.64,587.58,1532.65Z" style="fill:#f6a49d"/><path d="M361.25,1556.13l5.59,8.48a17.17,17.17,0,0,0,20.62,6.54c.31-.11.6-.24.9-.38a17.14,17.14,0,0,0,9.91-13.69l2.39-21.32.55-4.9-1.69.13a32.58,32.58,0,0,1-5.32,0,33.18,33.18,0,0,1-24.45-14l-2.22,3.43-4.92,7.58a17.15,17.15,0,0,0-2.57,6.75l-1.42,9.29A17.27,17.27,0,0,0,361.25,1556.13Z" style="fill:#7986cb"/><path d="M373.15,1586.77c5.12,2.1,10,3,13.66,2.31,13.77-2.7,13.13-19.77,14.09-31.41a147.2,147.2,0,0,0-.24-21.91l.55-4.9-1.69.13a32.58,32.58,0,0,1-5.32,0,75.51,75.51,0,0,1,.23,15.91,65.79,65.79,0,0,1-4.83,19.74c-.68,1.62-1.4,3.12-2.14,4.52C382.87,1579.83,377.38,1584.4,373.15,1586.77Z" style="fill:#5f6fb2"/><path d="M587.58,1532.65l-.3,3.9-.65,8.14H555.51c-.34-2.71-.75-6.12-1.25-10.1,0,0,0-.08,0-.1-2.75-45.06-12.74-224-12.18-233.86a.9.9,0,0,0,0-.22,34.72,34.72,0,0,0-.54-11c0-.14-.06-.34-.11-.57-2.28-14.21-21.77-174.56-21.77-174.56l12.44-.63,27.81-1.43,45.71-2.35.6,0c.1,1.56.22,3.11.3,4.71a3.27,3.27,0,0,1,0,.44c0,.33,0,.63.06,1,0,.14,0,.31,0,.45C609.71,1166.53,590.43,1508.64,587.58,1532.65Z" style="fill:#d47c74"/><path d="M515.42,1179.65l8.26,14,.27,7.15L537,1536.54h61.4s16.62-356.08,11.36-435l-4.16.21-45.7,2.34-27.8,1.44-12.44.64Z" style="fill:#7986cb"/><path d="M380.24,1483.16l30.18,3.2c-1.63,5.59-3,10.75-4.31,15.53-.36,1.36-.72,2.68-1.05,4q-.58,2.25-1.14,4.88L376.79,1502Z" style="fill:#d47c74"/><path d="M362.86,1490.29l16.08,4.32,27.17,7.28,14.24,3.82,101.07-292.39,2.69-8.14,14.08-37.55,7.23-19.27,4.83-40-18.12-2.8-21.34-3.31-62.8-9.74v0c-.15,1.18-4.27,33.54-15.26,88.48-4.53,22.71-10.24,49.28-17.33,79.1-3.59,15.07-7.24,30.94-10.87,47.05-7.71,34.19-15.3,69.5-21.85,100.61C371.16,1462.56,362.86,1490.29,362.86,1490.29Z" style="fill:#7986cb"/><rect x="555.37" y="1591.22" width="107.7" height="12.04" transform="translate(1218.43 3194.48) rotate(180)" style="fill:#ffefe7"/><path d="M555.37,1591.22s-1.47-2.55-1.71-8.17c-.39-9,2.32-34.57,2.32-34.57l34.31-.42s46.93,11,57.81,16.32,15,26.84,15,26.84Z" style="fill:#7986cb"/><circle cx="576.76" cy="1570.58" r="11.43" style="fill:#ffefe7"/><path d="M611.91,1553.69c-9.63,0-21.57-3.6-22.07-3.76l-3.38-1,3-1.86c.66-.41,16.4-10.12,26.41-10.12,5.3,0,8.43,2.76,8.83,7.77a7.21,7.21,0,0,1-1.8,5.68C620.84,1552.6,617.25,1553.69,611.91,1553.69Zm-17.49-5.82c4.25,1.07,11.46,2.62,17.49,2.62,4.28,0,7.26-.79,8.65-2.28a4.07,4.07,0,0,0,1-3.26c-.26-3.33-2-4.82-5.64-4.82C609.32,1540.13,599.48,1545.06,594.42,1547.87Z" style="fill:#ffefe7"/><path d="M604,1573.6h0c-9.48,0-14.82-18.45-16.23-24.1a1.84,1.84,0,0,1,.33-1.59,1.88,1.88,0,0,1,1.47-.72h.34l.41.16c5.16,2.28,22,10.35,22.43,18.29.14,2.68-1.41,5-4.61,6.79A8.32,8.32,0,0,1,604,1573.6Zm-12.39-22.14c2.35,8.06,6.95,19,12.39,19h0a5.15,5.15,0,0,0,2.55-.76c3.12-1.78,3-3.33,3-3.84C609.35,1561.64,600.76,1555.83,591.61,1551.46Z" style="fill:#ffefe7"/><path d="M585.46,1560.62a23.25,23.25,0,0,1,1.06-9.91,13.57,13.57,0,0,0-6,5l-2.72-1.67c.17-.28,4.32-6.92,11.41-7.07l3,0-1.56,2.5a18.71,18.71,0,0,0-1.91,10.83Z" style="fill:#ffefe7"/><rect x="445.35" y="1085.43" width="164.27" height="28.27" style="fill:#7986cb"/><rect x="453.77" y="1103.77" width="147.93" height="4.04" style="fill:#5f6fb2"/><rect x="492.75" y="1159.13" width="76.53" height="4.04" transform="translate(-703.96 1485.32) rotate(-80.13)" style="fill:#5f6fb2"/><polygon points="528.21 1179.96 527.42 1176 543.04 1172.88 559.53 1114.83 563.42 1115.93 546.25 1176.35 528.21 1179.96" style="fill:#5f6fb2"/><path d="M450.52,1171.2l-.91-3.94c33.22-7.66,39.79-50.73,39.86-51.16l4,.57C493.4,1117.13,486.46,1162.91,450.52,1171.2Z" style="fill:#5f6fb2"/><path d="M606.35,1176.83c-34.07-7.86-40.45-49.87-40.7-51.65l4-.58c.06.41,6.26,41.06,37.6,48.3Z" style="fill:#5f6fb2"/><polygon points="456.12 1002.62 439.97 1117.73 615.66 1117.73 595.13 1000.77 456.12 1002.62" style="fill:#f8cd9e"/><path d="M475.84,948.79l-5.39,22.84,0,0v0l-.18.73,0,.16-5.13,21.73-46.29-2.41h0s.32-3.07.89-8.17c.12-1.05.24-2.19.38-3.4.2-1.77.43-3.69.67-5.77.16-1.56.36-3.21.54-4.93.16-1.35.35-2.79.51-4.24,3.65-32,9.73-82.5,12.1-90.76a22.83,22.83,0,0,1,1.49-3.88L447.41,859l0,0a7.72,7.72,0,0,1,.72-.28l24.1,65.37Z" style="fill:#f6a49d"/><path d="M456.57,971.18c1-.21,2.06-.36,3.08-.52,12.93-.48,102,17.86,102,17.86l-4,26.51,0,0c-7.18.79-107.7,3.68-116.88,1.53-16.38-3.84-23.54-12.87-22-24.63C420.38,979.32,447.28,973,456.57,971.18Z" style="fill:#f6a49d"/><path d="M557.7,1015s14.25,5.15,23.83,1.63,21.73-10.86,21.73-10.86,19.35,14.65,37.94,15a3.61,3.61,0,0,0,2.54-6.28c-8.65-7.78-24.81-21.84-34.09-26.93-9.64-5.29-48,.93-48,.93Z" style="fill:#f6a49d"/><path d="M472.83,972l-2.62.59-44.53,9.81-6,1.34c.12-1.05.24-2.19.38-3.4.2-1.77.43-3.69.67-5.77.16-1.56.36-3.21.54-4.93.16-1.35.35-2.79.51-4.24L464.83,971h.05l5.55.73Z" style="fill:#d47c74"/><path d="M479.21,972l-65.33,2.83S422,918.5,426.5,893.4c4.88-27.1,21.64-34.76,21.64-34.76l0,.07h0a124.39,124.39,0,0,1,29.39,75.08Z" style="fill:#f8cd9e"/><rect x="526.85" y="1014.66" width="115.79" height="10.81" rx="5.41" style="fill:#2f426b"/><path d="M770.52,902.33H633.35a7,7,0,0,0-6.89,5.79l-19.17,109.15a7,7,0,0,0,6.89,8.21H751.35a7,7,0,0,0,6.89-5.79l19.17-109.15A7,7,0,0,0,770.52,902.33Z" style="fill:#2f426b"/><g style="opacity:0.2"><circle cx="693.55" cy="966.61" r="15.62" style="fill:#838fcc"/></g><path d="M768.4,996l6-11.3a1.38,1.38,0,0,0-1.08-2c-1.85-.19-4.58,0-6.34,2-2.85,3.38-8.07,11.2-8.07,11.2Z" style="fill:#f6a49d"/><path d="M768.5,1007.75l-21.06,5.53a.73.73,0,0,1-.87-1c.83-2.3,3-7,7.45-8.32a134,134,0,0,1,14.19-3l1.44,4.69A1.63,1.63,0,0,1,768.5,1007.75Z" style="fill:#f6a49d"/><path d="M760.66,1024.62l-15.85,4.16a1,1,0,0,1-1.16-1.3c.94-2.42,3.13-6.63,7.27-7.85a135.16,135.16,0,0,1,14.19-3h0A6.35,6.35,0,0,1,760.66,1024.62Z" style="fill:#f6a49d"/><path d="M764.16,1017.53l-21.27,4.85a1,1,0,0,1-1.08-1.41c1.58-2.82,5-8,9.68-9.33a148.73,148.73,0,0,1,15.63-3.32l.81,2.64C768.66,1013.32,766.54,1016.9,764.16,1017.53Z" style="fill:#f6a49d"/><path d="M768.76,1000.76,750,1005.69a1,1,0,0,1-1.16-1.3c.94-2.43,3.13-6.63,7.27-7.85,3.6-1.06,8.21-2,11.19-2.51a3.44,3.44,0,0,1,3.89,2.39h0A3.44,3.44,0,0,1,768.76,1000.76Z" style="fill:#f6a49d"/><path d="M764.54,1018.6a10.62,10.62,0,0,0,3.18-3.86,6.91,6.91,0,0,0,.35-3.68,20.84,20.84,0,0,0,2.08-4.4,20,20,0,0,0,.33-5,16.9,16.9,0,0,0,.73-6.15,3,3,0,0,0-3.14-3,28.3,28.3,0,0,0-5,1.23Z" style="fill:#f6a49d"/></g></g></svg>