<svg xmlns="http://www.w3.org/2000/svg" xmlns:xlink="http://www.w3.org/1999/xlink" viewBox="0 0 580.28 361.47"><defs><clipPath id="clip-path"><polygon points="278.39 65.31 309.2 52.29 309.2 237.01 278.39 237.01 278.39 65.31" style="fill:none;stroke:#f3ebe9;stroke-linecap:round;stroke-miterlimit:10"/></clipPath><pattern id="Unnamed_Pattern_9" data-name="Unnamed Pattern 9" width="23.28" height="8.07" patternTransform="translate(-93.08 -79.57)" patternUnits="userSpaceOnUse" viewBox="0 0 23.28 8.07"><rect width="23.28" height="8.07" style="fill:none"/><line y1="0.5" x2="23.28" y2="0.5" style="fill:none;stroke:#f3ebe9;stroke-miterlimit:10"/></pattern><pattern id="Unnamed_Pattern_9-5" data-name="Unnamed Pattern 9" width="23.28" height="8.07" patternTransform="translate(-88.84 -79.12)" patternUnits="userSpaceOnUse" viewBox="0 0 23.28 8.07"><rect width="23.28" height="8.07" style="fill:none"/><line y1="0.5" x2="23.28" y2="0.5" style="fill:none;stroke:#f3ebe9;stroke-miterlimit:10"/></pattern><pattern id="Unnamed_Pattern_9-7" data-name="Unnamed Pattern 9" width="23.28" height="8.07" patternTransform="translate(-92.4 -78.63)" patternUnits="userSpaceOnUse" viewBox="0 0 23.28 8.07"><rect width="23.28" height="8.07" style="fill:none"/><line y1="0.5" x2="23.28" y2="0.5" style="fill:none;stroke:#f3ebe9;stroke-miterlimit:10"/></pattern><clipPath id="clip-path-2"><polygon points="153.06 90.76 127.11 81.71 126.16 247.95 151.67 247.95 153.06 90.76" style="fill:none;stroke:#f3ebe9;stroke-linecap:round;stroke-linejoin:round"/></clipPath><clipPath id="clip-path-3"><rect x="421.62" y="99.41" width="41.66" height="150.57" transform="translate(884.89 349.39) rotate(180)" style="fill:none"/></clipPath><clipPath id="clip-path-4"><path d="M86.36,222.27v36.1H18.58V235.11h0c0-7.09,8.23-12.84,18.39-12.84Z" style="fill:none"/></clipPath><clipPath id="clip-path-5"><polygon points="503.1 157.96 503.1 209.11 463.36 209.11 463.36 176.16 463.36 157.96 503.1 157.96" style="fill:none"/></clipPath><clipPath id="clip-path-6"><path d="M463.28,209.5v49h92V226.94h0c0-9.63-11.17-17.44-25-17.44Z" style="fill:none"/></clipPath><clipPath id="clip-path-7"><polygon points="421.33 94.4 421.33 151.35 367 151.35 367 114.67 367 94.4 421.33 94.4" style="fill:none"/></clipPath><pattern id="Unnamed_Pattern_7" data-name="Unnamed Pattern 7" width="16.43" height="16.43" patternTransform="translate(-93.08 -79.57)" patternUnits="userSpaceOnUse" viewBox="0 0 16.43 16.43"><rect width="16.43" height="16.43" style="fill:none"/><line x1="4.19" y1="13.83" x2="4.19" y2="35.46" style="fill:none;stroke:#010002;stroke-miterlimit:10;stroke-width:0.5px"/><line x1="12.24" y1="13.83" x2="12.24" y2="35.46" style="fill:none;stroke:#010002;stroke-miterlimit:10;stroke-width:0.5px"/><line x1="35.46" y1="4.19" x2="13.83" y2="4.19" style="fill:none;stroke:#010002;stroke-miterlimit:10;stroke-width:0.5px"/><line x1="35.46" y1="12.24" x2="13.83" y2="12.24" style="fill:none;stroke:#010002;stroke-miterlimit:10;stroke-width:0.5px"/><line x1="4.19" y1="-2.6" x2="4.19" y2="19.03" style="fill:none;stroke:#010002;stroke-miterlimit:10;stroke-width:0.5px"/><line x1="12.24" y1="-2.6" x2="12.24" y2="19.03" style="fill:none;stroke:#010002;stroke-miterlimit:10;stroke-width:0.5px"/><line x1="19.03" y1="4.19" x2="-2.6" y2="4.19" style="fill:none;stroke:#010002;stroke-miterlimit:10;stroke-width:0.5px"/><line x1="19.03" y1="12.24" x2="-2.6" y2="12.24" style="fill:none;stroke:#010002;stroke-miterlimit:10;stroke-width:0.5px"/><line x1="2.6" y1="4.19" x2="-19.03" y2="4.19" style="fill:none;stroke:#010002;stroke-miterlimit:10;stroke-width:0.5px"/><line x1="2.6" y1="12.24" x2="-19.03" y2="12.24" style="fill:none;stroke:#010002;stroke-miterlimit:10;stroke-width:0.5px"/><line x1="4.19" y1="-19.03" x2="4.19" y2="2.6" style="fill:none;stroke:#010002;stroke-miterlimit:10;stroke-width:0.5px"/><line x1="12.24" y1="-19.03" x2="12.24" y2="2.6" style="fill:none;stroke:#010002;stroke-miterlimit:10;stroke-width:0.5px"/></pattern><pattern id="Unnamed_Pattern" data-name="Unnamed Pattern" width="16.43" height="16.43" patternTransform="translate(-93.08 -79.57)" patternUnits="userSpaceOnUse" viewBox="0 0 16.43 16.43"><rect width="16.43" height="16.43" style="fill:none"/><line x1="4.19" y1="13.83" x2="4.19" y2="35.46" style="fill:none;stroke:#010002;stroke-miterlimit:10;stroke-width:0.25px"/><line x1="12.24" y1="13.83" x2="12.24" y2="35.46" style="fill:none;stroke:#010002;stroke-miterlimit:10;stroke-width:0.25px"/><line x1="35.46" y1="4.19" x2="13.83" y2="4.19" style="fill:none;stroke:#010002;stroke-miterlimit:10;stroke-width:0.25px"/><line x1="35.46" y1="12.24" x2="13.83" y2="12.24" style="fill:none;stroke:#010002;stroke-miterlimit:10;stroke-width:0.25px"/><line x1="4.19" y1="-2.6" x2="4.19" y2="19.03" style="fill:none;stroke:#010002;stroke-miterlimit:10;stroke-width:0.25px"/><line x1="12.24" y1="-2.6" x2="12.24" y2="19.03" style="fill:none;stroke:#010002;stroke-miterlimit:10;stroke-width:0.25px"/><line x1="19.03" y1="4.19" x2="-2.6" y2="4.19" style="fill:none;stroke:#010002;stroke-miterlimit:10;stroke-width:0.25px"/><line x1="19.03" y1="12.24" x2="-2.6" y2="12.24" style="fill:none;stroke:#010002;stroke-miterlimit:10;stroke-width:0.25px"/><line x1="2.6" y1="4.19" x2="-19.03" y2="4.19" style="fill:none;stroke:#010002;stroke-miterlimit:10;stroke-width:0.25px"/><line x1="2.6" y1="12.24" x2="-19.03" y2="12.24" style="fill:none;stroke:#010002;stroke-miterlimit:10;stroke-width:0.25px"/><line x1="4.19" y1="-19.03" x2="4.19" y2="2.6" style="fill:none;stroke:#010002;stroke-miterlimit:10;stroke-width:0.25px"/><line x1="12.24" y1="-19.03" x2="12.24" y2="2.6" style="fill:none;stroke:#010002;stroke-miterlimit:10;stroke-width:0.25px"/></pattern><pattern id="Unnamed_Pattern_3" data-name="Unnamed Pattern 3" width="19" height="19" patternTransform="translate(-93.08 -79.57)" patternUnits="userSpaceOnUse" viewBox="0 0 19 19"><rect width="19" height="19" style="fill:none"/><path d="M14.36,24.31c-2.18-2.78-2.73-6-1.23-7.17s4.49.12,6.67,2.91,2.73,6,1.23,7.17S16.54,27.1,14.36,24.31Z" style="fill:none;stroke:#32477c;stroke-linecap:round;stroke-miterlimit:10"/><ellipse cx="-1.92" cy="22.18" rx="6.4" ry="3.46" transform="translate(-18.2 7) rotate(-51.95)" style="fill:none;stroke:#32477c;stroke-linecap:round;stroke-miterlimit:10"/><path d="M14.36,5.31c-2.18-2.78-2.73-6-1.23-7.17s4.49.12,6.67,2.91,2.73,6,1.23,7.17S16.54,8.1,14.36,5.31Z" style="fill:none;stroke:#32477c;stroke-linecap:round;stroke-miterlimit:10"/><path d="M9,13.23c-1.81,1.68-3.83,2.44-4.51,1.7s.23-2.69,2-4.37,3.83-2.44,4.51-1.7S10.84,11.55,9,13.23Z" style="fill:none;stroke:#32477c;stroke-linecap:round;stroke-miterlimit:10"/><ellipse cx="-1.92" cy="3.18" rx="6.4" ry="3.46" transform="translate(-3.24 -0.29) rotate(-51.95)" style="fill:none;stroke:#32477c;stroke-linecap:round;stroke-miterlimit:10"/></pattern><pattern id="Unnamed_Pattern_5" data-name="Unnamed Pattern 5" width="20" height="25" patternTransform="translate(-93.08 -79.57)" patternUnits="userSpaceOnUse" viewBox="0 0 20 25"><rect width="20" height="25" style="fill:none"/><line x1="11.15" y1="25.3" x2="13.14" y2="29.71" style="fill:none;stroke:#fff;stroke-linecap:round;stroke-linejoin:round"/><line x1="19.4" y1="7.03" x2="24.16" y2="6.13" style="fill:none;stroke:#fff;stroke-linecap:round;stroke-linejoin:round"/><line x1="8.29" y1="11.98" x2="11.35" y2="15.74" style="fill:none;stroke:#fff;stroke-linecap:round;stroke-linejoin:round"/><line x1="16.16" y1="13.31" x2="20.6" y2="15.23" style="fill:none;stroke:#fff;stroke-linecap:round;stroke-linejoin:round"/><line x1="-0.6" y1="7.03" x2="4.16" y2="6.13" style="fill:none;stroke:#fff;stroke-linecap:round;stroke-linejoin:round"/><line x1="2.06" y1="24.7" x2="4.86" y2="20.74" style="fill:none;stroke:#fff;stroke-linecap:round;stroke-linejoin:round"/><line x1="11.15" y1="0.3" x2="13.14" y2="4.71" style="fill:none;stroke:#fff;stroke-linecap:round;stroke-linejoin:round"/><line x1="15.16" y1="20.74" x2="17.15" y2="25.16" style="fill:none;stroke:#fff;stroke-linecap:round;stroke-linejoin:round"/><line x1="-3.84" y1="13.31" x2="0.6" y2="15.23" style="fill:none;stroke:#fff;stroke-linecap:round;stroke-linejoin:round"/><line x1="2.06" y1="-0.3" x2="4.86" y2="-4.26" style="fill:none;stroke:#fff;stroke-linecap:round;stroke-linejoin:round"/><line x1="15.16" y1="-4.26" x2="17.15" y2="0.16" style="fill:none;stroke:#fff;stroke-linecap:round;stroke-linejoin:round"/></pattern></defs><g style="isolation:isolate"><g id="BACKGROUND"><path d="M128.1,281.31c42.67,6.21,124.4-38.67,182.15-37.77,58.11.91,91.89,47.59,131.3,54.11s84-26.82,96.8-64.44c12.8-37.92-6.63-80.11-30.41-110-23.46-29.55-44.44-53.07-73.1-69.34-28.62-16.6-57.73-33-105.93-45.23C280.66-3.26,201.87-5.5,158.55,19c-43.67,24.49-95,81.24-103.31,139.13C46.65,215.68,85.47,274.78,128.1,281.31Z" style="fill:#d8eae2"/><g style="mix-blend-mode:soft-light"><path d="M201.92,345.31c-10.42,0-21.81-2.7-32.87-8-19.46-9.32-35.48-25.37-44-44-18.26-39.57-9.32-96.54,8.35-130,16.79-32.1,65.74-63.16,103.27-76.1,36.55-12.33,62.4-13.59,85.2-14.71,23.75-1.37,45.26,4,74.41,13.88,16.34,5.49,55.32,22,64.24,57.16,7,27.79-6.44,68.14-34.95,80.55-11.54,5-25.39,5.21-40.06,5.41-20.2.27-43.1.59-64.51,14-18.14,11.35-35.29,32-51.87,52-16.72,20.14-32.51,39.17-47.41,46h0A48.45,48.45,0,0,1,201.92,345.31ZM329.19,73.23c-2.39,0-4.79.07-7.22.21C299.23,74.55,273.46,75.81,237,88.1c-37.34,12.87-86,43.75-102.7,75.61C116.77,197,107.89,253.61,126,292.88c8.38,18.45,24.23,34.32,43.47,43.54,18.46,8.84,37.85,10.35,51.87,4.05,14.7-6.74,30.42-25.68,47.07-45.73s33.82-40.74,52.1-52.17c21.65-13.54,44.7-13.85,65-14.13,14.56-.2,28.32-.39,39.68-5.33,28.06-12.22,41.29-52,34.37-79.38-8.8-34.64-47.4-51-63.59-56.46C370,78.48,350,73.23,329.19,73.23Z" style="fill:#fff"/></g><g style="mix-blend-mode:soft-light"><path d="M232.73,249.17c-1.53,0-3,0-4.49-.12-25.59-1.31-59.54-25-78.5-46.59-18.28-21.11-26.36-38.41-33.49-53.67-7.56-15.82-10.08-32.28-11.88-55.37-1-12.94-1.23-44.9,19.1-62.19,16.12-13.66,46.19-17.25,62.31-1.62,6.52,6.32,10.54,15.76,14.79,25.74C206.42,69.08,213,84.63,227.7,95c12.44,8.8,30.64,14,48.25,19,17.79,5.06,34.59,9.84,43.24,17.9h0c8.21,7.77,12.77,21.77,12.2,37.46-.59,16.29-6.51,32.37-16.26,44.1C295.67,237.17,259.26,249.17,232.73,249.17ZM157.66,20.33c-12.28,0-24.93,4.37-33.54,11.67-20,17-19.77,48.55-18.76,61.34,1.8,23,4.3,39.34,11.8,55,7.1,15.21,15.15,32.44,33.34,53.45,18.81,21.44,52.48,44.94,77.8,46.24,26.51,1.44,65.68-10.4,86.06-35.23,21.67-26.09,20-65.21,4.14-80.2C310,124.73,293.34,120,275.67,115s-36-10.23-48.54-19.13c-14.9-10.55-21.58-26.24-27.48-40.09-4.21-9.89-8.19-19.23-14.56-25.41C177.92,23.38,167.92,20.33,157.66,20.33Z" style="fill:#fff"/></g><g style="mix-blend-mode:soft-light"><path d="M399.33,266.15c-13.69,0-27.44-4.9-35.28-15.58-5.38-7.33-7.76-17.3-10.28-27.86-3.47-14.5-7.41-31-20.13-43.63-10.79-10.76-27.87-18.9-44.39-26.78-16.7-8-32.47-15.47-39.64-24.86h0c-6.79-9-8.95-23.59-5.77-39,3.3-16,11.83-30.83,23.4-40.78,24.49-21.29,65.48-26.49,91.61-20.57,25,5.57,54.54,34.57,69.62,59C443,110,448,128.44,452.51,144.68c4.81,16.86,4.55,33.51,2.47,56.57-1.15,12.93-6.3,44.48-29.23,58.12C418.31,263.79,408.83,266.15,399.33,266.15ZM250.4,126.83c7,9.2,22.7,16.67,39.28,24.57s33.75,16.1,44.67,27c12.92,12.88,16.89,29.47,20.39,44.11,2.5,10.46,4.86,20.33,10.11,27.49,13,17.69,42.58,19.1,60.39,8.55,22.53-13.41,27.61-44.58,28.74-57.36,2.07-22.94,2.34-39.49-2.43-56.21-4.47-16.18-9.52-34.52-23.95-58.27-15-24.29-44.23-53.08-69-58.58-25.9-5.87-66.49-.72-90.73,20.35-25.73,22.11-30.6,61-17.49,78.38Z" style="fill:#fff"/></g></g><g id="OBJECTS"><polygon points="367 237.01 278.39 237.01 278.39 65.31 309.2 52.29 367 27.86 367 237.01" style="fill:#c3dc00"/><rect x="322.69" y="65.43" width="7.19" height="7.38" style="fill:#f3ebe9"/><rect x="336.16" y="65.43" width="7.19" height="7.38" style="fill:#f3ebe9"/><rect x="322.69" y="81.04" width="7.19" height="7.38" style="fill:#f3ebe9"/><rect x="336.16" y="81.04" width="7.19" height="7.38" style="fill:#f3ebe9"/><rect x="322.69" y="98.69" width="7.19" height="7.38" style="fill:#f3ebe9"/><rect x="336.16" y="98.69" width="7.19" height="7.38" style="fill:#f3ebe9"/><rect x="322.69" y="115.71" width="7.19" height="7.38" style="fill:#f3ebe9"/><rect x="336.16" y="115.71" width="7.19" height="7.38" style="fill:#f3ebe9"/><rect x="349.38" y="98.69" width="7.19" height="7.38" style="fill:#f3ebe9"/><rect x="349.38" y="115.71" width="7.19" height="7.38" style="fill:#f3ebe9"/><rect x="349.38" y="65.43" width="7.19" height="7.38" style="fill:#f3ebe9"/><rect x="349.38" y="81.04" width="7.19" height="7.38" style="fill:#f3ebe9"/><rect x="322.69" y="129.09" width="7.19" height="7.38" style="fill:#f3ebe9"/><rect x="336.16" y="129.09" width="7.19" height="7.38" style="fill:#f3ebe9"/><rect x="322.69" y="144.71" width="7.19" height="7.38" style="fill:#f3ebe9"/><rect x="336.16" y="144.71" width="7.19" height="7.38" style="fill:#f3ebe9"/><rect x="322.69" y="162.35" width="7.19" height="7.38" style="fill:#f3ebe9"/><rect x="336.16" y="162.35" width="7.19" height="7.38" style="fill:#f3ebe9"/><rect x="322.69" y="179.37" width="7.19" height="7.38" style="fill:#f3ebe9"/><rect x="336.16" y="179.37" width="7.19" height="7.38" style="fill:#f3ebe9"/><rect x="349.38" y="162.35" width="7.19" height="7.38" style="fill:#f3ebe9"/><rect x="349.38" y="179.37" width="7.19" height="7.38" style="fill:#f3ebe9"/><rect x="349.38" y="129.09" width="7.19" height="7.38" style="fill:#f3ebe9"/><rect x="349.38" y="144.71" width="7.19" height="7.38" style="fill:#f3ebe9"/><g style="clip-path:url(#clip-path)"><path d="M277.4,248.24A.49.49,0,0,1,277,248a.5.5,0,0,1,.21-.68c23.5-12.62,47.71-24.66,72-35.81L265.22,225.2l73.94-47.83-69,24.78.95-1.31c16.78-23.18,41.49-40.29,63.81-55.33l-75,23.36,1.08-1.3a235.81,235.81,0,0,1,66.52-55.16c-24.89,9.78-49.38,21.29-73.12,32.46L252,146l1.83-1.93a406.08,406.08,0,0,1,71.37-59.61c-19.68,7.92-39.2,16.77-58.08,26.36l-1,.49.25-1c3-12.78,13-23,21-31.3l23.8-24.56L261.31,79.2a.5.5,0,0,1-.67-.22.49.49,0,0,1,.22-.67L316,50.92,288.1,79.66c-7.69,7.94-17.21,17.76-20.48,29.78,20.12-10.17,40.94-19.52,61.91-27.78l.46.89a405,405,0,0,0-73.61,60.27c25.43-11.95,51.69-24.23,78.4-34.28l.4.92a234.77,234.77,0,0,0-72.35,57.45l78.31-24.39-2.83,1.91c-23.65,15.91-48.09,32.36-65.42,55.68L347,173.5l-77.22,49.94,86.61-14.14L353,210.85c-25.4,11.57-50.75,24.13-75.33,37.34A.52.52,0,0,1,277.4,248.24Z" style="fill:#f3ebe9"/></g><polygon points="278.39 65.31 309.2 52.29 309.2 237.01 278.39 237.01 278.39 65.31" style="fill:none;stroke:#f3ebe9;stroke-linecap:round;stroke-miterlimit:10"/><rect x="143.91" y="104.89" width="56.28" height="131.81" style="fill:#9faa07"/><rect x="158.01" y="122.02" width="8.22" height="12.94" style="fill:#f3ebe9"/><rect x="170.84" y="122.02" width="8.22" height="12.94" style="fill:#f3ebe9"/><rect x="158.01" y="143.22" width="8.22" height="12.94" style="fill:#f3ebe9"/><rect x="170.84" y="143.22" width="8.22" height="12.94" style="fill:#f3ebe9"/><rect x="158.01" y="164.08" width="8.22" height="12.94" style="fill:#f3ebe9"/><rect x="170.84" y="164.08" width="8.22" height="12.94" style="fill:#f3ebe9"/><polygon points="421.62 150.54 421.62 240.34 366.59 240.34 366.59 182.5 366.59 150.54 421.62 150.54" style="fill:#6480c8"/><rect x="398.44" y="162.9" width="9.55" height="13.41" transform="translate(806.43 339.22) rotate(180)" style="fill:#f3ebe9"/><rect x="383.53" y="162.9" width="9.55" height="13.41" transform="translate(776.62 339.22) rotate(180)" style="fill:#f3ebe9"/><rect x="398.44" y="184.87" width="9.55" height="13.41" transform="translate(806.43 383.16) rotate(180)" style="fill:#f3ebe9"/><rect x="383.53" y="184.87" width="9.55" height="13.41" transform="translate(776.62 383.16) rotate(180)" style="fill:#f3ebe9"/><path d="M426.26,237.57a.5.5,0,0,1-.5-.5V104.89a.5.5,0,0,1,.5-.5.51.51,0,0,1,.5.5V237.07A.5.5,0,0,1,426.26,237.57Z" style="fill:#f3ebe9"/><rect x="190.11" y="70.6" width="86.29" height="166.11" style="fill:#ff9fdc"/><rect x="249.41" y="70.6" width="26.99" height="166.11" style="fill:#ff9fdc"/><path d="M276.9,237.2h-28V70.1h28Zm-27-1h26V71.1h-26Z" style="fill:#f3ebe9"/><g style="opacity:0.4"><rect x="249.41" y="70.6" width="26.99" height="166.11" style="fill:url(#Unnamed_Pattern_9)"/><path d="M276.9,237.2h-28V70.1h28Zm-27-1h26V71.1h-26Z" style="fill:url(#Unnamed_Pattern_9)"/></g><rect x="205.34" y="86.98" width="11.15" height="14.41" style="fill:#f3ebe9"/><rect x="226.21" y="86.98" width="11.15" height="14.41" style="fill:#f3ebe9"/><rect x="205.34" y="110.59" width="11.15" height="14.41" style="fill:#f3ebe9"/><rect x="226.21" y="110.59" width="11.15" height="14.41" style="fill:#f3ebe9"/><rect x="211.94" y="62.22" width="26.75" height="7.75" style="fill:#a075dd"/><path d="M239.19,70.47H211.44V61.72h27.75Zm-26.75-1h25.75V62.72H212.44Z" style="fill:#f3ebe9"/><path d="M225.31,63.59a.51.51,0,0,1-.5-.5V52.29a.5.5,0,0,1,.5-.5.5.5,0,0,1,.5.5v10.8A.5.5,0,0,1,225.31,63.59Z" style="fill:#6480c8"/><rect x="190.11" y="70.6" width="86.29" height="166.11" style="fill:#6480c8"/><path d="M238.35,237.9H201.89V151.45a18.23,18.23,0,1,1,36.46,0Zm-35.46-1h34.46V151.45a17.23,17.23,0,1,0-34.46,0Z" style="fill:#f3ebe9"/><path d="M235.78,237.9H204.45v-74a15.67,15.67,0,0,1,31.33,0Zm-30.33-1h29.33v-73a14.67,14.67,0,0,0-29.33,0Z" style="fill:#f3ebe9"/><path d="M231.54,237.91H208.69V184.45a11.43,11.43,0,1,1,22.85,0Zm-21.85-1h20.85V184.45a10.43,10.43,0,1,0-20.85,0Z" style="fill:#f3ebe9"/><rect x="249.41" y="70.6" width="26.99" height="166.11" style="fill:#6480c8"/><path d="M276.9,237.2h-28V70.1h28Zm-27-1h26V71.1h-26Z" style="fill:#f3ebe9"/><g style="opacity:0.97"><rect x="253.65" y="71.05" width="26.99" height="166.11" style="fill:url(#Unnamed_Pattern_9-5)"/><path d="M277.59,238.14h-28V71h28Zm-27-1h26V72h-26Z" style="fill:url(#Unnamed_Pattern_9-7)"/></g><rect x="205.34" y="86.98" width="11.15" height="10.24" style="fill:#f3ebe9"/><rect x="226.21" y="86.98" width="11.15" height="10.24" style="fill:#f3ebe9"/><rect x="205.34" y="103.75" width="11.15" height="10.24" style="fill:#f3ebe9"/><rect x="226.21" y="103.75" width="11.15" height="10.24" style="fill:#f3ebe9"/><polygon points="78.3 247.95 151.67 247.95 152.62 92.5 127.11 81.71 79.25 83.48 78.3 247.95" style="fill:#a075dd"/><rect x="112.41" y="98.28" width="5.95" height="8.36" transform="translate(230.78 204.92) rotate(180)" style="fill:#f3ebe9"/><rect x="101.27" y="98.28" width="5.95" height="8.36" transform="translate(208.49 204.92) rotate(180)" style="fill:#f3ebe9"/><rect x="112.41" y="115.97" width="5.95" height="8.36" transform="translate(230.78 240.3) rotate(180)" style="fill:#f3ebe9"/><rect x="101.27" y="115.97" width="5.95" height="8.36" transform="translate(208.49 240.3) rotate(180)" style="fill:#f3ebe9"/><rect x="112.41" y="135.96" width="5.95" height="8.36" transform="translate(230.78 280.28) rotate(180)" style="fill:#f3ebe9"/><rect x="101.27" y="135.96" width="5.95" height="8.36" transform="translate(208.49 280.28) rotate(180)" style="fill:#f3ebe9"/><rect x="112.41" y="155.25" width="5.95" height="8.36" transform="translate(230.78 318.85) rotate(180)" style="fill:#f3ebe9"/><rect x="101.27" y="155.25" width="5.95" height="8.36" transform="translate(208.49 318.85) rotate(180)" style="fill:#f3ebe9"/><rect x="90.32" y="135.96" width="5.95" height="8.36" transform="translate(186.58 280.28) rotate(180)" style="fill:#f3ebe9"/><rect x="90.32" y="155.25" width="5.95" height="8.36" transform="translate(186.58 318.85) rotate(180)" style="fill:#f3ebe9"/><rect x="90.32" y="98.28" width="5.95" height="8.36" transform="translate(186.58 204.92) rotate(180)" style="fill:#f3ebe9"/><rect x="90.32" y="115.97" width="5.95" height="8.36" transform="translate(186.58 240.3) rotate(180)" style="fill:#f3ebe9"/><g style="clip-path:url(#clip-path-2)"><path d="M153.43,244.06a.46.46,0,0,1-.23-.06c-20.36-10.93-35.6-18.72-62.38-30.91a.5.5,0,0,1,.29-1l68.25,11.14L98.78,184.1a.49.49,0,0,1-.17-.64.5.5,0,0,1,.61-.25l57.71,20.73c-14.33-19.17-34.48-32.73-54-45.86a.5.5,0,0,1,.43-.89l61.86,19.27a194.18,194.18,0,0,0-59.69-47.33.51.51,0,0,1-.23-.65.5.5,0,0,1,.64-.26c22,8.26,43.56,18.34,64.49,28.19a334.7,334.7,0,0,0-60.6-49.57.48.48,0,0,1-.18-.64.5.5,0,0,1,.63-.24c17.3,6.82,34.49,14.52,51.1,22.91-2.75-9.85-10.56-17.91-16.89-24.43L123.12,82.38a.5.5,0,0,1,0-.65.5.5,0,0,1,.62-.15l43.47,21.6a.5.5,0,0,1,.23.67.51.51,0,0,1-.67.23L125.87,83.77l19.36,20c6.63,6.84,14.89,15.35,17.42,25.95a.52.52,0,0,1-.18.51.51.51,0,0,1-.53.06c-15.38-7.81-31.27-15-47.29-21.5A336.46,336.46,0,0,1,173,157.66a.5.5,0,0,1-.57.8c-19.29-9.08-39.17-18.42-59.37-26.41a195.31,195.31,0,0,1,54,45.07.5.5,0,0,1,0,.6.51.51,0,0,1-.56.2l-60.22-18.76c19.12,12.89,38.56,26.44,52.36,45.51a.51.51,0,0,1,0,.6.52.52,0,0,1-.57.17L103,185.62l58.94,38.12a.49.49,0,0,1,.19.6.48.48,0,0,1-.54.31L94.63,213.73c24.73,11.33,39.54,18.92,59,29.39a.51.51,0,0,1,.21.68A.54.54,0,0,1,153.43,244.06Z" style="fill:#f3ebe9"/></g><polygon points="153.06 90.76 127.11 81.71 126.16 247.95 151.67 247.95 153.06 90.76" style="fill:none;stroke:#f3ebe9;stroke-linecap:round;stroke-linejoin:round"/><path d="M52.59,171.44h0c-2.5,0-4.51,1.62-4.51,3.61v8.31h9v-8.31C57.1,173.06,55.08,171.44,52.59,171.44Z" style="fill:#f3ebe9"/><path d="M52.59,191.26h0c-2.5,0-4.51,1.61-4.51,3.6v8.32h9v-8.32C57.1,192.87,55.08,191.26,52.59,191.26Z" style="fill:#f3ebe9"/><rect x="433.44" y="94.66" width="19.8" height="4.84" transform="translate(886.69 194.16) rotate(180)" style="fill:#8b5cd6"/><path d="M453.24,100h-19.8a.5.5,0,0,1-.5-.5V94.66a.5.5,0,0,1,.5-.5h19.8a.5.5,0,0,1,.5.5V99.5A.5.5,0,0,1,453.24,100Zm-19.3-1h18.8V95.16h-18.8Z" style="fill:#f3ebe9"/><path d="M443.34,95.7a.5.5,0,0,1-.5-.5V88.44a.51.51,0,0,1,.5-.5.5.5,0,0,1,.5.5V95.2A.5.5,0,0,1,443.34,95.7Z" style="fill:#8b5cd6"/><rect x="421.62" y="99.41" width="41.66" height="150.57" transform="translate(884.89 349.39) rotate(180)" style="fill:#6480c8"/><rect x="445.39" y="114.85" width="7.31" height="7.34" transform="translate(898.1 237.04) rotate(180)" style="fill:#f3ebe9"/><rect x="433.98" y="114.85" width="7.31" height="7.34" transform="translate(875.28 237.04) rotate(180)" style="fill:#f3ebe9"/><rect x="445.39" y="126.88" width="7.31" height="7.34" transform="translate(898.1 261.09) rotate(180)" style="fill:#f3ebe9"/><rect x="433.98" y="126.88" width="7.31" height="7.34" transform="translate(875.28 261.09) rotate(180)" style="fill:#f3ebe9"/><rect x="445.39" y="138.71" width="7.31" height="7.34" transform="translate(898.1 284.76) rotate(180)" style="fill:#f3ebe9"/><rect x="433.98" y="138.71" width="7.31" height="7.34" transform="translate(875.28 284.76) rotate(180)" style="fill:#f3ebe9"/><g style="clip-path:url(#clip-path-3)"><path d="M420.76,251.86a.51.51,0,0,1-.48-.34.52.52,0,0,1,.32-.64l88.57-30.06A953.52,953.52,0,0,0,363.72,240a.5.5,0,0,1-.31-.94c29.52-14.08,61.1-24.36,91.65-34.3l36-11.71A238.23,238.23,0,0,0,378.7,208.85a.52.52,0,0,1-.59-.17.51.51,0,0,1,0-.61c10.34-12.92,27.46-18.53,41.21-23l90.22-29.55-128.5,24a.5.5,0,0,1-.56-.31.51.51,0,0,1,.2-.61,384.42,384.42,0,0,1,95.95-42.34,891.3,891.3,0,0,0-93.12,25.18.51.51,0,0,1-.59-.22.5.5,0,0,1,.09-.62,294.75,294.75,0,0,1,90.36-58.12,277.17,277.17,0,0,0-74.87,22.07.5.5,0,0,1-.67-.24.52.52,0,0,1,.25-.67A277.85,277.85,0,0,1,477.32,101a.48.48,0,0,1,.55.37.51.51,0,0,1-.3.59,293.66,293.66,0,0,0-92.22,57.9A890.7,890.7,0,0,1,494,131.74a.5.5,0,0,1,.21,1,383.33,383.33,0,0,0-110.67,45.34l133.29-25a.52.52,0,0,1,.58.37.5.5,0,0,1-.33.6L419.64,186c-13.08,4.28-29.22,9.57-39.47,21.2a239.29,239.29,0,0,1,113.33-14.9.51.51,0,0,1,.44.45.5.5,0,0,1-.34.52L455.37,205.7c-29.19,9.5-59.33,19.3-87.68,32.44a954.41,954.41,0,0,1,145-18.51.46.46,0,0,1,.52.4.49.49,0,0,1-.33.57l-92,31.23A.45.45,0,0,1,420.76,251.86Z" style="fill:#f3ebe9"/></g><path d="M86.36,222.27v36.1H18.58V235.11h0c0-7.09,8.23-12.84,18.39-12.84Z" style="fill:#8b5cd6"/><g style="clip-path:url(#clip-path-4)"><path d="M44.64,262.15l-.1,0-27.29-5.68C10.18,255,3.62,253.39.89,250.28a3,3,0,0,1-.84-2.57,3,3,0,0,1,1.92-2,16.73,16.73,0,0,1,6.25-.85,108.22,108.22,0,0,1,28.89,3.61c2.88.79,5.68,1.73,8.38,2.63,6,2,12.16,4.05,19.36,4.65,3,.25,15.8.23,18.7-.27s5.35-1.56,6.36-2.76a1.94,1.94,0,0,0,.46-1.85c-.43-1.55-2.66-3.2-5.82-4.3-3-1-10.81-1.65-17.12-2.16-3.31-.26-6.17-.49-8-.74A214.42,214.42,0,0,1,15.89,233.3C14,232.59,12,231.81,11,230.69a1.94,1.94,0,0,1-.43-1.91A3.09,3.09,0,0,1,13.05,227a14.13,14.13,0,0,1,4-.17,127.57,127.57,0,0,1,24.27,3.66l8.37,2.11c11,2.76,24.73,6.2,33.22,9.08.45.15.92.31,1.39.45a1.51,1.51,0,0,0,.68-1,3.16,3.16,0,0,0-1.5-2.54c-2.06-1.65-3.13-2.89-3.26-3.82-3.17-.47-8-1.34-15.31-2.88-1.46-.31-2.94-.61-4.42-.9-5.86-1.18-11.92-2.4-16.93-4.32-1.82-.7-4.21-1.82-4-3.45.25-1.84,3.78-2.8,6.95-2.92a31.76,31.76,0,0,1,12.06,2.16c1.4.51,2.74,1.08,4,1.63,1.88.79,3.83,1.61,6,2.28,3.42,1.07,17.4,1.85,21.67,1.2a2.84,2.84,0,0,0,.88-.23,11.72,11.72,0,0,0-2.51-1.73,16.35,16.35,0,0,1-2.95-2,.5.5,0,0,1,.7-.71,16.38,16.38,0,0,0,2.76,1.85c2,1.2,3.19,1.92,3,2.79-.13.69-1,.91-1.75,1-4,.61-18.35-.06-22.12-1.24-2.17-.68-4.14-1.51-6.05-2.31-1.28-.54-2.61-1.1-4-1.61a30.64,30.64,0,0,0-11.69-2.1c-3,.11-5.85,1.07-6,2.06,0,.31.2,1.16,3.35,2.37,4.94,1.9,11,3.11,16.78,4.28,1.48.29,3,.59,4.43.9,7.54,1.59,12.34,2.44,15.39,2.89,1.06-1.19,4.55-.31,5.38.08.62.29.66.65.57.89s-.26.8-5.16.15a9.74,9.74,0,0,0,2.8,2.88c1.37,1.1,2,2.37,1.86,3.5a2.27,2.27,0,0,1-.53,1.12,21.05,21.05,0,0,0,2.34.47c.24,0,.73.1.72.58,0,.17-.08.47-.6.53,0,0-4.83.3-5-.7a.52.52,0,0,1,.2-.56l-.45-.16c-8.46-2.86-22.15-6.29-33.15-9-3-.76-5.87-1.47-8.37-2.12A127.06,127.06,0,0,0,17,227.78a14,14,0,0,0-3.74.14c-.93.22-1.59.65-1.75,1.17a1,1,0,0,0,.24.95c.81.94,2.65,1.66,4.47,2.32a213,213,0,0,0,43.35,10.32c1.79.25,4.64.48,7.93.74,6.7.53,14.29,1.14,17.37,2.21,3.52,1.22,5.93,3.08,6.45,5a2.94,2.94,0,0,1-.66,2.76c-1.16,1.4-3.7,2.53-7,3.1-3,.53-15.89.54-19,.29-7.33-.61-13.56-2.69-19.59-4.7-2.7-.9-5.49-1.83-8.33-2.62a107.59,107.59,0,0,0-28.62-3.57,16.28,16.28,0,0,0-5.86.77A2.14,2.14,0,0,0,1,247.93a2,2,0,0,0,.61,1.69c2.52,2.88,9.19,4.47,15.81,5.85l27.29,5.69a.49.49,0,0,1,.39.59A.51.51,0,0,1,44.64,262.15ZM91.18,227.4h0Z" style="fill:#f3ebe9"/></g><path d="M189.29,250.54a.5.5,0,0,1-.5-.5V117.86a.5.5,0,1,1,1,0V250A.5.5,0,0,1,189.29,250.54Z" style="fill:#f3ebe9"/><rect x="463.36" y="157.45" width="39.95" height="51.82" transform="translate(966.67 366.72) rotate(180)" style="fill:#fc90db"/><g style="clip-path:url(#clip-path-5)"><path d="M479.23,212.16l-.16,0-22.42-7.41c-5.6-1.85-11.25-4-13.5-8.05-1-1.78-1.09-4.2.9-5.59,1.4-1,3.45-1.13,5.26-1.15a58.33,58.33,0,0,1,23.83,4.73c2.36,1,4.67,2.25,6.9,3.43,4.89,2.59,9.95,5.27,15.82,6a18.8,18.8,0,0,0,7.39-.35,8.26,8.26,0,0,0,5.15-3.57c1.6-3-1-6.5-4.37-8.37-3.19-1.75-7.15-2.59-11-3.39l-1.71-.37a125,125,0,0,1-35.84-13.54c-1.61-.92-3.25-1.94-4-3.4a3.29,3.29,0,0,1-.19-2.67,3.16,3.16,0,0,1,1.92-1.86,7.83,7.83,0,0,1,3.41-.23,70.48,70.48,0,0,1,20,4.78,116.74,116.74,0,0,1,16.83,9.05c3.06,1.87,6.22,3.8,9.46,5.54a14.94,14.94,0,0,0,3.94,1.62,6,6,0,0,0,4.1-.41,2.53,2.53,0,0,0,1.32-1.74A5.08,5.08,0,0,0,511,181.4c-3.45-4.36-9.93-6.93-15.19-8.69q-1.8-.6-3.63-1.17c-4.82-1.54-9.82-3.13-14-5.65-2.31-1.41-3.37-2.8-3.25-4.27.19-2.19,3.12-3.54,5.78-3.69a18,18,0,0,1,10,2.84c1.15.67,2.25,1.41,3.32,2.12a44.48,44.48,0,0,0,4.87,3,15,15,0,0,0,9.77,1.55,6.11,6.11,0,0,0,4.21-3.2,2.44,2.44,0,0,0-.17-2.32.49.49,0,0,1,.16-.69.5.5,0,0,1,.69.15,3.49,3.49,0,0,1,.25,3.24,7,7,0,0,1-4.91,3.79c-4.2,1-8.35-.59-10.44-1.63a44.39,44.39,0,0,1-5-3c-1.05-.7-2.14-1.43-3.26-2.09a17.07,17.07,0,0,0-9.48-2.7c-2.23.12-4.71,1.22-4.84,2.78-.09,1,.84,2.15,2.77,3.32,4,2.46,9,4,13.75,5.55l3.63,1.18c5.39,1.8,12.05,4.45,15.66,9a6,6,0,0,1,1.44,4.63,3.49,3.49,0,0,1-1.8,2.42,7,7,0,0,1-4.81.52,16,16,0,0,1-4.2-1.72c-3.27-1.75-6.44-3.69-9.51-5.57a115.92,115.92,0,0,0-16.69-9,69.21,69.21,0,0,0-19.72-4.71,6.8,6.8,0,0,0-3,.17,2.13,2.13,0,0,0-1.33,1.27,2.17,2.17,0,0,0,.14,1.84c.66,1.23,2.16,2.16,3.65,3a124.61,124.61,0,0,0,35.55,13.43l1.71.36c3.9.82,7.93,1.67,11.25,3.5,3.81,2.1,6.67,6.11,4.78,9.71a9.1,9.1,0,0,1-5.78,4.06,19.6,19.6,0,0,1-7.78.38c-6.05-.8-11.19-3.51-16.16-6.14-2.21-1.17-4.5-2.39-6.84-3.41a57.74,57.74,0,0,0-23.41-4.64c-1.66,0-3.52.15-4.7,1-1.57,1.1-1.3,3-.59,4.28,2.07,3.74,7.52,5.8,12.93,7.59l22.43,7.41a.5.5,0,0,1-.16,1Z" style="fill:#f3ebe9"/></g><path d="M477.85,209.31H489a.69.69,0,0,0,.69-.69V173.16a6.24,6.24,0,0,0-6.24-6.24h0a6.24,6.24,0,0,0-6.24,6.24v35.46A.69.69,0,0,0,477.85,209.31Z" style="fill:#f3ebe9"/><path d="M463.28,209.5v49h92V226.94h0c0-9.63-11.17-17.44-25-17.44Z" style="fill:#abf4c9"/><g style="clip-path:url(#clip-path-6)"><path d="M519.88,263.44a.48.48,0,0,1-.48-.4.49.49,0,0,1,.38-.59l37-7.72c9-1.87,18.09-4,21.55-8a2.88,2.88,0,0,0,.87-2.46,3,3,0,0,0-1.92-1.89c-2.06-.91-5.21-1-8-1.06a144.07,144.07,0,0,0-38.88,4.86c-3.87,1.06-7.66,2.33-11.32,3.55-8.17,2.73-16.62,5.55-26.54,6.37-4.15.35-21.57.33-25.68-.39-4.37-.77-7.77-2.28-9.32-4.14a3.86,3.86,0,0,1-.87-3.59c.7-2.51,3.93-5,8.65-6.62,4.15-1.45,14.89-2.31,23.52-3,4.48-.36,8.34-.67,10.78-1a289.73,289.73,0,0,0,58.86-14c2.49-.9,5-1.89,6.14-3.2a1.5,1.5,0,0,0,.37-1.46,3.25,3.25,0,0,0-2.52-1.71,18.79,18.79,0,0,0-5.12-.19,173,173,0,0,0-32.72,4.92c-3.38.87-7.23,1.84-11.33,2.86-14.93,3.75-33.53,8.42-45,12.3l-1,.34c.58.22.59.57.55.76-.27,1.14-6.61.82-6.67.81q-.65-.08-.66-.54c0-.49.49-.56.82-.6a28.09,28.09,0,0,0,3.5-.73,2.92,2.92,0,0,1-.89-1.64c-.24-1.44.68-3.15,2.47-4.57,3-2.43,3.8-3.68,3.95-4.27-6.78.92-7,.25-7.11,0s.11-.72.7-1c1.35-.64,5.92-1.63,7.15-.08,4.14-.61,10.68-1.76,21-3.93,2-.42,4-.82,6-1.23,7.91-1.58,16.09-3.23,22.81-5.81,4.24-1.62,4.74-2.84,4.66-3.41-.2-1.45-4-2.79-8.3-2.95a42.13,42.13,0,0,0-15.92,2.86c-1.87.69-3.67,1.45-5.42,2.19-2.58,1.09-5.25,2.21-8.19,3.14-5.1,1.59-24.52,2.49-29.94,1.67-.95-.15-2.06-.42-2.22-1.24-.21-1.07,1.31-2,4-3.61a22,22,0,0,0,3.77-2.53.5.5,0,0,1,.71,0,.5.5,0,0,1,0,.71,22.29,22.29,0,0,1-4,2.69c-1.31.77-3.51,2.06-3.54,2.56h0s.19.25,1.39.43c5.35.8,24.48-.07,29.49-1.64,2.9-.91,5.54-2,8.1-3.1,1.76-.74,3.57-1.51,5.46-2.21A43.11,43.11,0,0,1,517.31,207c3.53.13,8.9,1.25,9.25,3.81.22,1.59-1.46,3-5.29,4.49-6.8,2.61-15,4.26-23,5.85l-6,1.22c-10.07,2.12-16.63,3.31-20.91,3.93-.06,1.22-1.49,2.91-4.36,5.2-1.5,1.19-2.28,2.55-2.1,3.62a2.26,2.26,0,0,0,1.06,1.47l2-.64c11.52-3.9,30.13-8.57,45.09-12.33,4.1-1,7.94-2,11.33-2.86a174,174,0,0,1,32.9-4.95,19.4,19.4,0,0,1,5.41.22A4.17,4.17,0,0,1,566,218.4a2.51,2.51,0,0,1-.56,2.42c-1.28,1.49-3.94,2.54-6.56,3.49a290.21,290.21,0,0,1-59.06,14.07c-2.47.33-6.35.64-10.84,1-8.57.69-19.24,1.54-23.27,2.94-4.34,1.51-7.41,3.79-8,6a2.83,2.83,0,0,0,.66,2.68c1.39,1.66,4.65,3.08,8.73,3.79s21.41.71,25.43.38c9.8-.81,18.19-3.61,26.31-6.32,3.67-1.23,7.47-2.49,11.36-3.57a145.52,145.52,0,0,1,39.15-4.89c2.92,0,6.2.17,8.42,1.14a3.45,3.45,0,0,1,1.4,5.93c-3.66,4.17-12.92,6.39-22.1,8.3l-37,7.72Zm-54-25.76-.17,0,.23,0Zm2.7-12.18a13,13,0,0,0-3.11.45c.8,0,2-.13,4-.38A4.61,4.61,0,0,0,468.57,225.5Z" style="fill:#f3ebe9"/></g><rect x="366.99" y="93.83" width="54.62" height="57.71" transform="translate(788.61 245.37) rotate(180)" style="fill:#6480c8"/><g style="clip-path:url(#clip-path-7)"><path d="M456.51,139.4a.45.45,0,0,1-.16,0l-25-8.25c-6.22-2.06-12.51-4.44-15-8.94-1.08-2-1.2-4.62,1-6.15,1.56-1.08,3.82-1.25,5.83-1.27A65.2,65.2,0,0,1,449.7,120c2.63,1.15,5.2,2.51,7.68,3.82,5.45,2.89,11.09,5.87,17.64,6.73a21.13,21.13,0,0,0,8.24-.39c2.7-.75,4.86-2.25,5.78-4,1.8-3.41-1.1-7.31-4.89-9.4-3.56-2-8-2.89-12.25-3.79l-1.9-.4a139.79,139.79,0,0,1-39.89-15.07c-1.78-1-3.6-2.16-4.47-3.77a3.58,3.58,0,0,1-.22-2.93,3.5,3.5,0,0,1,2.11-2,8.69,8.69,0,0,1,3.77-.26,78.79,78.79,0,0,1,22.26,5.32c6.79,2.77,12.87,6.48,18.74,10.08,3.41,2.08,6.93,4.23,10.54,6.17a17,17,0,0,0,4.4,1.8,6.71,6.71,0,0,0,4.61-.45,2.84,2.84,0,0,0,1.49-2,5.69,5.69,0,0,0-1.39-4.29c-3.85-4.87-11.08-7.74-16.94-9.7l-4-1.3c-5.37-1.71-10.93-3.48-15.54-6.29-2.55-1.55-3.73-3.09-3.59-4.69.21-2.42,3.45-3.9,6.39-4.07a20,20,0,0,1,11.14,3.16c1.28.75,2.51,1.57,3.7,2.36a47.8,47.8,0,0,0,5.43,3.3c3.75,1.86,7.73,2.5,10.91,1.74a6.86,6.86,0,0,0,4.73-3.59,2.78,2.78,0,0,0-.19-2.64.5.5,0,0,1,.15-.69.51.51,0,0,1,.7.15,3.75,3.75,0,0,1,.27,3.55,7.75,7.75,0,0,1-5.43,4.19c-4.66,1.11-9.26-.66-11.58-1.81a48.7,48.7,0,0,1-5.55-3.37c-1.17-.78-2.39-1.6-3.64-2.33a19,19,0,0,0-10.58-3c-2.51.14-5.3,1.39-5.45,3.15-.1,1.17,1,2.44,3.11,3.76,4.51,2.74,10,4.49,15.33,6.18l4,1.31c6,2,13.4,5,17.41,10a6.56,6.56,0,0,1,1.59,5.11,3.91,3.91,0,0,1-2,2.66,7.85,7.85,0,0,1-5.32.56,17.6,17.6,0,0,1-4.66-1.9c-3.64-2-7.17-4.11-10.59-6.2-5.84-3.57-11.89-7.27-18.59-10a77.16,77.16,0,0,0-22-5.25,8,8,0,0,0-3.33.19,2.46,2.46,0,0,0-1.52,1.45,2.54,2.54,0,0,0,.16,2.1c.74,1.38,2.43,2.43,4.09,3.38a138.36,138.36,0,0,0,39.6,15l1.9.41c4.34.91,8.83,1.85,12.52,3.89,4.22,2.32,7.39,6.76,5.3,10.73-1.07,2-3.4,3.66-6.4,4.5a21.64,21.64,0,0,1-8.64.42c-6.73-.88-12.45-3.91-18-6.84-2.46-1.3-5-2.65-7.61-3.79a64.26,64.26,0,0,0-26.1-5.17c-1.86,0-3.94.16-5.27,1.09-1.78,1.25-1.48,3.39-.67,4.84,2.31,4.19,8.4,6.48,14.43,8.48l25,8.25a.49.49,0,0,1,.32.63A.5.5,0,0,1,456.51,139.4Z" style="fill:#f3ebe9"/></g><path d="M378.78,151.58h12.37a.77.77,0,0,0,.76-.77V111.32a7,7,0,0,0-7-6.94h0a6.94,6.94,0,0,0-6.94,6.94v39.49A.77.77,0,0,0,378.78,151.58Z" style="fill:#f3ebe9"/><path d="M399.21,151.58h12.36a.78.78,0,0,0,.77-.77V111.32a7,7,0,0,0-6.95-6.94h0a7,7,0,0,0-6.95,6.94v39.49A.77.77,0,0,0,399.21,151.58Z" style="fill:#f3ebe9"/><path d="M416.63,85.83h-2.4c-2.21,0-4-1.43-4-3.21V80.27c0-1.78-1.8-3.21-4-3.21H382.11c-2.22,0-4,1.43-4,3.21v2.35c0,1.78-1.79,3.21-4,3.21h-2.41c-2.21,0-4,1.44-4,3.21v3.38h52.95V89C420.64,87.27,418.85,85.83,416.63,85.83Z" style="fill:#6480c8"/><path d="M398.42,83.86a3.19,3.19,0,1,1-3.19-3.19A3.19,3.19,0,0,1,398.42,83.86Z" style="fill:#f3ebe9"/><path d="M559,209.66a12.12,12.12,0,0,0,1.51-5.9,12.29,12.29,0,1,0-24.58,0,12.12,12.12,0,0,0,1.51,5.9,18.85,18.85,0,1,0,21.56,0Z" style="fill:#817ffe"/><path d="M565,216.54a19.34,19.34,0,0,1,.25,3.06,18.84,18.84,0,0,1-35.63,8.56A18.85,18.85,0,1,0,565,216.54Z" style="opacity:0.08"/><path d="M547.92,280.27a.5.5,0,0,1-.5-.5V202.08a.5.5,0,0,1,1,0v77.69A.5.5,0,0,1,547.92,280.27Z" style="fill:#f3ebe9"/><path d="M547.92,221.41a.54.54,0,0,1-.35-.14l-7.27-7a.49.49,0,0,1,0-.7.5.5,0,0,1,.71,0l7.27,7a.5.5,0,0,1-.35.86Z" style="fill:#f3ebe9"/><path d="M547.89,213.19a.45.45,0,0,1-.27-.08.5.5,0,0,1-.14-.69l5.27-7.91a.5.5,0,0,1,.69-.14.51.51,0,0,1,.14.7l-5.27,7.9A.51.51,0,0,1,547.89,213.19Z" style="fill:#f3ebe9"/><path d="M547.89,232.11a.51.51,0,0,1-.37-.17.51.51,0,0,1,.05-.71L559,221.36a.5.5,0,1,1,.65.75L548.22,232A.5.5,0,0,1,547.89,232.11Z" style="fill:#f3ebe9"/><path d="M111.52,190.52a15.26,15.26,0,1,0-26.78,0,23.4,23.4,0,1,0,26.78,0Z" style="fill:#fd9d37"/><path d="M119,199.06a23.73,23.73,0,0,1,.32,3.79,23.39,23.39,0,0,1-44.23,10.63A23.39,23.39,0,1,0,119,199.06Z" style="opacity:0.08"/><path d="M97.81,278.06a.5.5,0,0,1-.5-.5V181.1a.5.5,0,1,1,1,0v96.46A.5.5,0,0,1,97.81,278.06Z" style="fill:#f3ebe9"/><path d="M97.81,205a.49.49,0,0,1-.35-.14l-9-8.7a.5.5,0,0,1,0-.71.5.5,0,0,1,.7,0l9,8.7a.5.5,0,0,1-.35.86Z" style="fill:#f3ebe9"/><path d="M97.78,194.78a.57.57,0,0,1-.28-.08.51.51,0,0,1-.14-.7l6.54-9.81a.51.51,0,0,1,.7-.14.5.5,0,0,1,.13.7l-6.54,9.81A.49.49,0,0,1,97.78,194.78Z" style="fill:#f3ebe9"/><path d="M97.78,218.27a.52.52,0,0,1-.38-.17.51.51,0,0,1,0-.71l14.21-12.26a.5.5,0,1,1,.65.75L98.1,218.15A.49.49,0,0,1,97.78,218.27Z" style="fill:#f3ebe9"/><path d="M63,209.66a12.3,12.3,0,1,0-21.57,0,18.85,18.85,0,1,0,21.57,0Z" style="fill:#817ffe"/><path d="M69,216.54a19.34,19.34,0,0,1,.25,3.06,18.84,18.84,0,0,1-35.63,8.56A18.84,18.84,0,1,0,69,216.54Z" style="opacity:0.08"/><path d="M52,280.27a.5.5,0,0,1-.5-.5V202.08a.5.5,0,0,1,.5-.5.5.5,0,0,1,.5.5v77.69A.5.5,0,0,1,52,280.27Z" style="fill:#f3ebe9"/><path d="M52,221.41a.52.52,0,0,1-.35-.14l-7.27-7a.5.5,0,0,1,.69-.72l7.28,7a.51.51,0,0,1,0,.71A.51.51,0,0,1,52,221.41Z" style="fill:#f3ebe9"/><path d="M52,213.19a.5.5,0,0,1-.28-.08.49.49,0,0,1-.13-.69l5.26-7.91a.5.5,0,0,1,.84.56L52.39,213A.52.52,0,0,1,52,213.19Z" style="fill:#f3ebe9"/><path d="M52,232.11a.5.5,0,0,1-.33-.88l11.45-9.87a.5.5,0,1,1,.65.75L52.3,232A.52.52,0,0,1,52,232.11Z" style="fill:#f3ebe9"/><rect x="6.67" y="258.52" width="563.84" height="23.2" style="fill:#4f4568"/><g style="opacity:0.13"><rect x="6.67" y="258.52" width="563.84" height="23.2" style="fill:url(#Unnamed_Pattern_7)"/><path d="M570.51,282.23H6.67a.5.5,0,0,1-.5-.5V258.52a.5.5,0,0,1,.5-.5H570.51a.5.5,0,0,1,.5.5v23.21A.5.5,0,0,1,570.51,282.23Zm-563.34-1H570V259H7.17Z"/></g><path d="M6.64,281.19h563.9a0,0,0,0,1,0,0V321.6a39.87,39.87,0,0,1-39.87,39.87H46.51A39.87,39.87,0,0,1,6.64,321.6V281.19A0,0,0,0,1,6.64,281.19Z" style="fill:#3c2c5b"/><path d="M79.24,258.08h0a2,2,0,0,1-2-2V70.84a2,2,0,0,1,2-2h0a2,2,0,0,1,2,2V256.1A2,2,0,0,1,79.24,258.08Z" style="fill:#f4e6db"/><path d="M79.24,258.58a2.49,2.49,0,0,1-2.48-2.48V70.84a2.48,2.48,0,0,1,5,0V256.1A2.49,2.49,0,0,1,79.24,258.58Zm0-189.22a1.48,1.48,0,0,0-1.48,1.48V256.1a1.48,1.48,0,1,0,3,0V70.84A1.48,1.48,0,0,0,79.24,69.36Z"/><path d="M97,133.51H61.49a8.34,8.34,0,0,1-8.34-8.33V89.68a8.35,8.35,0,0,1,8.34-8.34H97a8.35,8.35,0,0,1,8.33,8.34V125.2A8.32,8.32,0,0,1,97,133.51Z" style="fill:#3c2c5b"/><path d="M97,130.13H61.49a8.35,8.35,0,0,1-8.34-8.34V86.29A8.34,8.34,0,0,1,61.49,78H97a8.34,8.34,0,0,1,8.33,8.33v35.52A8.33,8.33,0,0,1,97,130.13Z" style="fill:#fd9d37"/><path d="M97,130.63H61.49a8.85,8.85,0,0,1-8.84-8.84V86.29a8.84,8.84,0,0,1,8.84-8.83H97a8.84,8.84,0,0,1,8.83,8.83v35.52A8.84,8.84,0,0,1,97,130.63ZM61.49,78.46a7.84,7.84,0,0,0-7.84,7.83v35.5a7.85,7.85,0,0,0,7.84,7.84H97a7.83,7.83,0,0,0,7.83-7.82V86.29A7.84,7.84,0,0,0,97,78.46Z"/><g style="opacity:0.27"><path d="M97,130.13H61.49a8.35,8.35,0,0,1-8.34-8.34V86.29A8.34,8.34,0,0,1,61.49,78H97a8.34,8.34,0,0,1,8.33,8.33v35.52A8.33,8.33,0,0,1,97,130.13Z" style="fill:url(#Unnamed_Pattern)"/><path d="M97,130.63H61.49a8.85,8.85,0,0,1-8.84-8.84V86.29a8.84,8.84,0,0,1,8.84-8.83H97a8.84,8.84,0,0,1,8.83,8.83v35.52A8.84,8.84,0,0,1,97,130.63ZM61.49,78.46a7.84,7.84,0,0,0-7.84,7.83v35.5a7.85,7.85,0,0,0,7.84,7.84H97a7.83,7.83,0,0,0,7.83-7.82V86.29A7.84,7.84,0,0,0,97,78.46Z"/></g><path d="M55.46,122.61V87.93a8,8,0,0,1,7.93-8.15H97.15a7.72,7.72,0,0,1,3.54.87,7.8,7.8,0,0,0-5.42-2.22H61.5a8,8,0,0,0-7.93,8.15v34.68A8.18,8.18,0,0,0,58,128.54,8.26,8.26,0,0,1,55.46,122.61Z" style="fill:#f3ebe9"/><path d="M68.2,100.73h0a10.08,10.08,0,0,1,9.72-7.39h3.37A10.07,10.07,0,0,1,91,100.73h0a1.45,1.45,0,0,0,1.39,1h0A5.64,5.64,0,0,1,98,107.42v2.64a1.44,1.44,0,0,1-1.44,1.45H61.76a1.44,1.44,0,0,1-1.44-1.45v-1.78a6.49,6.49,0,0,1,6.49-6.5h0A1.44,1.44,0,0,0,68.2,100.73Z"/><path d="M61.13,111.5H97.34a1.07,1.07,0,0,0,1.07-1.07h0a1.07,1.07,0,0,0-1.07-1.08H61.13a1.08,1.08,0,0,0-1.08,1.08h0A1.08,1.08,0,0,0,61.13,111.5Z"/><path d="M97.34,112H61.13a1.58,1.58,0,1,1,0-3.15H97.34a1.58,1.58,0,0,1,0,3.15Zm-36.21-2.15a.58.58,0,1,0,0,1.15H97.34a.58.58,0,0,0,0-1.15Z" style="fill:#ff9e28"/><path d="M83.55,110.66a4.25,4.25,0,1,0,4.25-4.24A4.25,4.25,0,0,0,83.55,110.66Z"/><path d="M87.8,115.41a4.75,4.75,0,1,1,4.74-4.75A4.75,4.75,0,0,1,87.8,115.41Zm0-8.49a3.75,3.75,0,1,0,3.74,3.74A3.75,3.75,0,0,0,87.8,106.92Z" style="fill:#ff9e28"/><circle cx="87.8" cy="110.66" r="1.78" style="fill:#ff9e28"/><path d="M87.8,112.94a2.28,2.28,0,1,1,2.28-2.28A2.28,2.28,0,0,1,87.8,112.94Zm0-3.56a1.28,1.28,0,1,0,1.28,1.28A1.28,1.28,0,0,0,87.8,109.38Z"/><path d="M65.87,110.66a4.25,4.25,0,1,0,4.24-4.24A4.24,4.24,0,0,0,65.87,110.66Z"/><path d="M70.11,115.41a4.75,4.75,0,1,1,4.75-4.75A4.75,4.75,0,0,1,70.11,115.41Zm0-8.49a3.75,3.75,0,1,0,3.75,3.74A3.75,3.75,0,0,0,70.11,106.92Z" style="fill:#ff9e28"/><circle cx="70.11" cy="110.66" r="1.78" style="fill:#ff9e28"/><path d="M70.11,112.94a2.28,2.28,0,1,1,2.28-2.28A2.28,2.28,0,0,1,70.11,112.94Zm0-3.56a1.28,1.28,0,1,0,1.28,1.28A1.28,1.28,0,0,0,70.11,109.38Z"/><path d="M81.64,95.57a6.82,6.82,0,0,1,6.82,6.82,1.14,1.14,0,0,1-1.13,1.13h-8.5v-8Z" style="fill:#ff9e28"/><path d="M87.33,104h-8.5a.5.5,0,0,1-.5-.5v-8a.5.5,0,0,1,.5-.5h2.81A7.32,7.32,0,0,1,89,102.39,1.63,1.63,0,0,1,87.33,104Zm-8-1h8a.63.63,0,0,0,.63-.63,6.33,6.33,0,0,0-6.32-6.32H79.33Z"/><path d="M76.88,95.59v7.93H71.7a1.14,1.14,0,0,1-1.14-1.13A6.82,6.82,0,0,1,76.88,95.59Z" style="fill:#ff9e28"/><path d="M76.88,104H71.7a1.64,1.64,0,0,1-1.64-1.63,7.35,7.35,0,0,1,6.78-7.3.49.49,0,0,1,.38.14.48.48,0,0,1,.16.36v7.93A.5.5,0,0,1,76.88,104Zm-.5-7.87a6.36,6.36,0,0,0-5.32,6.24.64.64,0,0,0,.64.63h4.68Z"/><circle cx="79.24" cy="155.27" r="10.77" style="fill:#3c2c5b"/><path d="M79.24,166.54a11.27,11.27,0,1,1,11.27-11.27A11.28,11.28,0,0,1,79.24,166.54Zm0-21.54a10.27,10.27,0,1,0,10.27,10.27A10.28,10.28,0,0,0,79.24,145Z" style="fill:#3c2c5b"/><circle cx="79.24" cy="153.61" r="10.77" style="fill:#604de3"/><path d="M79.24,164.88a11.27,11.27,0,1,1,11.27-11.27A11.28,11.28,0,0,1,79.24,164.88Zm0-21.54a10.27,10.27,0,1,0,10.27,10.27A10.27,10.27,0,0,0,79.24,143.34Z"/><rect x="73.32" y="151.42" width="11.82" height="4.36" style="fill:#f4e6db"/><path d="M85.15,156.29H73.32a.5.5,0,0,1-.5-.5v-4.37a.51.51,0,0,1,.5-.5H85.15a.51.51,0,0,1,.5.5v4.37A.5.5,0,0,1,85.15,156.29Zm-11.33-1H84.65v-3.37H73.82Z"/><path d="M68.93,225.57a.51.51,0,0,1-.5-.5V206.49a.5.5,0,0,1,.5-.5.5.5,0,0,1,.5.5v18.58A.5.5,0,0,1,68.93,225.57Z"/><path d="M88.65,225.57a.5.5,0,0,1-.5-.5V206.49a.5.5,0,0,1,.5-.5.5.5,0,0,1,.5.5v18.58A.51.51,0,0,1,88.65,225.57Z"/><path d="M96.08,304.4l-34.25.28c-5.93.05-10.79-4.12-10.84-9.32l-.67-61.87c0-5.19,4.71-9.44,10.65-9.49l34.24-.28c5.94-.05,10.79,4.12,10.85,9.31l.66,61.87C106.78,300.1,102,304.35,96.08,304.4Z" style="fill:#e8a138"/><path d="M61.73,305.18c-6.15,0-11.18-4.38-11.24-9.81l-.67-61.87a9.27,9.27,0,0,1,2.73-6.57A12,12,0,0,1,61,223.5l34.25-.28h.11c6.15,0,11.18,4.38,11.24,9.81l.66,61.87a9.2,9.2,0,0,1-2.73,6.57,11.94,11.94,0,0,1-8.4,3.43v0l-34.25.28Zm33.59-81h-.1L61,224.5a10.88,10.88,0,0,0-7.7,3.13,8.25,8.25,0,0,0-2.45,5.86l.67,61.87c0,4.88,4.64,8.82,10.24,8.82h.1l34.25-.28a11,11,0,0,0,7.7-3.13,8.2,8.2,0,0,0,2.44-5.86L105.56,233C105.51,228.16,100.92,224.22,95.32,224.22Z"/><g style="opacity:0.27"><path d="M96.08,304.4l-34.25.28c-5.93.05-10.79-4.12-10.84-9.32l-.67-61.87c0-5.19,4.71-9.44,10.65-9.49l34.24-.28c5.94-.05,10.79,4.12,10.85,9.31l.66,61.87C106.78,300.1,102,304.35,96.08,304.4Z" style="fill:url(#Unnamed_Pattern)"/><path d="M61.73,305.18c-6.15,0-11.18-4.38-11.24-9.81l-.67-61.87a9.27,9.27,0,0,1,2.73-6.57A12,12,0,0,1,61,223.5l34.25-.28h.11c6.15,0,11.18,4.38,11.24,9.81l.66,61.87a9.2,9.2,0,0,1-2.73,6.57,11.94,11.94,0,0,1-8.4,3.43v0l-34.25.28Zm33.59-81h-.1L61,224.5a10.88,10.88,0,0,0-7.7,3.13,8.25,8.25,0,0,0-2.45,5.86l.67,61.87c0,4.88,4.64,8.82,10.24,8.82h.1l34.25-.28a11,11,0,0,0,7.7-3.13,8.2,8.2,0,0,0,2.44-5.86L105.56,233C105.51,228.16,100.92,224.22,95.32,224.22Z"/></g><path d="M53.13,295l-.65-60.71c-.06-5.1,4.63-9.27,10.46-9.32l33.67-.27a11.71,11.71,0,0,1,4,.65,11.76,11.76,0,0,0-5.69-1.41l-33.67.28c-5.84.05-10.52,4.22-10.47,9.32l.66,60.71c0,3.86,2.79,7.14,6.66,8.48A9,9,0,0,1,53.13,295Z" style="fill:#f3ebe9"/><path d="M66.47,291c-6.15,0-11.18-4.38-11.24-9.81l-.51-47.7a9.19,9.19,0,0,1,2.73-6.57,11.88,11.88,0,0,1,8.41-3.43l24.45-.2h.11c6.15,0,11.18,4.38,11.24,9.81l.52,47.7a9.27,9.27,0,0,1-2.74,6.57,11.94,11.94,0,0,1-8.4,3.43l-24.46.2Zm24-66.71h-.1l-24.46.2a10.9,10.9,0,0,0-7.7,3.13,8.2,8.2,0,0,0-2.44,5.86l.51,47.7c.05,4.91,4.68,8.87,10.34,8.82l24.46-.2a11,11,0,0,0,7.7-3.13,8.28,8.28,0,0,0,2.45-5.86l-.52-47.7C100.61,228.2,96,224.26,90.42,224.26Z"/><path d="M100.14,304.76H56.91a4.91,4.91,0,0,1,4.91-4.91H95.23a4.91,4.91,0,0,1,4.91,4.91Z"/><path d="M100.64,305.26H56.41v-.5a5.42,5.42,0,0,1,5.41-5.41H95.23a5.42,5.42,0,0,1,5.41,5.41Zm-43.2-1H99.61a4.41,4.41,0,0,0-4.38-3.91H61.82A4.41,4.41,0,0,0,57.44,304.26Z"/><path d="M98.74,304a4.81,4.81,0,1,1-6.33-2.48A4.81,4.81,0,0,1,98.74,304Z" style="fill:#e8a138"/><path d="M94.34,311.25a5.3,5.3,0,1,1,2.12-.44A5.32,5.32,0,0,1,94.34,311.25Zm0-9.61a4.22,4.22,0,0,0-1.72.36,4.3,4.3,0,1,0,5.67,2.22h0A4.31,4.31,0,0,0,94.33,301.64Z"/><path d="M96.79,304.87a2.68,2.68,0,1,1-3.52-1.38A2.69,2.69,0,0,1,96.79,304.87Z" style="fill:#f3ebe9"/><path d="M94.34,309.12a3.19,3.19,0,1,1,1.26-.27A3.14,3.14,0,0,1,94.34,309.12Zm0-5.35a2.18,2.18,0,1,0,2,1.3A2.18,2.18,0,0,0,94.33,303.77Z"/><path d="M68.1,304a4.81,4.81,0,1,1-6.33-2.48A4.81,4.81,0,0,1,68.1,304Z" style="fill:#e8a138"/><path d="M63.7,311.25a5.31,5.31,0,1,1,4.86-7.43h0a5.3,5.3,0,0,1-4.86,7.43Zm0-9.61A4.22,4.22,0,0,0,62,302a4.31,4.31,0,1,0,5.67,2.22h0A4.31,4.31,0,0,0,63.69,301.64Z"/><path d="M66.15,304.87a2.68,2.68,0,1,1-3.52-1.38A2.69,2.69,0,0,1,66.15,304.87Z" style="fill:#f3ebe9"/><path d="M63.7,309.12a3.19,3.19,0,1,1,1.27-.27A3.22,3.22,0,0,1,63.7,309.12Zm0-5.35a2.18,2.18,0,1,0,2,1.3A2.18,2.18,0,0,0,63.69,303.77Z"/><path d="M92.64,208.27H64.94a2.77,2.77,0,0,1-2.77-2.76h0a2.77,2.77,0,0,1,2.77-2.77h27.7a2.77,2.77,0,0,1,2.77,2.77h0A2.77,2.77,0,0,1,92.64,208.27Z"/><path d="M92.64,208.77H64.94a3.27,3.27,0,1,1,0-6.53h27.7a3.27,3.27,0,1,1,0,6.53Zm-27.7-5.53a2.27,2.27,0,1,0,0,4.53h27.7a2.27,2.27,0,1,0,0-4.53Z"/><path d="M63.5,282.91h0a1.78,1.78,0,0,1-1.78-1.78V236a1.78,1.78,0,0,1,1.78-1.78h0A1.78,1.78,0,0,1,65.27,236v45.17A1.77,1.77,0,0,1,63.5,282.91Z" style="fill:#f3ebe9"/><path d="M63.5,283.41a2.28,2.28,0,0,1-2.28-2.28V236a2.28,2.28,0,1,1,4.55,0v45.17A2.28,2.28,0,0,1,63.5,283.41Zm0-48.73A1.28,1.28,0,0,0,62.22,236v45.17a1.28,1.28,0,1,0,2.55,0V236A1.28,1.28,0,0,0,63.5,234.68Z"/><path d="M91.66,282.91h0a1.78,1.78,0,0,1-1.78-1.78V236a1.78,1.78,0,0,1,1.78-1.78h0A1.78,1.78,0,0,1,93.44,236v45.17A1.78,1.78,0,0,1,91.66,282.91Z" style="fill:#f3ebe9"/><path d="M91.66,283.41a2.28,2.28,0,0,1-2.28-2.28V236a2.28,2.28,0,0,1,4.56,0v45.17A2.29,2.29,0,0,1,91.66,283.41Zm0-48.73A1.28,1.28,0,0,0,90.38,236v45.17a1.28,1.28,0,0,0,2.56,0V236A1.29,1.29,0,0,0,91.66,234.68Z"/><path d="M78.46,282.91h0a1.77,1.77,0,0,1-1.77-1.78V236a1.78,1.78,0,0,1,1.77-1.78h0A1.78,1.78,0,0,1,80.24,236v45.17A1.78,1.78,0,0,1,78.46,282.91Z" style="fill:#f3ebe9"/><path d="M78.46,283.41a2.28,2.28,0,0,1-2.27-2.28V236a2.28,2.28,0,1,1,4.55,0v45.17A2.28,2.28,0,0,1,78.46,283.41Zm0-48.73A1.28,1.28,0,0,0,77.19,236v45.17a1.28,1.28,0,1,0,2.55,0V236A1.28,1.28,0,0,0,78.46,234.68Z"/><path d="M167.43,289.61l-4.66,0h-5.69l-5.69,0-5.69,0,0,4.9v9.79l0,4.89a1.32,1.32,0,0,0,.11.53,1.17,1.17,0,0,0,.29.44,1.3,1.3,0,0,0,.43.29,1.32,1.32,0,0,0,.53.11l8,0,8,0,8,0,8,0a1.6,1.6,0,0,0,1-.35,1.54,1.54,0,0,0,.36-.4,1.43,1.43,0,0,0,.2-.51,8,8,0,0,0,.19-2,6.31,6.31,0,0,0-.57-2.38,6,6,0,0,0-1.91-2.26,10.48,10.48,0,0,0-3.85-1.65,10.31,10.31,0,0,1-1-.29,10.09,10.09,0,0,1-1-.38,8.37,8.37,0,0,1-1.74-1.07,7.59,7.59,0,0,1-.84-.77,5.42,5.42,0,0,1-.72-.92,4.55,4.55,0,0,1-.5-1.07C168.52,296.13,167.43,289.61,167.43,289.61Z" style="fill:#604de3"/><path d="M179,311.08h0L147,311a1.79,1.79,0,0,1-.72-.15,1.81,1.81,0,0,1-.59-.4,2,2,0,0,1-.4-.59,2,2,0,0,1-.14-.73L145.2,289l22.66.07.07.41c.41,2.48,1.09,6.52,1.18,6.85a4.9,4.9,0,0,0,.45,1,5.51,5.51,0,0,0,.66.84,6.91,6.91,0,0,0,.79.72,7.4,7.4,0,0,0,.79.55c.28.17.56.32.85.46s.6.25.91.36.62.2.94.27a11.08,11.08,0,0,1,4,1.74,6.45,6.45,0,0,1,2.07,2.45,6.61,6.61,0,0,1,.62,2.57,8.8,8.8,0,0,1-.2,2.14,2,2,0,0,1-.74,1.19,1.88,1.88,0,0,1-.62.34A2.06,2.06,0,0,1,179,311.08ZM146.2,290l-.06,19.09a.75.75,0,0,0,.07.33.71.71,0,0,0,.18.27.83.83,0,0,0,.27.19,1,1,0,0,0,.34.07l32,.09a2.38,2.38,0,0,0,.37-.06,1.06,1.06,0,0,0,.33-.18,1,1,0,0,0,.24-.27,1.19,1.19,0,0,0,.15-.35,8.26,8.26,0,0,0,.17-1.89,5.77,5.77,0,0,0-.52-2.18,5.52,5.52,0,0,0-1.76-2.08,10.37,10.37,0,0,0-3.67-1.57,10.84,10.84,0,0,1-2-.7,8.68,8.68,0,0,1-.95-.51,9.4,9.4,0,0,1-.89-.62,8.89,8.89,0,0,1-.9-.81,6.87,6.87,0,0,1-.77-1,4.94,4.94,0,0,1-.56-1.19c-.11-.36-.87-4.9-1.15-6.57Z" style="fill:#010002"/><path d="M171.4,304.43a.48.48,0,0,1-.26-.07.5.5,0,0,1-.17-.69l2-3.21a.5.5,0,1,1,.86.52l-2,3.21A.48.48,0,0,1,171.4,304.43Z" style="fill:#010002"/><path d="M167.92,302.29a.49.49,0,0,1-.4-.8l2.25-3a.51.51,0,0,1,.7-.1.5.5,0,0,1,.09.7l-2.25,3A.47.47,0,0,1,167.92,302.29Z" style="fill:#010002"/><path d="M173.79,301.2a1.27,1.27,0,0,1-.28,0A1.22,1.22,0,0,1,173,301a1.66,1.66,0,0,1-.35-.31,3.43,3.43,0,0,1-.27-.33c-.1-.13-.19-.25-.27-.37s-.16-.24-.23-.36-.14-.24-.2-.36-.13-.24-.19-.36h0c-.08-.18-.17-.36-.24-.54s-.15-.37-.21-.56a4,4,0,0,1-.16-.57c0-.2-.07-.39-.09-.58a2.83,2.83,0,0,1,0-.57,3.09,3.09,0,0,1,.19-.65,1.63,1.63,0,0,1,.47-.61,1.12,1.12,0,0,1,.87-.21,1.72,1.72,0,0,1,1.06.59,2.84,2.84,0,0,1,.54,1,6.48,6.48,0,0,1,.25,1c0,.18.05.34.07.49l0,.22a6.94,6.94,0,0,1,.08.77v0l.23-.23c.2-.2.41-.39.62-.58l.31-.27.35-.26.41-.23a4.68,4.68,0,0,1,.45-.19,3.36,3.36,0,0,1,.5-.12,3.23,3.23,0,0,1,.63,0,1.83,1.83,0,0,1,.68.12,1.29,1.29,0,0,1,.62.47,1,1,0,0,1,.17.63,1.54,1.54,0,0,1-.15.51,2.14,2.14,0,0,1-.23.38,2.33,2.33,0,0,1-.21.27c-.09.11-.19.22-.29.32l-.33.28-.36.24c-.12.08-.25.15-.38.22s-.5.25-.76.36a8.15,8.15,0,0,1-.83.29,7.9,7.9,0,0,1-.87.22,8.91,8.91,0,0,1-.9.16Zm4-3.49a2.33,2.33,0,0,0-.38,0,2.14,2.14,0,0,0-.34.08l-.33.13-.3.18a2.69,2.69,0,0,0-.27.2,3.23,3.23,0,0,0-.27.23l-.58.55a6.67,6.67,0,0,0-.52.55,5.06,5.06,0,0,0-.31.43l.24,0,.79-.2.74-.26a6.9,6.9,0,0,0,.67-.32l.31-.18.29-.2.25-.21a1.45,1.45,0,0,0,.21-.22l.17-.22a1.76,1.76,0,0,0,.14-.23.46.46,0,0,0,0-.15.26.26,0,0,0-.14-.09,1,1,0,0,0-.36-.06Zm-5.41.75.17.33.18.32.2.31a3.46,3.46,0,0,0,.22.31l.18.22c0-.21,0-.41,0-.62a3.64,3.64,0,0,0,0-.66,5.08,5.08,0,0,0-.07-.67l0-.24a4.55,4.55,0,0,0-.07-.45,4.35,4.35,0,0,0-.2-.81,1.82,1.82,0,0,0-.35-.64.7.7,0,0,0-.46-.26.15.15,0,0,0-.12,0,.66.66,0,0,0-.15.23,1.45,1.45,0,0,0-.12.4,1.31,1.31,0,0,0,0,.32,2.36,2.36,0,0,0,.07.44,4.27,4.27,0,0,0,.13.48,4.68,4.68,0,0,0,.18.48c.07.17.14.33.22.49Z" style="fill:#010002"/><path d="M180.53,309.32a1.43,1.43,0,0,1-.2.51,1.54,1.54,0,0,1-.36.4,1.6,1.6,0,0,1-1,.35l-8,0-8,0-8,0-8,0a1.32,1.32,0,0,1-.53-.11,1.3,1.3,0,0,1-.43-.29,1.17,1.17,0,0,1-.29-.44,1.32,1.32,0,0,1-.11-.53V308l8.77,0,8.76,0,8.77,0,8.76,0,0,.31a2.54,2.54,0,0,1,0,.29c0,.1,0,.19,0,.28Z" style="fill:#f8c761"/><path d="M179,311.08h0L147,311a1.79,1.79,0,0,1-.72-.15,1.81,1.81,0,0,1-.59-.4,2,2,0,0,1-.4-.59,2,2,0,0,1-.14-.73v-1.58l36.1.14,0,.54,0,.32c0,.11,0,.22,0,.32s0,.2,0,.29l-.06.28h0a2,2,0,0,1-.74,1.19,1.88,1.88,0,0,1-.62.34A2.06,2.06,0,0,1,179,311.08Zm-32.82-2.53v.58a.75.75,0,0,0,.07.33.71.71,0,0,0,.18.27.83.83,0,0,0,.27.19,1,1,0,0,0,.34.07l32,.09a2.38,2.38,0,0,0,.37-.06,1.06,1.06,0,0,0,.33-.18,1,1,0,0,0,.24-.27,1.19,1.19,0,0,0,.15-.35l.09-.51v0Zm34.39.77h0Z" style="fill:#010002"/><path d="M151.81,300.67h0a2.2,2.2,0,0,0,.28,1.2,2.27,2.27,0,0,0,.81.82,2.25,2.25,0,0,0,1.11.3,2.08,2.08,0,0,0,1.18-.35h0a2.21,2.21,0,0,0,1.18.37,2.15,2.15,0,0,0,1.11-.3,2.13,2.13,0,0,0,1.11-2h0a2.16,2.16,0,0,0,1.21-1.95,2.23,2.23,0,0,0-.29-1.12,2.19,2.19,0,0,0-.89-.84h0a2.18,2.18,0,0,0-.28-1.2,2.25,2.25,0,0,0-1.92-1.13,2.16,2.16,0,0,0-1.18.35h0a2.2,2.2,0,0,0-1.18-.36,2.23,2.23,0,0,0-1.94,1.11,2.21,2.21,0,0,0-.28,1.19h0a2.13,2.13,0,0,0-1.21,1.95,2.26,2.26,0,0,0,.29,1.12A2.19,2.19,0,0,0,151.81,300.67Z" style="fill:#fd9d37"/><path d="M156.4,303.52h0a2.77,2.77,0,0,1-1.17-.29,2.79,2.79,0,0,1-1.18.27,2.65,2.65,0,0,1-1.37-.37,2.68,2.68,0,0,1-1.34-2.17,2.59,2.59,0,0,1-.82-.89,2.67,2.67,0,0,1,.85-3.6,2.75,2.75,0,0,1,.35-1.16,2.69,2.69,0,0,1,1-1,2.56,2.56,0,0,1,1.37-.36,2.5,2.5,0,0,1,1.17.29,2.4,2.4,0,0,1,1.19-.28,2.84,2.84,0,0,1,1.36.38,2.69,2.69,0,0,1,1,1,2.74,2.74,0,0,1,.34,1.16,2.65,2.65,0,0,1,.82.88,2.75,2.75,0,0,1,.36,1.37A2.64,2.64,0,0,1,159.1,301a2.72,2.72,0,0,1-2.7,2.52Zm-.9-1.26a1.89,1.89,0,0,0,.88.26,2.09,2.09,0,0,0,.87-.23,1.73,1.73,0,0,0,.63-.63,1.63,1.63,0,0,0,.22-.92.43.43,0,0,1,.28-.47,1.76,1.76,0,0,0,.7-.65,1.74,1.74,0,0,0,0-1.73,1.58,1.58,0,0,0-.68-.65.5.5,0,0,1-.27-.44,1.68,1.68,0,0,0-.21-1,1.84,1.84,0,0,0-.63-.64,1.89,1.89,0,0,0-.86-.24h0a1.65,1.65,0,0,0-.9.28.67.67,0,0,1-.5,0,1.76,1.76,0,0,0-1-.31,1.56,1.56,0,0,0-.87.23,1.73,1.73,0,0,0-.63.63,1.61,1.61,0,0,0-.22.92.51.51,0,0,1-.28.47,1.72,1.72,0,0,0-.93,1.51,1.74,1.74,0,0,0,.23.87,1.77,1.77,0,0,0,.68.65.5.5,0,0,1,.27.52h0a1.64,1.64,0,0,0,.21.87,1.84,1.84,0,0,0,.63.64,1.71,1.71,0,0,0,.87.23,1.69,1.69,0,0,0,.91-.27h0A.5.5,0,0,1,155.5,302.26Z"/><path d="M153.79,232.54c-.11,2.89-1.25,19.35-1.25,19.35s-7.08,25.21-6.84,37.65l21.73.07,10.78-53.7Z" style="fill:#fb79b7"/><path d="M167.43,290.11h0L145.7,290a.51.51,0,0,1-.5-.49c-.24-12.11,6.49-36.47,6.84-37.74.07-1,1.15-16.52,1.25-19.29a.5.5,0,0,1,.57-.47l24.42,3.36a.5.5,0,0,1,.34.21.49.49,0,0,1,.08.39L167.92,289.7A.49.49,0,0,1,167.43,290.11ZM146.19,289l20.83.06,10.59-52.77-23.34-3.22c-.2,4-1.22,18.66-1.24,18.82a.34.34,0,0,1,0,.1C153,252.28,146.14,276.65,146.19,289Zm6.35-37.15h0Z"/><path d="M154.33,230l26.29,5.88-27,4.37C153.44,239.86,154.29,232.42,154.33,230Z" style="fill:#151414;isolation:isolate;opacity:0.2"/><path d="M126.54,233.73l-.17,3.85s-10.21,29.21-9,52l21.74.07,9.19-34.29a79.85,79.85,0,0,0,3.46-16.91l.55-5.87Z" style="fill:#fb79b7"/><path d="M139.12,290.11h0L117.38,290a.51.51,0,0,1-.5-.47c-1.19-22.05,8.44-50.46,9-52.08l.16-3.78a.49.49,0,0,1,.47-.48L152.3,232a.47.47,0,0,1,.38.16.5.5,0,0,1,.14.39l-.55,5.87a80.94,80.94,0,0,1-3.49,17l-9.18,34.27A.51.51,0,0,1,139.12,290.11ZM117.86,289l20.87.06,9.09-33.91a78.78,78.78,0,0,0,3.45-16.82l.5-5.3L127,234.21l-.15,3.39a.4.4,0,0,1,0,.15C126.74,238,116.82,266.72,117.86,289Zm8.51-51.46h0Z"/><path d="M127.11,235.22l24.92.39-27.36,7.3A59.39,59.39,0,0,0,127.11,235.22Z" style="fill:#151414;isolation:isolate;opacity:0.2"/><path d="M139.12,289.61l-4.66,0h-5.7l-5.69,0-5.69,0v4.9l0,4.89v4.9l0,4.89a1.32,1.32,0,0,0,.11.53,1.46,1.46,0,0,0,.29.44,1.42,1.42,0,0,0,.43.29,1.32,1.32,0,0,0,.53.11l8,0,8,0,8,0,8,0a1.61,1.61,0,0,0,.54-.09,1.66,1.66,0,0,0,.47-.26,1.54,1.54,0,0,0,.36-.4,1.45,1.45,0,0,0,.21-.51,8.06,8.06,0,0,0,.18-2,6.13,6.13,0,0,0-.57-2.38,5.93,5.93,0,0,0-1.91-2.26,10.48,10.48,0,0,0-3.85-1.65,10.31,10.31,0,0,1-1-.29c-.32-.11-.64-.24-1-.38a8.1,8.1,0,0,1-1.75-1.07,8.6,8.6,0,0,1-.84-.77,6,6,0,0,1-.72-.92,4.55,4.55,0,0,1-.5-1.07C140.2,296.13,139.12,289.61,139.12,289.61Z" style="fill:#604de3"/><path d="M150.65,311.08h0l-32-.09a1.8,1.8,0,0,1-.73-.15,1.93,1.93,0,0,1-.59-.4,1.79,1.79,0,0,1-.39-.59,1.83,1.83,0,0,1-.15-.73l.06-20.08,22.66.07.07.41c.41,2.48,1.09,6.52,1.19,6.85a4,4,0,0,0,.45,1,5.51,5.51,0,0,0,.66.84,6.79,6.79,0,0,0,.78.72,8.57,8.57,0,0,0,.79.55,8.84,8.84,0,0,0,.86.46q.43.19.9.36c.31.1.63.2.94.27a11.21,11.21,0,0,1,4,1.74,6.42,6.42,0,0,1,2.06,2.45,6.61,6.61,0,0,1,.62,2.57,8.78,8.78,0,0,1-.19,2.14,2.21,2.21,0,0,1-.28.67,1.79,1.79,0,0,1-.47.52,1.84,1.84,0,0,1-.61.34A2.1,2.1,0,0,1,150.65,311.08Zm-32.77-21-.06,19.09a.93.93,0,0,0,.07.33.71.71,0,0,0,.18.27.77.77,0,0,0,.28.19.88.88,0,0,0,.33.07l32,.09A2.58,2.58,0,0,0,151,310a1,1,0,0,0,.33-.18,1.27,1.27,0,0,0,.25-.27,1.51,1.51,0,0,0,.14-.35,7.27,7.27,0,0,0,.17-1.89,5.59,5.59,0,0,0-.52-2.18,5.52,5.52,0,0,0-1.76-2.08A10.29,10.29,0,0,0,146,301.5a9.32,9.32,0,0,1-1-.3,8.68,8.68,0,0,1-1-.4,8.82,8.82,0,0,1-1-.51,9.4,9.4,0,0,1-.89-.62,7.8,7.8,0,0,1-.89-.81,6.32,6.32,0,0,1-.78-1,5.36,5.36,0,0,1-.56-1.19c-.11-.36-.87-4.9-1.15-6.57Z" style="fill:#010002"/><path d="M143.08,304.43a.48.48,0,0,1-.26-.07.5.5,0,0,1-.17-.69l2-3.21a.49.49,0,0,1,.68-.17.5.5,0,0,1,.17.69l-2,3.21A.5.5,0,0,1,143.08,304.43Z" style="fill:#010002"/><path d="M139.6,302.29a.47.47,0,0,1-.3-.1.5.5,0,0,1-.1-.7l2.25-3a.5.5,0,0,1,.8.6l-2.25,3A.51.51,0,0,1,139.6,302.29Z" style="fill:#010002"/><path d="M145.47,301.2a1.36,1.36,0,0,1-.77-.21,2,2,0,0,1-.35-.31l-.27-.33-.27-.37-.23-.36-.2-.36-.18-.36h0c-.09-.18-.17-.36-.25-.54s-.15-.37-.21-.56-.12-.38-.16-.57-.07-.39-.09-.58a2.28,2.28,0,0,1,0-.57,2.59,2.59,0,0,1,.19-.65,1.61,1.61,0,0,1,.46-.61,1.12,1.12,0,0,1,.87-.21,1.72,1.72,0,0,1,1.06.59,2.85,2.85,0,0,1,.55,1,6.55,6.55,0,0,1,.24,1c0,.18.06.34.08.49l0,.22c0,.26.07.52.09.77v0l.23-.23.61-.58.31-.27c.12-.09.23-.18.36-.26s.26-.16.4-.23a4.68,4.68,0,0,1,.45-.19,3.69,3.69,0,0,1,.5-.12,3.28,3.28,0,0,1,.63,0,1.83,1.83,0,0,1,.68.12,1.24,1.24,0,0,1,.62.47.94.94,0,0,1,.17.63,1.33,1.33,0,0,1-.15.51,2.88,2.88,0,0,1-.22.38l-.21.27a3,3,0,0,1-.3.32c-.1.1-.22.19-.33.28l-.36.24-.37.22c-.25.13-.5.25-.77.36a7.39,7.39,0,0,1-.83.29,7.9,7.9,0,0,1-.87.22,8.44,8.44,0,0,1-.9.16Zm4-3.49a2.1,2.1,0,0,0-.37,0,2,2,0,0,0-.35.08l-.32.13-.3.18a2.83,2.83,0,0,0-.28.2l-.27.23-.58.55c-.18.18-.36.36-.52.55a5.06,5.06,0,0,0-.31.43l.25,0,.79-.2.73-.26a6.9,6.9,0,0,0,.67-.32l.32-.18a2.83,2.83,0,0,0,.28-.2l.25-.21a1.45,1.45,0,0,0,.21-.22l.17-.22A1.76,1.76,0,0,0,150,298a.46.46,0,0,0,.05-.15.26.26,0,0,0-.14-.09.93.93,0,0,0-.36-.06Zm-5.64-2.12a.15.15,0,0,0-.07,0,.53.53,0,0,0-.16.23,1.9,1.9,0,0,0-.12.4,2.14,2.14,0,0,0,0,.32,3.64,3.64,0,0,0,.07.44,4.27,4.27,0,0,0,.13.48c.05.16.12.32.18.48s.15.33.23.49h0c.05.11.1.22.16.33l.18.32.2.31c.07.11.15.21.22.31l.18.22c0-.21.05-.41.06-.62s0-.44,0-.66A5.1,5.1,0,0,0,145,298l0-.24c0-.13,0-.29-.07-.45a5.22,5.22,0,0,0-.21-.81,1.82,1.82,0,0,0-.34-.64.75.75,0,0,0-.47-.26Z" style="fill:#010002"/><path d="M152.22,309.32a1.45,1.45,0,0,1-.21.51,1.54,1.54,0,0,1-.36.4,1.66,1.66,0,0,1-.47.26,1.61,1.61,0,0,1-.54.09l-8,0-8,0-8,0-8,0a1.32,1.32,0,0,1-.53-.11,1.42,1.42,0,0,1-.43-.29,1.46,1.46,0,0,1-.29-.44,1.32,1.32,0,0,1-.11-.53V308l8.76,0,8.77,0,8.76,0,8.76,0a1.63,1.63,0,0,1,0,.31l0,.29c0,.1,0,.19,0,.28S152.24,309.24,152.22,309.32Z" style="fill:#f8c761"/><path d="M150.65,311.08h0l-32-.09a1.8,1.8,0,0,1-.73-.15,1.93,1.93,0,0,1-.59-.4,1.79,1.79,0,0,1-.39-.59,1.83,1.83,0,0,1-.15-.73v-1.58l36.09.14,0,.54,0,.32a3.11,3.11,0,0,1,0,.32,2.5,2.5,0,0,1-.05.29c0,.1,0,.19,0,.28h0a2.21,2.21,0,0,1-.28.67,1.79,1.79,0,0,1-.47.52,1.84,1.84,0,0,1-.61.34A2.1,2.1,0,0,1,150.65,311.08Zm-32.82-2.53v.58a.93.93,0,0,0,.07.33.71.71,0,0,0,.18.27.77.77,0,0,0,.28.19.88.88,0,0,0,.33.07l32,.09A2.58,2.58,0,0,0,151,310a1,1,0,0,0,.33-.18,1.27,1.27,0,0,0,.25-.27,1.51,1.51,0,0,0,.14-.35l.09-.51v0Zm34.39.77h0Z" style="fill:#010002"/><path d="M123.5,300.67h0a2.19,2.19,0,0,0,.27,1.2A2.21,2.21,0,0,0,125.7,303a2.12,2.12,0,0,0,1.18-.35h0a2.21,2.21,0,0,0,1.18.37,2.19,2.19,0,0,0,1.12-.3,2.27,2.27,0,0,0,.82-.81,2.15,2.15,0,0,0,.29-1.19h0a2.1,2.1,0,0,0,.9-.84,2.18,2.18,0,0,0,.3-1.11,2.15,2.15,0,0,0-1.18-2h0a2.26,2.26,0,0,0-.27-1.2,2.3,2.3,0,0,0-.82-.82,2.23,2.23,0,0,0-1.11-.31,2.18,2.18,0,0,0-1.18.35h0a2.17,2.17,0,0,0-1.17-.36,2.28,2.28,0,0,0-1.12.29,2.22,2.22,0,0,0-.82.82,2.13,2.13,0,0,0-.29,1.19h0a2.14,2.14,0,0,0-.9.83,2.22,2.22,0,0,0-.31,1.12,2.27,2.27,0,0,0,.3,1.12A2.07,2.07,0,0,0,123.5,300.67Z" style="fill:#fd9d37"/><path d="M128.09,303.52h0a2.84,2.84,0,0,1-1.17-.29,2.73,2.73,0,0,1-1.18.27h0a2.73,2.73,0,0,1-2.37-1.38A2.73,2.73,0,0,1,123,301a2.62,2.62,0,0,1-.83-.89,2.7,2.7,0,0,1,0-2.73,2.56,2.56,0,0,1,.83-.87,2.75,2.75,0,0,1,.35-1.16,2.69,2.69,0,0,1,1-1,2.67,2.67,0,0,1,2.55-.07,2.47,2.47,0,0,1,1.18-.28,2.88,2.88,0,0,1,1.37.38,2.67,2.67,0,0,1,1,1,2.6,2.6,0,0,1,.34,1.16,2.79,2.79,0,0,1,.83.88,2.74,2.74,0,0,1,.35,1.37,2.71,2.71,0,0,1-.37,1.37,2.59,2.59,0,0,1-.84.87,2.49,2.49,0,0,1-.35,1.16,2.74,2.74,0,0,1-1,1A2.8,2.8,0,0,1,128.09,303.52Zm-.91-1.26a1.92,1.92,0,0,0,.88.26,2.13,2.13,0,0,0,.87-.23,1.68,1.68,0,0,0,.64-.63,1.72,1.72,0,0,0,.22-.92.5.5,0,0,1,.27-.47,1.69,1.69,0,0,0,.7-.65,1.73,1.73,0,0,0,.23-.86,1.64,1.64,0,0,0-.22-.87,1.61,1.61,0,0,0-.69-.65.5.5,0,0,1-.27-.44,1.68,1.68,0,0,0-.21-1,1.76,1.76,0,0,0-.63-.64,1.85,1.85,0,0,0-.86-.24h0a1.65,1.65,0,0,0-.9.28.67.67,0,0,1-.5,0,1.76,1.76,0,0,0-1-.31,1.55,1.55,0,0,0-.86.23,1.68,1.68,0,0,0-.64.63,1.61,1.61,0,0,0-.22.92.5.5,0,0,1-.27.47,1.63,1.63,0,0,0-.7.65,1.71,1.71,0,0,0-.24.86,1.68,1.68,0,0,0,.92,1.52.49.49,0,0,1,.26.52h0a1.66,1.66,0,0,0,.22.87,1.68,1.68,0,0,0,.63.64,1.73,1.73,0,0,0,.86.23,2,2,0,0,0,.91-.27h0A.5.5,0,0,1,127.18,302.26Z"/><path d="M122.81,230.25c2.69-22.48,5.22-32.57,10.52-42.48,1-2,2.3-4.16,3.57-6.17l35.76.24s1,2.17,2.36,5.91c3.27,9.29,8.58,28.38,5.94,49a1.9,1.9,0,0,1-1.9,1.65h0a37.43,37.43,0,0,0-20.56-3.68l-34.85,3.68a1.89,1.89,0,0,1-1.85-2.34A49.86,49.86,0,0,0,122.81,230.25Z" style="fill:#f3ebe9"/><path d="M179.06,238.91a.44.44,0,0,1-.22,0,36.82,36.82,0,0,0-20.28-3.64l-34.86,3.69h0a2.4,2.4,0,0,1-2.38-3,48.68,48.68,0,0,0,1-5.75h0c2.67-22.3,5.24-32.67,10.58-42.65,1.12-2.11,2.4-4.31,3.59-6.21a.68.68,0,0,1,.43-.23l35.76.24a.48.48,0,0,1,.44.29c0,.09,1.06,2.23,2.38,6,3.36,9.54,8.61,28.61,6,49.24A2.42,2.42,0,0,1,179.06,238.91Zm-55.76-8.6a48.34,48.34,0,0,1-1,5.87,1.41,1.41,0,0,0,1.37,1.73l34.8-3.68a37.82,37.82,0,0,1,20.72,3.68,1.41,1.41,0,0,0,1.29-1.21c2.62-20.43-2.58-39.33-5.92-48.78-1-2.91-1.88-4.88-2.2-5.58l-35.16-.24c-1.14,1.82-2.34,3.91-3.41,5.91C128.5,197.87,126,208.15,123.3,230.31Z" style="fill:#231e22"/><path d="M122.81,230.25c2.69-22.48,5.22-32.57,10.52-42.48,1-2,2.3-4.16,3.57-6.17l35.76.24s1,2.17,2.36,5.91c3.27,9.29,8.58,28.38,5.94,49a1.9,1.9,0,0,1-1.9,1.65h0a37.43,37.43,0,0,0-20.56-3.68l-34.85,3.68a1.89,1.89,0,0,1-1.85-2.34A49.86,49.86,0,0,0,122.81,230.25Z" style="fill:url(#Unnamed_Pattern_7)"/><path d="M179.06,238.91a.44.44,0,0,1-.22,0,36.82,36.82,0,0,0-20.28-3.64l-34.86,3.69h0a2.4,2.4,0,0,1-2.38-3,48.68,48.68,0,0,0,1-5.75h0c2.67-22.3,5.24-32.67,10.58-42.65,1.12-2.11,2.4-4.31,3.59-6.21a.68.68,0,0,1,.43-.23l35.76.24a.48.48,0,0,1,.44.29c0,.09,1.06,2.23,2.38,6,3.36,9.54,8.61,28.61,6,49.24A2.42,2.42,0,0,1,179.06,238.91Zm-55.76-8.6a48.34,48.34,0,0,1-1,5.87,1.41,1.41,0,0,0,1.37,1.73l34.8-3.68a37.82,37.82,0,0,1,20.72,3.68,1.41,1.41,0,0,0,1.29-1.21c2.62-20.43-2.58-39.33-5.92-48.78-1-2.91-1.88-4.88-2.2-5.58l-35.16-.24c-1.14,1.82-2.34,3.91-3.41,5.91C128.5,197.87,126,208.15,123.3,230.31Z"/><path d="M159.94,229.18l-37.55,4c-.17,1-.37,1.95-.59,2.92a1.89,1.89,0,0,0,1.85,2.34l34.85-3.68a37.43,37.43,0,0,1,20.56,3.68,1.9,1.9,0,0,0,1.9-1.65c.2-1.55.35-3.1.46-4.63A45.34,45.34,0,0,0,159.94,229.18Z"/><path d="M179.06,238.91a.44.44,0,0,1-.22,0,36.82,36.82,0,0,0-20.28-3.64l-34.86,3.69h0a2.4,2.4,0,0,1-2.38-3c.22-.94.42-1.91.59-2.88a.5.5,0,0,1,.44-.41l37.55-4a45.88,45.88,0,0,1,21.71,3,.5.5,0,0,1,.32.5c-.12,1.65-.27,3.17-.46,4.65A2.42,2.42,0,0,1,179.06,238.91Zm-56.24-5.3c-.16.87-.34,1.73-.54,2.57a1.41,1.41,0,0,0,1.37,1.73l34.8-3.68a37.82,37.82,0,0,1,20.72,3.68,1.4,1.4,0,0,0,1.29-1.21c.18-1.36.32-2.75.43-4.24a45,45,0,0,0-20.9-2.78l-.05-.5.05.5Z"/><path d="M170,123.75a13.55,13.55,0,0,0-13.54-13.55,13.7,13.7,0,0,0-2.23.2,6.19,6.19,0,1,0-6.71,3.19,13.49,13.49,0,0,0-2.34,2.66,15.48,15.48,0,0,0-2.16-.1,14.77,14.77,0,0,0-14.25,13.9A14.77,14.77,0,1,0,146,145.45a14.68,14.68,0,0,0,8.29-4.46,14.91,14.91,0,0,0,2.53-3.72A13.53,13.53,0,0,0,170,123.75Z"/><path d="M133.66,136.39a3.61,3.61,0,0,1-1.49-.34,5.87,5.87,0,0,1-2.11-1.64,7.53,7.53,0,0,1-1.19-2,8,8,0,0,1-.56-2.3l0-.48.48-.06a11,11,0,0,1,3.51,0,5.67,5.67,0,0,1,3.15,1.64,3.73,3.73,0,0,1,.84,1.43,3,3,0,0,1,.1,1.56,2.81,2.81,0,0,1-.55,1.14,2.74,2.74,0,0,1-1,.77A2.68,2.68,0,0,1,133.66,136.39Zm-4.29-5.9a7,7,0,0,0,.42,1.53,7.17,7.17,0,0,0,1,1.76,5.13,5.13,0,0,0,1.75,1.36,2.24,2.24,0,0,0,1.81.09,1.76,1.76,0,0,0,.63-.49,1.93,1.93,0,0,0,.35-.72,2,2,0,0,0-.07-1.05,2.77,2.77,0,0,0-.62-1,4.66,4.66,0,0,0-2.61-1.35A9.14,9.14,0,0,0,129.37,130.49Z" style="fill:#f3ebe9"/><path d="M170.58,126.34l-.81-4.44a9,9,0,0,0-5.3-6.67,11.1,11.1,0,0,1-1.95,3,12.38,12.38,0,0,1-4.86,3.67,1.7,1.7,0,0,0-.64.36l.45,2.82a2.58,2.58,0,0,1-.95,2.34,4.24,4.24,0,0,0-5-3.1,4.25,4.25,0,0,0,1.25,8.38l.05,6a5.73,5.73,0,0,0,5.77,5.68h0a5.72,5.72,0,0,0,5.68-5.77v-2.08A9,9,0,0,0,170.58,126.34Z" style="fill:#fb79b7"/><path d="M158.54,144.93a6.23,6.23,0,0,1-6.23-6.18l0-5.5a4.75,4.75,0,0,1-4.56-4.1,4.81,4.81,0,0,1,3.69-5.28,4.72,4.72,0,0,1,5.3,2.61,1.85,1.85,0,0,0,.28-1.27l-.45-2.83a.5.5,0,0,1,.12-.41,2.08,2.08,0,0,1,.83-.5,11.64,11.64,0,0,0,4.66-3.53A10.49,10.49,0,0,0,164,115a.51.51,0,0,1,.66-.27,9.51,9.51,0,0,1,5.61,7l.8,4.44a9.48,9.48,0,0,1-6.32,10.7v1.71a6.23,6.23,0,0,1-6.18,6.27Zm-5.78-12.69a.47.47,0,0,1,.34.13.48.48,0,0,1,.16.36l.05,6a5.23,5.23,0,1,0,10.45-.08v-2.07a.5.5,0,0,1,.36-.49,8.49,8.49,0,0,0,6-9.67h0l-.81-4.44a8.5,8.5,0,0,0-4.56-6.09,12.39,12.39,0,0,1-1.83,2.7,12.66,12.66,0,0,1-5.06,3.81,1.29,1.29,0,0,0-.26.12L158,125a3.05,3.05,0,0,1-1.12,2.79.51.51,0,0,1-.82-.25,3.73,3.73,0,0,0-4.42-2.73A3.8,3.8,0,0,0,148.7,129a3.76,3.76,0,0,0,4,3.23Z"/><path d="M157.78,135.6c2,3.15,6.46,3.76,6.46,3.76l0-3.21a9.24,9.24,0,0,1-.91.21A8.87,8.87,0,0,1,157.78,135.6Z"/><path d="M164.05,125.74a.64.64,0,0,1-.66.61.64.64,0,0,1,.05-1.27A.64.64,0,0,1,164.05,125.74Z"/><path d="M161.34,123.36a.5.5,0,0,1-.41-.79,2.72,2.72,0,0,1,2.51-1.1.5.5,0,0,1,.41.58.49.49,0,0,1-.57.41,1.72,1.72,0,0,0-1.54.69A.49.49,0,0,1,161.34,123.36Z"/><path d="M165.35,131.3h0c-2.15-.16-2.69-1.45-2.68-2.11a.49.49,0,0,1,.5-.49h0a.5.5,0,0,1,.49.5c0,.1.08,1,1.76,1.11a.5.5,0,0,1,.46.53A.49.49,0,0,1,165.35,131.3Z"/><path d="M168.37,122.41a1.68,1.68,0,0,1-.94-.27.49.49,0,0,1-.16-.69.5.5,0,0,1,.69-.15,1,1,0,0,0,1,0,.5.5,0,0,1,.69.17.49.49,0,0,1-.17.68A2.27,2.27,0,0,1,168.37,122.41Z"/><path d="M169.5,124.53a.58.58,0,0,1-.59.55.57.57,0,0,1,0-1.14A.58.58,0,0,1,169.5,124.53Z"/><path d="M166.08,123.59l.18,1.62a1.12,1.12,0,0,0,1.24,1h0a.56.56,0,0,1,.62.5h0a1.83,1.83,0,0,1-1.62,2l-.66.07" style="fill:#fb79b7"/><path d="M165.84,129.29a.49.49,0,0,1-.49-.44.51.51,0,0,1,.44-.56l.66-.07a1.3,1.3,0,0,0,.89-.48,1.32,1.32,0,0,0,.28-1,2,2,0,0,1-1.26-.4,1.64,1.64,0,0,1-.6-1.1l-.18-1.62a.5.5,0,0,1,.45-.55.5.5,0,0,1,.55.44l.17,1.63a.63.63,0,0,0,.7.55,1.07,1.07,0,0,1,1.17,1,2.33,2.33,0,0,1-2.06,2.56l-.66.07Z"/><path d="M151.77,130.42a.53.53,0,0,1-.34-.13.5.5,0,0,1,0-.71l.53-.58-1-.69a.5.5,0,1,1,.55-.83l1.53,1a.51.51,0,0,1,.22.36.5.5,0,0,1-.13.39l-.92,1A.51.51,0,0,1,151.77,130.42Z"/><path d="M151.59,136.1a2.76,2.76,0,1,1,2.75-2.76A2.77,2.77,0,0,1,151.59,136.1Zm0-4.51a1.76,1.76,0,1,0,1.75,1.75A1.75,1.75,0,0,0,151.59,131.59Z" style="fill:#f3ebe9"/><path d="M223.34,153.56a4.14,4.14,0,0,1-3,.59s0,0,0,0-1.63,1.92-3.33,3.76l-8.71-11a70.29,70.29,0,0,1,12.37-8.12c6.75-3.54,10.51-5,11.45-4.55a.45.45,0,0,1,.26.38c.3,1.77-5.31,5.06-7.7,6.42,2.35-1.34,6.09,6.37,5.25,8.31C229.19,151.08,224.76,152.82,223.34,153.56Z" style="fill:#fb79b7"/><path d="M217,158.42h0a.47.47,0,0,1-.38-.19l-8.7-11a.49.49,0,0,1,.07-.69,70.54,70.54,0,0,1,12.46-8.19c9.07-4.75,11.11-5,11.91-4.54a.92.92,0,0,1,.53.76c.23,1.37-1.81,3.28-6.58,6.11a4.42,4.42,0,0,1,.74.54c2,1.77,4.12,6.55,3.35,8.34-.7,1.53-3.72,2.94-5.72,3.88-.46.21-.85.39-1.13.54a5,5,0,0,1-3,.69c-.47.55-1.72,2-3.17,3.56A.5.5,0,0,1,217,158.42ZM209,147l8,10.12c1.44-1.57,2.63-3,2.88-3.25a.18.18,0,0,1,.05-.07.53.53,0,0,1,.56-.16,3.71,3.71,0,0,0,2.56-.55h0c.29-.15.69-.34,1.17-.56,1.63-.76,4.68-2.19,5.23-3.38s-1.22-5.49-3.11-7.18c-.59-.53-1.07-.7-1.44-.49h0a.49.49,0,1,1-.49-.86h0c7.15-4.08,7.52-5.56,7.46-5.91-.35-.19-2.12-.12-11,4.53A69.17,69.17,0,0,0,209,147Z"/><path d="M230.18,146.42a1.73,1.73,0,0,1,.41,2.43,13.81,13.81,0,0,1-1.26,2.09c-.44.6-.91,1.35-1.66,1.59a1.46,1.46,0,0,1-1.17-.15,1.43,1.43,0,0,1-.66-1.4,6.13,6.13,0,0,1,1.52-3.24,4.28,4.28,0,0,1,2-1.35A1.11,1.11,0,0,1,230.18,146.42Z" style="fill:#fb79b7"/><path d="M227.26,153.09a2,2,0,0,1-1-.28,1.93,1.93,0,0,1-.9-1.87,6.54,6.54,0,0,1,1.65-3.53,4.65,4.65,0,0,1,2.25-1.5,1.58,1.58,0,0,1,1.19.08h0a2.22,2.22,0,0,1,.61,3.08,14.84,14.84,0,0,1-1.31,2.17l-.16.22a3.68,3.68,0,0,1-1.75,1.54A1.77,1.77,0,0,1,227.26,153.09Zm2.53-6.26a1.52,1.52,0,0,0-.31,0,3.8,3.8,0,0,0-1.74,1.2,5.5,5.5,0,0,0-1.4,3,.92.92,0,0,0,1.19,1,2.94,2.94,0,0,0,1.23-1.18l.16-.23a13.22,13.22,0,0,0,1.22-2c.59-1.18-.07-1.68-.22-1.78A.27.27,0,0,0,229.79,146.83Z"/><path d="M229.33,143.05s1.9.74,1.36,2.12-2.68,4-4,4.17-2-.54-1.95-2.29S229.33,143.05,229.33,143.05Z" style="fill:#fb79b7"/><path d="M226.34,149.87a1.81,1.81,0,0,1-1.26-.44,3,3,0,0,1-.8-2.38c0-2,4-4.05,4.83-4.45a.53.53,0,0,1,.41,0,3.19,3.19,0,0,1,1.62,1.43,1.73,1.73,0,0,1,0,1.34c-.55,1.39-2.76,4.23-4.35,4.48A2.56,2.56,0,0,1,226.34,149.87Zm3-6.27c-1.76.91-4.06,2.51-4.07,3.46a2.13,2.13,0,0,0,.45,1.62,1.12,1.12,0,0,0,.93.17c1-.16,3-2.51,3.56-3.86C230.5,144.29,229.72,143.8,229.35,143.6Z"/><path d="M227.47,139.8a1.3,1.3,0,0,0-.6.46c-.66.86-2.75,3.69-3,4.78-.26,1.3-.64,2.36.49,2.65s4.33-2.45,5.31-4.48a2.33,2.33,0,0,0,.27-.88C230.11,140.5,228.84,139.29,227.47,139.8Z" style="fill:#fb79b7"/><path d="M224.51,148.21a1,1,0,0,1-.25,0c-1.47-.38-1.17-1.74-.94-2.83l.09-.41c.23-1.12,2-3.61,3.06-5a1.81,1.81,0,0,1,.83-.62h0a2.15,2.15,0,0,1,2.09.29,3.09,3.09,0,0,1,1.08,2.74,2.92,2.92,0,0,1-.32,1.07C229.21,145.38,226,148.2,224.51,148.21Zm3.59-8a1.42,1.42,0,0,0-.45.08h0a.94.94,0,0,0-.39.3,19.23,19.23,0,0,0-2.87,4.58l-.09.43c-.3,1.36-.23,1.52.21,1.64.64.09,3.79-2.25,4.74-4.22a1.74,1.74,0,0,0,.22-.7,2.08,2.08,0,0,0-.68-1.87A1.11,1.11,0,0,0,228.1,140.18Zm-.63-.38h0Z"/><path d="M217.52,141s10-2.41,9.69,1.42c-.23,2.48-6.4,2.76-6.4,2.76s1.14,3.7-4.1,5.71" style="fill:#fb79b7"/><path d="M216.71,151.34a.5.5,0,0,1-.18-1c4.71-1.8,3.84-5,3.8-5.09a.5.5,0,0,1,.45-.64c1.49-.07,5.78-.65,5.93-2.32a1,1,0,0,0-.35-.95c-1.5-1.3-6.81-.39-8.73.07a.5.5,0,1,1-.23-1c.76-.18,7.46-1.72,9.61.15a2,2,0,0,1,.69,1.8c-.21,2.43-4.66,3-6.32,3.18.11,1.23-.18,4.05-4.49,5.7A.39.39,0,0,1,216.71,151.34Z"/><path d="M152,139.29,168.6,139a25.13,25.13,0,0,1,12.7,2.82c6.35,3.38,14.44,11.82,14.44,11.82s6.25-4.66,11.54-8.15l10.34,12.9c-3.79,3.72-11.88,11.09-18.56,15a15.08,15.08,0,0,1-14.57.62A27.49,27.49,0,0,1,174,163.6l-1.29,18.24-48-.24,15.23-39.36C144.77,138.71,152,139.29,152,139.29Z" style="fill:#604de3"/><path d="M172.66,182.34h0l-48-.24a.48.48,0,0,1-.41-.22.5.5,0,0,1,0-.46l15.22-39.36a.46.46,0,0,1,.17-.22c4.86-3.53,11.82-3.09,12.37-3.06l16.61-.25a25.31,25.31,0,0,1,12.95,2.88c5.72,3.05,12.69,10,14.25,11.59,1.4-1,6.69-4.91,11.21-7.9a.51.51,0,0,1,.67.11L218,158.11a.48.48,0,0,1,0,.67c-1.74,1.71-10.86,10.5-18.66,15.11a15.48,15.48,0,0,1-15.05.64,27.31,27.31,0,0,1-9.92-9.3l-1.18,16.65A.49.49,0,0,1,172.66,182.34Zm-47.25-1.24,46.79.24,1.25-17.77a.5.5,0,0,1,1-.2c0,.07,3.63,6.84,10.32,10.27A14.5,14.5,0,0,0,198.8,173c7.31-4.32,15.82-12.38,18.15-14.65l-9.78-12.19C202,149.6,196.09,154,196,154.07a.5.5,0,0,1-.66-.06c-.08-.08-8.1-8.42-14.3-11.72a24.61,24.61,0,0,0-12.42-2.76l-16.68.26h-.05c-.07,0-6.95-.5-11.6,2.78Z"/><path d="M152,139.29,168.6,139a25.13,25.13,0,0,1,12.7,2.82c6.35,3.38,14.44,11.82,14.44,11.82s6.25-4.66,11.54-8.15l10.34,12.9c-3.86,3.79-12.21,11.38-19,15.27a14.67,14.67,0,0,1-13.52.71C177.81,171,174,163.6,174,163.6l-1.29,18.24-48-.24,15.23-39.36C144.77,138.71,152,139.29,152,139.29Z" style="fill:url(#Unnamed_Pattern_3)"/><path d="M173.13,182.34,124,182.1l15.54-40.17.12-.09c4.86-3.53,11.82-3.09,12.37-3.06l16.61-.25a25.31,25.31,0,0,1,12.95,2.88c5.72,3.05,12.69,10,14.25,11.59,1.4-1,6.69-4.91,11.21-7.9l.38-.25,10.92,13.61-.33.32c-1.8,1.77-11.19,10.82-19.06,15.35a15.19,15.19,0,0,1-14,.73,26.87,26.87,0,0,1-10.59-9.63Zm-47.72-1.24,46.79.24,1.38-19.53.82,1.56c0,.07,3.86,7.26,10.95,10.58a14.17,14.17,0,0,0,13.06-.69C204.3,169.87,212,163.2,217,158.38l-9.78-12.19C202,149.6,196.09,154,196,154.07l-.35.26-.31-.32c-.08-.08-8.1-8.42-14.3-11.72a24.61,24.61,0,0,0-12.42-2.76l-16.71.26h0c-.07,0-6.95-.5-11.6,2.78Z"/><path d="M174,164.1a.5.5,0,0,1-.5-.5v-4.94a.51.51,0,0,1,.5-.5.5.5,0,0,1,.5.5v4.94A.5.5,0,0,1,174,164.1Z"/><path d="M206.86,143.85l-1.33,1.05a.73.73,0,0,0-.13,1l11.3,14.53a.74.74,0,0,0,1.12,0l1.46-1.6a.73.73,0,0,0,0-.95l-11.42-14A.74.74,0,0,0,206.86,143.85Z" style="fill:#8380ff"/><path d="M217.28,161.23h-.05a1.24,1.24,0,0,1-.92-.48L205,146.23a1.24,1.24,0,0,1,.21-1.73l1.34-1a1.24,1.24,0,0,1,1.71.19l11.42,14a1.24,1.24,0,0,1,0,1.61l-1.46,1.6A1.27,1.27,0,0,1,217.28,161.23Zm-10.11-17-1.33,1a.23.23,0,0,0,0,.32l11.3,14.53a.22.22,0,0,0,.17.09.21.21,0,0,0,.18-.08l1.46-1.6a.24.24,0,0,0,0-.3l-11.43-14A.23.23,0,0,0,207.17,144.25Z"/><path d="M193.2,156a.49.49,0,0,1-.41-.21.51.51,0,0,1,.11-.7l2.54-1.84a.5.5,0,0,1,.59.81l-2.54,1.84A.46.46,0,0,1,193.2,156Z"/><path d="M151.81,137.48h13a.8.8,0,0,1,.81.8V139a.81.81,0,0,1-.73.8h0a.81.81,0,0,0-.73.81l.74,40.2a.8.8,0,0,1-.8.82h-9.95a.8.8,0,0,1-.8-.79l-.81-40a.81.81,0,0,0-.8-.79h-.17a.79.79,0,0,1-.78-1l.2-.94A.8.8,0,0,1,151.81,137.48Z" style="fill:#817ffe"/><path d="M164.13,182.1h-9.95a1.31,1.31,0,0,1-1.3-1.28l-.81-40a.31.31,0,0,0-.31-.3h-.16a1.29,1.29,0,0,1-1-.48,1.28,1.28,0,0,1-.25-1.1l.2-.94a1.31,1.31,0,0,1,1.28-1h13a1.31,1.31,0,0,1,1.31,1.3V139a1.31,1.31,0,0,1-1.18,1.3.3.3,0,0,0-.28.3l.74,40.2a1.27,1.27,0,0,1-.37.94A1.31,1.31,0,0,1,164.13,182.1ZM151.81,138a.29.29,0,0,0-.3.24l-.21.93a.34.34,0,0,0,.06.26.32.32,0,0,0,.24.11h.16a1.32,1.32,0,0,1,1.31,1.28l.81,40a.29.29,0,0,0,.3.3h9.95a.31.31,0,0,0,.22-.09.27.27,0,0,0,.08-.22l-.74-40.2a1.32,1.32,0,0,1,1.18-1.32.3.3,0,0,0,.28-.3v-.69a.3.3,0,0,0-.31-.3Z" style="fill:#231e22"/><path d="M151.81,137.48h13a.8.8,0,0,1,.81.8V139a.81.81,0,0,1-.73.8h0a.81.81,0,0,0-.73.81l.74,40.2a.8.8,0,0,1-.8.82h-9.95a.8.8,0,0,1-.8-.79l-.81-40a.81.81,0,0,0-.8-.79h-.17a.79.79,0,0,1-.78-1l.2-.94A.8.8,0,0,1,151.81,137.48Z" style="fill:url(#Unnamed_Pattern_5)"/><path d="M164.13,182.1h-9.95a1.31,1.31,0,0,1-1.3-1.28l-.81-40a.31.31,0,0,0-.31-.3h-.16a1.29,1.29,0,0,1-1-.48,1.28,1.28,0,0,1-.25-1.1l.2-.94a1.31,1.31,0,0,1,1.28-1h13a1.31,1.31,0,0,1,1.31,1.3V139a1.31,1.31,0,0,1-1.18,1.3.3.3,0,0,0-.28.3l.74,40.2a1.27,1.27,0,0,1-.37.94A1.31,1.31,0,0,1,164.13,182.1ZM151.81,138a.29.29,0,0,0-.3.24l-.21.93a.34.34,0,0,0,.06.26.32.32,0,0,0,.24.11h.16a1.32,1.32,0,0,1,1.31,1.28l.81,40a.29.29,0,0,0,.3.3h9.95a.31.31,0,0,0,.22-.09.27.27,0,0,0,.08-.22l-.74-40.2a1.32,1.32,0,0,1,1.18-1.32.3.3,0,0,0,.28-.3v-.69a.3.3,0,0,0-.31-.3Z"/><line x1="154.32" y1="140.04" x2="151.6" y2="140.02" style="fill:#817ffe"/><path d="M154.32,140.54h0l-2.72,0a.5.5,0,0,1-.5-.5.51.51,0,0,1,.5-.5h0l2.72,0a.5.5,0,0,1,.5.5A.5.5,0,0,1,154.32,140.54Z" style="fill:#231e22"/><line x1="164.91" y1="139.62" x2="162.2" y2="139.6" style="fill:#817ffe"/><path d="M164.91,140.12h0l-2.72,0a.49.49,0,0,1-.49-.5.5.5,0,0,1,.5-.5h0l2.72,0a.5.5,0,0,1,0,1Z" style="fill:#231e22"/><path d="M152.86,197.23a2,2,0,0,1-1.17-.38,2,2,0,0,1-.45-2.79c22.9-31.73,15.6-54.19,15.52-54.42a2,2,0,1,1,3.78-1.29c.34,1,8,24.66-16.06,58.05A2,2,0,0,1,152.86,197.23Z" style="fill:#e8a138"/><path d="M152.86,197.73a2.5,2.5,0,0,1-2-4c22.66-31.39,15.53-53.73,15.46-54a2.42,2.42,0,0,1,.12-1.9,2.49,2.49,0,0,1,3.34-1.15,2.54,2.54,0,0,1,1.27,1.44c.34,1,8.11,24.91-16.14,58.5A2.48,2.48,0,0,1,152.86,197.73Zm15.79-60.23a1.34,1.34,0,0,0-.48.08,1.49,1.49,0,0,0-.94,1.9c.08.23,7.43,23-15.59,54.87a1.5,1.5,0,0,0,.34,2.09,1.54,1.54,0,0,0,2.09-.33c24-33.18,16.34-56.62,16-57.6a1.5,1.5,0,0,0-.76-.86A1.52,1.52,0,0,0,168.65,137.5Z"/><rect x="126.99" y="190.68" width="34.78" height="24.72" rx="4.08" style="fill:#e8a138"/><path d="M157.69,215.9H131.07a4.59,4.59,0,0,1-4.58-4.58V194.76a4.59,4.59,0,0,1,4.58-4.58h26.62a4.59,4.59,0,0,1,4.59,4.58v16.56A4.59,4.59,0,0,1,157.69,215.9Zm-26.62-24.72a3.59,3.59,0,0,0-3.58,3.58v16.56a3.58,3.58,0,0,0,3.58,3.58h26.62a3.58,3.58,0,0,0,3.59-3.58V194.76a3.59,3.59,0,0,0-3.59-3.58Z"/><polyline points="128.55 193.41 144.38 203.04 159.18 193.41" style="fill:#e8a138"/><path d="M144.39,203.63l-16.1-9.79a.5.5,0,0,1-.16-.69.49.49,0,0,1,.68-.17l15.57,9.47L158.91,193a.5.5,0,0,1,.55.83Z"/><rect x="141" y="201.83" width="6.18" height="4.37" rx="0.58" style="fill:#f4e6db"/><path d="M146.59,206.7h-5a1.08,1.08,0,0,1-1.08-1.09v-3.2a1.08,1.08,0,0,1,1.08-1.08h5a1.08,1.08,0,0,1,1.08,1.08v3.2A1.08,1.08,0,0,1,146.59,206.7Zm-5-4.37a.08.08,0,0,0-.08.08v3.2a.08.08,0,0,0,.08.09h5a.08.08,0,0,0,.08-.09v-3.2a.08.08,0,0,0-.08-.08Z"/><path d="M161.63,184.69c9.68,6.36,11.54,13.56,10.42,15.59a1.5,1.5,0,0,1-1.52.43c.44,1.53-.21,2.9-1.59,2.45.16,1-1.22,1.63-2.42.7a19.17,19.17,0,0,1-3.87-4.36s.71,7-.89,6.92c-1.11,0-2.59-3.53-3.49-7.29-4.09-2.55-4.65-3.57-6-5.62-2.21-.13-5.17-.52-7.37-.89l5.71-13.51C154,180.46,159,182.69,161.63,184.69Z" style="fill:#fb79b7"/><path d="M161.78,206.92h0c-1.93-.07-3.51-5.85-3.91-7.47C154,197,153.26,195.93,152,194v0c-2.82-.18-6.19-.71-7.18-.87a.51.51,0,0,1-.35-.25.49.49,0,0,1,0-.44l5.71-13.51a.5.5,0,0,1,.65-.27c1.81.71,7.95,3.24,11.08,5.63,10,6.58,11.84,13.94,10.58,16.25a1.7,1.7,0,0,1-1.34.71,2.5,2.5,0,0,1-.59,2.07,1.59,1.59,0,0,1-1.17.44,1.47,1.47,0,0,1-.67.81,2.27,2.27,0,0,1-2.51-.3,14.81,14.81,0,0,1-2.94-3.06c.1,1.86.07,4.53-.72,5.38A1.07,1.07,0,0,1,161.78,206.92Zm-16.14-14.69c2,.32,4.67.67,6.69.78a.49.49,0,0,1,.39.23l.15.23c1.21,1.89,1.82,2.84,5.66,5.24a.52.52,0,0,1,.23.3c1.1,4.57,2.53,6.89,3,6.91.46-.19.72-2.95.37-6.37a.53.53,0,0,1,.31-.52.5.5,0,0,1,.58.17c.2.25.39.51.59.79a15.42,15.42,0,0,0,3.19,3.48,1.29,1.29,0,0,0,1.39.23.44.44,0,0,0,.24-.46.48.48,0,0,1,.17-.46.49.49,0,0,1,.48-.1.71.71,0,0,0,.76-.09,1.83,1.83,0,0,0,.19-1.75.5.5,0,0,1,.62-.62,1.15,1.15,0,0,0,.94-.18c.94-1.71-.73-8.67-10.26-14.93l0,0c-2.81-2.15-8.22-4.45-10.41-5.33Z"/><path d="M170.7,201.4a.49.49,0,0,1-.47-.34,22.6,22.6,0,0,0-4.52-7.69.5.5,0,0,1,.77-.65,23.67,23.67,0,0,1,4.7,8,.5.5,0,0,1-.32.63A.41.41,0,0,1,170.7,201.4Z"/><path d="M168.94,203.66a.5.5,0,0,1-.45-.28,36.41,36.41,0,0,0-4-6.27c-.31-.4-.63-.83-1-1.3a.5.5,0,1,1,.8-.6c.35.47.67.9,1,1.3a37.81,37.81,0,0,1,4.14,6.42.52.52,0,0,1-.22.68A.64.64,0,0,1,168.94,203.66Z"/><path d="M162.65,200a.52.52,0,0,1-.43-.24l-1.13-1.84a.5.5,0,0,1,.86-.52l1.12,1.84a.5.5,0,0,1-.16.69A.48.48,0,0,1,162.65,200Z"/><path d="M148.88,157.82l-7.23,17.48s5.77,2.22,9.31,3.65L145,193.4c-8-1.36-19.46-2.72-21.76-13.32-2.93-10.65,7.59-34.31,17.15-38.27" style="fill:#604de3"/><path d="M145,193.91h-.09l-1.26-.21c-7.87-1.32-18.66-3.12-20.91-13.51-3-10.85,7.77-34.82,17.45-38.83a.5.5,0,0,1,.38.93c-9.37,3.87-19.76,27.11-16.86,37.66,2.12,9.76,12.09,11.42,20.11,12.76l.86.15,5.6-13.62c-3.52-1.41-8.79-3.44-8.84-3.46a.5.5,0,0,1-.28-.27.48.48,0,0,1,0-.39l7.23-17.48a.5.5,0,0,1,.66-.27.51.51,0,0,1,.27.65l-7,17c1.45.56,5.92,2.29,8.84,3.47a.51.51,0,0,1,.27.27.5.5,0,0,1,0,.38l-5.93,14.46A.53.53,0,0,1,145,193.91Z"/><path d="M148.88,157.82l-7.23,17.48s5.77,2.22,9.31,3.65L145,193.4c-8-1.36-19.46-2.72-21.76-13.32-2.93-10.65,7.59-34.31,17.15-38.27" style="fill:url(#Unnamed_Pattern_3)"/><path d="M145.34,194l-1.66-.28c-7.87-1.32-18.66-3.12-20.91-13.51-3-10.85,7.77-34.82,17.45-38.83l.38.93c-9.37,3.87-19.76,27.11-16.86,37.66,2.12,9.76,12.09,11.42,20.11,12.76l.86.15,5.6-13.62c-3.52-1.41-8.79-3.44-8.84-3.46l-.48-.19,7.43-18,.93.38-7,17c1.45.56,5.92,2.29,8.84,3.47l.46.19Z"/><path d="M141.65,175.8l-.15,0-3.77-1.21a.49.49,0,0,1-.32-.63.5.5,0,0,1,.63-.32l3.76,1.2a.5.5,0,0,1,.32.63A.48.48,0,0,1,141.65,175.8Z"/><path d="M152.79,177.62l-1.56-.65a.72.72,0,0,0-.95.39l-7.13,17a.73.73,0,0,0,.51,1l2.11.49a.75.75,0,0,0,.85-.44l6.57-16.81A.72.72,0,0,0,152.79,177.62Z" style="fill:#8380ff"/><path d="M145.93,196.33l-.27,0-2.11-.49a1.23,1.23,0,0,1-.86-1.67l7.12-17a1.23,1.23,0,0,1,1.61-.66l1.57.65a1.24,1.24,0,0,1,.67,1.58l-6.58,16.81A1.24,1.24,0,0,1,145.93,196.33Zm5-18.92a.23.23,0,0,0-.21.14l-7.13,17a.26.26,0,0,0,0,.2.24.24,0,0,0,.15.12l2.11.48a.23.23,0,0,0,.27-.14l6.57-16.8a.23.23,0,0,0-.12-.3l-1.56-.65Z"/><ellipse cx="227.7" cy="304.25" rx="30.37" ry="32.18"/><ellipse cx="404.41" cy="304.25" rx="30.37" ry="32.18"/><path d="M518.88,237.51h-4.45L485,187.5a25.23,25.23,0,0,0-20.87-11.39H294.59a36,36,0,0,0-26.17,11.49L221.3,237.51H185.61a26.11,26.11,0,0,0-26.12,26.12v30.72h365V243.07A5.56,5.56,0,0,0,518.88,237.51Z" style="fill:#fd9d37"/><path d="M524.44,294.85h-365a.5.5,0,0,1-.5-.5V263.63A26.65,26.65,0,0,1,185.61,237h35.48l47-49.76a36.25,36.25,0,0,1,26.53-11.64H464.08a25.79,25.79,0,0,1,21.29,11.61L514.72,237h4.16a6.07,6.07,0,0,1,6.06,6.06v51.28A.5.5,0,0,1,524.44,294.85Zm-364.45-1h364V243.07a5.07,5.07,0,0,0-5.06-5.06h-4.45a.5.5,0,0,1-.43-.24l-29.48-50a24.76,24.76,0,0,0-20.44-11.15H294.59a35.25,35.25,0,0,0-25.8,11.33l-47.12,49.91a.52.52,0,0,1-.37.16H185.61A25.65,25.65,0,0,0,160,263.63Z"/><g style="opacity:0.27"><path d="M518.88,237.51h-4.45L485,187.5a25.23,25.23,0,0,0-20.87-11.39H294.59a36,36,0,0,0-26.17,11.49L221.3,237.51H185.61a26.11,26.11,0,0,0-26.12,26.12v30.72h365V243.07A5.56,5.56,0,0,0,518.88,237.51Z" style="fill:url(#Unnamed_Pattern)"/><path d="M524.94,294.85H159V263.63A26.65,26.65,0,0,1,185.61,237h35.48l47-49.76a36.25,36.25,0,0,1,26.53-11.64H464.08a25.79,25.79,0,0,1,21.29,11.61L514.72,237h4.16a6.07,6.07,0,0,1,6.06,6.06Zm-365-1h364V243.07a5.07,5.07,0,0,0-5.06-5.06h-4.74l-.14-.24-29.48-50a24.76,24.76,0,0,0-20.44-11.15H294.59a35.25,35.25,0,0,0-25.8,11.33L221.52,238H185.61A25.65,25.65,0,0,0,160,263.63Z"/></g><path d="M477.94,181.82a24.56,24.56,0,0,0-15.65-5.71H382.13l-4.08,1.47h86.2A24.41,24.41,0,0,1,477.94,181.82Z" style="fill:#f3ebe9"/><path d="M315.28,236.15l46.77-48.55a36,36,0,0,1,26.17-11.49H294.59a36,36,0,0,0-26.17,11.49l-47.51,49.91Z" style="fill:#f2af55"/><path d="M219.73,238l48.33-50.78a36.25,36.25,0,0,1,26.53-11.64h93.63v1a35.25,35.25,0,0,0-25.8,11.33l-46.93,48.71Zm74.86-61.42a35.25,35.25,0,0,0-25.8,11.33L222.09,237l93-1.33,46.63-48.41a36.85,36.85,0,0,1,18.1-10.64Zm20.69,59.54h0Z"/><path d="M293.84,176.73A33.8,33.8,0,0,0,268.91,188l-44.78,49,1.05,1.57h.72l44.9-49.09a33.83,33.83,0,0,1,24.93-11.29h78.78l3.92-1.44Z" style="fill:#f3ebe9"/><path d="M186.15,237.89a26.2,26.2,0,0,0-26.05,26l-.29,29.65h1.95l-.28-28.62c0-14.23,11.21-26,25.44-26h34.82l-1.08-1.45Z" style="fill:#f3ebe9"/><path d="M225.79,243.43Z" style="fill:#f3ebe9"/><path d="M269.33,186.65h71.05c4.62,0,6.93,5.8,3.66,9.19l-39.48,40.47-83.65,1.2Z" style="fill:#f3ebe9"/><path d="M219.73,238l49.39-51.88h71.26a5.6,5.6,0,0,1,5.2,3.51,5.91,5.91,0,0,1-1.18,6.53L304.78,236.8Zm49.82-50.88L222.09,237l82.26-1.18,39.34-40.32a4.94,4.94,0,0,0,1-5.44,4.62,4.62,0,0,0-4.28-2.9Z"/><path d="M266.46,189.66h66.83c4.35,0,6.53,5.46,3.45,8.65L299.6,236.38l-78.69,1.13Z" style="fill:#f3ebe9"/><path d="M219.73,238l46.52-48.87h67a5.3,5.3,0,0,1,4.92,3.33,5.59,5.59,0,0,1-1.11,6.17l-37.28,38.22Zm46.94-47.87L222.09,237l77.3-1.11,37-37.92a4.6,4.6,0,0,0,.91-5.08,4.31,4.31,0,0,0-4-2.72Z"/><path d="M377.6,161.49H337.17c-5.43,0-9.83,3.74-9.83,8.35v6.27H388v-5.78C388,165.45,383.35,161.49,377.6,161.49Z"/><path d="M375.81,161.49h1.79c5.75,0,10.41,3.38,10.41,7.54v7.08H366v-7.5C366,164.68,370.38,161.49,375.81,161.49Z" style="fill:#524369"/><path d="M388.51,176.61h-23v-8c0-4.2,4.63-7.62,10.33-7.62h1.79c6,0,10.91,3.61,10.91,8Zm-22-1h21V169c0-3.88-4.44-7-9.91-7h-1.79c-5.15,0-9.33,3-9.33,6.62Z"/><path d="M520,314.26H164.34a4.85,4.85,0,0,1-4.85-4.85V294.35h365v15.5A4.41,4.41,0,0,1,520,314.26Z" style="fill:#564a6d"/><path d="M520,314.76H164.34a5.36,5.36,0,0,1-5.35-5.35V293.85h366v16A4.91,4.91,0,0,1,520,314.76ZM160,294.85v14.56a4.35,4.35,0,0,0,4.35,4.35H520a3.92,3.92,0,0,0,3.91-3.91v-15Z"/><path d="M322.61,239.71H510.94v-2.2H320.78c-12.46,0-22.55,10.7-22.55,23.89v22.84h1.82V263.6C300.05,250.41,310.15,239.71,322.61,239.71Z" style="fill:#f3ebe9"/><path d="M298.72,294.85H159.49a.5.5,0,0,1-.5-.5.5.5,0,0,1,.5-.5H297.72V261.4c0-13.45,10.35-24.39,23.06-24.39H511.22a.51.51,0,0,1,.5.5.5.5,0,0,1-.5.5H320.78c-12.16,0-22.06,10.5-22.06,23.39Z"/><path d="M367.54,193.17l-27.73,29.37a5.93,5.93,0,0,0,4.31,10h81a5.93,5.93,0,0,0,5.65-7.75L420,191.17a6,6,0,0,0-5.65-4.11H381.45A19.13,19.13,0,0,0,367.54,193.17Z" style="fill:#f3ebe9"/><path d="M425.16,233h-81a6.43,6.43,0,0,1-4.67-10.84l27.72-29.38a19.53,19.53,0,0,1,14.28-6.26H414.3a6.41,6.41,0,0,1,6.12,4.46l10.86,33.61a6.43,6.43,0,0,1-6.12,8.41Zm-43.71-45.48a18.53,18.53,0,0,0-13.55,5.95l-27.73,29.37a5.44,5.44,0,0,0,3.95,9.16h81a5.43,5.43,0,0,0,5.17-7.1l-10.86-33.62a5.43,5.43,0,0,0-5.17-3.76Zm-13.91,5.61h0Z"/><path d="M370,194.62l-25.31,26.81a5.41,5.41,0,0,0,3.94,9.13h74a5.41,5.41,0,0,0,5.15-7.08l-9.91-30.68a5.42,5.42,0,0,0-5.15-3.75h-30A17.43,17.43,0,0,0,370,194.62Z" style="fill:#f3ebe9"/><path d="M422.63,231.06h-74a5.91,5.91,0,0,1-4.3-10l25.3-26.81a17.83,17.83,0,0,1,13.06-5.73h30a5.89,5.89,0,0,1,5.62,4.09l9.92,30.69a5.91,5.91,0,0,1-5.63,7.73Zm-39.91-41.51A16.87,16.87,0,0,0,370.39,195l-25.31,26.81a4.92,4.92,0,0,0,3.58,8.29h74a4.92,4.92,0,0,0,4.68-6.43L417.39,193a4.9,4.9,0,0,0-4.67-3.4ZM370,194.62h0Z"/><path d="M428.46,193.77l12.15,34.56a5.14,5.14,0,0,0,4.86,3.44h54.1a2.78,2.78,0,0,0,2.16-4.33l-23.62-36.59a10.12,10.12,0,0,0-8.71-4.75l-36.19.81A5.15,5.15,0,0,0,428.46,193.77Z" style="fill:#f3ebe9"/><path d="M499.57,232.27h-54.1a5.66,5.66,0,0,1-5.33-3.78L428,193.94a5.65,5.65,0,0,1,5.21-7.53l36.19-.81h.23a10.62,10.62,0,0,1,8.91,5l23.62,36.6a3.38,3.38,0,0,1,.12,3.46A3,3,0,0,1,499.57,232.27Zm-70.64-38.66,12.15,34.55a4.66,4.66,0,0,0,4.39,3.11h54.1a2.09,2.09,0,0,0,1.83-1.12,2.4,2.4,0,0,0-.09-2.44l-23.62-36.59a9.53,9.53,0,0,0-8.28-4.52l-36.19.81a4.65,4.65,0,0,0-4.29,6.2Z"/><path d="M431.7,195.11l11.08,31.51a4.7,4.7,0,0,0,4.43,3.14h49.33a2.54,2.54,0,0,0,2-3.95L477,192.44a9.24,9.24,0,0,0-7.94-4.32l-33,.73A4.7,4.7,0,0,0,431.7,195.11Z" style="fill:#f3ebe9"/><path d="M496.54,230.26H447.21a5.23,5.23,0,0,1-4.91-3.48l-11.07-31.5a5.2,5.2,0,0,1,4.79-6.93l33-.73a9.8,9.8,0,0,1,8.37,4.55l21.53,33.37a3.14,3.14,0,0,1,.12,3.2A2.84,2.84,0,0,1,496.54,230.26Zm-27.31-41.65H469l-33,.73a4.2,4.2,0,0,0-3.87,5.59l11.08,31.51a4.2,4.2,0,0,0,4,2.81h49.33a1.85,1.85,0,0,0,1.62-1,2.11,2.11,0,0,0-.08-2.18l-21.53-33.37A8.74,8.74,0,0,0,469.23,188.61Z"/><path d="M520,304.3H164.34a4.85,4.85,0,0,1-4.85-4.85v-5.1h365v5.54A4.4,4.4,0,0,1,520,304.3Z" style="fill:#29273d"/><path d="M520,304.8H164.34a5.36,5.36,0,0,1-5.35-5.35v-5.6h366v6A4.91,4.91,0,0,1,520,304.8Zm-360-9.95v4.6a4.35,4.35,0,0,0,4.35,4.35H520a3.91,3.91,0,0,0,3.91-3.91v-5Z" style="fill:#010002"/><path d="M245.22,281.24H188c-4,0-7.22-2.75-7.22-6.15h0c0-3.39,3.23-6.14,7.22-6.14h57.25c4,0,7.22,2.75,7.22,6.14h0C252.44,278.49,249.2,281.24,245.22,281.24Z"/><ellipse cx="295.49" cy="306.09" rx="12.92" ry="13.69" style="fill:#f3ebe9"/><path d="M295.49,320.27c-7.4,0-13.42-6.36-13.42-14.19s6-14.18,13.42-14.18,13.42,6.36,13.42,14.18S302.89,320.27,295.49,320.27Zm0-27.37c-6.85,0-12.42,5.91-12.42,13.18s5.57,13.19,12.42,13.19,12.42-5.91,12.42-13.19S302.34,292.9,295.49,292.9Z"/><ellipse cx="295.49" cy="304.25" rx="30.37" ry="32.18"/><ellipse cx="295.49" cy="306.09" rx="12.92" ry="13.69" style="fill:#f3ebe9"/><path d="M295.49,320.27c-7.4,0-13.42-6.36-13.42-14.19s6-14.18,13.42-14.18,13.42,6.36,13.42,14.18S302.89,320.27,295.49,320.27Zm0-27.37c-6.85,0-12.42,5.91-12.42,13.18s5.57,13.19,12.42,13.19,12.42-5.91,12.42-13.19S302.34,292.9,295.49,292.9Z"/><ellipse cx="473.45" cy="304.25" rx="30.37" ry="32.18"/><ellipse cx="473.45" cy="306.09" rx="12.92" ry="13.69" style="fill:#f3ebe9"/><path d="M473.45,320.27c-7.4,0-13.42-6.36-13.42-14.19s6-14.18,13.42-14.18,13.42,6.36,13.42,14.18S480.85,320.27,473.45,320.27Zm0-27.37c-6.85,0-12.42,5.91-12.42,13.18s5.57,13.19,12.42,13.19,12.42-5.91,12.42-13.19S480.3,292.9,473.45,292.9Z"/><path d="M524.44,281.73h-9.36a4.14,4.14,0,0,1-4.14-4.14V256.51a2,2,0,0,1,2-2h11.51Z" style="fill:#fb79b7"/><path d="M524.94,282.23h-9.86a4.64,4.64,0,0,1-4.64-4.64V256.51a2.49,2.49,0,0,1,2.49-2.48h12Zm-12-27.2a1.49,1.49,0,0,0-1.49,1.48v21.08a3.64,3.64,0,0,0,3.64,3.64h8.86V255Z"/><path d="M524.44,263h-13.5v-6.9a1.57,1.57,0,0,1,1.58-1.57h11.92Z" style="fill:#f3ebe9"/><path d="M524.94,263.5h-14.5v-7.4a2.08,2.08,0,0,1,2.08-2.07h12.42Zm-13.5-1h12.5V255H512.52a1.08,1.08,0,0,0-1.08,1.07Z"/><rect x="337.18" y="223.03" width="34.4" height="20.51" rx="8.66"/><path d="M331.21,244.71h0a3.58,3.58,0,0,1,0-4.83l7.07-7.48a3.32,3.32,0,0,1,4.87,0h0a3.57,3.57,0,0,1,0,4.82l-7.07,7.49A3.32,3.32,0,0,1,331.21,244.71Z"/><rect x="333.3" y="255.55" width="12.64" height="13.39"/><rect x="383.86" y="255.55" width="12.64" height="13.39"/><rect x="345.94" y="268.95" width="12.64" height="13.39"/><rect x="358.58" y="255.55" width="12.64" height="13.39"/><rect x="371.22" y="268.95" width="12.64" height="13.39"/><path d="M428.92,259.19H405a2.46,2.46,0,0,1-2.46-2.46V250.3H431.5v6.31A2.58,2.58,0,0,1,428.92,259.19Z" style="fill:#f3ebe9"/><path d="M428.92,259.69H405a3,3,0,0,1-3-3V249.8H432v6.81A3.09,3.09,0,0,1,428.92,259.69Zm-25.86-8.89v5.93a2,2,0,0,0,2,2h23.9a2.08,2.08,0,0,0,2.08-2.08V250.8Z"/><path d="M429.92,254.4H404.41a.5.5,0,0,1-.5-.5.5.5,0,0,1,.5-.5h25.51a.5.5,0,0,1,.5.5A.51.51,0,0,1,429.92,254.4Z"/><rect x="197.26" y="287.85" width="35.95" height="13.84" rx="2.08" style="fill:#f3ebe9"/><path d="M231.13,302.2H199.34a2.59,2.59,0,0,1-2.58-2.58v-9.69a2.58,2.58,0,0,1,2.58-2.57h31.79a2.58,2.58,0,0,1,2.58,2.57v9.69A2.59,2.59,0,0,1,231.13,302.2Zm-31.79-13.84a1.57,1.57,0,0,0-1.58,1.57v9.69a1.58,1.58,0,0,0,1.58,1.58h31.79a1.58,1.58,0,0,0,1.58-1.58v-9.69a1.57,1.57,0,0,0-1.58-1.57Z"/><rect x="184" y="248.03" width="66.27" height="19.16" rx="2.82"/><path d="M247.44,267.7H186.82a3.33,3.33,0,0,1-3.32-3.33V250.86a3.33,3.33,0,0,1,3.32-3.33h60.62a3.34,3.34,0,0,1,3.33,3.33v13.51A3.34,3.34,0,0,1,247.44,267.7Zm-60.62-19.17a2.33,2.33,0,0,0-2.32,2.33v13.51a2.33,2.33,0,0,0,2.32,2.33h60.62a2.33,2.33,0,0,0,2.33-2.33V250.86a2.33,2.33,0,0,0-2.33-2.33Z"/><path d="M247.34,267.2h20.14a2.77,2.77,0,0,0,2.43-3h0c0-8.93-5.88-16.17-13.13-16.17h-9.44a2.76,2.76,0,0,0-2.43,3V264.2A2.76,2.76,0,0,0,247.34,267.2Z" style="fill:#f3ebe9"/><path d="M267.48,267.7H247.34a3.25,3.25,0,0,1-2.93-3.5V251a3.25,3.25,0,0,1,2.93-3.5h9.44c7.52,0,13.63,7.48,13.63,16.67A3.25,3.25,0,0,1,267.48,267.7Zm-20.14-19.17a2.27,2.27,0,0,0-1.93,2.5V264.2a2.27,2.27,0,0,0,1.93,2.5h20.14a2.27,2.27,0,0,0,1.93-2.5c0-8.64-5.67-15.67-12.63-15.67Z"/><path d="M269.91,264.2c0-6.08-2.73-11.36-6.75-14.13a3.38,3.38,0,0,0-.14,1V264.2a2.77,2.77,0,0,0,2.43,3h2A2.77,2.77,0,0,0,269.91,264.2Z" style="fill:#fb79b7"/><path d="M267.48,267.7h-2a3.25,3.25,0,0,1-2.93-3.5V251a4.26,4.26,0,0,1,.15-1.09l.19-.68.58.4c4.3,3,7,8.52,7,14.54A3.25,3.25,0,0,1,267.48,267.7Zm-4-16.74V264.2a2.28,2.28,0,0,0,1.93,2.5h2a2.27,2.27,0,0,0,1.93-2.5C269.41,258.82,267.17,253.83,263.52,251Z"/><path d="M174.34,267.2h15.42a2.77,2.77,0,0,0,2.43-3V251a2.77,2.77,0,0,0-2.43-3h-4.71c-7.26,0-13.14,7.24-13.14,16.17h0A2.77,2.77,0,0,0,174.34,267.2Z" style="fill:#f3ebe9"/><path d="M189.76,267.7H174.34a3.26,3.26,0,0,1-2.93-3.5c0-9.19,6.12-16.67,13.64-16.67h4.71a3.26,3.26,0,0,1,2.93,3.5V264.2A3.26,3.26,0,0,1,189.76,267.7Zm-4.71-19.17c-7,0-12.64,7-12.64,15.67a2.28,2.28,0,0,0,1.93,2.5h15.42a2.28,2.28,0,0,0,1.93-2.5V251a2.28,2.28,0,0,0-1.93-2.5Z"/><path d="M178.81,264.2V251a3.32,3.32,0,0,0-.14-1c-4,2.76-6.76,8.05-6.76,14.13a2.77,2.77,0,0,0,2.43,3h2A2.77,2.77,0,0,0,178.81,264.2Z" style="fill:#fb79b7"/><path d="M176.38,267.7h-2a3.26,3.26,0,0,1-2.93-3.5c0-6,2.68-11.59,7-14.54l.58-.4.19.68a4.26,4.26,0,0,1,.15,1.09V264.2A3.25,3.25,0,0,1,176.38,267.7ZM178.31,251c-3.66,2.87-5.9,7.86-5.9,13.25a2.28,2.28,0,0,0,1.93,2.5h2a2.27,2.27,0,0,0,1.93-2.5V251Z"/><rect x="203.64" y="253.22" width="25.91" height="2.07" rx="0.47" style="fill:#524369"/><path d="M229.08,255.79h-25a1,1,0,0,1-1-1v-1.13a1,1,0,0,1,1-1h25a1,1,0,0,1,1,1v1.13A1,1,0,0,1,229.08,255.79Zm0-2.1-24.94,0,0,1.1,24.91,0Z"/><rect x="203.64" y="259.05" width="25.91" height="2.07" rx="0.47" style="fill:#524369"/><path d="M229.08,261.63h-25a1,1,0,0,1-1-1v-1.14a1,1,0,0,1,1-1h25a1,1,0,0,1,1,1v1.14A1,1,0,0,1,229.08,261.63Zm0-2.11-24.94,0,0,1.11,24.91,0Z"/><path d="M526.47,353.63h0a2.88,2.88,0,0,1-2.81-2.95V74.2a2.88,2.88,0,0,1,2.81-3h0a2.88,2.88,0,0,1,2.8,3V350.68A2.88,2.88,0,0,1,526.47,353.63Z" style="fill:#f4e6db"/><path d="M526.47,354.13a3.38,3.38,0,0,1-3.31-3.45V74.2a3.31,3.31,0,1,1,6.61,0V350.68A3.38,3.38,0,0,1,526.47,354.13Zm0-282.38a2.38,2.38,0,0,0-2.31,2.45V350.68a2.31,2.31,0,1,0,4.61,0V74.2A2.38,2.38,0,0,0,526.47,71.75Z"/><rect x="491.33" y="98.62" width="70.29" height="72.21" rx="2.77" transform="translate(58.93 411.73) rotate(-45)" style="fill:#3c2c5b"/><rect x="491.31" y="94.66" width="70.29" height="72.21" rx="2.77" transform="translate(61.73 410.56) rotate(-45)" style="fill:#fd9d37"/><path d="M527.13,180.5a3.27,3.27,0,0,1-2.31-1L477.68,132.4a3.28,3.28,0,0,1,0-4.62L523.47,82a3.35,3.35,0,0,1,4.62,0h0l47.14,47.14a3.27,3.27,0,0,1,0,4.63l-45.78,45.78A3.27,3.27,0,0,1,527.13,180.5ZM525.78,82a2.25,2.25,0,0,0-1.61.66l-45.78,45.78a2.29,2.29,0,0,0,0,3.22l47.14,47.13a2.26,2.26,0,0,0,3.21,0l45.78-45.78a2.26,2.26,0,0,0,0-3.21L527.39,82.7A2.25,2.25,0,0,0,525.78,82Z"/><rect x="495.87" y="99.35" width="61.16" height="62.83" rx="2.77" transform="translate(61.73 410.56) rotate(-45)" style="fill:#fd9d37"/><path d="M527.05,174a3.25,3.25,0,0,1-2.32-1l-40.51-40.51a3.27,3.27,0,0,1,0-4.63l39.33-39.33a3.37,3.37,0,0,1,4.63,0h0L568.69,129a3.27,3.27,0,0,1,0,4.63L529.36,173A3.25,3.25,0,0,1,527.05,174Zm-1.18-85.38a2.25,2.25,0,0,0-1.61.66l-39.33,39.33a2.26,2.26,0,0,0,0,3.21l40.51,40.51a2.32,2.32,0,0,0,3.21,0L568,133a2.26,2.26,0,0,0,0-3.21L527.47,89.24A2.25,2.25,0,0,0,525.87,88.58Z"/><g style="opacity:0.27"><path d="M527.83,88.89l40.51,40.51a2.78,2.78,0,0,1,0,3.92L529,172.65a2.78,2.78,0,0,1-3.92,0l-40.51-40.51a2.76,2.76,0,0,1,0-3.92l39.33-39.33A2.76,2.76,0,0,1,527.83,88.89Z" style="fill:url(#Unnamed_Pattern)"/><path d="M527.05,174a3.25,3.25,0,0,1-2.32-1l-40.51-40.51a3.27,3.27,0,0,1,0-4.63l39.33-39.33a3.37,3.37,0,0,1,4.63,0L568.69,129a3.27,3.27,0,0,1,0,4.63L529.36,173A3.25,3.25,0,0,1,527.05,174Zm-1.18-85.38a2.25,2.25,0,0,0-1.61.66l-39.33,39.33a2.26,2.26,0,0,0,0,3.21l40.51,40.51a2.32,2.32,0,0,0,3.21,0L568,133a2.26,2.26,0,0,0,0-3.21L527.47,89.24A2.25,2.25,0,0,0,525.87,88.58Z"/></g><circle cx="526.47" cy="208.08" r="15.25" style="fill:#3c2c5b"/><path d="M526.47,223.83a15.75,15.75,0,1,1,15.74-15.75A15.77,15.77,0,0,1,526.47,223.83Zm0-30.5a14.75,14.75,0,1,0,14.74,14.75A14.76,14.76,0,0,0,526.47,193.33Z" style="fill:#3c2c5b"/><circle cx="526.47" cy="205.73" r="15.25" style="fill:#604de3"/><path d="M526.47,221.47a15.75,15.75,0,1,1,15.74-15.74A15.76,15.76,0,0,1,526.47,221.47Zm0-30.49a14.75,14.75,0,1,0,14.74,14.75A14.76,14.76,0,0,0,526.47,191Z"/><rect x="518.1" y="202.64" width="16.74" height="6.18" style="fill:#f4e6db"/><path d="M534.83,209.32H518.1a.5.5,0,0,1-.5-.5v-6.18a.5.5,0,0,1,.5-.5h16.73a.5.5,0,0,1,.5.5v6.18A.5.5,0,0,1,534.83,209.32Zm-16.23-1h15.73v-5.18H518.6Z"/><rect x="327.9" y="286.97" width="5.39" height="63.58" rx="2.15" style="fill:#817ffe"/><path d="M331.14,351.06h-1.08a2.66,2.66,0,0,1-2.66-2.66V289.13a2.66,2.66,0,0,1,2.66-2.66h1.08a2.66,2.66,0,0,1,2.66,2.66V348.4A2.66,2.66,0,0,1,331.14,351.06Zm-1.08-63.59a1.66,1.66,0,0,0-1.66,1.66V348.4a1.66,1.66,0,0,0,1.66,1.66h1.08a1.66,1.66,0,0,0,1.66-1.66V289.13a1.66,1.66,0,0,0-1.66-1.66Z"/><rect x="443.98" y="275.54" width="5.39" height="75.02" rx="2.15" style="fill:#817ffe"/><path d="M447.22,351.06h-1.09a2.66,2.66,0,0,1-2.65-2.66V277.69a2.65,2.65,0,0,1,2.65-2.65h1.09a2.65,2.65,0,0,1,2.65,2.65V348.4A2.66,2.66,0,0,1,447.22,351.06Zm-1.09-75a1.65,1.65,0,0,0-1.65,1.65V348.4a1.65,1.65,0,0,0,1.65,1.66h1.09a1.65,1.65,0,0,0,1.65-1.66V277.69a1.65,1.65,0,0,0-1.65-1.65Z"/><g style="opacity:0.48"><polygon points="443.55 280.44 448.94 279.89 448.94 283.76 443.55 280.44"/><path d="M448.94,284.26a.48.48,0,0,1-.26-.07l-5.39-3.32a.5.5,0,0,1,.21-.92l5.39-.56a.51.51,0,0,1,.55.5v3.87a.51.51,0,0,1-.26.44A.5.5,0,0,1,448.94,284.26Zm-3.88-3.47,3.38,2.08v-2.43Z"/></g><rect x="494.36" y="272.93" width="5.39" height="77.62" rx="2.15" style="fill:#817ffe"/><path d="M497.6,351.06h-1.09a2.66,2.66,0,0,1-2.65-2.66V275.08a2.65,2.65,0,0,1,2.65-2.65h1.09a2.65,2.65,0,0,1,2.65,2.65V348.4A2.66,2.66,0,0,1,497.6,351.06Zm-1.09-77.63a1.65,1.65,0,0,0-1.65,1.65V348.4a1.65,1.65,0,0,0,1.65,1.66h1.09a1.65,1.65,0,0,0,1.65-1.66V275.08a1.65,1.65,0,0,0-1.65-1.65Z"/><g style="opacity:0.48"><polygon points="493.93 275.52 499.32 274.97 499.32 278.84 493.93 275.52"/><path d="M499.32,279.34a.5.5,0,0,1-.26-.08l-5.4-3.31a.51.51,0,0,1-.22-.54.5.5,0,0,1,.44-.39l5.39-.55a.45.45,0,0,1,.38.13.47.47,0,0,1,.17.37v3.87a.51.51,0,0,1-.26.44A.5.5,0,0,1,499.32,279.34Zm-3.88-3.47,3.38,2.07v-2.42Z"/></g><rect x="396.02" y="279.89" width="5.39" height="71.04" rx="2.15" style="fill:#817ffe"/><path d="M399.26,351.43h-1.09a2.65,2.65,0,0,1-2.65-2.65V282a2.65,2.65,0,0,1,2.65-2.65h1.09a2.65,2.65,0,0,1,2.65,2.65v66.74A2.65,2.65,0,0,1,399.26,351.43Zm-1.09-71a1.65,1.65,0,0,0-1.65,1.65v66.74a1.65,1.65,0,0,0,1.65,1.65h1.09a1.65,1.65,0,0,0,1.65-1.65V282a1.65,1.65,0,0,0-1.65-1.65Z"/><g style="opacity:0.48"><polygon points="395.59 284.8 400.98 284.24 400.98 288.11 395.59 284.8"/><path d="M401,288.61a.48.48,0,0,1-.26-.07l-5.39-3.32a.5.5,0,0,1,.21-.92l5.39-.56a.56.56,0,0,1,.39.13.51.51,0,0,1,.16.37v3.87a.52.52,0,0,1-.25.44A.54.54,0,0,1,401,288.61Zm-3.87-3.47,3.37,2.08v-2.43Z"/></g><rect x="548.64" y="265.7" width="5.39" height="84.85" rx="2.15" style="fill:#817ffe"/><path d="M551.88,351.06h-1.09a2.66,2.66,0,0,1-2.65-2.66V267.86a2.66,2.66,0,0,1,2.65-2.66h1.09a2.66,2.66,0,0,1,2.65,2.66V348.4A2.66,2.66,0,0,1,551.88,351.06Zm-1.09-84.86a1.66,1.66,0,0,0-1.65,1.66V348.4a1.65,1.65,0,0,0,1.65,1.66h1.09a1.65,1.65,0,0,0,1.65-1.66V267.86a1.66,1.66,0,0,0-1.65-1.66Z"/><g style="opacity:0.48"><polygon points="548.64 269.92 554.03 269.36 554.03 273.23 548.64 269.92"/><path d="M554,273.73a.48.48,0,0,1-.26-.07l-5.39-3.32a.49.49,0,0,1-.23-.54.5.5,0,0,1,.44-.38l5.39-.56a.52.52,0,0,1,.38.13.5.5,0,0,1,.17.37v3.87a.51.51,0,0,1-.26.44A.5.5,0,0,1,554,273.73Zm-3.88-3.47,3.38,2.08v-2.42Z"/></g><path d="M557.86,268.53l-234.13,24c-1,.1-1.78-.87-1.85-2.16l-.3-5.34c-.07-1.3.64-2.43,1.59-2.52l234.13-24c1-.1,1.78.87,1.85,2.16l.3,5.34C559.52,267.31,558.81,268.44,557.86,268.53Z" style="fill:#817ffe"/><path d="M323.6,293.08a1.91,1.91,0,0,1-1.24-.48,3,3,0,0,1-1-2.16l-.3-5.35a2.69,2.69,0,0,1,2-3l234.13-24a1.83,1.83,0,0,1,1.42.47,3,3,0,0,1,1,2.16L560,266a2.69,2.69,0,0,1-2,3h0l-234.13,24ZM557.43,259h-.08L323.22,283c-.67.07-1.2,1-1.14,2l.29,5.34a2.07,2.07,0,0,0,.64,1.46.87.87,0,0,0,.67.23L557.8,268c.68-.07,1.21-1,1.15-2l-.29-5.34a2.07,2.07,0,0,0-.64-1.46A.92.92,0,0,0,557.43,259Zm.43,9.53h0Z"/><path d="M559,265.84l-.29-4.77a1.88,1.88,0,0,0-1.85-1.94L323.7,283a2,2,0,0,0-1.58,2.25v.17a1.5,1.5,0,0,1,.76-.31l233.17-23.88a1.88,1.88,0,0,1,1.85,1.94l.29,4.6A2.26,2.26,0,0,0,559,265.84Z" style="fill:#f3ebe9"/><g style="opacity:0.48"><polygon points="327.9 292.14 333.3 291.59 333.3 295.46 327.9 292.14"/><path d="M333.3,296a.48.48,0,0,1-.26-.07l-5.4-3.32a.5.5,0,0,1-.22-.54.49.49,0,0,1,.43-.38l5.4-.56a.51.51,0,0,1,.55.5v3.87a.51.51,0,0,1-.26.44A.5.5,0,0,1,333.3,296Zm-3.88-3.47,3.38,2.08v-2.43Z"/></g><path d="M526.82,140.11a6.1,6.1,0,0,1,6.27,6.27,6,6,0,0,1-6.27,6.13,6,6,0,0,1-6.14-6.13A6,6,0,0,1,526.82,140.11Zm-3.07-4-2.13-29.62h10.53L530,136.11Z"/><rect x="348.13" y="349.01" width="200.05" height="6.55" style="fill:#3c2c5b"/></g></g></svg>